<svg width="582" height="570" viewBox="0 0 582 570" fill="none" xmlns="http://www.w3.org/2000/svg">
<path d="M327.197 290.096L326.85 289.572L387.508 254.288H387.681L450.251 288.873L449.904 289.223L387.508 254.812L327.197 290.096Z" fill="#40F3EB"/>
<g opacity="0.1">
<g opacity="0.1">
<path opacity="0.1" d="M264.628 458.48L238.383 443.284V473.677L264.628 488.873L290.872 473.677V443.284L264.628 458.48Z" fill="#40F3EB"/>
<path opacity="0.1" d="M264.628 488.873L238.383 473.677V443.284L264.628 458.48V488.873Z" fill="#40F3EB"/>
<path opacity="0.1" d="M290.872 473.677L264.627 488.873V458.48L290.872 443.284V473.677Z" fill="#A9FFFB"/>
<path opacity="0.1" d="M264.628 458.48L238.383 443.284L264.628 428.087L290.872 443.284L264.628 458.48Z" fill="#40F3EB"/>
<path opacity="0.1" d="M264.628 458.48L239.6 443.808L238.383 444.506L264.628 459.703L290.872 444.506L289.656 443.808L264.628 458.48Z" fill="white"/>
</g>
<g opacity="0.1">
<path opacity="0.1" d="M298.694 477.869L272.45 462.672V493.065L298.694 508.262L324.765 493.065V462.672L298.694 477.869Z" fill="#40F3EB"/>
<path opacity="0.1" d="M298.694 508.262L272.45 493.065V462.672L298.694 477.869V508.262Z" fill="#40F3EB"/>
<path opacity="0.1" d="M324.765 493.065L298.694 508.262V477.869L324.765 462.672V493.065Z" fill="#A9FFFB"/>
<path opacity="0.1" d="M298.694 477.869L272.45 462.673L298.694 447.476L324.765 462.673L298.694 477.869Z" fill="#40F3EB"/>
<path opacity="0.1" d="M298.694 477.869L273.666 463.371L272.45 464.07L298.694 479.266L324.765 464.07L323.722 463.371L298.694 477.869Z" fill="white"/>
</g>
<g opacity="0.1">
<path opacity="0.1" d="M332.586 497.432L306.515 482.236V512.629L332.586 527.825L358.83 512.629V482.236L332.586 497.432Z" fill="#40F3EB"/>
<path opacity="0.1" d="M332.586 527.825L306.515 512.629V482.236L332.586 497.432V527.825Z" fill="#40F3EB"/>
<path opacity="0.1" d="M358.83 512.629L332.585 527.825V497.432L358.83 482.236V512.629Z" fill="#A9FFFB"/>
<path opacity="0.1" d="M332.586 497.432L306.515 482.236L332.586 467.039L358.83 482.236L332.586 497.432Z" fill="#40F3EB"/>
<path opacity="0.1" d="M332.586 497.432L307.558 482.934L306.515 483.458L332.586 498.655L358.83 483.633V482.236L332.586 497.432Z" fill="white"/>
</g>
<g opacity="0.1">
<path opacity="0.1" d="M230.561 479.266L204.491 464.07V494.463L230.561 509.659L256.806 494.463V464.07L230.561 479.266Z" fill="#40F3EB"/>
<path opacity="0.1" d="M230.561 509.659L204.491 494.463V464.07L230.561 479.266V509.659Z" fill="#40F3EB"/>
<path opacity="0.1" d="M256.806 494.463L230.561 509.659V479.266L256.806 464.07V494.463Z" fill="#A9FFFB"/>
<path opacity="0.1" d="M230.561 479.266L204.491 464.07L230.561 448.873L256.806 464.07L230.561 479.266Z" fill="#40F3EB"/>
<path opacity="0.1" d="M230.561 479.266L205.534 464.769L204.491 465.293L230.561 480.489L256.806 465.293L255.589 464.769L230.561 479.266Z" fill="white"/>
</g>
<g opacity="0.1">
<path opacity="0.1" d="M264.628 498.655L238.383 483.633V513.852L264.628 529.048L290.872 513.852V483.633L264.628 498.655Z" fill="#40F3EB"/>
<path opacity="0.1" d="M264.628 529.048L238.383 513.852V483.633L264.628 498.655V529.048Z" fill="#40F3EB"/>
<path opacity="0.1" d="M290.872 513.852L264.627 529.048V498.655L290.872 483.633V513.852Z" fill="#A9FFFB"/>
<path opacity="0.1" d="M264.628 498.655L238.383 483.633L264.628 468.437L290.872 483.633L264.628 498.655Z" fill="#40F3EB"/>
<path opacity="0.1" d="M264.628 498.655L239.6 484.157L238.383 484.856L264.628 500.053L290.872 484.856L289.656 484.157L264.628 498.655Z" fill="white"/>
</g>
<g opacity="0.1">
<path opacity="0.1" d="M298.694 518.218L272.45 503.022V533.415L298.694 548.611L324.765 533.415V503.022L298.694 518.218Z" fill="#40F3EB"/>
<path opacity="0.1" d="M298.694 548.611L272.45 533.415V503.022L298.694 518.218V548.611Z" fill="#40F3EB"/>
<path opacity="0.1" d="M324.765 533.415L298.694 548.611V518.218L324.765 503.022V533.415Z" fill="#A9FFFB"/>
<path opacity="0.1" d="M298.694 518.218L272.45 503.022L298.694 487.825L324.765 503.022L298.694 518.218Z" fill="#40F3EB"/>
<path opacity="0.1" d="M298.694 518.218L273.666 503.72L272.45 504.419L298.694 519.616L324.765 504.419V503.022L298.694 518.218Z" fill="white"/>
</g>
<g opacity="0.1">
<path opacity="0.1" d="M196.67 500.052L170.426 484.856V515.249L196.67 530.445L222.741 515.249V484.856L196.67 500.052Z" fill="#40F3EB"/>
<path opacity="0.1" d="M196.67 530.445L170.426 515.249V484.856L196.67 500.052V530.445Z" fill="#40F3EB"/>
<path opacity="0.1" d="M222.741 515.249L196.67 530.445V500.052L222.741 484.856V515.249Z" fill="#A9FFFB"/>
<path opacity="0.1" d="M196.67 500.052L170.426 484.856L196.67 469.659L222.741 484.856L196.67 500.052Z" fill="#40F3EB"/>
<path opacity="0.1" d="M196.67 500.052L170.426 484.856V486.253L196.67 501.45L222.741 486.253L221.698 485.555L196.67 500.052Z" fill="white"/>
</g>
<g opacity="0.1">
<path opacity="0.1" d="M230.561 519.616L204.491 504.419V534.812L230.561 550.009L256.806 534.812V504.419L230.561 519.616Z" fill="#40F3EB"/>
<path opacity="0.1" d="M230.561 550.009L204.491 534.812V504.419L230.561 519.616V550.009Z" fill="#40F3EB"/>
<path opacity="0.1" d="M256.806 534.812L230.561 550.009V519.616L256.806 504.419V534.812Z" fill="#A9FFFB"/>
<path opacity="0.1" d="M230.561 519.616L204.491 504.419L230.561 489.223L256.806 504.419L230.561 519.616Z" fill="#40F3EB"/>
<path opacity="0.1" d="M230.561 519.616L204.491 504.419V505.642L230.561 520.838L256.806 505.642L255.589 504.943L230.561 519.616Z" fill="white"/>
</g>
<g opacity="0.1">
<path opacity="0.1" d="M264.628 539.004L238.383 523.808V554.201L264.628 569.397L290.872 554.201V523.808L264.628 539.004Z" fill="#40F3EB"/>
<path opacity="0.1" d="M264.628 569.397L238.383 554.201V523.808L264.628 539.004V569.397Z" fill="#40F3EB"/>
<path opacity="0.1" d="M290.872 554.201L264.627 569.397V539.004L290.872 523.808V554.201Z" fill="#A9FFFB"/>
<path opacity="0.1" d="M264.628 539.004L238.383 523.808L264.628 508.611L290.872 523.808L264.628 539.004Z" fill="#40F3EB"/>
<path opacity="0.1" d="M264.628 539.004L238.383 523.808V525.205L264.628 540.402L290.872 525.205V523.808L264.628 539.004Z" fill="white"/>
</g>
<g opacity="0.1">
<path opacity="0.1" d="M264.628 418.131L238.383 402.935V433.328L264.628 448.524L290.872 433.328V402.935L264.628 418.131Z" fill="#40F3EB"/>
<path opacity="0.1" d="M264.628 448.524L238.383 433.328V402.935L264.628 418.131V448.524Z" fill="#40F3EB"/>
<path opacity="0.1" d="M290.872 433.328L264.627 448.524V418.131L290.872 402.935V433.328Z" fill="#A9FFFB"/>
<path opacity="0.1" d="M264.628 418.131L238.383 402.935L264.628 387.738L290.872 402.935L264.628 418.131Z" fill="#40F3EB"/>
<path opacity="0.1" d="M264.628 418.131L239.6 403.458L238.383 404.157L264.628 419.354L290.872 404.157L289.656 403.458L264.628 418.131Z" fill="white"/>
</g>
<g opacity="0.1">
<path opacity="0.7" d="M264.628 534.114L246.726 523.808L264.628 513.328L282.53 523.808L264.628 534.114Z" fill="#0BC6D2"/>
<path opacity="0.7" d="M230.561 514.55L212.833 504.245L230.561 493.939L248.463 504.245L230.561 514.55Z" fill="#0BC6D2"/>
<path opacity="0.7" d="M298.694 513.328L280.792 502.847L298.694 492.542L316.596 502.847L298.694 513.328Z" fill="#0BC6D2"/>
<path opacity="0.7" d="M332.759 492.716L314.857 482.411L332.759 471.93L350.661 482.411L332.759 492.716Z" fill="#0BC6D2"/>
<path opacity="0.7" d="M196.67 495.162L178.768 484.681L196.67 474.375L214.398 484.681L196.67 495.162Z" fill="#0BC6D2"/>
</g>
<g opacity="0.1">
<path opacity="0.1" d="M298.694 437.52L272.45 422.323V452.716L298.694 467.913L324.765 452.716V422.323L298.694 437.52Z" fill="#40F3EB"/>
<path opacity="0.1" d="M298.694 467.913L272.45 452.716V422.323L298.694 437.52V467.913Z" fill="#40F3EB"/>
<path opacity="0.1" d="M324.765 452.716L298.694 467.913V437.52L324.765 422.323V452.716Z" fill="#A9FFFB"/>
<path opacity="0.1" d="M298.694 437.52L272.45 422.323L298.694 407.127L324.765 422.323L298.694 437.52Z" fill="#40F3EB"/>
<path opacity="0.1" d="M298.694 437.52L273.666 423.022L272.45 423.72L298.694 438.917L324.765 423.72L323.722 423.022L298.694 437.52Z" fill="white"/>
</g>
<g opacity="0.1">
<path opacity="0.1" d="M332.586 457.083L306.515 441.886V472.279L332.586 487.476L358.83 472.279V441.886L332.586 457.083Z" fill="#40F3EB"/>
<path opacity="0.1" d="M332.586 487.476L306.515 472.279V441.886L332.586 457.083V487.476Z" fill="#40F3EB"/>
<path opacity="0.1" d="M358.83 472.279L332.585 487.476V457.083L358.83 441.886V472.279Z" fill="#A9FFFB"/>
<path opacity="0.1" d="M332.586 457.083L306.515 441.886L332.586 426.69L358.83 441.886L332.586 457.083Z" fill="#40F3EB"/>
<path opacity="0.1" d="M332.586 457.083L307.558 442.585L306.515 443.284L332.586 458.48L358.83 443.284V441.886L332.586 457.083Z" fill="white"/>
</g>
<g opacity="0.1">
<path opacity="0.1" d="M230.561 438.917L204.491 423.72V454.113L230.561 469.31L256.806 454.113V423.72L230.561 438.917Z" fill="#40F3EB"/>
<path opacity="0.1" d="M230.561 469.31L204.491 454.113V423.72L230.561 438.917V469.31Z" fill="#40F3EB"/>
<path opacity="0.1" d="M256.806 454.113L230.561 469.31V438.917L256.806 423.72V454.113Z" fill="#A9FFFB"/>
<path opacity="0.1" d="M230.561 438.917L204.491 423.72L230.561 408.524L256.806 423.72L230.561 438.917Z" fill="#40F3EB"/>
<path opacity="0.1" d="M230.561 438.917L205.534 424.419L204.491 424.943L230.561 440.14L256.806 424.943L255.589 424.419L230.561 438.917Z" fill="white"/>
</g>
<g opacity="0.1">
<path opacity="0.1" d="M264.628 458.48L238.383 443.284V473.677L264.628 488.873L290.872 473.677V443.284L264.628 458.48Z" fill="#40F3EB"/>
<path opacity="0.1" d="M264.628 488.873L238.383 473.677V443.284L264.628 458.48V488.873Z" fill="#40F3EB"/>
<path opacity="0.1" d="M290.872 473.677L264.627 488.873V458.48L290.872 443.284V473.677Z" fill="#A9FFFB"/>
<path opacity="0.1" d="M264.628 458.48L238.383 443.284L264.628 428.087L290.872 443.284L264.628 458.48Z" fill="#40F3EB"/>
<path opacity="0.1" d="M264.628 458.48L239.6 443.808L238.383 444.506L264.628 459.703L290.872 444.506L289.656 443.808L264.628 458.48Z" fill="white"/>
</g>
<g opacity="0.1">
<path opacity="0.1" d="M298.694 477.869L272.45 462.672V493.065L298.694 508.262L324.765 493.065V462.672L298.694 477.869Z" fill="#40F3EB"/>
<path opacity="0.1" d="M298.694 508.262L272.45 493.065V462.672L298.694 477.869V508.262Z" fill="#40F3EB"/>
<path opacity="0.1" d="M324.765 493.065L298.694 508.262V477.869L324.765 462.672V493.065Z" fill="#A9FFFB"/>
<path opacity="0.1" d="M298.694 477.869L272.45 462.673L298.694 447.476L324.765 462.673L298.694 477.869Z" fill="#40F3EB"/>
<path opacity="0.1" d="M298.694 477.869L273.666 463.371L272.45 464.07L298.694 479.266L324.765 464.07V462.672L298.694 477.869Z" fill="white"/>
</g>
<g opacity="0.1">
<path opacity="0.1" d="M196.67 459.703L170.426 444.507V474.9L196.67 490.096L222.741 474.9V444.507L196.67 459.703Z" fill="#40F3EB"/>
<path opacity="0.1" d="M196.67 490.096L170.426 474.9V444.507L196.67 459.703V490.096Z" fill="#40F3EB"/>
<path opacity="0.1" d="M222.741 474.9L196.67 490.096V459.703L222.741 444.507V474.9Z" fill="#A9FFFB"/>
<path opacity="0.1" d="M196.67 459.703L170.426 444.507L196.67 429.31L222.741 444.507L196.67 459.703Z" fill="#40F3EB"/>
<path opacity="0.1" d="M196.67 459.703L171.469 445.205L170.426 445.904L196.67 461.101L222.741 445.904L221.698 445.205L196.67 459.703Z" fill="white"/>
</g>
<g opacity="0.1">
<path opacity="0.1" d="M230.561 479.266L204.491 464.07V494.463L230.561 509.659L256.806 494.463V464.07L230.561 479.266Z" fill="#40F3EB"/>
<path opacity="0.1" d="M230.561 509.659L204.491 494.463V464.07L230.561 479.266V509.659Z" fill="#40F3EB"/>
<path opacity="0.1" d="M256.806 494.463L230.561 509.659V479.266L256.806 464.07V494.463Z" fill="#A9FFFB"/>
<path opacity="0.1" d="M230.561 479.266L204.491 464.07L230.561 448.873L256.806 464.07L230.561 479.266Z" fill="#40F3EB"/>
<path opacity="0.1" d="M230.561 479.266L204.491 464.07V465.293L230.561 480.489L256.806 465.293L255.589 464.769L230.561 479.266Z" fill="white"/>
</g>
<g opacity="0.1">
<path opacity="0.1" d="M264.628 498.655L238.383 483.633V513.852L264.628 529.048L290.872 513.852V483.633L264.628 498.655Z" fill="#40F3EB"/>
<path opacity="0.1" d="M264.628 529.048L238.383 513.852V483.633L264.628 498.655V529.048Z" fill="#40F3EB"/>
<path opacity="0.1" d="M290.872 513.852L264.627 529.048V498.655L290.872 483.633V513.852Z" fill="#A9FFFB"/>
<path opacity="0.1" d="M264.628 498.655L238.383 483.633L264.628 468.437L290.872 483.633L264.628 498.655Z" fill="#40F3EB"/>
<path opacity="0.1" d="M264.628 498.655L238.383 483.633V484.856L264.628 500.053L290.872 484.856V483.633L264.628 498.655Z" fill="white"/>
</g>
<g opacity="0.1">
<path opacity="0.7" d="M332.759 452.541L314.857 442.236L332.759 431.755L350.661 442.236L332.759 452.541Z" fill="#0BC6D2"/>
<path opacity="0.7" d="M196.67 454.987L178.768 444.507L196.67 434.201L214.398 444.507L196.67 454.987Z" fill="#0BC6D2"/>
</g>
<g opacity="0.1">
<path opacity="0.1" d="M264.628 377.782L238.383 362.585V392.978L264.628 408.175L290.872 392.978V362.585L264.628 377.782Z" fill="#40F3EB"/>
<path opacity="0.1" d="M264.628 408.175L238.383 392.978V362.585L264.628 377.782V408.175Z" fill="#40F3EB"/>
<path opacity="0.1" d="M290.872 392.978L264.627 408.175V377.782L290.872 362.585V392.978Z" fill="#A9FFFB"/>
<path opacity="0.1" d="M264.628 377.782L238.383 362.585L264.628 347.389L290.872 362.585L264.628 377.782Z" fill="#40F3EB"/>
<path opacity="0.1" d="M264.628 377.782L238.383 362.585V363.808L264.628 379.004L290.872 363.808V362.585L264.628 377.782Z" fill="white"/>
</g>
<g opacity="0.1">
<path opacity="0.1" d="M298.694 397.17L272.45 382.148V412.367L298.694 427.563L324.765 412.367V382.148L298.694 397.17Z" fill="#40F3EB"/>
<path opacity="0.1" d="M298.694 427.563L272.45 412.367V382.148L298.694 397.17V427.563Z" fill="#40F3EB"/>
<path opacity="0.1" d="M324.765 412.367L298.694 427.563V397.17L324.765 382.148V412.367Z" fill="#A9FFFB"/>
<path opacity="0.1" d="M298.694 397.17L272.45 382.148L298.694 366.952L324.765 382.148L298.694 397.17Z" fill="#40F3EB"/>
<path opacity="0.1" d="M298.694 397.17L272.45 382.148V383.371L298.694 398.568L324.765 383.371V382.148L298.694 397.17Z" fill="white"/>
</g>
<g opacity="0.1">
<path opacity="0.1" d="M332.586 416.734L306.515 401.537V431.93L332.586 447.127L358.83 431.93V401.537L332.586 416.734Z" fill="#40F3EB"/>
<path opacity="0.1" d="M332.586 447.127L306.515 431.93V401.537L332.586 416.734V447.127Z" fill="#40F3EB"/>
<path opacity="0.1" d="M358.83 431.93L332.585 447.127V416.734L358.83 401.537V431.93Z" fill="#A9FFFB"/>
<path opacity="0.1" d="M332.586 416.734L306.515 401.537L332.586 386.341L358.83 401.537L332.586 416.734Z" fill="#40F3EB"/>
<path opacity="0.1" d="M332.586 416.734L306.515 401.537V402.934L332.586 418.131L358.83 402.934V401.537L332.586 416.734Z" fill="white"/>
</g>
<g opacity="0.1">
<path opacity="0.1" d="M230.561 398.568L204.491 383.371V413.764L230.561 428.961L256.806 413.764V383.371L230.561 398.568Z" fill="#40F3EB"/>
<path opacity="0.1" d="M230.561 428.961L204.491 413.764V383.371L230.561 398.568V428.961Z" fill="#40F3EB"/>
<path opacity="0.1" d="M256.806 413.764L230.561 428.961V398.568L256.806 383.371V413.764Z" fill="#A9FFFB"/>
<path opacity="0.1" d="M230.561 398.568L204.491 383.371L230.561 368.175L256.806 383.371L230.561 398.568Z" fill="#40F3EB"/>
<path opacity="0.1" d="M230.561 398.568L204.491 383.371V384.768L230.561 399.965L256.806 384.768V383.371L230.561 398.568Z" fill="white"/>
</g>
<g opacity="0.1">
<path opacity="0.1" d="M196.67 419.354L170.426 404.157V434.55L196.67 449.747L222.741 434.55V404.157L196.67 419.354Z" fill="#40F3EB"/>
<path opacity="0.1" d="M196.67 449.747L170.426 434.55V404.157L196.67 419.354V449.747Z" fill="#40F3EB"/>
<path opacity="0.1" d="M222.741 434.55L196.67 449.747V419.354L222.741 404.157V434.55Z" fill="#A9FFFB"/>
<path opacity="0.1" d="M196.67 419.354L170.426 404.157L196.67 388.961L222.741 404.157L196.67 419.354Z" fill="#40F3EB"/>
<path opacity="0.1" d="M196.67 419.354L170.426 404.157V405.555L196.67 420.751L222.741 405.555V404.157L196.67 419.354Z" fill="white"/>
</g>
</g>
<g opacity="0.2">
<g opacity="0.2">
<path opacity="0.2" d="M299.736 496.908L281.487 486.253C278.358 484.506 275.751 479.965 275.751 476.297V471.93C275.751 468.437 273.318 464.244 270.363 462.498L266.54 460.227L266.887 459.703L270.711 461.974C273.839 463.72 276.446 468.262 276.446 471.93V476.297C276.446 479.79 278.88 483.982 281.834 485.729L300.084 496.384L299.736 496.908Z" fill="#40F3EB"/>
<path opacity="0.2" d="M306.862 492.891L288.612 482.235C285.484 480.489 282.877 475.947 282.877 472.279V467.912C282.877 464.419 280.443 460.227 277.489 458.48L273.665 456.209L274.013 455.685L277.836 457.956C280.965 459.703 283.572 464.244 283.572 467.912V472.279C283.572 475.773 286.005 479.965 288.96 481.711L307.209 492.366L306.862 492.891Z" fill="#40F3EB"/>
<path opacity="0.2" d="M313.988 488.698L295.739 478.043C292.61 476.297 290.003 471.755 290.003 468.087V463.72C290.003 460.227 287.57 456.035 284.615 454.288L280.792 452.017L281.139 451.493L284.963 453.764C288.091 455.511 290.698 460.052 290.698 463.72V468.087C290.698 471.581 293.132 475.773 296.086 477.519L314.336 488.174L313.988 488.698Z" fill="#40F3EB"/>
<path opacity="0.2" d="M321.114 484.506L302.865 473.851C299.736 472.104 297.129 467.563 297.129 463.895V459.703C297.129 456.209 294.696 452.017 291.741 450.27L287.917 448L288.265 447.476L292.089 449.746C295.217 451.493 297.824 456.035 297.824 459.703V464.07C297.824 467.563 300.258 471.755 303.212 473.502L321.462 484.157L321.114 484.506Z" fill="#40F3EB"/>
<path opacity="0.2" d="M328.241 480.489L309.991 469.834C306.863 468.087 304.256 463.546 304.256 459.878V455.511C304.256 452.017 301.822 447.825 298.868 446.078L295.044 443.808L295.392 443.284L299.215 445.554C302.344 447.301 304.951 451.843 304.951 455.511V459.878C304.951 463.371 307.384 467.563 310.339 469.31L328.588 479.965L328.241 480.489Z" fill="#40F3EB"/>
<path opacity="0.2" d="M335.193 476.297L316.943 465.642C313.815 463.895 311.208 459.354 311.208 455.685V451.319C311.208 447.825 308.774 443.633 305.82 441.886L301.996 439.616L302.344 439.092L306.167 441.362C309.296 443.109 311.903 447.651 311.903 451.319V455.685C311.903 459.179 314.336 463.371 317.291 465.118L335.54 475.773L335.193 476.297Z" fill="#40F3EB"/>
<path opacity="0.2" d="M342.318 472.279L324.069 461.624C320.94 459.877 318.333 455.336 318.333 451.668V447.301C318.333 443.808 315.9 439.615 312.945 437.869L309.122 435.598L309.469 435.074L313.293 437.345C316.421 439.091 319.028 443.633 319.028 447.301V451.668C319.028 455.161 321.462 459.353 324.416 461.1L342.666 471.755L342.318 472.279Z" fill="#40F3EB"/>
<path opacity="0.2" d="M349.444 468.087L331.195 457.432C328.066 455.685 325.459 451.144 325.459 447.476V443.109C325.459 439.615 323.026 435.423 320.071 433.677L316.248 431.406L316.595 430.882L320.419 433.153C323.547 434.899 326.154 439.441 326.154 443.109V447.476C326.154 450.969 328.588 455.161 331.542 456.908L349.792 467.563L349.444 468.087Z" fill="#40F3EB"/>
<path opacity="0.2" d="M356.571 464.07L338.321 453.415C335.193 451.668 332.586 447.126 332.586 443.458V439.092C332.586 435.598 330.152 431.406 327.198 429.659L323.374 427.389L323.722 426.865L327.545 429.135C330.674 430.882 333.281 435.423 333.281 439.092V443.458C333.281 446.952 335.714 451.144 338.669 452.891L356.918 463.546L356.571 464.07Z" fill="#40F3EB"/>
<path opacity="0.2" d="M363.696 459.877L345.447 449.222C342.318 447.476 339.711 442.934 339.711 439.266V434.899C339.711 431.406 337.278 427.214 334.323 425.467L330.5 423.196L330.847 422.672L334.671 424.943C337.799 426.69 340.406 431.231 340.406 434.899V439.266C340.406 442.759 342.84 446.952 345.794 448.698L364.044 459.353L363.696 459.877Z" fill="#40F3EB"/>
<path opacity="0.2" d="M370.823 455.86L352.573 445.205C349.445 443.458 346.838 438.917 346.838 435.249V430.882C346.838 427.388 344.404 423.196 341.45 421.45L337.626 419.179L337.974 418.655L341.797 420.926C344.926 422.672 347.533 427.214 347.533 430.882V435.249C347.533 438.742 349.966 442.934 352.921 444.681L371.17 455.336L370.823 455.86Z" fill="#40F3EB"/>
<path opacity="0.2" d="M377.949 451.668L359.699 441.013C356.571 439.266 353.964 434.725 353.964 431.057V426.69C353.964 423.196 351.53 419.004 348.576 417.257L344.752 414.987L345.1 414.463L348.923 416.733C352.052 418.48 354.659 423.022 354.659 426.69V431.057C354.659 434.55 357.092 438.742 360.047 440.489L378.296 451.144L377.949 451.668Z" fill="#40F3EB"/>
<path opacity="0.2" d="M385.074 447.476L366.825 436.821C363.696 435.074 361.089 430.533 361.089 426.864V422.498C361.089 419.004 358.656 414.812 355.701 413.065L351.877 410.795L352.225 410.271L356.049 412.541C359.177 414.288 361.784 418.829 361.784 422.498V426.864C361.784 430.358 364.218 434.55 367.172 436.297L385.422 446.952L385.074 447.476Z" fill="#40F3EB"/>
<path opacity="0.2" d="M392.026 443.458L373.777 432.803C370.648 431.057 368.041 426.515 368.041 422.847V418.48C368.041 414.987 365.608 410.795 362.653 409.048L358.83 406.777L359.177 406.253L363.001 408.524C366.129 410.271 368.736 414.812 368.736 418.48V422.847C368.736 426.34 371.17 430.533 374.124 432.279L392.374 442.934L392.026 443.458Z" fill="#40F3EB"/>
<path opacity="0.2" d="M399.153 439.266L380.904 428.611C377.775 426.864 375.168 422.323 375.168 418.655V414.288C375.168 410.795 372.735 406.603 369.78 404.856L365.957 402.585L366.304 402.061L370.128 404.332C373.256 406.078 375.863 410.62 375.863 414.288V418.655C375.863 422.148 378.297 426.34 381.251 428.087L399.501 438.742L399.153 439.266Z" fill="#40F3EB"/>
<path opacity="0.2" d="M406.279 435.249L388.029 424.594C384.901 422.847 382.294 418.305 382.294 414.637V410.271C382.294 406.777 379.86 402.585 376.906 400.838L373.082 398.567L373.43 398.043L377.253 400.314C380.382 402.061 382.989 406.602 382.989 410.271V414.637C382.989 418.131 385.422 422.323 388.377 424.07L406.626 434.725L406.279 435.249Z" fill="#40F3EB"/>
<path opacity="0.2" d="M413.405 431.057L395.156 420.402C392.027 418.655 389.42 414.113 389.42 410.445V406.078C389.42 402.585 386.987 398.393 384.032 396.646L380.208 394.375L380.556 393.851L384.38 396.122C387.508 397.869 390.115 402.41 390.115 406.078V410.445C390.115 413.939 392.549 418.131 395.503 419.877L413.753 430.533L413.405 431.057Z" fill="#40F3EB"/>
<path opacity="0.2" d="M420.531 427.039L402.281 416.384C399.153 414.637 396.546 410.096 396.546 406.428V402.061C396.546 398.567 394.112 394.375 391.158 392.629L387.334 390.358L387.682 389.834L391.505 392.104C394.634 393.851 397.241 398.393 397.241 402.061V406.428C397.241 409.921 399.674 414.113 402.629 415.86L420.878 426.515L420.531 427.039Z" fill="#40F3EB"/>
<path opacity="0.2" d="M427.657 422.847L409.407 412.192C406.279 410.445 403.672 405.904 403.672 402.236V397.869C403.672 394.375 401.238 390.183 398.284 388.437L394.46 386.166L394.808 385.642L398.631 387.913C401.76 389.659 404.367 394.201 404.367 397.869V402.236C404.367 405.729 406.8 409.921 409.755 411.668L428.004 422.323L427.657 422.847Z" fill="#40F3EB"/>
<path opacity="0.2" d="M434.783 418.829L416.533 408.174C413.405 406.428 410.798 401.886 410.798 398.218V393.851C410.798 390.358 408.364 386.166 405.41 384.419L401.586 382.148L401.934 381.624L405.757 383.895C408.886 385.642 411.493 390.183 411.493 393.851V398.218C411.493 401.712 413.926 405.904 416.881 407.65L435.13 418.305L434.783 418.829Z" fill="#40F3EB"/>
</g>
<g opacity="0.2">
<path opacity="0.2" d="M228.998 496.908L228.65 496.384L246.9 485.729C249.855 483.982 252.288 479.79 252.288 476.297V471.93C252.288 468.262 254.895 463.895 258.023 461.974L261.847 459.703L262.195 460.227L258.371 462.498C255.416 464.244 252.983 468.437 252.983 471.93V476.297C252.983 479.965 250.376 484.332 247.248 486.253L228.998 496.908Z" fill="#40F3EB"/>
<path opacity="0.2" d="M221.871 492.891L221.523 492.366L239.773 481.711C242.728 479.965 245.161 475.773 245.161 472.279V467.912C245.161 464.244 247.768 459.877 250.896 457.956L254.72 455.685L255.068 456.209L251.244 458.48C248.289 460.227 245.856 464.419 245.856 467.912V472.279C245.856 475.947 243.249 480.314 240.121 482.235L221.871 492.891Z" fill="#40F3EB"/>
<path opacity="0.2" d="M214.746 488.698L214.398 488.174L232.648 477.519C235.603 475.773 238.036 471.581 238.036 468.087V463.72C238.036 460.052 240.643 455.685 243.771 453.764L247.595 451.493L247.943 452.017L244.119 454.288C241.164 456.035 238.731 460.227 238.731 463.72V468.087C238.731 471.755 236.124 476.122 232.996 478.043L214.746 488.698Z" fill="#40F3EB"/>
<path opacity="0.2" d="M207.62 484.506L207.272 483.982L225.522 473.327C228.477 471.58 230.91 467.388 230.91 463.895V459.703C230.91 456.035 233.517 451.668 236.645 449.746L240.469 447.476L240.817 448L236.993 450.27C234.038 452.017 231.605 456.209 231.605 459.703V464.07C231.605 467.738 228.998 472.104 225.87 474.026L207.62 484.506Z" fill="#40F3EB"/>
<path opacity="0.2" d="M200.668 480.489L200.32 479.965L218.57 469.31C221.525 467.563 223.958 463.371 223.958 459.878V455.511C223.958 451.843 226.565 447.476 229.693 445.554L233.517 443.284L233.865 443.808L230.041 446.078C227.086 447.825 224.653 452.017 224.653 455.511V459.878C224.653 463.546 222.046 467.913 218.917 469.834L200.668 480.489Z" fill="#40F3EB"/>
<path opacity="0.2" d="M193.541 476.297L193.193 475.773L211.443 465.118C214.398 463.371 216.831 459.179 216.831 455.685V451.319C216.831 447.651 219.438 443.284 222.566 441.362L226.39 439.092L226.738 439.616L222.914 441.886C219.959 443.633 217.526 447.825 217.526 451.319V455.685C217.526 459.354 214.919 463.72 211.791 465.642L193.541 476.297Z" fill="#40F3EB"/>
<path opacity="0.2" d="M186.415 472.279L186.068 471.755L204.317 461.1C207.272 459.353 209.705 455.161 209.705 451.668V447.301C209.705 443.633 212.312 439.266 215.441 437.345L219.265 435.074L219.612 435.598L215.789 437.869C212.834 439.615 210.401 443.808 210.401 447.301V451.668C210.401 455.336 207.794 459.703 204.665 461.624L186.415 472.279Z" fill="#40F3EB"/>
<path opacity="0.2" d="M179.289 468.087L178.942 467.563L197.191 456.908C200.146 455.161 202.579 450.969 202.579 447.476V443.109C202.579 439.441 205.186 435.074 208.315 433.153L212.139 430.882L212.486 431.406L208.663 433.677C205.708 435.423 203.275 439.615 203.275 443.109V447.476C203.275 451.144 200.668 455.511 197.539 457.432L179.289 468.087Z" fill="#40F3EB"/>
<path opacity="0.2" d="M172.164 464.07L171.816 463.546L190.065 452.891C193.02 451.144 195.453 446.952 195.453 443.458V439.092C195.453 435.423 198.06 431.057 201.189 429.135L205.013 426.865L205.36 427.389L201.537 429.659C198.582 431.406 196.149 435.598 196.149 439.092V443.458C196.149 447.126 193.542 451.493 190.413 453.415L172.164 464.07Z" fill="#40F3EB"/>
<path opacity="0.2" d="M165.038 459.877L164.69 459.353L182.94 448.698C185.894 446.952 188.327 442.759 188.327 439.266V434.899C188.327 431.231 190.935 426.864 194.063 424.943L197.887 422.672L198.234 423.196L194.411 425.467C191.456 427.214 189.023 431.406 189.023 434.899V439.266C189.023 442.934 186.416 447.301 183.287 449.222L165.038 459.877Z" fill="#40F3EB"/>
<path opacity="0.2" d="M157.911 455.86L157.563 455.336L175.813 444.681C178.768 442.934 181.201 438.742 181.201 435.249V430.882C181.201 427.214 183.808 422.847 186.937 420.926L190.76 418.655L191.108 419.179L187.284 421.45C184.33 423.196 181.896 427.388 181.896 430.882V435.249C181.896 438.917 179.289 443.284 176.161 445.205L157.911 455.86Z" fill="#40F3EB"/>
<path opacity="0.2" d="M150.786 451.668L150.438 451.144L168.688 440.489C171.642 438.742 174.075 434.55 174.075 431.057V426.69C174.075 423.022 176.683 418.655 179.811 416.733L183.635 414.463L183.982 414.987L180.159 417.257C177.204 419.004 174.771 423.196 174.771 426.69V431.057C174.771 434.725 172.164 439.091 169.035 441.013L150.786 451.668Z" fill="#40F3EB"/>
<path opacity="0.2" d="M143.833 447.476L143.486 446.952L161.735 436.297C164.69 434.55 167.123 430.358 167.123 426.864V422.498C167.123 418.829 169.73 414.463 172.859 412.541L176.683 410.271L177.03 410.795L173.207 413.065C170.252 414.812 167.819 419.004 167.819 422.498V426.864C167.819 430.533 165.212 434.899 162.083 436.821L143.833 447.476Z" fill="#40F3EB"/>
<path opacity="0.2" d="M136.707 443.458L136.359 442.934L154.609 432.279C157.564 430.533 159.997 426.34 159.997 422.847V418.48C159.997 414.812 162.604 410.445 165.732 408.524L169.556 406.253L169.904 406.777L166.08 409.048C163.125 410.795 160.692 414.987 160.692 418.48V422.847C160.692 426.515 158.085 430.882 154.957 432.803L136.707 443.458Z" fill="#40F3EB"/>
<path opacity="0.2" d="M129.581 439.266L129.233 438.742L147.483 428.087C150.438 426.34 152.871 422.148 152.871 418.655V414.288C152.871 410.62 155.478 406.253 158.606 404.332L162.43 402.061L162.778 402.585L158.954 404.856C155.999 406.603 153.566 410.795 153.566 414.288V418.655C153.566 422.323 150.959 426.69 147.831 428.611L129.581 439.266Z" fill="#40F3EB"/>
<path opacity="0.2" d="M122.456 435.249L122.108 434.725L140.357 424.07C143.312 422.323 145.745 418.131 145.745 414.637V410.271C145.745 406.602 148.352 402.236 151.481 400.314L155.305 398.043L155.652 398.567L151.829 400.838C148.874 402.585 146.441 406.777 146.441 410.271V414.637C146.441 418.305 143.834 422.672 140.705 424.594L122.456 435.249Z" fill="#40F3EB"/>
<path opacity="0.2" d="M115.329 431.057L114.981 430.533L133.231 419.877C136.185 418.131 138.618 413.939 138.618 410.445V406.078C138.618 402.41 141.226 398.043 144.354 396.122L148.178 393.851L148.525 394.375L144.702 396.646C141.747 398.393 139.314 402.585 139.314 406.078V410.445C139.314 414.113 136.707 418.48 133.578 420.402L115.329 431.057Z" fill="#40F3EB"/>
<path opacity="0.2" d="M108.203 427.039L107.855 426.515L126.105 415.86C129.06 414.113 131.493 409.921 131.493 406.428V402.061C131.493 398.393 134.1 394.026 137.229 392.104L141.052 389.834L141.4 390.358L137.576 392.629C134.621 394.375 132.188 398.567 132.188 402.061V406.428C132.188 410.096 129.581 414.463 126.453 416.384L108.203 427.039Z" fill="#40F3EB"/>
<path opacity="0.2" d="M101.077 422.847L100.729 422.323L118.979 411.668C121.933 409.921 124.366 405.729 124.366 402.236V397.869C124.366 394.201 126.974 389.834 130.102 387.913L133.926 385.642L134.273 386.166L130.45 388.437C127.495 390.183 125.062 394.375 125.062 397.869V402.236C125.062 405.904 122.455 410.271 119.326 412.192L101.077 422.847Z" fill="#40F3EB"/>
<path opacity="0.2" d="M93.9511 418.829L93.6035 418.305L111.853 407.65C114.808 405.904 117.241 401.712 117.241 398.218V393.851C117.241 390.183 119.848 385.816 122.977 383.895L126.8 381.624L127.148 382.148L123.324 384.419C120.369 386.166 117.936 390.358 117.936 393.851V398.218C117.936 401.886 115.329 406.253 112.201 408.174L93.9511 418.829Z" fill="#40F3EB"/>
</g>
<g opacity="0.2">
<g opacity="0.2">
<path opacity="0.2" d="M405.062 388.786V405.03L264.627 486.428L124.193 405.03V388.786H405.062Z" fill="#232DAD"/>
<path opacity="0.2" d="M264.627 470.183L124.193 388.786L264.627 307.214L405.062 388.786L264.627 470.183Z" fill="#BCBEFF"/>
<path opacity="0.2" d="M264.627 468.262L125.931 387.738L124.193 388.786L264.627 470.183L405.062 388.786L403.324 387.738L264.627 468.262Z" fill="white"/>
</g>
</g>
</g>
<path d="M250.028 283.983C249.159 283.983 248.29 283.633 247.421 283.109L229.172 272.454L229.519 271.93L247.769 282.585C249.159 283.459 250.376 283.459 251.419 282.935C252.462 282.411 252.983 281.188 252.983 279.616V275.249C252.983 273.502 253.678 272.105 254.721 271.406C255.938 270.708 257.328 270.882 258.893 271.756L262.716 274.026L262.369 274.55L258.545 272.28C257.154 271.406 255.938 271.406 254.895 271.93C253.852 272.454 253.331 273.677 253.331 275.249V279.79C253.331 281.537 252.636 282.935 251.593 283.633C251.071 283.808 250.55 283.983 250.028 283.983Z" fill="#40F3EB"/>
<path d="M242.902 288.175C242.033 288.175 241.164 287.825 240.295 287.301L222.045 276.646L222.393 276.122L240.643 286.777C242.033 287.651 243.25 287.651 244.292 287.127C245.335 286.603 245.857 285.38 245.857 283.808V279.441C245.857 277.694 246.552 276.297 247.595 275.598C248.811 274.9 250.202 275.074 251.766 275.948L255.59 278.218L255.242 278.742L251.418 276.472C250.028 275.598 248.811 275.598 247.769 276.122C246.726 276.646 246.204 277.869 246.204 279.441V283.808C246.204 285.555 245.509 286.952 244.466 287.651C243.945 288 243.423 288.175 242.902 288.175Z" fill="#40F3EB"/>
<path d="M235.777 292.192C234.907 292.192 234.038 291.843 233.169 291.319L214.92 280.664L215.268 280.14L233.517 290.795C234.907 291.668 236.124 291.668 237.167 291.144C238.21 290.62 238.731 289.397 238.731 287.825V283.458C238.731 281.712 239.426 280.314 240.469 279.616C241.686 278.917 243.076 279.092 244.641 279.965L248.464 282.236L248.117 282.76L244.293 280.489C242.903 279.616 241.686 279.616 240.643 280.14C239.6 280.664 239.079 281.886 239.079 283.458V287.825C239.079 289.572 238.384 290.969 237.341 291.668C236.993 292.017 236.298 292.192 235.777 292.192Z" fill="#40F3EB"/>
<path d="M228.651 296.384C227.782 296.384 226.913 296.035 226.044 295.511L207.794 284.856L208.142 284.332L226.392 294.987C227.782 295.86 228.999 295.86 230.042 295.336C231.084 294.812 231.606 293.59 231.606 292.017V287.651C231.606 285.904 232.301 284.507 233.344 283.808C234.56 283.109 235.951 283.284 237.515 284.157L241.339 286.428L240.991 286.952L237.168 284.681C235.777 283.808 234.56 283.808 233.518 284.332C232.475 284.856 231.953 286.079 231.953 287.651V292.017C231.953 293.764 231.258 295.162 230.215 295.86C229.868 296.21 229.346 296.384 228.651 296.384Z" fill="#40F3EB"/>
<path d="M221.525 300.402C220.656 300.402 219.787 300.052 218.918 299.528L200.668 289.048L201.016 288.524L219.265 299.179C220.656 300.052 221.872 300.052 222.915 299.528C223.958 299.004 224.479 297.782 224.479 296.21V291.843C224.479 290.096 225.175 288.699 226.217 288C227.434 287.301 228.824 287.476 230.389 288.349L234.212 290.62L233.865 291.144L230.041 288.873C228.651 288 227.434 288 226.391 288.524C225.348 289.048 224.827 290.271 224.827 291.843V296.21C224.827 297.956 224.132 299.354 223.089 300.052C222.741 300.227 222.22 300.402 221.525 300.402Z" fill="#40F3EB"/>
<path d="M214.399 304.594C213.53 304.594 212.661 304.245 211.792 303.721L193.542 293.066L193.89 292.542L212.14 303.197C213.53 304.07 214.747 304.07 215.79 303.546C216.832 303.022 217.354 301.799 217.354 300.227V295.86C217.354 294.114 218.049 292.716 219.092 292.018C220.308 291.319 221.699 291.494 223.263 292.367L227.087 294.638L226.739 295.162L222.916 292.891C221.525 292.018 220.308 292.018 219.266 292.542C218.223 293.066 217.701 294.288 217.701 295.86V300.227C217.701 301.974 217.006 303.371 215.963 304.07C215.616 304.419 215.094 304.594 214.399 304.594Z" fill="#40F3EB"/>
<path d="M207.446 308.611C206.577 308.611 205.708 308.262 204.839 307.738L186.416 297.258L186.763 296.734L205.013 307.389C206.403 308.262 207.62 308.262 208.663 307.738C209.705 307.214 210.227 305.991 210.227 304.419V300.052C210.227 298.306 210.922 296.908 211.965 296.21C213.181 295.511 214.572 295.686 216.136 296.559L219.96 298.83L219.612 299.354L215.789 297.083C214.398 296.21 213.181 296.21 212.139 296.734C211.096 297.258 210.574 298.48 210.574 300.052V304.419C210.574 306.166 209.879 307.563 208.836 308.262C208.489 308.437 207.967 308.611 207.446 308.611Z" fill="#40F3EB"/>
<path d="M200.32 312.804C199.451 312.804 198.582 312.454 197.713 311.93L179.464 301.275L179.811 300.751L198.061 311.406C199.451 312.28 200.668 312.28 201.711 311.756C202.754 311.232 203.275 310.009 203.275 308.437V304.07C203.275 302.323 203.97 300.926 205.013 300.227C206.23 299.529 207.62 299.703 209.185 300.577L213.008 302.847L212.661 303.371L208.837 301.101C207.446 300.227 206.23 300.227 205.187 300.751C204.144 301.275 203.623 302.498 203.623 304.07V308.437C203.623 310.184 202.928 311.581 201.885 312.28C201.363 312.629 200.842 312.804 200.32 312.804Z" fill="#40F3EB"/>
<path d="M193.194 316.821C192.325 316.821 191.456 316.472 190.587 315.948L172.338 305.293L172.686 304.769L190.935 315.424C192.325 316.297 193.542 316.297 194.585 315.773C195.628 315.249 196.149 314.026 196.149 312.454V308.087C196.149 306.341 196.844 304.943 197.887 304.245C199.104 303.546 200.494 303.721 202.059 304.594L205.882 306.865L205.535 307.389L201.711 305.118C200.32 304.245 199.104 304.245 198.061 304.769C197.018 305.293 196.497 306.515 196.497 308.087V312.454C196.497 314.201 195.802 315.598 194.759 316.297C194.237 316.821 193.716 316.821 193.194 316.821Z" fill="#40F3EB"/>
<path d="M186.069 321.013C185.2 321.013 184.33 320.664 183.461 320.14L165.212 309.485L165.56 308.961L183.809 319.616C185.2 320.489 186.416 320.489 187.459 319.965C188.502 319.441 189.023 318.218 189.023 316.646V312.28C189.023 310.533 189.718 309.135 190.761 308.437C191.978 307.738 193.368 307.913 194.933 308.786L198.756 311.057L198.409 311.581L194.585 309.31C193.195 308.437 191.978 308.437 190.935 308.961C189.892 309.485 189.371 310.707 189.371 312.28V316.646C189.371 318.393 188.676 319.79 187.633 320.489C187.111 320.838 186.59 321.013 186.069 321.013Z" fill="#40F3EB"/>
<path d="M178.942 325.031C178.073 325.031 177.204 324.681 176.335 324.157L158.085 313.502L158.433 312.978L176.683 323.633C178.073 324.507 179.29 324.507 180.332 323.983C181.375 323.459 181.897 322.236 181.897 320.664V316.472C181.897 314.725 182.592 313.328 183.635 312.629C184.851 311.93 186.242 312.105 187.806 312.978L191.63 315.249L191.282 315.773L187.458 313.502C186.068 312.629 184.851 312.629 183.809 313.153C182.766 313.677 182.244 314.9 182.244 316.472V320.838C182.244 322.585 181.549 323.983 180.506 324.681C179.985 325.031 179.463 325.031 178.942 325.031Z" fill="#40F3EB"/>
<path d="M171.817 329.223C170.948 329.223 170.079 328.874 169.209 328.349L150.96 317.694L151.308 317.17L169.557 327.825C170.948 328.699 172.164 328.699 173.207 328.175C174.25 327.651 174.771 326.428 174.771 324.856V320.489C174.771 318.743 175.466 317.345 176.509 316.646C177.726 315.948 179.116 316.122 180.681 316.996L184.504 319.267L184.157 319.791L180.333 317.52C178.943 316.646 177.726 316.646 176.683 317.17C175.64 317.694 175.119 318.917 175.119 320.489V324.856C175.119 326.603 174.424 328 173.381 328.699C173.033 329.048 172.512 329.223 171.817 329.223Z" fill="#40F3EB"/>
<path d="M164.69 333.24C163.821 333.24 162.952 332.891 162.083 332.367L143.833 321.712L144.181 321.188L162.431 332.018C163.821 332.891 165.038 332.891 166.081 332.367C167.123 331.843 167.645 330.62 167.645 329.048V324.681C167.645 322.935 168.34 321.537 169.383 320.839C170.599 320.14 171.99 320.315 173.554 321.188L177.378 323.459L177.03 323.983L173.207 321.712C171.816 320.839 170.599 320.839 169.557 321.363C168.514 321.887 167.992 323.109 167.992 324.681V329.048C167.992 330.795 167.297 332.192 166.254 332.891C165.907 333.24 165.385 333.24 164.69 333.24Z" fill="#40F3EB"/>
<path d="M157.564 337.432C156.695 337.432 155.826 337.083 154.957 336.559L136.708 325.904L137.055 325.38L155.305 336.035C156.695 336.908 157.912 336.908 158.955 336.384C159.997 335.86 160.519 334.638 160.519 333.066V328.699C160.519 326.952 161.214 325.555 162.257 324.856C163.474 324.157 164.864 324.332 166.428 325.205L170.252 327.476L169.904 328L166.081 325.729C164.69 324.856 163.474 324.856 162.431 325.38C161.388 325.904 160.866 327.127 160.866 328.699V333.066C160.866 334.812 160.171 336.21 159.128 336.908C158.781 337.258 158.259 337.432 157.564 337.432Z" fill="#40F3EB"/>
<path d="M150.612 341.45C149.743 341.45 148.874 341.101 148.005 340.577L129.755 329.922L130.103 329.398L148.353 340.053C149.743 340.926 150.96 340.926 152.002 340.402C153.045 339.878 153.567 338.655 153.567 337.083V332.716C153.567 330.97 154.262 329.572 155.305 328.874C156.521 328.175 157.912 328.349 159.476 329.223L163.3 331.494L162.952 332.018L158.955 329.922C157.564 329.048 156.348 329.048 155.305 329.572C154.262 330.096 153.74 331.319 153.74 332.891V337.258C153.74 339.005 153.045 340.402 152.002 341.101C151.655 341.45 151.133 341.45 150.612 341.45Z" fill="#40F3EB"/>
<path d="M143.487 345.642C142.617 345.642 141.748 345.293 140.879 344.769L122.63 334.114L122.978 333.59L141.227 344.245C142.617 345.118 143.834 345.118 144.877 344.594C145.92 344.07 146.441 342.847 146.441 341.275V336.908C146.441 335.162 147.136 333.764 148.179 333.066C149.396 332.367 150.786 332.542 152.351 333.415L156.174 335.686L155.827 336.21L151.829 333.939C150.439 333.066 149.222 333.066 148.179 333.59C147.136 334.114 146.615 335.336 146.615 336.908V341.275C146.615 343.022 145.92 344.419 144.877 345.118C144.529 345.467 144.008 345.642 143.487 345.642Z" fill="#40F3EB"/>
<path d="M136.36 349.66C135.491 349.66 134.621 349.31 133.752 348.786L115.503 338.306L115.851 337.782L134.1 348.437C135.491 349.31 136.707 349.31 137.75 348.786C138.793 348.262 139.314 347.039 139.314 345.467V341.101C139.314 339.354 140.009 337.956 141.052 337.258C142.269 336.559 143.659 336.734 145.224 337.607L149.047 339.878L148.7 340.402L144.876 338.131C143.486 337.258 142.269 337.258 141.226 337.782C140.183 338.306 139.662 339.529 139.662 341.101V345.467C139.662 347.214 138.967 348.611 137.924 349.31C137.402 349.66 136.881 349.66 136.36 349.66Z" fill="#40F3EB"/>
<path d="M129.234 353.852C128.365 353.852 127.496 353.502 126.627 352.978L108.377 342.323L108.725 341.799L126.975 352.454C128.365 353.327 129.582 353.327 130.624 352.803C131.667 352.279 132.189 351.057 132.189 349.485V345.118C132.189 343.371 132.884 341.974 133.927 341.275C135.143 340.576 136.534 340.751 138.098 341.624L141.922 343.895L141.574 344.419L137.75 342.148C136.36 341.275 135.143 341.275 134.101 341.799C133.058 342.323 132.536 343.546 132.536 345.118V349.485C132.536 351.231 131.841 352.629 130.798 353.327C130.277 353.677 129.755 353.852 129.234 353.852Z" fill="#40F3EB"/>
<path d="M122.108 357.869C121.239 357.869 120.37 357.52 119.501 356.996L101.251 346.341L101.599 345.817L119.848 356.472C121.239 357.345 122.455 357.345 123.498 356.821C124.541 356.297 125.062 355.074 125.062 353.502V349.135C125.062 347.389 125.758 345.991 126.8 345.293C128.017 344.594 129.407 344.769 130.972 345.642L134.795 347.913L134.448 348.437L130.624 346.166C129.234 345.293 128.017 345.293 126.974 345.817C125.931 346.341 125.41 347.563 125.41 349.135V353.502C125.41 355.249 124.715 356.646 123.672 357.345C123.15 357.869 122.629 357.869 122.108 357.869Z" fill="#40F3EB"/>
<path d="M114.982 362.061C114.113 362.061 113.244 361.712 112.375 361.188L94.1255 350.533L94.4731 350.009L112.723 360.664C114.113 361.537 115.33 361.537 116.373 361.013C117.415 360.489 117.937 359.267 117.937 357.694V353.328C117.937 351.581 118.632 350.184 119.675 349.485C120.891 348.786 122.282 348.961 123.846 349.834L127.67 352.105L127.322 352.629L123.499 350.358C122.108 349.485 120.891 349.485 119.849 350.009C118.806 350.533 118.284 351.756 118.284 353.328V357.694C118.284 359.441 117.589 360.839 116.546 361.537C116.199 361.887 115.503 362.061 114.982 362.061Z" fill="#40F3EB"/>
<path d="M279.054 284.332C278.532 284.332 278.011 284.157 277.489 283.983C276.273 283.284 275.751 281.887 275.751 280.14V275.773C275.751 274.201 275.23 272.978 274.187 272.454C273.144 271.93 271.927 272.105 270.537 272.804L266.713 275.074L266.366 274.55L270.189 272.28C271.754 271.406 273.318 271.232 274.361 271.93C275.577 272.629 276.099 274.026 276.099 275.773V280.14C276.099 281.712 276.62 282.935 277.663 283.459C278.706 283.983 279.923 283.808 281.313 283.109L299.563 272.454L299.91 272.978L281.661 283.633C280.792 284.157 279.923 284.332 279.054 284.332Z" fill="#40F3EB"/>
<path d="M286.179 288.524C285.658 288.524 285.137 288.35 284.615 288.175C283.399 287.476 282.877 286.079 282.877 284.332V279.791C282.877 278.219 282.356 276.996 281.313 276.472C280.27 275.948 279.053 276.123 277.663 276.821L273.839 279.092L273.492 278.568L277.315 276.297C278.88 275.424 280.444 275.249 281.487 275.948C282.703 276.647 283.225 278.044 283.225 279.791V284.158C283.225 285.73 283.746 286.952 284.789 287.476C285.832 288 287.049 287.826 288.439 287.127L306.688 276.472L307.036 276.996L288.787 287.651C287.918 288.175 287.048 288.524 286.179 288.524Z" fill="#40F3EB"/>
<path d="M293.305 292.542C292.784 292.542 292.263 292.367 291.741 292.192C290.525 291.494 290.003 290.096 290.003 288.349V283.983C290.003 282.411 289.482 281.188 288.439 280.664C287.396 280.14 286.179 280.315 284.789 281.013L280.965 283.284L280.618 282.76L284.441 280.489C286.006 279.616 287.57 279.441 288.613 280.14C289.829 280.839 290.351 282.236 290.351 283.983V288.349C290.351 289.922 290.872 291.144 291.915 291.668C292.958 292.192 294.174 292.018 295.565 291.319L313.814 280.664L314.162 281.188L295.913 291.843C295.043 292.367 294.174 292.542 293.305 292.542Z" fill="#40F3EB"/>
<path d="M300.431 296.734C299.91 296.734 299.389 296.559 298.867 296.385C297.651 295.686 297.129 294.289 297.129 292.542V288.175C297.129 286.603 296.608 285.38 295.565 284.856C294.522 284.332 293.305 284.507 291.915 285.206L288.091 287.476L287.744 286.952L291.567 284.682C293.132 283.808 294.696 283.634 295.739 284.332C296.955 285.031 297.477 286.428 297.477 288.175V292.542C297.477 294.114 297.998 295.337 299.041 295.861C300.084 296.385 301.3 296.21 302.691 295.511L320.94 284.856L321.288 285.38L303.038 296.035C302.169 296.385 301.3 296.734 300.431 296.734Z" fill="#40F3EB"/>
<path d="M307.558 300.751C307.036 300.751 306.515 300.577 305.994 300.402C304.777 299.703 304.256 298.306 304.256 296.559V292.018C304.256 290.446 303.734 289.223 302.691 288.699C301.649 288.175 300.432 288.35 299.041 289.048L295.218 291.319L294.87 290.795L298.694 288.524C300.258 287.651 301.822 287.476 302.865 288.175C304.082 288.874 304.603 290.271 304.603 292.018V296.385C304.603 297.957 305.125 299.179 306.167 299.703C307.21 300.227 308.427 300.053 309.817 299.354L328.067 288.699L328.414 289.223L310.165 300.053C309.296 300.577 308.427 300.751 307.558 300.751Z" fill="#40F3EB"/>
<path d="M314.684 304.943C314.162 304.943 313.641 304.769 313.12 304.594C311.903 303.895 311.382 302.498 311.382 300.751V296.385C311.382 294.812 310.86 293.59 309.817 293.066C308.774 292.542 307.558 292.716 306.167 293.415L302.344 295.686L301.996 295.162L305.82 292.891C307.384 292.018 308.948 291.843 309.991 292.542C311.208 293.24 311.729 294.638 311.729 296.385V300.751C311.729 302.323 312.251 303.546 313.293 304.07C314.336 304.594 315.553 304.419 316.943 303.721L335.193 293.066L335.54 293.59L317.291 304.245C316.422 304.594 315.379 304.943 314.684 304.943Z" fill="#40F3EB"/>
<path d="M321.809 308.961C321.288 308.961 320.767 308.786 320.245 308.612C319.029 307.913 318.507 306.516 318.507 304.769V300.402C318.507 298.83 317.986 297.607 316.943 297.083C315.9 296.559 314.683 296.734 313.293 297.433L309.469 299.703L309.122 299.179L312.945 296.909C314.51 296.035 316.074 295.861 317.117 296.559C318.333 297.258 318.855 298.655 318.855 300.402V304.769C318.855 306.341 319.376 307.564 320.419 308.088C321.462 308.612 322.678 308.437 324.069 307.738L342.318 297.083L342.666 297.607L324.416 308.262C323.374 308.786 322.505 308.961 321.809 308.961Z" fill="#40F3EB"/>
<path d="M328.936 313.153C328.414 313.153 327.893 312.978 327.372 312.804C326.155 312.105 325.634 310.708 325.634 308.961V304.594C325.634 303.022 325.112 301.799 324.069 301.275C323.026 300.751 321.81 300.926 320.419 301.625L316.596 303.896L316.248 303.372L320.072 301.101C321.636 300.227 323.2 300.053 324.243 300.751C325.46 301.45 325.981 302.847 325.981 304.594V308.961C325.981 310.533 326.503 311.756 327.545 312.28C328.588 312.804 329.805 312.629 331.195 311.93L349.445 301.275L349.792 301.799L331.543 312.454C330.5 312.804 329.631 313.153 328.936 313.153Z" fill="#40F3EB"/>
<path d="M335.888 317.171C335.367 317.171 334.845 316.996 334.324 316.821C333.107 316.122 332.586 314.725 332.586 312.978V308.612C332.586 307.04 332.064 305.817 331.021 305.293C329.979 304.769 328.762 304.943 327.372 305.642L323.548 307.913L323.2 307.389L327.024 305.118C328.588 304.245 330.152 304.07 331.195 304.769C332.412 305.467 332.933 306.865 332.933 308.612V312.978C332.933 314.55 333.455 315.773 334.498 316.297C335.54 316.821 336.757 316.647 338.147 315.948L356.397 305.293L356.745 305.817L338.669 316.472C337.626 316.996 336.757 317.171 335.888 317.171Z" fill="#40F3EB"/>
<path d="M343.013 321.363C342.492 321.363 341.971 321.188 341.449 321.013C340.233 320.315 339.711 318.917 339.711 317.171V312.804C339.711 311.232 339.19 310.009 338.147 309.485C337.104 308.961 335.887 309.136 334.497 309.834L330.673 312.105L330.326 311.581L334.149 309.31C335.714 308.437 337.278 308.262 338.321 308.961C339.537 309.66 340.059 311.057 340.059 312.804V317.171C340.059 318.743 340.58 319.965 341.623 320.489C342.666 321.013 343.882 320.839 345.273 320.14L363.522 309.485L363.87 310.009L345.621 320.664C344.751 321.013 343.882 321.363 343.013 321.363Z" fill="#40F3EB"/>
<path d="M350.14 325.38C349.619 325.38 349.097 325.206 348.576 325.031C347.359 324.332 346.838 322.935 346.838 321.188V316.821C346.838 315.249 346.316 314.027 345.273 313.503C344.231 312.978 343.014 313.153 341.623 313.852L337.8 316.123L337.452 315.599L341.276 313.328C342.84 312.454 344.404 312.28 345.447 312.978C346.664 313.677 347.185 315.075 347.185 316.821V321.188C347.185 322.76 347.707 323.983 348.749 324.507C349.792 325.031 351.009 324.856 352.399 324.158L370.649 313.503L370.997 314.027L352.747 324.682C351.878 325.206 351.009 325.38 350.14 325.38Z" fill="#40F3EB"/>
<path d="M357.266 329.572C356.744 329.572 356.223 329.398 355.702 329.223C354.485 328.524 353.964 327.127 353.964 325.38V321.013C353.964 319.441 353.442 318.219 352.399 317.695C351.357 317.171 350.14 317.345 348.749 318.044L344.926 320.315L344.578 319.791L348.402 317.52C349.966 316.647 351.53 316.472 352.573 317.171C353.79 317.869 354.311 319.267 354.311 321.013V325.206C354.311 326.778 354.833 328 355.875 328.524C356.918 329.048 358.135 328.874 359.525 328.175L377.775 317.52L378.122 318.044L359.873 328.699C359.004 329.223 358.135 329.572 357.266 329.572Z" fill="#40F3EB"/>
<path d="M364.392 333.59C363.87 333.59 363.349 333.415 362.828 333.24C361.611 332.542 361.09 331.144 361.09 329.398V325.031C361.09 323.459 360.568 322.236 359.525 321.712C358.483 321.188 357.266 321.363 355.875 322.061L352.052 324.332L351.704 323.808L355.528 321.537C357.092 320.664 358.656 320.489 359.699 321.188C360.916 321.887 361.437 323.284 361.437 325.031V329.398C361.437 330.97 361.959 332.192 363.001 332.716C364.044 333.24 365.261 333.066 366.651 332.367L384.901 321.712L385.249 322.236L366.999 332.891C366.13 333.415 365.261 333.59 364.392 333.59Z" fill="#40F3EB"/>
<path d="M371.518 337.782C370.996 337.782 370.475 337.607 369.954 337.432C368.737 336.734 368.216 335.336 368.216 333.59V329.223C368.216 327.651 367.694 326.428 366.651 325.904C365.608 325.38 364.392 325.555 363.001 326.253L359.178 328.524L358.83 328L362.654 325.729C364.218 324.856 365.782 324.681 366.825 325.38C368.042 326.079 368.563 327.476 368.563 329.223V333.59C368.563 335.162 369.085 336.384 370.127 336.908C371.17 337.432 372.387 337.258 373.777 336.559L392.027 325.904L392.374 326.428L374.125 337.083C373.256 337.432 372.387 337.782 371.518 337.782Z" fill="#40F3EB"/>
<path d="M378.644 341.799C378.122 341.799 377.601 341.625 377.08 341.45C375.863 340.751 375.342 339.354 375.342 337.607V333.24C375.342 331.668 374.82 330.446 373.777 329.922C372.734 329.398 371.518 329.572 370.127 330.271L366.304 332.542L365.956 332.018L369.78 329.747C371.344 328.874 372.908 328.699 373.951 329.398C375.168 330.096 375.689 331.494 375.689 333.24V337.607C375.689 339.179 376.211 340.402 377.253 340.926C378.296 341.45 379.513 341.275 380.903 340.577L399.153 329.922L399.5 330.446L381.251 341.101C380.382 341.625 379.339 341.799 378.644 341.799Z" fill="#40F3EB"/>
<path d="M385.77 345.992C385.249 345.992 384.727 345.817 384.206 345.642C382.989 344.944 382.468 343.546 382.468 341.799V337.433C382.468 335.861 381.947 334.638 380.904 334.114C379.861 333.59 378.644 333.764 377.254 334.463L373.43 336.734L373.083 336.21L376.906 333.939C378.47 333.066 380.035 332.891 381.078 333.59C382.294 334.289 382.816 335.686 382.816 337.433V341.799C382.816 343.371 383.337 344.594 384.38 345.118C385.423 345.642 386.639 345.468 388.03 344.769L406.279 334.114L406.627 334.638L388.377 345.293C387.335 345.642 386.465 345.992 385.77 345.992Z" fill="#40F3EB"/>
<path d="M392.896 350.009C392.375 350.009 391.853 349.834 391.332 349.66C390.115 348.961 389.594 347.564 389.594 345.817V341.45C389.594 339.878 389.073 338.655 388.03 338.131C386.987 337.607 385.77 337.782 384.38 338.481L380.556 340.751L380.208 340.227L384.032 337.956C385.596 337.083 387.161 336.908 388.204 337.607C389.42 338.306 389.942 339.703 389.942 341.45V345.817C389.942 347.389 390.463 348.612 391.506 349.136C392.549 349.66 393.765 349.485 395.156 348.786L413.405 338.131L413.753 338.655L395.503 349.31C394.461 349.834 393.591 350.009 392.896 350.009Z" fill="#40F3EB"/>
<path d="M399.848 354.201C399.327 354.201 398.806 354.026 398.284 353.852C397.068 353.153 396.546 351.756 396.546 350.009V345.642C396.546 344.07 396.025 342.847 394.982 342.323C393.939 341.799 392.722 341.974 391.332 342.673L387.508 344.943L387.161 344.419L390.984 342.149C392.549 341.275 394.113 341.101 395.156 341.799C396.372 342.498 396.894 343.895 396.894 345.642V350.009C396.894 351.581 397.415 352.804 398.458 353.328C399.501 353.852 400.717 353.677 402.108 352.978L420.357 342.323L420.705 342.847L402.455 353.502C401.586 353.852 400.717 354.201 399.848 354.201Z" fill="#40F3EB"/>
<path d="M406.974 358.219C406.452 358.219 405.931 358.044 405.41 357.869C404.193 357.171 403.672 355.773 403.672 354.027V349.66C403.672 348.088 403.15 346.865 402.107 346.341C401.065 345.817 399.848 345.992 398.457 346.69L394.634 348.961L394.286 348.437L398.11 346.166C399.674 345.293 401.238 345.118 402.281 345.817C403.498 346.516 404.019 347.913 404.019 349.66V354.027C404.019 355.599 404.541 356.821 405.583 357.345C406.626 357.869 407.843 357.695 409.233 356.996L427.483 346.341L427.83 346.865L409.581 357.52C408.712 358.044 407.843 358.219 406.974 358.219Z" fill="#40F3EB"/>
<path d="M414.1 362.411C413.579 362.411 413.058 362.236 412.536 362.061C411.319 361.363 410.798 359.965 410.798 358.219V353.852C410.798 352.28 410.277 351.057 409.234 350.533C408.191 350.009 406.974 350.184 405.584 350.882L401.76 353.153L401.413 352.629L405.236 350.358C406.801 349.485 408.365 349.31 409.408 350.009C410.624 350.708 411.146 352.105 411.146 353.852V358.219C411.146 359.791 411.667 361.013 412.71 361.537C413.753 362.061 414.969 361.887 416.36 361.188L434.609 350.533L434.957 351.057L416.707 361.712C415.838 362.061 414.969 362.411 414.1 362.411Z" fill="#40F3EB"/>
<path d="M405.062 354.201V370.62L264.628 452.018L124.193 370.62V354.201H405.062Z" fill="#5662F3"/>
<path d="M264.628 435.773L124.193 354.201L264.628 272.804L405.062 354.201L264.628 435.773Z" fill="#BCBEFF"/>
<path d="M264.628 433.852L125.931 353.328L124.193 354.201L264.628 435.773L405.062 354.201L403.324 353.328L264.628 433.852Z" fill="white"/>
<path d="M264.628 416.909L156.695 354.376L264.628 291.668L372.561 354.376L264.628 416.909Z" fill="#0F054C"/>
<path opacity="0.5" d="M264.628 416.909L156.695 354.376L264.628 291.668L372.561 354.376L264.628 416.909Z" fill="#0DFFF3"/>
<path opacity="0.5" d="M264.627 275.773L372.56 338.481V354.376L264.627 291.668V275.773Z" fill="#42E8E0"/>
<path opacity="0.5" d="M264.628 291.668L156.695 354.376V338.481L264.628 275.773V291.668Z" fill="#C4FFFC"/>
<path opacity="0.5" d="M264.628 401.188L156.695 338.481L264.628 275.773L372.561 338.481L264.628 401.188Z" fill="#1A57F3"/>
<path opacity="0.5" d="M264.627 401.188V416.909L372.56 354.376V338.481L264.627 401.188Z" fill="#3980EA"/>
<path opacity="0.5" d="M156.695 338.481V354.376L264.628 416.909V401.188L156.695 338.481Z" fill="#6044FF"/>
<path opacity="0.8" d="M264.628 399.441L158.085 337.607L156.695 338.481L264.628 401.188L372.561 338.481L371.17 337.607L264.628 399.441Z" fill="#40F3EB"/>
<path d="M299.736 471.231L281.486 460.576C278.358 458.83 275.751 454.288 275.751 450.62V446.253C275.751 442.76 273.317 438.568 270.363 436.821L266.539 434.55L266.887 434.026L270.71 436.297C273.839 438.044 276.446 442.585 276.446 446.253V450.62C276.446 454.113 278.879 458.306 281.834 460.052L300.083 470.707L299.736 471.231Z" fill="#40F3EB"/>
<path d="M306.862 467.039L288.612 456.384C285.484 454.638 282.877 450.096 282.877 446.428V442.236C282.877 438.742 280.443 434.55 277.489 432.804L273.665 430.533L274.013 430.009L277.836 432.28C280.965 434.026 283.572 438.568 283.572 442.236V446.603C283.572 450.096 286.005 454.288 288.96 456.035L307.209 466.69L306.862 467.039Z" fill="#40F3EB"/>
<path d="M313.988 463.022L295.738 452.367C292.61 450.62 290.003 446.079 290.003 442.41V438.044C290.003 434.55 287.569 430.358 284.615 428.611L280.791 426.341L281.139 425.817L284.962 428.087C288.091 429.834 290.698 434.376 290.698 438.044V442.41C290.698 445.904 293.131 450.096 296.086 451.843L314.335 462.498L313.988 463.022Z" fill="#40F3EB"/>
<path d="M321.114 458.83L302.864 448.175C299.736 446.428 297.129 441.887 297.129 438.218V433.852C297.129 430.358 294.695 426.166 291.741 424.419L287.917 422.149L288.265 421.625L292.088 423.895C295.217 425.642 297.824 430.183 297.824 433.852V438.218C297.824 441.712 300.257 445.904 303.212 447.651L321.461 458.306L321.114 458.83Z" fill="#40F3EB"/>
<path d="M328.241 454.812L309.991 444.157C306.863 442.41 304.256 437.869 304.256 434.201V429.834C304.256 426.341 301.822 422.148 298.868 420.402L295.044 418.131L295.392 417.607L299.215 419.878C302.344 421.624 304.951 426.166 304.951 429.834V434.201C304.951 437.694 307.384 441.886 310.339 443.633L328.588 454.288L328.241 454.812Z" fill="#40F3EB"/>
<path d="M335.193 450.62L316.943 439.965C313.815 438.218 311.208 433.677 311.208 430.009V425.642C311.208 422.148 308.774 417.956 305.82 416.21L301.996 413.939L302.344 413.415L306.167 415.686C309.296 417.432 311.903 421.974 311.903 425.642V430.009C311.903 433.502 314.336 437.694 317.291 439.441L335.54 450.096L335.193 450.62Z" fill="#40F3EB"/>
<path d="M342.318 446.428L324.068 435.773C320.94 434.026 318.333 429.485 318.333 425.817V421.45C318.333 417.956 315.9 413.764 312.945 412.017L309.121 409.747L309.469 409.223L313.292 411.493C316.421 413.24 319.028 417.782 319.028 421.45V425.817C319.028 429.31 321.461 433.502 324.416 435.249L342.666 445.904L342.318 446.428Z" fill="#40F3EB"/>
<path d="M349.444 442.411L331.194 431.756C328.066 430.009 325.459 425.467 325.459 421.799V417.432C325.459 413.939 323.025 409.747 320.071 408L316.247 405.729L316.595 405.205L320.418 407.476C323.547 409.223 326.154 413.764 326.154 417.432V421.799C326.154 425.293 328.587 429.485 331.542 431.232L349.791 441.887L349.444 442.411Z" fill="#40F3EB"/>
<path d="M356.57 438.218L338.321 427.563C335.192 425.817 332.585 421.275 332.585 417.607V413.24C332.585 409.747 330.152 405.555 327.197 403.808L323.374 401.537L323.721 401.013L327.545 403.284C330.673 405.031 333.28 409.572 333.28 413.24V417.607C333.28 421.101 335.714 425.293 338.668 427.039L356.918 437.694L356.57 438.218Z" fill="#40F3EB"/>
<path d="M363.696 434.201L345.446 423.546C342.318 421.799 339.711 417.258 339.711 413.589V409.223C339.711 405.729 337.277 401.537 334.323 399.79L330.499 397.52L330.847 396.996L334.67 399.266C337.799 401.013 340.406 405.555 340.406 409.223V413.589C340.406 417.083 342.839 421.275 345.794 423.022L364.043 433.677L363.696 434.201Z" fill="#40F3EB"/>
<path d="M370.822 430.009L352.573 419.354C349.444 417.607 346.837 413.065 346.837 409.397V405.031C346.837 401.537 344.404 397.345 341.449 395.598L337.625 393.327L337.973 392.803L341.797 395.074C344.925 396.821 347.532 401.362 347.532 405.031V409.397C347.532 412.891 349.966 417.083 352.92 418.83L371.17 429.485L370.822 430.009Z" fill="#40F3EB"/>
<path d="M377.948 425.991L359.699 415.336C356.57 413.59 353.963 409.048 353.963 405.38V401.013C353.963 397.52 351.53 393.328 348.575 391.581L344.751 389.31L345.099 388.786L348.923 391.057C352.051 392.804 354.658 397.345 354.658 401.013V405.38C354.658 408.873 357.092 413.066 360.046 414.812L378.296 425.467L377.948 425.991Z" fill="#40F3EB"/>
<path d="M385.074 421.799L366.825 411.144C363.696 409.397 361.089 404.856 361.089 401.188V396.821C361.089 393.328 358.656 389.135 355.701 387.389L351.877 385.118L352.225 384.594L356.049 386.865C359.177 388.611 361.784 393.153 361.784 396.821V401.188C361.784 404.681 364.218 408.873 367.172 410.62L385.422 421.275L385.074 421.799Z" fill="#40F3EB"/>
<path d="M392.026 417.782L373.776 407.127C370.648 405.38 368.041 400.838 368.041 397.17V392.803C368.041 389.31 365.607 385.118 362.653 383.371L358.829 381.1L359.177 380.576L363 382.847C366.129 384.594 368.736 389.135 368.736 392.803V397.17C368.736 400.664 371.169 404.856 374.124 406.603L392.373 417.258L392.026 417.782Z" fill="#40F3EB"/>
<path d="M399.153 413.59L380.903 402.934C377.775 401.188 375.168 396.646 375.168 392.978V388.611C375.168 385.118 372.734 380.926 369.78 379.179L365.956 376.908L366.304 376.384L370.127 378.655C373.256 380.402 375.863 384.943 375.863 388.611V392.978C375.863 396.472 378.296 400.664 381.251 402.41L399.5 413.066L399.153 413.59Z" fill="#40F3EB"/>
<path d="M406.278 409.398L388.029 398.743C384.9 396.996 382.293 392.454 382.293 388.786V384.594C382.293 381.101 379.86 376.908 376.905 375.162L373.082 372.891L373.429 372.367L377.253 374.638C380.381 376.384 382.988 380.926 382.988 384.594V388.961C382.988 392.454 385.422 396.646 388.376 398.393L406.626 409.048L406.278 409.398Z" fill="#40F3EB"/>
<path d="M413.405 405.38L395.155 394.725C392.027 392.978 389.42 388.437 389.42 384.768V380.402C389.42 376.908 386.986 372.716 384.032 370.969L380.208 368.699L380.556 368.175L384.379 370.445C387.508 372.192 390.115 376.734 390.115 380.402V384.768C390.115 388.262 392.548 392.454 395.503 394.201L413.752 404.856L413.405 405.38Z" fill="#40F3EB"/>
<path d="M420.531 401.188L402.281 390.533C399.153 388.786 396.546 384.245 396.546 380.576V376.21C396.546 372.716 394.112 368.524 391.158 366.777L387.334 364.507L387.682 363.983L391.505 366.253C394.634 368 397.241 372.542 397.241 376.21V380.576C397.241 384.07 399.674 388.262 402.629 390.009L420.878 400.664L420.531 401.188Z" fill="#40F3EB"/>
<path d="M427.656 397.17L409.406 386.515C406.278 384.769 403.671 380.227 403.671 376.559V372.192C403.671 368.699 401.237 364.507 398.283 362.76L394.459 360.489L394.807 359.965L398.63 362.236C401.759 363.983 404.366 368.524 404.366 372.192V376.559C404.366 380.052 406.799 384.245 409.754 385.991L428.003 396.646L427.656 397.17Z" fill="#40F3EB"/>
<path d="M434.782 392.978L416.533 382.323C413.404 380.576 410.797 376.035 410.797 372.367V368C410.797 364.507 408.364 360.314 405.409 358.568L401.585 356.297L401.933 355.773L405.757 358.044C408.885 359.79 411.492 364.332 411.492 368V372.367C411.492 375.86 413.926 380.052 416.88 381.799L435.13 392.454L434.782 392.978Z" fill="#40F3EB"/>
<path d="M228.997 471.231L228.649 470.707L246.899 460.052C249.854 458.306 252.287 454.113 252.287 450.62V446.253C252.287 442.585 254.894 438.218 258.022 436.297L261.846 434.026L262.194 434.55L258.37 436.821C255.415 438.568 252.982 442.76 252.982 446.253V450.62C252.982 454.288 250.375 458.655 247.247 460.576L228.997 471.231Z" fill="#40F3EB"/>
<path d="M221.872 467.039L221.524 466.515L239.773 455.86C242.728 454.114 245.161 449.921 245.161 446.428V442.236C245.161 438.568 247.769 434.201 250.897 432.28L254.721 430.009L255.068 430.533L251.245 432.804C248.29 434.55 245.857 438.742 245.857 442.236V446.603C245.857 450.271 243.25 454.638 240.121 456.559L221.872 467.039Z" fill="#40F3EB"/>
<path d="M214.746 463.022L214.398 462.498L232.647 451.843C235.602 450.096 238.035 445.904 238.035 442.41V438.044C238.035 434.376 240.642 430.009 243.771 428.087L247.595 425.817L247.942 426.341L244.119 428.611C241.164 430.358 238.731 434.55 238.731 438.044V442.41C238.731 446.079 236.124 450.445 232.995 452.367L214.746 463.022Z" fill="#40F3EB"/>
<path d="M207.62 458.83L207.272 458.306L225.522 447.651C228.476 445.904 230.909 441.712 230.909 438.218V433.852C230.909 430.183 233.517 425.817 236.645 423.895L240.469 421.625L240.816 422.149L236.993 424.419C234.038 426.166 231.605 430.358 231.605 433.852V438.218C231.605 441.887 228.998 446.253 225.869 448.175L207.62 458.83Z" fill="#40F3EB"/>
<path d="M200.668 454.812L200.32 454.288L218.57 443.633C221.525 441.886 223.958 437.694 223.958 434.201V429.834C223.958 426.166 226.565 421.799 229.693 419.878L233.517 417.607L233.865 418.131L230.041 420.402C227.086 422.148 224.653 426.341 224.653 429.834V434.201C224.653 437.869 222.046 442.236 218.917 444.157L200.668 454.812Z" fill="#40F3EB"/>
<path d="M193.542 450.62L193.194 450.096L211.444 439.441C214.399 437.694 216.832 433.502 216.832 430.009V425.642C216.832 421.974 219.439 417.607 222.567 415.686L226.391 413.415L226.739 413.939L222.915 416.21C219.96 417.956 217.527 422.148 217.527 425.642V430.009C217.527 433.677 214.92 438.044 211.791 439.965L193.542 450.62Z" fill="#40F3EB"/>
<path d="M186.415 446.428L186.067 445.904L204.317 435.249C207.272 433.502 209.705 429.31 209.705 425.817V421.45C209.705 417.782 212.312 413.415 215.44 411.493L219.264 409.223L219.612 409.747L215.788 412.017C212.833 413.764 210.4 417.956 210.4 421.45V425.817C210.4 429.485 207.793 433.851 204.665 435.773L186.415 446.428Z" fill="#40F3EB"/>
<path d="M179.289 442.411L178.942 441.887L197.191 431.232C200.146 429.485 202.579 425.293 202.579 421.799V417.432C202.579 413.764 205.186 409.397 208.315 407.476L212.139 405.205L212.486 405.729L208.663 408C205.708 409.747 203.275 413.939 203.275 417.432V421.799C203.275 425.467 200.668 429.834 197.539 431.756L179.289 442.411Z" fill="#40F3EB"/>
<path d="M142.617 454.987L64.752 410.096L65.0996 409.572L142.617 454.288L171.816 437.694L190.065 427.039C193.02 425.293 195.453 421.101 195.453 417.607V413.24C195.453 409.572 198.06 405.205 201.189 403.284L205.013 401.013L205.36 401.537L201.537 403.808C198.582 405.555 196.149 409.747 196.149 413.24V417.607C196.149 421.275 193.542 425.642 190.413 427.563L172.163 438.218L142.617 454.987Z" fill="#40F3EB"/>
<path d="M165.038 434.201L164.69 433.677L182.939 423.022C185.894 421.275 188.327 417.083 188.327 413.589V409.223C188.327 405.555 190.934 401.188 194.063 399.266L197.887 396.996L198.234 397.52L194.411 399.79C191.456 401.537 189.023 405.729 189.023 409.223V413.589C189.023 417.258 186.416 421.624 183.287 423.546L165.038 434.201Z" fill="#40F3EB"/>
<path d="M157.912 430.009L157.564 429.485L175.814 418.83C178.769 417.083 181.202 412.891 181.202 409.397V405.031C181.202 401.362 183.809 396.996 186.938 395.074L190.761 392.803L191.109 393.327L187.285 395.598C184.33 397.345 181.897 401.537 181.897 405.031V409.397C181.897 413.065 179.29 417.432 176.162 419.354L157.912 430.009Z" fill="#40F3EB"/>
<path d="M150.785 425.991L150.438 425.467L168.687 414.812C171.642 413.066 174.075 408.873 174.075 405.38V401.013C174.075 397.345 176.682 392.978 179.811 391.057L183.634 388.786L183.982 389.31L180.158 391.581C177.203 393.328 174.77 397.52 174.77 401.013V405.38C174.77 409.048 172.163 413.415 169.035 415.336L150.785 425.991Z" fill="#40F3EB"/>
<path d="M143.833 421.799L143.485 421.275L161.735 410.62C164.69 408.873 167.123 404.681 167.123 401.188V396.821C167.123 393.153 169.73 388.786 172.858 386.865L176.682 384.594L177.03 385.118L173.206 387.389C170.251 389.135 167.818 393.328 167.818 396.821V401.188C167.818 404.856 165.211 409.223 162.083 411.144L143.833 421.799Z" fill="#40F3EB"/>
<path d="M136.707 417.782L136.36 417.258L154.609 406.603C157.564 404.856 159.997 400.664 159.997 397.17V392.803C159.997 389.135 162.604 384.769 165.733 382.847L169.557 380.576L169.904 381.1L166.081 383.371C163.126 385.118 160.693 389.31 160.693 392.803V397.17C160.693 400.838 158.086 405.205 154.957 407.127L136.707 417.782Z" fill="#40F3EB"/>
<path d="M129.581 413.59L129.233 413.066L147.483 402.41C150.438 400.664 152.871 396.472 152.871 392.978V388.611C152.871 384.943 155.478 380.576 158.606 378.655L162.43 376.384L162.778 376.908L158.954 379.179C155.999 380.926 153.566 385.118 153.566 388.611V392.978C153.566 396.646 150.959 401.013 147.831 402.934L129.581 413.59Z" fill="#40F3EB"/>
<path d="M122.456 409.398L122.108 408.874L140.357 398.219C143.312 396.472 145.745 392.28 145.745 388.786V384.594C145.745 380.926 148.352 376.559 151.481 374.638L155.305 372.367L155.652 372.891L151.829 375.162C148.874 376.908 146.441 381.101 146.441 384.594V388.961C146.441 392.629 143.834 396.996 140.705 398.917L122.456 409.398Z" fill="#40F3EB"/>
<path d="M115.33 405.38L114.982 404.856L133.231 394.201C136.186 392.454 138.619 388.262 138.619 384.768V380.402C138.619 376.734 141.226 372.367 144.355 370.445L148.179 368.175L148.526 368.873L144.703 371.144C141.748 372.891 139.315 377.083 139.315 380.576V384.943C139.315 388.611 136.708 392.978 133.579 394.899L115.33 405.38Z" fill="#40F3EB"/>
<path d="M108.203 401.188L107.855 400.664L126.105 390.009C129.06 388.262 131.493 384.07 131.493 380.576V376.21C131.493 372.542 134.1 368.175 137.229 366.253L141.052 363.983L141.4 364.507L137.576 366.777C134.621 368.524 132.188 372.716 132.188 376.21V380.576C132.188 384.245 129.581 388.611 126.453 390.533L108.203 401.188Z" fill="#40F3EB"/>
<path d="M101.077 397.17L100.729 396.646L118.979 385.991C121.934 384.245 124.367 380.052 124.367 376.559V372.192C124.367 368.524 126.974 364.157 130.103 362.236L133.926 359.965L134.274 360.489L130.45 362.76C127.495 364.507 125.062 368.699 125.062 372.192V376.559C125.062 380.227 122.455 384.594 119.327 386.515L101.077 397.17Z" fill="#40F3EB"/>
<path d="M93.9511 392.978L93.6035 392.454L111.853 381.799C114.808 380.052 117.241 375.86 117.241 372.367V368C117.241 364.332 119.848 359.965 122.977 358.044L126.8 355.773L127.148 356.297L123.324 358.568C120.37 360.314 117.936 364.507 117.936 368V372.367C117.936 376.035 115.329 380.402 112.201 382.323L93.9511 392.978Z" fill="#40F3EB"/>
<path d="M46.1551 421.101L7.74414 398.743L8.09175 398.568L46.1551 376.559H46.3289L84.7398 398.743L84.3922 398.917L46.1551 421.101ZM8.78697 398.743L46.1551 420.402L83.5232 398.743L46.1551 377.083L8.78697 398.743Z" fill="#40F3EB"/>
<g opacity="0.1">
<path opacity="0.1" d="M46.1547 432.803L20.084 417.607V448L46.1547 463.196L72.3993 448V417.607L46.1547 432.803Z" fill="#40F3EB"/>
<path opacity="0.1" d="M46.1548 463.196L20.084 448V417.607L46.1548 432.803V463.196Z" fill="#40F3EB"/>
<path opacity="0.1" d="M72.3989 448L46.1543 463.196V432.803L72.3989 417.607V448Z" fill="#A9FFFB"/>
<path opacity="0.1" d="M46.1547 432.803L20.084 417.607L46.1547 402.41L72.3993 417.607L46.1547 432.803Z" fill="#40F3EB"/>
<path opacity="0.1" d="M46.1547 432.803L20.084 417.607V419.004L46.1547 434.201L72.3993 419.004V417.607L46.1547 432.803Z" fill="white"/>
</g>
<path opacity="0.1" d="M46.1547 414.463L20.084 399.266L46.1547 384.07L72.3993 399.266L46.1547 414.463Z" fill="#03002D"/>
<path d="M46.1547 361.013L20.084 345.817V376.21L46.1547 391.406L72.3993 376.21V345.817L46.1547 361.013Z" fill="#40F3EB"/>
<path d="M46.1548 391.406L20.084 376.21V345.817L46.1548 361.013V391.406Z" fill="#40F3EB"/>
<path d="M72.3994 376.21L46.1548 391.406V361.013L72.3994 345.817V376.21Z" fill="#A9FFFB"/>
<path d="M46.1547 361.013L20.084 345.817L46.1547 330.62L72.3993 345.817L46.1547 361.013Z" fill="#40F3EB"/>
<path d="M46.1547 361.013L20.084 345.817V347.039L46.1547 362.236L72.3993 347.039V345.817L46.1547 361.013Z" fill="white"/>
<g opacity="0.1">
<path opacity="0.1" d="M540.071 215.183L514 199.987V230.38L540.071 245.576L566.315 230.38V199.987L540.071 215.183Z" fill="#40F3EB"/>
<path opacity="0.1" d="M540.071 245.576L514 230.38V199.987L540.071 215.183V245.576Z" fill="#40F3EB"/>
<path opacity="0.1" d="M566.315 230.38L540.07 245.576V215.183L566.315 199.987V230.38Z" fill="#A9FFFB"/>
<path opacity="0.1" d="M540.071 215.183L514 199.987L540.071 184.79L566.315 199.987L540.071 215.183Z" fill="#40F3EB"/>
<path opacity="0.1" d="M540.071 215.183L514 199.987V201.384L540.071 216.581L566.315 201.384V199.987L540.071 215.183Z" fill="white"/>
</g>
<path opacity="0.1" d="M540.071 196.843L514 181.646L540.071 166.45L566.315 181.646L540.071 196.843Z" fill="#03002D"/>
<path d="M540.071 143.393L514 128.196V158.589L540.071 173.786L566.315 158.589V128.196L540.071 143.393Z" fill="#40F3EB"/>
<path d="M540.071 173.786L514 158.589V128.196L540.071 143.393V173.786Z" fill="#40F3EB"/>
<path d="M566.315 158.589L540.07 173.786V143.393L566.315 128.196V158.589Z" fill="#A9FFFB"/>
<path d="M540.071 143.393L514 128.197L540.071 113L566.315 128.197L540.071 143.393Z" fill="#40F3EB"/>
<path d="M540.071 143.393L514 128.196V129.594L540.071 144.79L566.315 129.594V128.196L540.071 143.393Z" fill="white"/>
<g opacity="0.1">
<path opacity="0.1" d="M491.366 328.843L514.134 348.93L520.044 319.236L497.449 298.974L468.771 308.756L462.688 338.45L491.366 328.843Z" fill="#40F3EB"/>
<path opacity="0.1" d="M497.449 298.974L520.044 319.236L514.134 348.93L491.366 328.843L497.449 298.974Z" fill="#40F3EB"/>
<path opacity="0.1" d="M468.771 308.756L497.449 298.974L491.366 328.843L462.688 338.45L468.771 308.756Z" fill="#A9FFFB"/>
<path opacity="0.1" d="M491.366 328.843L514.134 348.93L485.456 358.537L462.688 338.45L491.366 328.843Z" fill="#40F3EB"/>
<path opacity="0.1" d="M491.366 328.843L514.134 348.93L514.308 347.708L491.713 327.446L463.036 337.227L462.688 338.45L491.366 328.843Z" fill="white"/>
</g>
<path opacity="0.4" d="M496.059 317.14L469.814 302.118L496.059 286.921L522.304 302.118L496.059 317.14Z" fill="#03002D"/>
<path opacity="0.4" d="M496.059 343.69C478.853 343.69 461.472 339.847 448.437 332.336C435.575 325 428.623 315.043 428.623 304.563C428.623 294.083 435.749 284.126 448.437 276.79C474.681 261.594 517.437 261.594 543.682 276.79C556.544 284.126 563.496 294.083 563.496 304.563C563.496 315.043 556.37 325 543.682 332.336C530.647 339.847 513.266 343.69 496.059 343.69ZM496.059 265.611C478.853 265.611 461.82 269.454 448.611 276.965C435.923 284.301 429.144 293.908 429.144 304.388C429.144 314.694 436.097 324.476 448.611 331.812C474.681 347.008 517.264 347.008 543.334 331.812C556.022 324.476 562.801 314.869 562.801 304.563C562.801 294.257 555.848 284.476 543.334 277.14C530.299 269.454 513.266 265.611 496.059 265.611Z" fill="#40F3EB"/>
<path opacity="0.2" d="M496.059 354.17C474.16 354.17 452.26 349.279 435.575 339.672C419.411 330.24 410.373 317.664 410.373 304.389C410.373 291.113 419.237 278.537 435.575 269.105C468.945 249.716 523.173 249.716 556.543 269.105C572.707 278.537 581.745 291.113 581.745 304.389C581.745 317.664 572.881 330.24 556.543 339.672L556.369 339.498L556.543 339.672C539.858 349.279 517.958 354.17 496.059 354.17ZM496.059 255.131C474.333 255.131 452.434 260.022 435.922 269.629C419.932 278.886 411.068 291.288 411.068 304.389C411.068 317.489 419.932 329.891 435.922 339.148C469.119 358.362 523.173 358.362 556.369 339.148C572.359 329.891 581.224 317.489 581.224 304.389C581.224 291.288 572.359 278.886 556.369 269.629C539.684 260.022 517.785 255.131 496.059 255.131Z" fill="#40F3EB"/>
<path d="M496.059 335.306C482.503 335.306 468.772 332.336 458.517 326.223C448.437 320.459 442.875 312.598 442.875 304.214C442.875 295.83 448.437 288.144 458.517 282.205C479.2 270.153 512.918 270.153 533.601 282.205C543.682 288.144 549.244 295.83 549.244 304.214C549.244 312.598 543.682 320.284 533.601 326.223C523.173 332.336 509.616 335.306 496.059 335.306ZM496.059 273.996C482.503 273.996 469.12 276.965 458.691 282.904C448.784 288.668 443.396 296.354 443.396 304.389C443.396 312.424 448.784 320.109 458.691 325.873C479.2 337.751 512.745 337.751 533.254 325.873L533.427 326.048L533.254 325.873C543.16 320.109 548.548 312.424 548.548 304.389C548.548 296.354 543.16 288.668 533.254 282.904C522.999 276.965 509.616 273.996 496.059 273.996Z" fill="#40F3EB"/>
<path d="M493.104 275.218L489.976 245L465.469 262.817L468.424 293.035L496.059 305.611L520.565 287.795L493.104 275.218Z" fill="#40F3EB"/>
<path d="M468.424 293.035L465.469 262.817L489.976 245L493.104 275.218L468.424 293.035Z" fill="#40F3EB"/>
<path d="M496.059 305.612L468.424 293.035L493.105 275.219L520.566 287.795L496.059 305.612Z" fill="#A9FFFB"/>
<path d="M493.104 275.218L489.975 245L517.61 257.576L520.565 287.795L493.104 275.218Z" fill="#40F3EB"/>
<path d="M493.104 275.218L489.976 245L488.933 245.873L491.888 276.092L519.523 288.493L520.566 287.795L493.104 275.218Z" fill="white"/>
<path opacity="0.4" d="M112.375 440.489C114.294 440.489 115.851 438.925 115.851 436.996C115.851 435.066 114.294 433.502 112.375 433.502C110.455 433.502 108.898 435.066 108.898 436.996C108.898 438.925 110.455 440.489 112.375 440.489Z" fill="#40F3EB"/>
<path d="M112.374 438.568C113.238 438.568 113.939 437.864 113.939 436.996C113.939 436.127 113.238 435.424 112.374 435.424C111.51 435.424 110.81 436.127 110.81 436.996C110.81 437.864 111.51 438.568 112.374 438.568Z" fill="#40F3EB"/>
<path opacity="0.4" d="M425.05 278.568C426.97 278.568 428.526 277.004 428.526 275.074C428.526 273.145 426.97 271.581 425.05 271.581C423.131 271.581 421.574 273.145 421.574 275.074C421.574 277.004 423.131 278.568 425.05 278.568Z" fill="#40F3EB"/>
<path d="M425.05 276.646C425.914 276.646 426.614 275.942 426.614 275.074C426.614 274.206 425.914 273.502 425.05 273.502C424.186 273.502 423.486 274.206 423.486 275.074C423.486 275.942 424.186 276.646 425.05 276.646Z" fill="#40F3EB"/>
<path opacity="0.4" d="M527.943 500.926C529.863 500.926 531.419 499.362 531.419 497.432C531.419 495.503 529.863 493.939 527.943 493.939C526.023 493.939 524.467 495.503 524.467 497.432C524.467 499.362 526.023 500.926 527.943 500.926Z" fill="#40F3EB"/>
<path d="M527.943 499.004C528.807 499.004 529.507 498.3 529.507 497.432C529.507 496.564 528.807 495.86 527.943 495.86C527.079 495.86 526.378 496.564 526.378 497.432C526.378 498.3 527.079 499.004 527.943 499.004Z" fill="#40F3EB"/>
<path opacity="0.4" d="M460.507 515.598C463.579 515.598 466.069 513.096 466.069 510.009C466.069 506.922 463.579 504.419 460.507 504.419C457.435 504.419 454.945 506.922 454.945 510.009C454.945 513.096 457.435 515.598 460.507 515.598Z" fill="#40F3EB"/>
<path d="M460.507 512.454C461.851 512.454 462.94 511.359 462.94 510.009C462.94 508.658 461.851 507.563 460.507 507.563C459.163 507.563 458.074 508.658 458.074 510.009C458.074 511.359 459.163 512.454 460.507 512.454Z" fill="#40F3EB"/>
<path opacity="0.4" d="M442.257 465.467C444.369 465.467 446.081 463.747 446.081 461.625C446.081 459.502 444.369 457.782 442.257 457.782C440.146 457.782 438.434 459.502 438.434 461.625C438.434 463.747 440.146 465.467 442.257 465.467Z" fill="#40F3EB"/>
<path d="M442.257 463.197C443.121 463.197 443.821 462.493 443.821 461.625C443.821 460.756 443.121 460.052 442.257 460.052C441.393 460.052 440.693 460.756 440.693 461.625C440.693 462.493 441.393 463.197 442.257 463.197Z" fill="#40F3EB"/>
<path opacity="0.4" d="M387.335 257.956C389.255 257.956 390.812 256.392 390.812 254.463C390.812 252.533 389.255 250.969 387.335 250.969C385.416 250.969 383.859 252.533 383.859 254.463C383.859 256.392 385.416 257.956 387.335 257.956Z" fill="#40F3EB"/>
<path d="M387.335 256.035C388.199 256.035 388.899 255.331 388.899 254.463C388.899 253.594 388.199 252.891 387.335 252.891C386.471 252.891 385.771 253.594 385.771 254.463C385.771 255.331 386.471 256.035 387.335 256.035Z" fill="#40F3EB"/>
<path opacity="0.4" d="M72.3999 417.956C74.3197 417.956 75.876 416.392 75.876 414.463C75.876 412.534 74.3197 410.969 72.3999 410.969C70.4801 410.969 68.9238 412.534 68.9238 414.463C68.9238 416.392 70.4801 417.956 72.3999 417.956Z" fill="#40F3EB"/>
<path d="M72.3997 416.035C73.2636 416.035 73.964 415.331 73.964 414.463C73.964 413.595 73.2636 412.891 72.3997 412.891C71.5358 412.891 70.8354 413.595 70.8354 414.463C70.8354 415.331 71.5358 416.035 72.3997 416.035Z" fill="#40F3EB"/>
<path d="M50.7573 232.492L0 202.965L0.459342 202.734L50.7573 173.668H50.987L101.744 202.965L101.285 203.195L50.7573 232.492ZM1.37803 202.965L50.7573 231.569L100.137 202.965L50.7573 174.36L1.37803 202.965Z" fill="#40F3EB"/>
<g opacity="0.1">
<path opacity="0.1" d="M50.7568 247.947L16.3062 227.878V268.016L50.7568 288.085L85.4371 268.016V227.878L50.7568 247.947Z" fill="#40F3EB"/>
<path opacity="0.1" d="M50.7568 288.085L16.3062 268.016V227.878L50.7568 247.947V288.085Z" fill="#40F3EB"/>
<path opacity="0.1" d="M85.4372 268.016L50.7568 288.085V247.947L85.4372 227.878V268.016Z" fill="#A9FFFB"/>
<path opacity="0.1" d="M50.7568 247.947L16.3062 227.878L50.7568 207.809L85.4371 227.878L50.7568 247.947Z" fill="#40F3EB"/>
<path opacity="0.1" d="M50.7568 247.947L16.3062 227.878V229.724L50.7568 249.793L85.4371 229.724V227.878L50.7568 247.947Z" fill="white"/>
</g>
<path opacity="0.1" d="M50.7568 223.726L16.3062 203.657L50.7568 183.588L85.4371 203.657L50.7568 223.726Z" fill="#03002D"/>
<path d="M50.7568 153.138L16.3062 133.069V173.207L50.7568 193.276L85.4371 173.207V133.069L50.7568 153.138Z" fill="#40F3EB"/>
<path d="M50.7568 193.276L16.3062 173.207V133.069L50.7568 153.138V193.276Z" fill="#40F3EB"/>
<path d="M85.4372 173.207L50.7568 193.276V153.138L85.4372 133.069V173.207Z" fill="#A9FFFB"/>
<path d="M50.7568 153.138L16.3062 133.069L50.7568 113L85.4371 133.069L50.7568 153.138Z" fill="#40F3EB"/>
<path d="M50.7568 153.138L16.3062 133.069V134.684L50.7568 154.753L85.4371 134.684V133.069L50.7568 153.138Z" fill="white"/>
<path d="M359.997 216.5C359.997 277.916 303.51 329.473 251.001 336.739C255.266 337.327 275.411 336.739 279.815 336.739C338.46 336.739 386.001 282.906 386.001 216.5C386.001 150.094 338.46 96.2617 279.815 96.2617C275.411 96.2617 255.874 95.6734 251.61 96.2617C304.118 103.528 359.997 155.084 359.997 216.5Z" fill="#40F3EB"/>
<path d="M254.001 96.0003C312.544 96.0003 360.001 149.95 360.001 216.5C360.001 283.051 312.544 337 254.001 337C195.459 337 148.001 283.051 148.001 216.5C148.001 149.95 195.459 96.0003 254.001 96.0003Z" fill="#A9FFFB"/>
<g opacity="0.1">
<path opacity="0.1" d="M255.905 106.389L215.584 137.379L275.188 145.423L315.859 114.669L296.225 75.6347L236.621 67.3547L255.905 106.389Z" fill="#40F3EB"/>
<path opacity="0.1" d="M315.859 114.668L275.188 145.422L215.584 137.379L255.905 106.388L315.859 114.668Z" fill="#40F3EB"/>
<path opacity="0.1" d="M296.225 75.6347L315.859 114.668L255.905 106.389L236.621 67.3547L296.225 75.6347Z" fill="#A9FFFB"/>
<path opacity="0.1" d="M255.906 106.388L215.586 137.379L196.302 98.345L236.623 67.3545L255.906 106.388Z" fill="#40F3EB"/>
<path opacity="0.1" d="M255.904 106.388L215.583 137.379L218.037 137.615L258.708 106.861L239.074 67.8276L236.62 67.3545L255.904 106.388Z" fill="white"/>
</g>
<path opacity="0.4" d="M133.037 116.63C133.037 93.2097 140.751 69.5528 155.827 51.8102C170.553 34.304 190.538 24.8413 211.574 24.8413C232.611 24.8413 252.596 34.5406 267.322 51.8102C297.825 87.5321 297.825 145.728 267.322 181.45C252.596 198.956 232.611 208.419 211.574 208.419C190.538 208.419 170.553 198.719 155.827 181.45C140.751 163.707 133.037 140.05 133.037 116.63ZM289.761 116.63C289.761 93.2097 282.047 70.026 266.971 52.0467C252.245 34.7772 232.962 25.551 211.925 25.551C191.239 25.551 171.605 35.0138 156.879 52.0467C126.376 87.5321 126.376 145.491 156.879 180.977C171.605 198.246 190.888 207.473 211.574 207.473C232.261 207.473 251.895 198.01 266.621 180.977C282.047 163.234 289.761 140.05 289.761 116.63Z" fill="#40F3EB"/>
<path opacity="0.2" d="M112 116.628C112 86.8208 121.817 57.0131 141.101 34.3025C160.034 12.3016 185.278 -5.53643e-06 211.925 -4.37167e-06C238.571 -3.20692e-06 263.815 12.065 282.749 34.3025C321.667 79.7237 321.667 153.533 282.749 198.954C263.815 220.955 238.571 233.257 211.925 233.257C185.278 233.257 160.034 221.192 141.101 198.954L141.452 198.718L141.101 198.954C121.817 176.244 112 146.436 112 116.628ZM310.798 116.628C310.798 87.0573 300.98 57.2497 281.697 34.7756C263.114 13.0113 238.221 0.946258 211.925 0.946257C185.629 0.946256 160.735 13.0113 142.153 34.7756C103.586 79.9603 103.586 153.533 142.153 198.718C160.735 220.482 185.629 232.547 211.925 232.547C238.221 232.547 263.114 220.482 281.697 198.718C300.98 176.007 310.798 146.2 310.798 116.628Z" fill="#40F3EB"/>
<path d="M149.866 116.63C149.866 98.1774 155.827 79.4885 168.098 65.5309C179.668 51.8099 195.446 44.2397 212.275 44.2397C229.105 44.2397 244.532 51.8099 256.453 65.5309C280.645 93.6826 280.645 139.577 256.452 167.729C244.532 181.45 229.105 189.02 212.275 189.02C195.446 189.02 180.019 181.45 168.098 167.729C155.827 153.534 149.866 135.082 149.866 116.63ZM272.931 116.63C272.931 98.1774 266.971 79.9616 255.05 65.7675C243.48 52.2831 228.053 44.9495 211.925 44.9495C195.797 44.9495 180.37 52.2831 168.799 65.7675C144.958 93.6826 144.958 139.34 168.799 167.255L168.449 167.492L168.799 167.255C180.37 180.74 195.797 188.073 211.925 188.073C228.053 188.073 243.48 180.74 255.05 167.255C266.971 153.298 272.931 135.082 272.931 116.63Z" fill="#40F3EB"/>
<path d="M194.451 235C194.185 235 193.935 234.9 193.701 234.7C193.501 234.467 193.401 234.217 193.401 233.95C193.401 233.75 193.418 233.6 193.451 233.5L205.101 201.45C205.435 200.483 206.101 200 207.101 200H214.901C215.901 200 216.568 200.483 216.901 201.45L228.551 233.5C228.585 233.6 228.601 233.75 228.601 233.95C228.601 234.217 228.485 234.467 228.251 234.7C228.051 234.9 227.818 235 227.551 235H221.051C220.251 235 219.685 234.633 219.351 233.9L217.551 229.05H204.451L202.651 233.9C202.318 234.633 201.751 235 200.951 235H194.451ZM206.551 221.55H215.451L211.001 208.8L206.551 221.55ZM237.688 235C237.321 235 237.004 234.883 236.738 234.65C236.504 234.417 236.388 234.117 236.388 233.75V201.3C236.388 200.933 236.504 200.633 236.738 200.4C237.004 200.133 237.321 200 237.688 200H243.338C244.171 200 244.771 200.367 245.138 201.1L253.738 216.5L262.388 201.1C262.754 200.367 263.354 200 264.188 200H269.838C270.204 200 270.504 200.133 270.738 200.4C271.004 200.633 271.138 200.933 271.138 201.3V233.75C271.138 234.117 271.004 234.417 270.738 234.65C270.504 234.883 270.204 235 269.838 235H263.488C263.154 235 262.854 234.883 262.588 234.65C262.354 234.383 262.238 234.083 262.238 233.75V215.55L256.838 225.45C256.404 226.217 255.821 226.6 255.088 226.6H252.388C251.721 226.6 251.138 226.217 250.638 225.45L245.288 215.55V233.75C245.288 234.117 245.154 234.417 244.888 234.65C244.654 234.883 244.354 235 243.988 235H237.688ZM283.191 235C282.857 235 282.557 234.883 282.291 234.65C282.057 234.383 281.941 234.083 281.941 233.75V201.3C281.941 200.933 282.057 200.633 282.291 200.4C282.524 200.133 282.824 200 283.191 200H298.641C302.874 200 306.024 200.867 308.091 202.6C310.157 204.333 311.191 206.8 311.191 210C311.191 211.6 310.757 212.983 309.891 214.15C309.057 215.317 308.124 216.167 307.091 216.7C308.457 217.3 309.607 218.3 310.541 219.7C311.474 221.067 311.941 222.617 311.941 224.35C311.941 227.717 310.824 230.333 308.591 232.2C306.391 234.067 303.224 235 299.091 235H283.191ZM297.591 213.85C298.824 213.85 299.774 213.517 300.441 212.85C301.107 212.183 301.441 211.317 301.441 210.25C301.441 209.217 301.107 208.383 300.441 207.75C299.807 207.083 298.857 206.75 297.591 206.75H291.341V213.85H297.591ZM298.041 228.25C299.341 228.25 300.341 227.883 301.041 227.15C301.774 226.383 302.141 225.45 302.141 224.35C302.141 223.217 301.774 222.283 301.041 221.55C300.307 220.783 299.307 220.4 298.041 220.4H291.341V228.25H298.041Z" fill="#4A38AE"/>
</svg>
