<svg width="53" height="84" viewBox="0 0 53 84" fill="none" xmlns="http://www.w3.org/2000/svg">
<path opacity="0.1" d="M26.9293 83.8427L53 68.6462L26.9293 53.4497L0.684814 68.6462L26.9293 83.8427Z" fill="#03002D"/>
<path d="M26.9293 30.393L53 15.1964V45.5895L26.9293 60.7861L0.684814 45.5895V15.1964L26.9293 30.393Z" fill="#40F3EB"/>
<path d="M26.9293 60.7861L53 45.5895V15.1964L26.9293 30.393V60.7861Z" fill="#40F3EB"/>
<path d="M0.685257 45.5895L26.9297 60.7861V30.393L0.685257 15.1964V45.5895Z" fill="#A9FFFB"/>
<path d="M26.9293 30.393L53 15.1965L26.9293 0L0.684814 15.1965L26.9293 30.393Z" fill="#40F3EB"/>
<path d="M26.9293 30.393L53 15.1964V16.5938L26.9293 31.7904L0.684814 16.5938V15.1964L26.9293 30.393Z" fill="white"/>
</svg>
