<svg width="362" height="60" viewBox="0 0 362 60" fill="none" xmlns="http://www.w3.org/2000/svg">
<path d="M117.489 33.6011H101.565V49.9931C101.565 50.3825 101.448 50.694 101.175 50.9276C100.903 51.1612 100.591 51.278 100.28 51.278H97.2038C96.8145 51.278 96.503 51.1612 96.2304 50.8886C95.9579 50.6161 95.8411 50.3046 95.8411 49.9931V14.2889C95.8411 11.9138 97.5153 9.34406 100.903 6.65749C104.251 3.93197 107.132 2.60815 109.546 2.60815C111.922 2.60815 114.803 3.97091 118.19 6.65749C121.539 9.34406 123.252 11.9138 123.252 14.2889V49.9931C123.252 50.3435 123.135 50.655 122.863 50.8886C122.59 51.1612 122.279 51.278 121.889 51.278H118.891C118.541 51.278 118.229 51.1612 117.996 50.8886C117.723 50.6161 117.606 50.3046 117.606 49.9931V33.6011H117.489ZM101.526 15.0287V28.5784H117.45V15.0287C117.45 13.627 116.477 12.0696 114.53 10.4343C112.583 8.76002 110.909 7.94237 109.469 7.94237C108.106 7.94237 106.432 8.76002 104.446 10.4343C102.538 12.0696 101.526 13.627 101.526 15.0287Z" fill="white"/>
<path d="M151.64 49.9934V24.7629C151.64 23.5948 150.861 22.3878 149.343 21.1419C147.824 19.8959 146.539 19.273 145.488 19.273C144.476 19.273 143.191 19.8959 141.633 21.1419C140.115 22.3878 139.336 23.5948 139.336 24.7629V49.9934C139.336 50.3827 139.219 50.6942 138.986 50.9278C138.752 51.1615 138.44 51.2783 138.051 51.2783H135.131C134.235 51.2783 133.807 50.85 133.807 49.9544V23.9453C133.807 21.8427 135.209 19.7013 138.051 17.4819C140.893 15.2626 143.346 14.1724 145.449 14.1724C146.812 14.1724 148.369 14.7175 150.082 15.8077C151.795 16.8979 153.275 18.1438 154.443 19.5066C155.611 18.1438 157.091 16.8979 158.843 15.8077C160.595 14.7175 162.152 14.1724 163.437 14.1724C165.579 14.1724 168.071 15.2626 170.913 17.4819C173.755 19.7013 175.157 21.8427 175.157 23.9453V49.9934C175.157 50.3827 175.04 50.6942 174.768 50.9278C174.495 51.1615 174.184 51.2783 173.872 51.2783H170.952C170.056 51.2783 169.628 50.85 169.628 49.9544V24.7629C169.628 23.5948 168.849 22.3878 167.331 21.1419C165.812 19.8959 164.489 19.273 163.398 19.273C162.386 19.273 161.101 19.8959 159.544 21.1419C158.025 22.3878 157.246 23.5948 157.246 24.7629V49.9934C157.246 50.8889 156.818 51.3172 155.923 51.3172H153.002C152.613 51.3172 152.302 51.2004 152.068 50.9668C151.757 50.6942 151.64 50.3827 151.64 49.9934Z" fill="white"/>
<path d="M190.926 1.28488V17.9494C191.86 16.9371 193.028 16.0416 194.43 15.2629C195.832 14.5231 197.117 14.1337 198.324 14.1337C200.387 14.1337 202.801 15.2239 205.643 17.4433C208.486 19.6626 209.887 21.882 209.887 24.1402V41.7782C209.887 43.9586 208.408 46.2169 205.41 48.4751C202.451 50.7334 199.842 51.8626 197.584 51.8626C195.287 51.8626 192.678 50.7334 189.758 48.5141C186.837 46.2558 185.358 44.0365 185.358 41.8561V1.28488C185.358 0.895525 185.475 0.584038 185.708 0.350423C185.942 0.116807 186.253 0 186.643 0H189.563C189.952 0 190.264 0.116807 190.497 0.350423C190.809 0.584038 190.926 0.895525 190.926 1.28488ZM204.281 24.9579C204.281 23.7509 203.463 22.466 201.867 21.1811C200.27 19.8962 198.83 19.2343 197.623 19.2343C196.455 19.2343 195.053 19.8962 193.379 21.1811C191.704 22.466 190.887 23.7119 190.887 24.88V41.0384C190.887 42.2065 191.666 43.4524 193.262 44.7762C194.858 46.1001 196.26 46.762 197.545 46.762C198.83 46.762 200.231 46.1001 201.867 44.8152C203.463 43.5303 204.281 42.2843 204.281 41.0384V24.9579Z" fill="white"/>
<path d="M235.666 16.4703L235.315 18.6507C235.16 19.4294 234.614 19.7409 233.641 19.5852C232.668 19.3905 231.85 19.2737 231.149 19.2737C230.137 19.2737 228.852 19.9356 227.294 21.2984C225.776 22.6222 224.997 23.8681 224.997 24.9973V49.9552C224.997 50.8507 224.569 51.279 223.673 51.279H220.753C220.364 51.279 220.052 51.1622 219.819 50.9286C219.585 50.695 219.468 50.3835 219.468 49.9941V24.2575C219.468 22.116 220.87 19.8967 223.634 17.6384C226.399 15.3801 228.852 14.251 230.954 14.251C232.278 14.251 233.524 14.4457 234.692 14.835C235.549 15.0297 235.86 15.6137 235.666 16.4703Z" fill="white"/>
<path d="M245.666 17.5598C248.625 15.3015 251.195 14.1724 253.453 14.1724C255.711 14.1724 258.281 15.3015 261.24 17.5208C264.199 19.7791 265.679 22.0374 265.679 24.3346V41.739C265.679 43.9194 264.199 46.1777 261.201 48.4749C258.242 50.7721 255.633 51.9012 253.453 51.9012C251.195 51.9012 248.625 50.7721 245.666 48.5138C242.707 46.2555 241.227 43.9972 241.227 41.739V24.2957C241.227 22.0763 242.707 19.8181 245.666 17.5598ZM260.111 40.9992V25.0355C260.111 23.7506 259.293 22.5046 257.697 21.1808C256.101 19.8959 254.66 19.234 253.453 19.234C252.246 19.234 250.805 19.8959 249.209 21.1808C247.613 22.4657 246.795 23.7506 246.795 25.0355V40.9602C246.795 42.2451 247.574 43.4911 249.17 44.8149C250.766 46.0998 252.168 46.7617 253.453 46.7617C254.66 46.7617 256.101 46.0998 257.697 44.8149C259.293 43.53 260.111 42.2451 260.111 40.9992Z" fill="white"/>
<path d="M286.044 19.2736C285.071 19.2736 283.786 19.8576 282.19 21.0646C280.593 22.2716 279.815 23.3229 279.815 24.2963V25.8927C279.815 27.1386 280.905 28.2288 283.124 29.0854L291.534 32.2392C295.233 33.7188 297.102 35.9771 297.102 39.053V42.6351C297.102 44.504 295.7 46.4897 292.897 48.6312C290.094 50.7727 287.602 51.8629 285.46 51.8629C283.202 51.8629 279.892 50.7338 275.532 48.5144C274.558 47.9693 274.286 47.2295 274.714 46.334L275.532 44.4261C275.921 43.5306 276.661 43.3359 277.79 43.8421C281.683 45.7889 284.253 46.7623 285.46 46.7623C286.473 46.7623 287.757 46.1783 289.315 45.0102C290.833 43.8421 291.612 42.7908 291.612 41.9342V39.7928C291.612 38.9751 291.301 38.2743 290.717 37.7292C290.094 37.1841 289.237 36.6779 288.069 36.1717L280.009 33.0958C276.31 31.6941 274.441 29.5526 274.441 26.7493V23.5955C274.441 21.6487 275.882 19.5851 278.802 17.4046C281.683 15.2242 284.136 14.134 286.083 14.134C288.264 14.134 291.456 15.1853 295.661 17.2878C296.012 17.4436 296.245 17.6772 296.401 18.0666C296.557 18.417 296.518 18.8063 296.323 19.1957L295.584 21.1814C295.155 22.1159 294.415 22.3106 293.403 21.7655C289.51 20.0912 287.096 19.2736 286.044 19.2736Z" fill="white"/>
<path d="M310.766 16.0423V40.9223C310.766 42.2462 311.545 43.531 313.141 44.8159C314.738 46.1008 316.139 46.7627 317.346 46.7627C318.514 46.7627 319.916 46.1008 321.512 44.8159C323.109 43.531 323.927 42.2072 323.927 40.9223V16.0423C323.927 15.1468 324.355 14.7185 325.25 14.7185H328.171C328.56 14.7185 328.871 14.8353 329.105 15.0689C329.339 15.3025 329.455 15.614 329.455 16.0034V41.6621C329.455 43.9593 327.976 46.2176 325.056 48.4759C322.135 50.7342 319.527 51.8244 317.307 51.8244C315.01 51.8244 312.402 50.6952 309.52 48.4759C306.6 46.2176 305.159 43.9593 305.159 41.6621V16.0423C305.159 15.653 305.276 15.3415 305.51 15.1079C305.743 14.8742 306.055 14.7574 306.444 14.7574H309.365C309.754 14.7574 310.065 14.8742 310.299 15.1079C310.649 15.3415 310.766 15.653 310.766 16.0423Z" fill="white"/>
<path d="M350.29 19.2736C349.317 19.2736 348.032 19.8576 346.436 21.0646C344.839 22.2716 344.061 23.3229 344.061 24.2963V25.8927C344.061 27.1386 345.151 28.2288 347.37 29.0854L355.78 32.2392C359.479 33.7188 361.348 35.9771 361.348 39.053V42.6351C361.348 44.504 359.946 46.4897 357.143 48.6312C354.34 50.7727 351.848 51.8629 349.706 51.8629C347.448 51.8629 344.139 50.7338 339.778 48.5144C338.804 47.9693 338.532 47.2295 338.96 46.334L339.778 44.4261C340.167 43.5306 340.907 43.3359 342.036 43.8421C345.93 45.7889 348.499 46.7623 349.706 46.7623C350.719 46.7623 352.004 46.1783 353.561 45.0102C355.079 43.8421 355.858 42.7908 355.858 41.9342V39.7928C355.858 38.9751 355.547 38.2743 354.963 37.7292C354.34 37.1841 353.483 36.6779 352.315 36.1717L344.255 33.0958C340.556 31.6941 338.688 29.5526 338.688 26.7493V23.5955C338.688 21.6487 340.128 19.5851 343.048 17.4046C345.93 15.2242 348.383 14.134 350.329 14.134C352.51 14.134 355.702 15.1853 359.908 17.2878C360.258 17.4436 360.492 17.6772 360.647 18.0666C360.803 18.417 360.764 18.8063 360.569 19.1957L359.83 21.1814C359.401 22.1159 358.662 22.3106 357.649 21.7655C353.756 20.0912 351.303 19.2736 350.29 19.2736Z" fill="white"/>
<path d="M256.339 7.00866C256.339 6.69717 256.222 6.42462 255.988 6.22994C255.755 6.03526 255.443 5.91846 255.054 5.91846H252.211C251.822 5.91846 251.511 6.03526 251.277 6.22994C251.043 6.42462 250.927 6.69717 250.927 7.00866V17.9107H256.339V7.00866Z" fill="white"/>
<path d="M250.963 58.9098C250.963 59.2213 251.08 59.4939 251.313 59.6886C251.547 59.8832 251.858 60.0001 252.248 60.0001H255.09C255.479 60.0001 255.791 59.8832 256.025 59.6886C256.258 59.4939 256.375 59.2213 256.375 58.9098V48.0078H250.963V58.9098Z" fill="white"/>
<path d="M57.923 29.0073C57.4558 29.0073 57.0664 28.6569 56.9885 28.1896C55.7815 19.8963 49.1235 13.3551 40.7912 12.2649C40.2851 12.187 39.8957 11.7198 39.9736 11.2136C40.0514 10.7074 40.5187 10.3181 41.0248 10.3959C50.1748 11.6029 57.4947 18.8061 58.8575 27.956C58.9353 28.4622 58.5849 28.9683 58.0398 29.0462C58.0398 29.0073 58.0009 29.0073 57.923 29.0073Z" fill="white"/>
<path d="M53.0138 45.2434C52.7802 45.2434 52.5466 45.1655 52.3908 45.0098C52.0015 44.6593 51.9625 44.0753 52.313 43.6859C54.9995 40.7268 56.6348 37.1058 57.1021 33.1733C57.1799 32.6671 57.6472 32.2778 58.1533 32.3557C58.6595 32.4335 59.0489 32.9007 58.971 33.4069C58.4648 37.7288 56.6348 41.7392 53.7147 44.9708C53.52 45.1655 53.2474 45.2434 53.0138 45.2434Z" fill="white"/>
<path d="M40.9432 51.5893C40.476 51.5893 40.0866 51.2389 40.0087 50.7717C39.9309 50.2655 40.3202 49.7593 40.8264 49.7204C43.9802 49.2921 47.0172 48.0851 49.5869 46.1773C50.0152 45.8658 50.5993 45.9436 50.9108 46.3719C51.2223 46.8002 51.1444 47.3843 50.7161 47.6957C47.8738 49.7983 44.5642 51.161 41.06 51.6283C41.0211 51.5893 40.9821 51.5893 40.9432 51.5893Z" fill="white"/>
<path d="M35.7247 51.59C35.6858 51.59 35.6469 51.59 35.6079 51.59C26.1465 50.344 18.7877 42.8683 17.6974 33.4069C17.6196 32.9008 18.0089 32.4335 18.5151 32.3557C19.0213 32.2778 19.4885 32.6671 19.5664 33.1733C20.5787 41.7781 27.2367 48.5919 35.8415 49.721C36.3477 49.7989 36.7371 50.2662 36.6592 50.7723C36.6203 51.2396 36.192 51.59 35.7247 51.59Z" fill="white"/>
<path d="M18.7085 29.0076C18.6696 29.0076 18.6307 29.0076 18.5528 29.0076C18.0466 28.9297 17.6962 28.4625 17.7351 27.9173C18.3581 23.7123 20.227 19.8187 23.1862 16.7038C23.5366 16.3145 24.1595 16.3145 24.51 16.6649C24.8993 17.0153 24.8993 17.6383 24.5489 17.9887C21.8623 20.831 20.1492 24.3352 19.604 28.1899C19.5651 28.6571 19.1758 29.0076 18.7085 29.0076Z" fill="white"/>
<path d="M26.8114 15.7691C26.4999 15.7691 26.2274 15.6133 26.0327 15.3797C25.7212 14.9514 25.838 14.3674 26.2663 14.0559C29.0307 12.1091 32.2235 10.8242 35.572 10.3959C36.0782 10.3181 36.5843 10.7074 36.6233 11.2136C36.7011 11.7198 36.3118 12.2259 35.8056 12.2649C32.7686 12.6542 29.8484 13.8223 27.3565 15.6133C27.2008 15.7301 27.0061 15.7691 26.8114 15.7691Z" fill="white"/>
<path d="M38.3375 47.7751C29.0708 47.7751 21.5562 40.2216 21.5562 30.9938C21.5562 21.727 29.1097 14.2124 38.3375 14.2124C47.6042 14.2124 55.1188 21.766 55.1188 30.9938C55.1188 40.2605 47.6042 47.7751 38.3375 47.7751ZM38.3375 16.0813C30.122 16.0813 23.4251 22.7783 23.4251 30.9938C23.4251 39.2092 30.122 45.9062 38.3375 45.9062C46.5529 45.9062 53.2499 39.2092 53.2499 30.9938C53.211 22.7783 46.5529 16.0813 38.3375 16.0813Z" fill="white"/>
<path d="M18.6359 35.0813C19.7756 35.0813 20.6995 34.1574 20.6995 33.0177C20.6995 31.878 19.7756 30.9541 18.6359 30.9541C17.4962 30.9541 16.5723 31.878 16.5723 33.0177C16.5723 34.1574 17.4962 35.0813 18.6359 35.0813Z" fill="white"/>
<path d="M58.1129 30.3703C59.2526 30.3703 60.1765 29.4464 60.1765 28.3068C60.1765 27.1671 59.2526 26.2432 58.1129 26.2432C56.9732 26.2432 56.0493 27.1671 56.0493 28.3068C56.0493 29.4464 56.9732 30.3703 58.1129 30.3703Z" fill="white"/>
<path d="M43.8278 26.3605C43.8278 23.4013 41.4138 20.9873 38.4547 20.9873C35.4956 20.9873 33.0815 23.4013 33.0815 26.3605C33.0815 28.2294 34.016 29.8647 35.4956 30.8381L35.5734 30.4487C35.6902 29.7479 36.3911 29.1639 37.0919 29.1639H39.8174C40.5572 29.1639 41.2191 29.7479 41.3359 30.4487L41.4138 30.8381C42.8544 29.8647 43.8278 28.2294 43.8278 26.3605Z" fill="white"/>
<path d="M35.4915 30.8359L34.0119 39.8691C33.8951 40.57 34.4013 41.154 35.1021 41.154H41.7991C42.5389 41.154 43.0061 40.57 42.8893 39.8691L41.4097 30.8359C40.5531 31.381 39.5408 31.7315 38.4506 31.7315C37.3604 31.7315 36.3481 31.381 35.4915 30.8359Z" fill="white"/>
<path d="M39.8187 29.123H37.0932C36.3534 29.123 35.6915 29.7071 35.5747 30.4079L35.4968 30.7973C36.3534 31.3424 37.3658 31.6928 38.456 31.6928C39.5462 31.6928 40.5585 31.3813 41.4151 30.7973L41.3373 30.4079C41.2204 29.7071 40.5585 29.123 39.8187 29.123Z" fill="white"/>
<path d="M74.896 32.7057C74.273 32.7057 73.6501 32.3942 73.3386 31.8101C73.2218 31.6155 62.125 12.1865 38.3352 12.1865C14.5454 12.1865 3.44871 31.6155 3.3319 31.8101C2.86467 32.6667 1.77446 32.9782 0.917875 32.511C0.0612862 32.0438 -0.2502 30.9536 0.21703 30.097C0.68426 29.2404 12.365 8.64331 38.3352 8.64331C64.2665 8.64331 75.9473 29.2404 76.4534 30.097C76.9207 30.9536 76.6092 32.0438 75.7526 32.511C75.48 32.6278 75.1686 32.7057 74.896 32.7057Z" fill="white"/>
<path d="M38.3352 53.2249C12.404 53.2249 0.723196 32.6278 0.21703 31.7712C-0.2502 30.9146 0.0612862 29.8244 0.917875 29.3572C1.77446 28.8899 2.86467 29.2014 3.3319 30.058C3.44871 30.2527 14.5454 49.6817 38.3352 49.6817C62.125 49.6817 73.2218 30.2527 73.3386 30.058C73.8058 29.2014 74.896 28.8899 75.7526 29.3572C76.6092 29.8244 76.9207 30.9146 76.4534 31.7712C75.9473 32.6667 64.2665 53.2249 38.3352 53.2249Z" fill="white"/>
</svg>
