<svg width="1440" height="1140" viewBox="0 0 1440 1140" fill="none" xmlns="http://www.w3.org/2000/svg">
<rect width="1440" height="1140" fill="#4A38AE"/>
<g opacity="0.1">
<g opacity="0.1">
<path opacity="0.1" d="M174.68 307.947L209.131 287.878V328.016L174.68 348.085L140 328.016V287.878L174.68 307.947Z" fill="#42E8E0"/>
<path opacity="0.1" d="M174.68 348.085L209.131 328.016V287.878L174.68 307.947V348.085Z" fill="#42E8E0"/>
<path opacity="0.1" d="M140 328.016L174.68 348.085V307.947L140 287.878V328.016Z" fill="#2FD3C7"/>
<path opacity="0.1" d="M174.68 307.947L209.131 287.878L174.68 267.809L140 287.878L174.68 307.947Z" fill="#42E8E0"/>
<path opacity="0.1" d="M174.68 307.947L209.131 287.878V289.723L174.68 309.793L140 289.723V287.878L174.68 307.947Z" fill="white"/>
</g>
<path opacity="0.4" d="M174.68 283.726L209.131 263.657L174.68 243.588L140 263.657L174.68 283.726Z" fill="#03002D"/>
<path d="M174.68 213.138L209.131 193.069V233.207L174.68 253.276L140 233.207V193.069L174.68 213.138Z" fill="#42E8E0"/>
<path d="M174.68 253.276L209.131 233.207V193.069L174.68 213.138V253.276Z" fill="#42E8E0"/>
<path d="M140 233.207L174.68 253.276V213.138L140 193.069V233.207Z" fill="#2FD3C7"/>
<path d="M174.68 213.138L209.131 193.069L174.68 173L140 193.069L174.68 213.138Z" fill="#42E8E0"/>
<path d="M174.68 213.138L209.131 193.069V194.914L174.68 214.983L140 194.914V193.069L174.68 213.138Z" fill="white"/>
</g>
<g opacity="0.1">
<g opacity="0.1">
<path opacity="0.1" d="M1285.68 1058.95L1320.13 1038.88V1079.02L1285.68 1099.09L1251 1079.02V1038.88L1285.68 1058.95Z" fill="#42E8E0"/>
<path opacity="0.1" d="M1285.68 1099.09L1320.13 1079.02V1038.88L1285.68 1058.95V1099.09Z" fill="#42E8E0"/>
<path opacity="0.1" d="M1251 1079.02L1285.68 1099.09V1058.95L1251 1038.88V1079.02Z" fill="#2FD3C7"/>
<path opacity="0.1" d="M1285.68 1058.95L1320.13 1038.88L1285.68 1018.81L1251 1038.88L1285.68 1058.95Z" fill="#42E8E0"/>
<path opacity="0.1" d="M1285.68 1058.95L1320.13 1038.88V1040.72L1285.68 1060.79L1251 1040.72V1038.88L1285.68 1058.95Z" fill="white"/>
</g>
<path opacity="0.4" d="M1285.68 1034.73L1320.13 1014.66L1285.68 994.588L1251 1014.66L1285.68 1034.73Z" fill="#03002D"/>
<path d="M1285.68 964.138L1320.13 944.069V984.207L1285.68 1004.28L1251 984.207V944.069L1285.68 964.138Z" fill="#42E8E0"/>
<path d="M1285.68 1004.28L1320.13 984.207V944.069L1285.68 964.138V1004.28Z" fill="#42E8E0"/>
<path d="M1251 984.207L1285.68 1004.28V964.138L1251 944.069V984.207Z" fill="#2FD3C7"/>
<path d="M1285.68 964.138L1320.13 944.069L1285.68 924L1251 944.069L1285.68 964.138Z" fill="#42E8E0"/>
<path d="M1285.68 964.138L1320.13 944.069V945.914L1285.68 965.983L1251 945.914V944.069L1285.68 964.138Z" fill="white"/>
</g>
<g opacity="0.7">
<g opacity="0.2">
<path opacity="0.1" d="M1248.97 263.248L1294.65 236.813V289.683L1248.97 316.118L1203.29 289.683V236.813L1248.97 263.248Z" fill="#6CFFF8"/>
<path opacity="0.1" d="M1248.97 316.118L1294.65 289.683V236.813L1248.97 263.248V316.118Z" fill="#6CFFF8"/>
<path opacity="0.1" d="M1203.29 289.683L1248.97 316.118V263.248L1203.29 236.813V289.683Z" fill="#26FFEF"/>
<path opacity="0.1" d="M1248.97 263.248L1294.65 236.813L1248.97 210.378L1203.29 236.813L1248.97 263.248Z" fill="#6CFFF8"/>
<path opacity="0.1" d="M1248.97 263.248L1292.53 237.725L1294.65 238.94L1248.97 265.375L1203.29 238.94L1205.4 237.725L1248.97 263.248Z" fill="white"/>
</g>
<g opacity="0.2">
<path opacity="0.1" d="M1189.67 296.976L1235.35 270.541V323.411L1189.67 349.845L1144.29 323.411V270.541L1189.67 296.976Z" fill="#6CFFF8"/>
<path opacity="0.1" d="M1189.67 349.845L1235.35 323.411V270.541L1189.67 296.976V349.845Z" fill="#6CFFF8"/>
<path opacity="0.1" d="M1144.29 323.411L1189.67 349.845V296.976L1144.29 270.541V323.411Z" fill="#26FFEF"/>
<path opacity="0.1" d="M1189.67 296.976L1235.35 270.541L1189.67 244.106L1144.29 270.541L1189.67 296.976Z" fill="#6CFFF8"/>
<path opacity="0.1" d="M1189.67 296.976L1233.24 271.756L1235.35 272.971L1189.67 299.406L1144.29 272.971L1146.11 271.756L1189.67 296.976Z" fill="white"/>
</g>
<g opacity="0.2">
<path opacity="0.1" d="M1130.68 331.007L1176.06 304.572V357.442L1130.68 383.877L1085 357.442V304.572L1130.68 331.007Z" fill="#6CFFF8"/>
<path opacity="0.1" d="M1130.68 383.877L1176.06 357.442V304.572L1130.68 331.007V383.877Z" fill="#6CFFF8"/>
<path opacity="0.1" d="M1085 357.442L1130.68 383.877V331.007L1085 304.572V357.442Z" fill="#26FFEF"/>
<path opacity="0.1" d="M1130.68 331.007L1176.06 304.572L1130.68 278.137L1085 304.572L1130.68 331.007Z" fill="#6CFFF8"/>
<path opacity="0.1" d="M1130.68 331.007L1174.24 305.787L1176.06 306.699L1130.68 333.134L1085 307.003V304.572L1130.68 331.007Z" fill="white"/>
</g>
<g opacity="0.2">
<path opacity="0.1" d="M1308.26 299.406L1353.64 272.971V325.841L1308.26 352.276L1262.58 325.841V272.971L1308.26 299.406Z" fill="#6CFFF8"/>
<path opacity="0.1" d="M1308.26 352.276L1353.64 325.841V272.971L1308.26 299.406V352.276Z" fill="#6CFFF8"/>
<path opacity="0.1" d="M1262.58 325.841L1308.26 352.276V299.406L1262.58 272.971V325.841Z" fill="#26FFEF"/>
<path opacity="0.1" d="M1308.26 299.406L1353.64 272.971L1308.26 246.537L1262.58 272.971L1308.26 299.406Z" fill="#6CFFF8"/>
<path opacity="0.1" d="M1308.26 299.406L1351.83 274.187L1353.64 275.098L1308.26 301.533L1262.58 275.098L1264.7 274.187L1308.26 299.406Z" fill="white"/>
</g>
<g opacity="0.2">
<path opacity="0.1" d="M1248.97 333.134L1294.65 307.003V359.569L1248.97 386.004L1203.29 359.569V307.003L1248.97 333.134Z" fill="#6CFFF8"/>
<path opacity="0.1" d="M1248.97 386.004L1294.65 359.569V307.003L1248.97 333.134V386.004Z" fill="#6CFFF8"/>
<path opacity="0.1" d="M1203.29 359.569L1248.97 386.004V333.134L1203.29 307.003V359.569Z" fill="#26FFEF"/>
<path opacity="0.1" d="M1248.97 333.134L1294.65 307.003L1248.97 280.568L1203.29 307.003L1248.97 333.134Z" fill="#6CFFF8"/>
<path opacity="0.1" d="M1248.97 333.134L1292.53 307.914L1294.65 309.13L1248.97 335.565L1203.29 309.13L1205.4 307.914L1248.97 333.134Z" fill="white"/>
</g>
<g opacity="0.2">
<path opacity="0.1" d="M1189.67 367.165L1235.35 340.73V393.6L1189.67 420.035L1144.29 393.6V340.73L1189.67 367.165Z" fill="#6CFFF8"/>
<path opacity="0.1" d="M1189.67 420.035L1235.35 393.6V340.73L1189.67 367.165V420.035Z" fill="#6CFFF8"/>
<path opacity="0.1" d="M1144.29 393.6L1189.67 420.035V367.165L1144.29 340.73V393.6Z" fill="#26FFEF"/>
<path opacity="0.1" d="M1189.67 367.165L1235.35 340.73L1189.67 314.295L1144.29 340.73L1189.67 367.165Z" fill="#6CFFF8"/>
<path opacity="0.1" d="M1189.67 367.165L1233.24 341.945L1235.35 343.161L1189.67 369.596L1144.29 343.161V340.73L1189.67 367.165Z" fill="white"/>
</g>
<g opacity="0.2">
<path opacity="0.1" d="M1367.25 335.565L1412.93 309.13V361.999L1367.25 388.434L1321.87 361.999V309.13L1367.25 335.565Z" fill="#6CFFF8"/>
<path opacity="0.1" d="M1367.25 388.434L1412.93 361.999V309.13L1367.25 335.565V388.434Z" fill="#6CFFF8"/>
<path opacity="0.1" d="M1321.88 361.999L1367.25 388.434V335.565L1321.88 309.13V361.999Z" fill="#26FFEF"/>
<path opacity="0.1" d="M1367.25 335.565L1412.93 309.13L1367.25 282.695L1321.87 309.13L1367.25 335.565Z" fill="#6CFFF8"/>
<path opacity="0.1" d="M1367.25 335.565L1412.93 309.13V311.56L1367.25 337.995L1321.87 311.56L1323.69 310.345L1367.25 335.565Z" fill="white"/>
</g>
<g opacity="0.2">
<path opacity="0.1" d="M1308.26 369.595L1353.64 343.161V396.03L1308.26 422.465L1262.58 396.03V343.161L1308.26 369.595Z" fill="#6CFFF8"/>
<path opacity="0.1" d="M1308.26 422.465L1353.64 396.03V343.161L1308.26 369.595V422.465Z" fill="#6CFFF8"/>
<path opacity="0.1" d="M1262.58 396.03L1308.26 422.465V369.595L1262.58 343.161V396.03Z" fill="#26FFEF"/>
<path opacity="0.1" d="M1308.26 369.596L1353.64 343.161L1308.26 316.726L1262.58 343.161L1308.26 369.596Z" fill="#6CFFF8"/>
<path opacity="0.1" d="M1308.26 369.595L1353.64 343.161V345.287L1308.26 371.722L1262.58 345.287L1264.7 344.072L1308.26 369.595Z" fill="white"/>
</g>
<g opacity="0.2">
<path opacity="0.1" d="M1248.97 403.323L1294.65 376.888V429.758L1248.97 456.193L1203.29 429.758V376.888L1248.97 403.323Z" fill="#6CFFF8"/>
<path opacity="0.1" d="M1248.97 456.193L1294.65 429.758V376.888L1248.97 403.323V456.193Z" fill="#6CFFF8"/>
<path opacity="0.1" d="M1203.29 429.758L1248.97 456.193V403.323L1203.29 376.888V429.758Z" fill="#26FFEF"/>
<path opacity="0.1" d="M1248.97 403.323L1294.65 376.888L1248.97 350.453L1203.29 376.888L1248.97 403.323Z" fill="#6CFFF8"/>
<path opacity="0.1" d="M1248.97 403.323L1294.65 376.888V379.319L1248.97 405.754L1203.29 379.319V376.888L1248.97 403.323Z" fill="white"/>
</g>
<g opacity="0.2">
<path opacity="0.1" d="M1248.97 193.059L1294.65 166.624V219.494L1248.97 245.929L1203.29 219.494V166.624L1248.97 193.059Z" fill="#6CFFF8"/>
<path opacity="0.1" d="M1248.97 245.929L1294.65 219.494V166.624L1248.97 193.059V245.929Z" fill="#6CFFF8"/>
<path opacity="0.1" d="M1203.29 219.494L1248.97 245.929V193.059L1203.29 166.624V219.494Z" fill="#26FFEF"/>
<path opacity="0.1" d="M1248.97 193.059L1294.65 166.624L1248.97 140.189L1203.29 166.624L1248.97 193.059Z" fill="#6CFFF8"/>
<path opacity="0.1" d="M1248.97 193.059L1292.53 167.536L1294.65 168.751L1248.97 195.186L1203.29 168.751L1205.4 167.536L1248.97 193.059Z" fill="white"/>
</g>
<g opacity="0.2">
<path opacity="0.7" d="M1248.97 394.815L1280.13 376.888L1248.97 358.657L1217.81 376.888L1248.97 394.815Z" fill="#00DEC8"/>
<path opacity="0.7" d="M1308.26 360.784L1339.12 342.857L1308.26 324.93L1277.1 342.857L1308.26 360.784Z" fill="#00DEC8"/>
<path opacity="0.7" d="M1189.67 358.657L1220.83 340.426L1189.67 322.499L1158.51 340.426L1189.67 358.657Z" fill="#00DEC8"/>
<path opacity="0.7" d="M1130.38 322.803L1161.54 304.876L1130.38 286.645L1099.22 304.876L1130.38 322.803Z" fill="#00DEC8"/>
<path opacity="0.7" d="M1367.25 327.057L1398.41 308.826L1367.25 290.899L1336.4 308.826L1367.25 327.057Z" fill="#00DEC8"/>
</g>
<g opacity="0.2">
<path opacity="0.1" d="M1189.67 226.786L1235.35 200.351V253.221L1189.67 279.656L1144.29 253.221V200.351L1189.67 226.786Z" fill="#6CFFF8"/>
<path opacity="0.1" d="M1189.67 279.656L1235.35 253.221V200.351L1189.67 226.786V279.656Z" fill="#6CFFF8"/>
<path opacity="0.1" d="M1144.29 253.221L1189.67 279.656V226.786L1144.29 200.351V253.221Z" fill="#26FFEF"/>
<path opacity="0.1" d="M1189.67 226.786L1235.35 200.351L1189.67 173.916L1144.29 200.351L1189.67 226.786Z" fill="#6CFFF8"/>
<path opacity="0.1" d="M1189.67 226.786L1233.24 201.567L1235.35 202.782L1189.67 229.217L1144.29 202.782L1146.11 201.567L1189.67 226.786Z" fill="white"/>
</g>
<g opacity="0.2">
<path opacity="0.1" d="M1130.68 260.817L1176.06 234.383V287.252L1130.68 313.687L1085 287.252V234.383L1130.68 260.817Z" fill="#6CFFF8"/>
<path opacity="0.1" d="M1130.68 313.687L1176.06 287.252V234.383L1130.68 260.817V313.687Z" fill="#6CFFF8"/>
<path opacity="0.1" d="M1085 287.252L1130.68 313.687V260.817L1085 234.383V287.252Z" fill="#26FFEF"/>
<path opacity="0.1" d="M1130.68 260.817L1176.06 234.383L1130.68 207.948L1085 234.383L1130.68 260.817Z" fill="#6CFFF8"/>
<path opacity="0.1" d="M1130.68 260.818L1174.24 235.598L1176.06 236.813L1130.68 263.248L1085 236.813V234.383L1130.68 260.818Z" fill="white"/>
</g>
<g opacity="0.2">
<path opacity="0.1" d="M1308.26 229.217L1353.64 202.782V255.652L1308.26 282.087L1262.58 255.652V202.782L1308.26 229.217Z" fill="#6CFFF8"/>
<path opacity="0.1" d="M1308.26 282.087L1353.64 255.652V202.782L1308.26 229.217V282.087Z" fill="#6CFFF8"/>
<path opacity="0.1" d="M1262.58 255.652L1308.26 282.087V229.217L1262.58 202.782V255.652Z" fill="#26FFEF"/>
<path opacity="0.1" d="M1308.26 229.217L1353.64 202.782L1308.26 176.347L1262.58 202.782L1308.26 229.217Z" fill="#6CFFF8"/>
<path opacity="0.1" d="M1308.26 229.217L1351.83 203.998L1353.64 204.909L1308.26 231.344L1262.58 204.909L1264.7 203.998L1308.26 229.217Z" fill="white"/>
</g>
<g opacity="0.2">
<path opacity="0.1" d="M1248.97 263.248L1294.65 236.813V289.683L1248.97 316.118L1203.29 289.683V236.813L1248.97 263.248Z" fill="#6CFFF8"/>
<path opacity="0.1" d="M1248.97 316.118L1294.65 289.683V236.813L1248.97 263.248V316.118Z" fill="#6CFFF8"/>
<path opacity="0.1" d="M1203.29 289.683L1248.97 316.118V263.248L1203.29 236.813V289.683Z" fill="#26FFEF"/>
<path opacity="0.1" d="M1248.97 263.248L1294.65 236.813L1248.97 210.378L1203.29 236.813L1248.97 263.248Z" fill="#6CFFF8"/>
<path opacity="0.1" d="M1248.97 263.248L1292.53 237.725L1294.65 238.94L1248.97 265.375L1203.29 238.94L1205.4 237.725L1248.97 263.248Z" fill="white"/>
</g>
<g opacity="0.2">
<path opacity="0.1" d="M1189.67 296.976L1235.35 270.541V323.411L1189.67 349.845L1144.29 323.411V270.541L1189.67 296.976Z" fill="#6CFFF8"/>
<path opacity="0.1" d="M1189.67 349.845L1235.35 323.411V270.541L1189.67 296.976V349.845Z" fill="#6CFFF8"/>
<path opacity="0.1" d="M1144.29 323.411L1189.67 349.845V296.976L1144.29 270.541V323.411Z" fill="#26FFEF"/>
<path opacity="0.1" d="M1189.67 296.976L1235.35 270.541L1189.67 244.106L1144.29 270.541L1189.67 296.976Z" fill="#6CFFF8"/>
<path opacity="0.1" d="M1189.67 296.976L1233.24 271.756L1235.35 272.971L1189.67 299.407L1144.29 272.971V270.541L1189.67 296.976Z" fill="white"/>
</g>
<g opacity="0.2">
<path opacity="0.1" d="M1367.25 265.375L1412.93 238.94V291.81L1367.25 318.245L1321.87 291.81V238.94L1367.25 265.375Z" fill="#6CFFF8"/>
<path opacity="0.1" d="M1367.25 318.245L1412.93 291.81V238.94L1367.25 265.375V318.245Z" fill="#6CFFF8"/>
<path opacity="0.1" d="M1321.88 291.81L1367.25 318.245V265.375L1321.88 238.94V291.81Z" fill="#26FFEF"/>
<path opacity="0.1" d="M1367.25 265.375L1412.93 238.94L1367.25 212.505L1321.87 238.94L1367.25 265.375Z" fill="#6CFFF8"/>
<path opacity="0.1" d="M1367.25 265.375L1411.12 240.156L1412.93 241.371L1367.25 267.806L1321.87 241.371L1323.69 240.156L1367.25 265.375Z" fill="white"/>
</g>
<g opacity="0.2">
<path opacity="0.1" d="M1308.26 299.406L1353.64 272.971V325.841L1308.26 352.276L1262.58 325.841V272.971L1308.26 299.406Z" fill="#6CFFF8"/>
<path opacity="0.1" d="M1308.26 352.276L1353.64 325.841V272.971L1308.26 299.406V352.276Z" fill="#6CFFF8"/>
<path opacity="0.1" d="M1262.58 325.841L1308.26 352.276V299.406L1262.58 272.971V325.841Z" fill="#26FFEF"/>
<path opacity="0.1" d="M1308.26 299.406L1353.64 272.971L1308.26 246.537L1262.58 272.971L1308.26 299.406Z" fill="#6CFFF8"/>
<path opacity="0.1" d="M1308.26 299.406L1353.64 272.971V275.098L1308.26 301.533L1262.58 275.098L1264.7 274.187L1308.26 299.406Z" fill="white"/>
</g>
<g opacity="0.2">
<path opacity="0.1" d="M1248.97 333.134L1294.65 307.003V359.569L1248.97 386.004L1203.29 359.569V307.003L1248.97 333.134Z" fill="#6CFFF8"/>
<path opacity="0.1" d="M1248.97 386.004L1294.65 359.569V307.003L1248.97 333.134V386.004Z" fill="#6CFFF8"/>
<path opacity="0.1" d="M1203.29 359.569L1248.97 386.004V333.134L1203.29 307.003V359.569Z" fill="#26FFEF"/>
<path opacity="0.1" d="M1248.97 333.134L1294.65 307.003L1248.97 280.568L1203.29 307.003L1248.97 333.134Z" fill="#6CFFF8"/>
<path opacity="0.1" d="M1248.97 333.134L1294.65 307.003V309.13L1248.97 335.565L1203.29 309.13V307.003L1248.97 333.134Z" fill="white"/>
</g>
<g opacity="0.2">
<path opacity="0.7" d="M1130.38 252.918L1161.54 234.99L1130.38 216.759L1099.22 234.99L1130.38 252.918Z" fill="#00DEC8"/>
<path opacity="0.7" d="M1367.25 257.172L1398.41 238.941L1367.25 221.014L1336.4 238.941L1367.25 257.172Z" fill="#00DEC8"/>
</g>
<g opacity="0.2">
<path opacity="0.1" d="M1248.97 122.87L1294.65 96.4348V149.305L1248.97 175.74L1203.29 149.305V96.4348L1248.97 122.87Z" fill="#6CFFF8"/>
<path opacity="0.1" d="M1248.97 175.74L1294.65 149.305V96.4348L1248.97 122.87V175.74Z" fill="#6CFFF8"/>
<path opacity="0.1" d="M1203.29 149.305L1248.97 175.74V122.87L1203.29 96.4348V149.305Z" fill="#26FFEF"/>
<path opacity="0.1" d="M1248.97 122.87L1294.65 96.435L1248.97 70L1203.29 96.435L1248.97 122.87Z" fill="#6CFFF8"/>
<path opacity="0.1" d="M1248.97 122.87L1294.65 96.4348V98.5618L1248.97 124.997L1203.29 98.5618V96.4348L1248.97 122.87Z" fill="white"/>
</g>
<g opacity="0.2">
<path opacity="0.1" d="M1189.67 156.597L1235.35 130.466V183.032L1189.67 209.467L1144.29 183.032V130.466L1189.67 156.597Z" fill="#6CFFF8"/>
<path opacity="0.1" d="M1189.67 209.467L1235.35 183.032V130.466L1189.67 156.597V209.467Z" fill="#6CFFF8"/>
<path opacity="0.1" d="M1144.29 183.032L1189.67 209.467V156.597L1144.29 130.466V183.032Z" fill="#26FFEF"/>
<path opacity="0.1" d="M1189.67 156.597L1235.35 130.466L1189.67 104.031L1144.29 130.466L1189.67 156.597Z" fill="#6CFFF8"/>
<path opacity="0.1" d="M1189.67 156.597L1235.35 130.466V132.593L1189.67 159.028L1144.29 132.593V130.466L1189.67 156.597Z" fill="white"/>
</g>
<g opacity="0.2">
<path opacity="0.1" d="M1130.68 190.628L1176.06 164.193V217.063L1130.68 243.498L1085 217.063V164.193L1130.68 190.628Z" fill="#6CFFF8"/>
<path opacity="0.1" d="M1130.68 243.498L1176.06 217.063V164.193L1130.68 190.628V243.498Z" fill="#6CFFF8"/>
<path opacity="0.1" d="M1085 217.063L1130.68 243.498V190.628L1085 164.193V217.063Z" fill="#26FFEF"/>
<path opacity="0.1" d="M1130.68 190.628L1176.06 164.194L1130.68 137.759L1085 164.194L1130.68 190.628Z" fill="#6CFFF8"/>
<path opacity="0.1" d="M1130.68 190.628L1176.06 164.193V166.624L1130.68 193.059L1085 166.624V164.193L1130.68 190.628Z" fill="white"/>
</g>
<g opacity="0.2">
<path opacity="0.1" d="M1308.26 159.028L1353.64 132.593V185.463L1308.26 211.898L1262.58 185.463V132.593L1308.26 159.028Z" fill="#6CFFF8"/>
<path opacity="0.1" d="M1308.26 211.898L1353.64 185.463V132.593L1308.26 159.028V211.898Z" fill="#6CFFF8"/>
<path opacity="0.1" d="M1262.58 185.463L1308.26 211.898V159.028L1262.58 132.593V185.463Z" fill="#26FFEF"/>
<path opacity="0.1" d="M1308.26 159.028L1353.64 132.593L1308.26 106.158L1262.58 132.593L1308.26 159.028Z" fill="#6CFFF8"/>
<path opacity="0.1" d="M1308.26 159.028L1353.64 132.593V135.024L1308.26 161.459L1262.58 135.024V132.593L1308.26 159.028Z" fill="white"/>
</g>
<g opacity="0.2">
<path opacity="0.1" d="M1367.25 195.186L1412.93 168.751V221.621L1367.25 248.056L1321.87 221.621V168.751L1367.25 195.186Z" fill="#6CFFF8"/>
<path opacity="0.1" d="M1367.25 248.056L1412.93 221.621V168.751L1367.25 195.186V248.056Z" fill="#6CFFF8"/>
<path opacity="0.1" d="M1321.88 221.621L1367.25 248.056V195.186L1321.88 168.751V221.621Z" fill="#26FFEF"/>
<path opacity="0.1" d="M1367.25 195.186L1412.93 168.751L1367.25 142.316L1321.87 168.751L1367.25 195.186Z" fill="#6CFFF8"/>
<path opacity="0.1" d="M1367.25 195.186L1412.93 168.751V171.182L1367.25 197.617L1321.87 171.182V168.751L1367.25 195.186Z" fill="white"/>
</g>
</g>
</svg>
