<svg width="1440" height="734" viewBox="0 0 1440 734" fill="none" xmlns="http://www.w3.org/2000/svg">
<path d="M0 0H1440V312L729.368 728.509C723.234 732.105 716.252 734 709.142 734H0V0Z" fill="#4A38AE"/>
<g opacity="0.1">
<g opacity="0.1">
<path opacity="0.1" d="M592.68 519.947L627.131 499.878V540.016L592.68 560.085L558 540.016V499.878L592.68 519.947Z" fill="#42E8E0"/>
<path opacity="0.1" d="M592.68 560.085L627.131 540.016V499.878L592.68 519.947V560.085Z" fill="#42E8E0"/>
<path opacity="0.1" d="M558 540.016L592.68 560.085V519.947L558 499.878V540.016Z" fill="#2FD3C7"/>
<path opacity="0.1" d="M592.68 519.947L627.131 499.878L592.68 479.809L558 499.878L592.68 519.947Z" fill="#42E8E0"/>
<path opacity="0.1" d="M592.68 519.947L627.131 499.878V501.723L592.68 521.793L558 501.723V499.878L592.68 519.947Z" fill="white"/>
</g>
<path opacity="0.4" d="M592.68 495.726L627.131 475.657L592.68 455.588L558 475.657L592.68 495.726Z" fill="#03002D"/>
<path d="M592.68 425.138L627.131 405.069V445.207L592.68 465.276L558 445.207V405.069L592.68 425.138Z" fill="#42E8E0"/>
<path d="M592.68 465.276L627.131 445.207V405.069L592.68 425.138V465.276Z" fill="#42E8E0"/>
<path d="M558 445.207L592.68 465.276V425.138L558 405.069V445.207Z" fill="#2FD3C7"/>
<path d="M592.68 425.138L627.131 405.069L592.68 385L558 405.069L592.68 425.138Z" fill="#42E8E0"/>
<path d="M592.68 425.138L627.131 405.069V406.914L592.68 426.983L558 406.914V405.069L592.68 425.138Z" fill="white"/>
</g>
<g opacity="0.1">
<g opacity="0.1">
<path opacity="0.1" d="M1248.68 299.947L1283.13 279.878V320.016L1248.68 340.085L1214 320.016V279.878L1248.68 299.947Z" fill="#42E8E0"/>
<path opacity="0.1" d="M1248.68 340.085L1283.13 320.016V279.878L1248.68 299.947V340.085Z" fill="#42E8E0"/>
<path opacity="0.1" d="M1214 320.016L1248.68 340.085V299.947L1214 279.878V320.016Z" fill="#2FD3C7"/>
<path opacity="0.1" d="M1248.68 299.947L1283.13 279.878L1248.68 259.809L1214 279.878L1248.68 299.947Z" fill="#42E8E0"/>
<path opacity="0.1" d="M1248.68 299.947L1283.13 279.878V281.723L1248.68 301.793L1214 281.723V279.878L1248.68 299.947Z" fill="white"/>
</g>
<path opacity="0.4" d="M1248.68 275.726L1283.13 255.657L1248.68 235.588L1214 255.657L1248.68 275.726Z" fill="#03002D"/>
<path d="M1248.68 205.138L1283.13 185.069V225.207L1248.68 245.276L1214 225.207V185.069L1248.68 205.138Z" fill="#42E8E0"/>
<path d="M1248.68 245.276L1283.13 225.207V185.069L1248.68 205.138V245.276Z" fill="#42E8E0"/>
<path d="M1214 225.207L1248.68 245.276V205.138L1214 185.069V225.207Z" fill="#2FD3C7"/>
<path d="M1248.68 205.138L1283.13 185.069L1248.68 165L1214 185.069L1248.68 205.138Z" fill="#42E8E0"/>
<path d="M1248.68 205.138L1283.13 185.069V186.914L1248.68 206.983L1214 186.914V185.069L1248.68 205.138Z" fill="white"/>
</g>
<g opacity="0.7">
<g opacity="0.2">
<path opacity="0.1" d="M174.034 203.248L219.714 176.813V229.683L174.034 256.118L128.353 229.683V176.813L174.034 203.248Z" fill="#6CFFF8"/>
<path opacity="0.1" d="M174.034 256.118L219.714 229.683V176.813L174.034 203.248V256.118Z" fill="#6CFFF8"/>
<path opacity="0.1" d="M128.354 229.683L174.034 256.118V203.248L128.354 176.813V229.683Z" fill="#26FFEF"/>
<path opacity="0.1" d="M174.034 203.248L219.715 176.813L174.034 150.378L128.353 176.813L174.034 203.248Z" fill="#6CFFF8"/>
<path opacity="0.1" d="M174.034 203.248L217.597 177.725L219.714 178.94L174.034 205.375L128.353 178.94L130.47 177.725L174.034 203.248Z" fill="white"/>
</g>
<g opacity="0.2">
<path opacity="0.1" d="M114.738 236.976L160.419 210.541V263.411L114.738 289.845L69.3599 263.411V210.541L114.738 236.976Z" fill="#6CFFF8"/>
<path opacity="0.1" d="M114.738 289.845L160.419 263.411V210.541L114.738 236.976V289.845Z" fill="#6CFFF8"/>
<path opacity="0.1" d="M69.3607 263.411L114.739 289.845V236.976L69.3607 210.541V263.411Z" fill="#26FFEF"/>
<path opacity="0.1" d="M114.738 236.976L160.419 210.541L114.738 184.106L69.3601 210.541L114.738 236.976Z" fill="#6CFFF8"/>
<path opacity="0.1" d="M114.738 236.976L158.301 211.756L160.419 212.971L114.738 239.406L69.3599 212.971L71.175 211.756L114.738 236.976Z" fill="white"/>
</g>
<g opacity="0.2">
<path opacity="0.1" d="M55.7472 271.007L101.126 244.572V297.442L55.7472 323.877L10.0664 297.442V244.572L55.7472 271.007Z" fill="#6CFFF8"/>
<path opacity="0.1" d="M55.7473 323.877L101.126 297.442V244.572L55.7473 271.007V323.877Z" fill="#6CFFF8"/>
<path opacity="0.1" d="M10.067 297.442L55.7478 323.877V271.007L10.067 244.572V297.442Z" fill="#26FFEF"/>
<path opacity="0.1" d="M55.7469 271.007L101.125 244.572L55.7469 218.137L10.0661 244.572L55.7469 271.007Z" fill="#6CFFF8"/>
<path opacity="0.1" d="M55.7472 271.007L99.3104 245.787L101.126 246.699L55.7472 273.134L10.0664 247.003V244.572L55.7472 271.007Z" fill="white"/>
</g>
<g opacity="0.2">
<path opacity="0.1" d="M233.328 239.406L278.707 212.971V265.841L233.328 292.276L187.647 265.841V212.971L233.328 239.406Z" fill="#6CFFF8"/>
<path opacity="0.1" d="M233.328 292.276L278.707 265.841V212.971L233.328 239.406V292.276Z" fill="#6CFFF8"/>
<path opacity="0.1" d="M187.648 265.841L233.329 292.276V239.406L187.648 212.971V265.841Z" fill="#26FFEF"/>
<path opacity="0.1" d="M233.329 239.406L278.707 212.971L233.329 186.537L187.648 212.971L233.329 239.406Z" fill="#6CFFF8"/>
<path opacity="0.1" d="M233.328 239.406L276.891 214.187L278.707 215.099L233.328 241.533L187.647 215.099L189.765 214.187L233.328 239.406Z" fill="white"/>
</g>
<g opacity="0.2">
<path opacity="0.1" d="M174.034 273.134L219.714 247.003V299.569L174.034 326.004L128.353 299.569V247.003L174.034 273.134Z" fill="#6CFFF8"/>
<path opacity="0.1" d="M174.034 326.004L219.714 299.569V247.003L174.034 273.134V326.004Z" fill="#6CFFF8"/>
<path opacity="0.1" d="M128.354 299.569L174.034 326.004V273.134L128.354 247.003V299.569Z" fill="#26FFEF"/>
<path opacity="0.1" d="M174.034 273.134L219.715 247.003L174.034 220.568L128.353 247.003L174.034 273.134Z" fill="#6CFFF8"/>
<path opacity="0.1" d="M174.034 273.134L217.597 247.914L219.714 249.13L174.034 275.565L128.353 249.13L130.47 247.914L174.034 273.134Z" fill="white"/>
</g>
<g opacity="0.2">
<path opacity="0.1" d="M114.738 307.165L160.419 280.73V333.6L114.738 360.035L69.3599 333.6V280.73L114.738 307.165Z" fill="#6CFFF8"/>
<path opacity="0.1" d="M114.738 360.035L160.419 333.6V280.73L114.738 307.165V360.035Z" fill="#6CFFF8"/>
<path opacity="0.1" d="M69.3607 333.6L114.739 360.035V307.165L69.3607 280.73V333.6Z" fill="#26FFEF"/>
<path opacity="0.1" d="M114.738 307.165L160.419 280.73L114.738 254.295L69.3601 280.73L114.738 307.165Z" fill="#6CFFF8"/>
<path opacity="0.1" d="M114.738 307.165L158.301 281.945L160.419 283.161L114.738 309.596L69.3599 283.161V280.73L114.738 307.165Z" fill="white"/>
</g>
<g opacity="0.2">
<path opacity="0.1" d="M292.319 275.565L338 249.13V301.999L292.319 328.434L246.941 301.999V249.13L292.319 275.565Z" fill="#6CFFF8"/>
<path opacity="0.1" d="M292.319 328.434L338 301.999V249.13L292.319 275.565V328.434Z" fill="#6CFFF8"/>
<path opacity="0.1" d="M246.942 301.999L292.32 328.434V275.565L246.942 249.13V301.999Z" fill="#26FFEF"/>
<path opacity="0.1" d="M292.319 275.565L338 249.13L292.319 222.695L246.94 249.13L292.319 275.565Z" fill="#6CFFF8"/>
<path opacity="0.1" d="M292.319 275.564L338 249.13V251.56L292.319 277.995L246.941 251.56L248.756 250.345L292.319 275.564Z" fill="white"/>
</g>
<g opacity="0.2">
<path opacity="0.1" d="M233.328 309.595L278.707 283.161V336.03L233.328 362.465L187.647 336.03V283.161L233.328 309.595Z" fill="#6CFFF8"/>
<path opacity="0.1" d="M233.328 362.465L278.707 336.03V283.161L233.328 309.595V362.465Z" fill="#6CFFF8"/>
<path opacity="0.1" d="M187.648 336.03L233.329 362.465V309.595L187.648 283.161V336.03Z" fill="#26FFEF"/>
<path opacity="0.1" d="M233.329 309.596L278.707 283.161L233.329 256.726L187.648 283.161L233.329 309.596Z" fill="#6CFFF8"/>
<path opacity="0.1" d="M233.328 309.595L278.707 283.161V285.287L233.328 311.722L187.647 285.287L189.765 284.072L233.328 309.595Z" fill="white"/>
</g>
<g opacity="0.2">
<path opacity="0.1" d="M174.034 343.323L219.714 316.888V369.758L174.034 396.193L128.353 369.758V316.888L174.034 343.323Z" fill="#6CFFF8"/>
<path opacity="0.1" d="M174.034 396.193L219.714 369.758V316.888L174.034 343.323V396.193Z" fill="#6CFFF8"/>
<path opacity="0.1" d="M128.354 369.758L174.034 396.193V343.323L128.354 316.888V369.758Z" fill="#26FFEF"/>
<path opacity="0.1" d="M174.034 343.323L219.715 316.888L174.034 290.453L128.353 316.888L174.034 343.323Z" fill="#6CFFF8"/>
<path opacity="0.1" d="M174.034 343.323L219.714 316.888V319.319L174.034 345.754L128.353 319.319V316.888L174.034 343.323Z" fill="white"/>
</g>
<g opacity="0.2">
<path opacity="0.1" d="M174.034 133.059L219.714 106.624V159.494L174.034 185.929L128.353 159.494V106.624L174.034 133.059Z" fill="#6CFFF8"/>
<path opacity="0.1" d="M174.034 185.929L219.714 159.494V106.624L174.034 133.059V185.929Z" fill="#6CFFF8"/>
<path opacity="0.1" d="M128.354 159.494L174.034 185.929V133.059L128.354 106.624V159.494Z" fill="#26FFEF"/>
<path opacity="0.1" d="M174.034 133.059L219.715 106.624L174.034 80.1892L128.353 106.624L174.034 133.059Z" fill="#6CFFF8"/>
<path opacity="0.1" d="M174.034 133.059L217.597 107.536L219.714 108.751L174.034 135.186L128.353 108.751L130.47 107.536L174.034 133.059Z" fill="white"/>
</g>
<g opacity="0.2">
<path opacity="0.7" d="M174.035 334.815L205.195 316.888L174.035 298.657L142.875 316.888L174.035 334.815Z" fill="#00DEC8"/>
<path opacity="0.7" d="M233.33 300.784L264.187 282.857L233.33 264.93L202.17 282.857L233.33 300.784Z" fill="#00DEC8"/>
<path opacity="0.7" d="M114.74 298.657L145.899 280.426L114.74 262.499L83.5799 280.426L114.74 298.657Z" fill="#00DEC8"/>
<path opacity="0.7" d="M55.4465 262.803L86.6062 244.876L55.4465 226.645L24.2867 244.876L55.4465 262.803Z" fill="#00DEC8"/>
<path opacity="0.7" d="M292.321 267.057L323.48 248.826L292.321 230.899L261.463 248.826L292.321 267.057Z" fill="#00DEC8"/>
</g>
<g opacity="0.2">
<path opacity="0.1" d="M114.738 166.786L160.419 140.351V193.221L114.738 219.656L69.3599 193.221V140.351L114.738 166.786Z" fill="#6CFFF8"/>
<path opacity="0.1" d="M114.738 219.656L160.419 193.221V140.351L114.738 166.786V219.656Z" fill="#6CFFF8"/>
<path opacity="0.1" d="M69.3607 193.221L114.739 219.656V166.786L69.3607 140.351V193.221Z" fill="#26FFEF"/>
<path opacity="0.1" d="M114.738 166.786L160.419 140.351L114.738 113.917L69.3601 140.351L114.738 166.786Z" fill="#6CFFF8"/>
<path opacity="0.1" d="M114.738 166.786L158.301 141.567L160.419 142.782L114.738 169.217L69.3599 142.782L71.175 141.567L114.738 166.786Z" fill="white"/>
</g>
<g opacity="0.2">
<path opacity="0.1" d="M55.7472 200.817L101.126 174.383V227.252L55.7472 253.687L10.0664 227.252V174.383L55.7472 200.817Z" fill="#6CFFF8"/>
<path opacity="0.1" d="M55.7473 253.687L101.126 227.252V174.383L55.7473 200.817V253.687Z" fill="#6CFFF8"/>
<path opacity="0.1" d="M10.067 227.252L55.7478 253.687V200.817L10.067 174.383V227.252Z" fill="#26FFEF"/>
<path opacity="0.1" d="M55.7469 200.817L101.125 174.383L55.7469 147.948L10.0661 174.383L55.7469 200.817Z" fill="#6CFFF8"/>
<path opacity="0.1" d="M55.7472 200.818L99.3104 175.598L101.126 176.813L55.7472 203.248L10.0664 176.813V174.383L55.7472 200.818Z" fill="white"/>
</g>
<g opacity="0.2">
<path opacity="0.1" d="M233.328 169.217L278.707 142.782V195.652L233.328 222.087L187.647 195.652V142.782L233.328 169.217Z" fill="#6CFFF8"/>
<path opacity="0.1" d="M233.328 222.087L278.707 195.652V142.782L233.328 169.217V222.087Z" fill="#6CFFF8"/>
<path opacity="0.1" d="M187.648 195.652L233.329 222.087V169.217L187.648 142.782V195.652Z" fill="#26FFEF"/>
<path opacity="0.1" d="M233.329 169.217L278.707 142.782L233.329 116.347L187.648 142.782L233.329 169.217Z" fill="#6CFFF8"/>
<path opacity="0.1" d="M233.328 169.217L276.891 143.998L278.707 144.909L233.328 171.344L187.647 144.909L189.765 143.998L233.328 169.217Z" fill="white"/>
</g>
<g opacity="0.2">
<path opacity="0.1" d="M174.034 203.248L219.714 176.813V229.683L174.034 256.118L128.353 229.683V176.813L174.034 203.248Z" fill="#6CFFF8"/>
<path opacity="0.1" d="M174.034 256.118L219.714 229.683V176.813L174.034 203.248V256.118Z" fill="#6CFFF8"/>
<path opacity="0.1" d="M128.354 229.683L174.034 256.118V203.248L128.354 176.813V229.683Z" fill="#26FFEF"/>
<path opacity="0.1" d="M174.034 203.248L219.715 176.813L174.034 150.378L128.353 176.813L174.034 203.248Z" fill="#6CFFF8"/>
<path opacity="0.1" d="M174.034 203.248L217.597 177.725L219.714 178.94L174.034 205.375L128.353 178.94L130.47 177.725L174.034 203.248Z" fill="white"/>
</g>
<g opacity="0.2">
<path opacity="0.1" d="M114.738 236.976L160.419 210.541V263.411L114.738 289.845L69.3599 263.411V210.541L114.738 236.976Z" fill="#6CFFF8"/>
<path opacity="0.1" d="M114.738 289.845L160.419 263.411V210.541L114.738 236.976V289.845Z" fill="#6CFFF8"/>
<path opacity="0.1" d="M69.3607 263.411L114.739 289.845V236.976L69.3607 210.541V263.411Z" fill="#26FFEF"/>
<path opacity="0.1" d="M114.738 236.976L160.419 210.541L114.738 184.106L69.3601 210.541L114.738 236.976Z" fill="#6CFFF8"/>
<path opacity="0.1" d="M114.738 236.976L158.301 211.756L160.419 212.971L114.738 239.407L69.3599 212.971V210.541L114.738 236.976Z" fill="white"/>
</g>
<g opacity="0.2">
<path opacity="0.1" d="M292.319 205.375L338 178.94V231.81L292.319 258.245L246.941 231.81V178.94L292.319 205.375Z" fill="#6CFFF8"/>
<path opacity="0.1" d="M292.319 258.245L338 231.81V178.94L292.319 205.375V258.245Z" fill="#6CFFF8"/>
<path opacity="0.1" d="M246.942 231.81L292.32 258.245V205.375L246.942 178.94V231.81Z" fill="#26FFEF"/>
<path opacity="0.1" d="M292.319 205.375L338 178.94L292.319 152.505L246.94 178.94L292.319 205.375Z" fill="#6CFFF8"/>
<path opacity="0.1" d="M292.319 205.375L336.185 180.156L338 181.371L292.319 207.806L246.941 181.371L248.756 180.156L292.319 205.375Z" fill="white"/>
</g>
<g opacity="0.2">
<path opacity="0.1" d="M233.328 239.406L278.707 212.971V265.841L233.328 292.276L187.647 265.841V212.971L233.328 239.406Z" fill="#6CFFF8"/>
<path opacity="0.1" d="M233.328 292.276L278.707 265.841V212.971L233.328 239.406V292.276Z" fill="#6CFFF8"/>
<path opacity="0.1" d="M187.648 265.841L233.329 292.276V239.406L187.648 212.971V265.841Z" fill="#26FFEF"/>
<path opacity="0.1" d="M233.329 239.406L278.707 212.971L233.329 186.537L187.648 212.971L233.329 239.406Z" fill="#6CFFF8"/>
<path opacity="0.1" d="M233.328 239.406L278.707 212.971V215.098L233.328 241.533L187.647 215.098L189.765 214.187L233.328 239.406Z" fill="white"/>
</g>
<g opacity="0.2">
<path opacity="0.1" d="M174.034 273.134L219.714 247.003V299.569L174.034 326.004L128.353 299.569V247.003L174.034 273.134Z" fill="#6CFFF8"/>
<path opacity="0.1" d="M174.034 326.004L219.714 299.569V247.003L174.034 273.134V326.004Z" fill="#6CFFF8"/>
<path opacity="0.1" d="M128.354 299.569L174.034 326.004V273.134L128.354 247.003V299.569Z" fill="#26FFEF"/>
<path opacity="0.1" d="M174.034 273.134L219.715 247.003L174.034 220.568L128.353 247.003L174.034 273.134Z" fill="#6CFFF8"/>
<path opacity="0.1" d="M174.034 273.134L219.714 247.003V249.13L174.034 275.565L128.353 249.13V247.003L174.034 273.134Z" fill="white"/>
</g>
<g opacity="0.2">
<path opacity="0.7" d="M55.4465 192.918L86.6062 174.991L55.4465 156.76L24.2867 174.991L55.4465 192.918Z" fill="#00DEC8"/>
<path opacity="0.7" d="M292.321 197.172L323.48 178.941L292.321 161.014L261.463 178.941L292.321 197.172Z" fill="#00DEC8"/>
</g>
<g opacity="0.2">
<path opacity="0.1" d="M174.034 62.8698L219.714 36.4348V89.3047L174.034 115.74L128.353 89.3047V36.4348L174.034 62.8698Z" fill="#6CFFF8"/>
<path opacity="0.1" d="M174.034 115.74L219.714 89.3047V36.4348L174.034 62.8698V115.74Z" fill="#6CFFF8"/>
<path opacity="0.1" d="M128.354 89.3047L174.034 115.74V62.8698L128.354 36.4348V89.3047Z" fill="#26FFEF"/>
<path opacity="0.1" d="M174.034 62.8699L219.715 36.435L174.034 10L128.353 36.435L174.034 62.8699Z" fill="#6CFFF8"/>
<path opacity="0.1" d="M174.034 62.8698L219.714 36.4348V38.5618L174.034 64.9968L128.353 38.5618V36.4348L174.034 62.8698Z" fill="white"/>
</g>
<g opacity="0.2">
<path opacity="0.1" d="M114.738 96.597L160.419 70.4659V123.032L114.738 149.467L69.3599 123.032V70.4659L114.738 96.597Z" fill="#6CFFF8"/>
<path opacity="0.1" d="M114.738 149.467L160.419 123.032V70.4659L114.738 96.597V149.467Z" fill="#6CFFF8"/>
<path opacity="0.1" d="M69.3607 123.032L114.739 149.467V96.597L69.3607 70.4659V123.032Z" fill="#26FFEF"/>
<path opacity="0.1" d="M114.738 96.597L160.419 70.4659L114.738 44.031L69.3601 70.4659L114.738 96.597Z" fill="#6CFFF8"/>
<path opacity="0.1" d="M114.738 96.5969L160.419 70.4659V72.5929L114.738 99.0277L69.3599 72.5929V70.4659L114.738 96.5969Z" fill="white"/>
</g>
<g opacity="0.2">
<path opacity="0.1" d="M55.7472 130.628L101.126 104.193V157.063L55.7472 183.498L10.0664 157.063V104.193L55.7472 130.628Z" fill="#6CFFF8"/>
<path opacity="0.1" d="M55.7473 183.498L101.126 157.063V104.193L55.7473 130.628V183.498Z" fill="#6CFFF8"/>
<path opacity="0.1" d="M10.067 157.063L55.7478 183.498V130.628L10.067 104.193V157.063Z" fill="#26FFEF"/>
<path opacity="0.1" d="M55.7469 130.628L101.125 104.194L55.7469 77.7587L10.0661 104.194L55.7469 130.628Z" fill="#6CFFF8"/>
<path opacity="0.1" d="M55.7472 130.628L101.126 104.193V106.624L55.7472 133.059L10.0664 106.624V104.193L55.7472 130.628Z" fill="white"/>
</g>
<g opacity="0.2">
<path opacity="0.1" d="M233.328 99.0278L278.707 72.5929V125.463L233.328 151.898L187.647 125.463V72.5929L233.328 99.0278Z" fill="#6CFFF8"/>
<path opacity="0.1" d="M233.328 151.898L278.707 125.463V72.5929L233.328 99.0278V151.898Z" fill="#6CFFF8"/>
<path opacity="0.1" d="M187.648 125.463L233.329 151.898V99.0278L187.648 72.5929V125.463Z" fill="#26FFEF"/>
<path opacity="0.1" d="M233.329 99.0279L278.707 72.5929L233.329 46.158L187.648 72.5929L233.329 99.0279Z" fill="#6CFFF8"/>
<path opacity="0.1" d="M233.328 99.0279L278.707 72.5929V75.0237L233.328 101.459L187.647 75.0237V72.5929L233.328 99.0279Z" fill="white"/>
</g>
<g opacity="0.2">
<path opacity="0.1" d="M292.319 135.186L338 108.751V161.621L292.319 188.056L246.941 161.621V108.751L292.319 135.186Z" fill="#6CFFF8"/>
<path opacity="0.1" d="M292.319 188.056L338 161.621V108.751L292.319 135.186V188.056Z" fill="#6CFFF8"/>
<path opacity="0.1" d="M246.942 161.621L292.32 188.056V135.186L246.942 108.751V161.621Z" fill="#26FFEF"/>
<path opacity="0.1" d="M292.319 135.186L338 108.751L292.319 82.3163L246.94 108.751L292.319 135.186Z" fill="#6CFFF8"/>
<path opacity="0.1" d="M292.319 135.186L338 108.751V111.182L292.319 137.617L246.941 111.182V108.751L292.319 135.186Z" fill="white"/>
</g>
</g>
</svg>
