<svg width="1440" height="734" viewBox="0 0 1440 734" fill="none" xmlns="http://www.w3.org/2000/svg">
<path d="M0 0H1440V312L729.368 728.509C723.234 732.105 716.252 734 709.142 734H0V0Z" fill="#4A38AE"/>
<g opacity="0.1">
<g opacity="0.1">
<path opacity="0.1" d="M90.906 669.947L125.586 649.878V690.016L90.906 710.085L56.4553 690.016V649.878L90.906 669.947Z" fill="#42E8E0"/>
<path opacity="0.1" d="M90.9059 710.085L125.586 690.016V649.878L90.9059 669.947V710.085Z" fill="#42E8E0"/>
<path opacity="0.1" d="M56.4555 690.016L90.9062 710.085V669.947L56.4555 649.878V690.016Z" fill="#2FD3C7"/>
<path opacity="0.1" d="M90.906 669.947L125.586 649.878L90.906 629.809L56.4553 649.878L90.906 669.947Z" fill="#42E8E0"/>
<path opacity="0.1" d="M90.906 669.947L125.586 649.878V651.723L90.906 671.793L56.4553 651.723V649.878L90.906 669.947Z" fill="white"/>
</g>
<path d="M89.987 655.184L140.744 625.657L140.285 625.426L89.987 596.361H89.7573L39.0001 625.657L39.4594 625.888L89.987 655.184ZM139.366 625.657L89.987 654.261L40.6078 625.657L89.987 597.053L139.366 625.657Z" fill="#42E8E0"/>
<path opacity="0.4" d="M90.906 645.726L125.586 625.657L90.906 605.588L56.4553 625.657L90.906 645.726Z" fill="#03002D"/>
<path d="M90.906 575.138L125.586 555.069V595.207L90.906 615.276L56.4553 595.207V555.069L90.906 575.138Z" fill="#42E8E0"/>
<path d="M90.9059 615.276L125.586 595.207V555.069L90.9059 575.138V615.276Z" fill="#42E8E0"/>
<path d="M56.4547 595.207L90.9053 615.276V575.138L56.4547 555.069V595.207Z" fill="#2FD3C7"/>
<path d="M90.906 575.138L125.586 555.069L90.906 535L56.4553 555.069L90.906 575.138Z" fill="#42E8E0"/>
<path d="M90.906 575.138L125.586 555.069V556.915L90.906 576.984L56.4553 556.915V555.069L90.906 575.138Z" fill="white"/>
</g>
<g opacity="0.1">
<g opacity="0.1">
<path opacity="0.1" d="M880.906 175.947L915.586 155.878V196.016L880.906 216.085L846.455 196.016V155.878L880.906 175.947Z" fill="#42E8E0"/>
<path opacity="0.1" d="M880.906 216.085L915.586 196.016V155.878L880.906 175.947V216.085Z" fill="#42E8E0"/>
<path opacity="0.1" d="M846.456 196.016L880.906 216.085V175.947L846.456 155.878V196.016Z" fill="#2FD3C7"/>
<path opacity="0.1" d="M880.906 175.947L915.586 155.878L880.906 135.809L846.455 155.878L880.906 175.947Z" fill="#42E8E0"/>
<path opacity="0.1" d="M880.906 175.947L915.586 155.878V157.723L880.906 177.793L846.455 157.723V155.878L880.906 175.947Z" fill="white"/>
</g>
<path d="M879.987 161.184L930.744 131.657L930.285 131.426L879.987 102.361H879.757L829 131.657L829.459 131.888L879.987 161.184ZM929.366 131.657L879.987 160.261L830.608 131.657L879.987 103.053L929.366 131.657Z" fill="#42E8E0"/>
<path opacity="0.4" d="M880.906 151.726L915.586 131.657L880.906 111.588L846.455 131.657L880.906 151.726Z" fill="#03002D"/>
<path d="M880.906 81.1382L915.586 61.0691V101.207L880.906 121.276L846.455 101.207V61.0691L880.906 81.1382Z" fill="#42E8E0"/>
<path d="M880.906 121.276L915.586 101.207V61.0691L880.906 81.1382V121.276Z" fill="#42E8E0"/>
<path d="M846.455 101.207L880.905 121.276V81.1382L846.455 61.0691V101.207Z" fill="#2FD3C7"/>
<path d="M880.906 81.1382L915.586 61.0691L880.906 41L846.455 61.0691L880.906 81.1382Z" fill="#42E8E0"/>
<path d="M880.906 81.1382L915.586 61.0691V62.9145L880.906 82.9836L846.455 62.9145V61.0691L880.906 81.1382Z" fill="white"/>
</g>
<g opacity="0.1">
<g opacity="0.1">
<path opacity="0.1" d="M537.68 268.947L572.131 248.878V289.016L537.68 309.085L503 289.016V248.878L537.68 268.947Z" fill="#42E8E0"/>
<path opacity="0.1" d="M537.68 309.085L572.131 289.016V248.878L537.68 268.947V309.085Z" fill="#42E8E0"/>
<path opacity="0.1" d="M503 289.016L537.68 309.085V268.947L503 248.878V289.016Z" fill="#2FD3C7"/>
<path opacity="0.1" d="M537.68 268.947L572.131 248.878L537.68 228.809L503 248.878L537.68 268.947Z" fill="#42E8E0"/>
<path opacity="0.1" d="M537.68 268.947L572.131 248.878V250.723L537.68 270.792L503 250.723V248.878L537.68 268.947Z" fill="white"/>
</g>
<path opacity="0.4" d="M537.68 244.726L572.131 224.657L537.68 204.588L503 224.657L537.68 244.726Z" fill="#03002D"/>
<path d="M537.68 174.138L572.131 154.069V194.207L537.68 214.276L503 194.207V154.069L537.68 174.138Z" fill="#42E8E0"/>
<path d="M537.68 214.276L572.131 194.207V154.069L537.68 174.138V214.276Z" fill="#42E8E0"/>
<path d="M503 194.207L537.68 214.276V174.138L503 154.069V194.207Z" fill="#2FD3C7"/>
<path d="M537.68 174.138L572.131 154.069L537.68 134L503 154.069L537.68 174.138Z" fill="#42E8E0"/>
<path d="M537.68 174.138L572.131 154.069V155.914L537.68 175.983L503 155.914V154.069L537.68 174.138Z" fill="white"/>
</g>
<g opacity="0.7">
<g opacity="0.2">
<path opacity="0.1" d="M174.034 203.248L219.714 176.813V229.683L174.034 256.118L128.353 229.683V176.813L174.034 203.248Z" fill="#6CFFF8"/>
<path opacity="0.1" d="M174.034 256.118L219.714 229.683V176.813L174.034 203.248V256.118Z" fill="#6CFFF8"/>
<path opacity="0.1" d="M128.354 229.683L174.035 256.118V203.248L128.354 176.813V229.683Z" fill="#26FFEF"/>
<path opacity="0.1" d="M174.034 203.248L219.715 176.813L174.034 150.378L128.353 176.813L174.034 203.248Z" fill="#6CFFF8"/>
<path opacity="0.1" d="M174.034 203.248L217.597 177.725L219.714 178.94L174.034 205.375L128.353 178.94L130.47 177.725L174.034 203.248Z" fill="white"/>
</g>
<g opacity="0.2">
<path opacity="0.1" d="M114.738 236.976L160.419 210.541V263.411L114.738 289.846L69.36 263.411V210.541L114.738 236.976Z" fill="#6CFFF8"/>
<path opacity="0.1" d="M114.738 289.846L160.419 263.411V210.541L114.738 236.976V289.846Z" fill="#6CFFF8"/>
<path opacity="0.1" d="M69.3607 263.411L114.739 289.846V236.976L69.3607 210.541V263.411Z" fill="#26FFEF"/>
<path opacity="0.1" d="M114.738 236.976L160.419 210.541L114.738 184.106L69.3601 210.541L114.738 236.976Z" fill="#6CFFF8"/>
<path opacity="0.1" d="M114.738 236.976L158.301 211.756L160.419 212.971L114.738 239.406L69.36 212.971L71.1751 211.756L114.738 236.976Z" fill="white"/>
</g>
<g opacity="0.2">
<path opacity="0.1" d="M55.7472 271.007L101.125 244.572V297.442L55.7472 323.877L10.0664 297.442V244.572L55.7472 271.007Z" fill="#6CFFF8"/>
<path opacity="0.1" d="M55.7473 323.877L101.125 297.442V244.572L55.7473 271.007V323.877Z" fill="#6CFFF8"/>
<path opacity="0.1" d="M10.067 297.442L55.7478 323.877V271.007L10.067 244.572V297.442Z" fill="#26FFEF"/>
<path opacity="0.1" d="M55.7469 271.007L101.125 244.572L55.7469 218.137L10.0661 244.572L55.7469 271.007Z" fill="#6CFFF8"/>
<path opacity="0.1" d="M55.7472 271.007L99.3103 245.787L101.125 246.699L55.7472 273.134L10.0664 247.003V244.572L55.7472 271.007Z" fill="white"/>
</g>
<g opacity="0.2">
<path opacity="0.1" d="M233.328 239.406L278.707 212.971V265.841L233.328 292.276L187.647 265.841V212.971L233.328 239.406Z" fill="#6CFFF8"/>
<path opacity="0.1" d="M233.328 292.276L278.707 265.841V212.971L233.328 239.406V292.276Z" fill="#6CFFF8"/>
<path opacity="0.1" d="M187.648 265.841L233.329 292.276V239.406L187.648 212.971V265.841Z" fill="#26FFEF"/>
<path opacity="0.1" d="M233.329 239.406L278.707 212.971L233.329 186.537L187.648 212.971L233.329 239.406Z" fill="#6CFFF8"/>
<path opacity="0.1" d="M233.328 239.406L276.892 214.187L278.707 215.099L233.328 241.533L187.647 215.099L189.765 214.187L233.328 239.406Z" fill="white"/>
</g>
<g opacity="0.2">
<path opacity="0.1" d="M174.034 273.134L219.714 247.003V299.569L174.034 326.004L128.353 299.569V247.003L174.034 273.134Z" fill="#6CFFF8"/>
<path opacity="0.1" d="M174.034 326.004L219.714 299.569V247.003L174.034 273.134V326.004Z" fill="#6CFFF8"/>
<path opacity="0.1" d="M128.354 299.569L174.035 326.004V273.134L128.354 247.003V299.569Z" fill="#26FFEF"/>
<path opacity="0.1" d="M174.034 273.134L219.715 247.003L174.034 220.568L128.353 247.003L174.034 273.134Z" fill="#6CFFF8"/>
<path opacity="0.1" d="M174.034 273.134L217.597 247.914L219.714 249.13L174.034 275.565L128.353 249.13L130.47 247.914L174.034 273.134Z" fill="white"/>
</g>
<g opacity="0.2">
<path opacity="0.1" d="M114.738 307.165L160.419 280.73V333.6L114.738 360.035L69.36 333.6V280.73L114.738 307.165Z" fill="#6CFFF8"/>
<path opacity="0.1" d="M114.738 360.035L160.419 333.6V280.73L114.738 307.165V360.035Z" fill="#6CFFF8"/>
<path opacity="0.1" d="M69.3607 333.6L114.739 360.035V307.165L69.3607 280.73V333.6Z" fill="#26FFEF"/>
<path opacity="0.1" d="M114.738 307.165L160.419 280.73L114.738 254.295L69.3601 280.73L114.738 307.165Z" fill="#6CFFF8"/>
<path opacity="0.1" d="M114.738 307.165L158.301 281.945L160.419 283.161L114.738 309.596L69.36 283.161V280.73L114.738 307.165Z" fill="white"/>
</g>
<g opacity="0.2">
<path opacity="0.1" d="M292.319 275.565L338 249.13V302L292.319 328.435L246.941 302V249.13L292.319 275.565Z" fill="#6CFFF8"/>
<path opacity="0.1" d="M292.319 328.435L338 302V249.13L292.319 275.565V328.435Z" fill="#6CFFF8"/>
<path opacity="0.1" d="M246.942 302L292.32 328.435V275.565L246.942 249.13V302Z" fill="#26FFEF"/>
<path opacity="0.1" d="M292.319 275.565L338 249.13L292.319 222.695L246.94 249.13L292.319 275.565Z" fill="#6CFFF8"/>
<path opacity="0.1" d="M292.319 275.565L338 249.13V251.561L292.319 277.995L246.941 251.561L248.756 250.345L292.319 275.565Z" fill="white"/>
</g>
<g opacity="0.2">
<path opacity="0.1" d="M233.328 309.596L278.707 283.161V336.031L233.328 362.465L187.647 336.031V283.161L233.328 309.596Z" fill="#6CFFF8"/>
<path opacity="0.1" d="M233.328 362.465L278.707 336.031V283.161L233.328 309.596V362.465Z" fill="#6CFFF8"/>
<path opacity="0.1" d="M187.648 336.031L233.329 362.465V309.596L187.648 283.161V336.031Z" fill="#26FFEF"/>
<path opacity="0.1" d="M233.329 309.596L278.707 283.161L233.329 256.726L187.648 283.161L233.329 309.596Z" fill="#6CFFF8"/>
<path opacity="0.1" d="M233.328 309.596L278.707 283.161V285.288L233.328 311.722L187.647 285.288L189.765 284.072L233.328 309.596Z" fill="white"/>
</g>
<g opacity="0.2">
<path opacity="0.1" d="M174.034 343.323L219.714 316.888V369.758L174.034 396.193L128.353 369.758V316.888L174.034 343.323Z" fill="#6CFFF8"/>
<path opacity="0.1" d="M174.034 396.193L219.714 369.758V316.888L174.034 343.323V396.193Z" fill="#6CFFF8"/>
<path opacity="0.1" d="M128.354 369.758L174.035 396.193V343.323L128.354 316.888V369.758Z" fill="#26FFEF"/>
<path opacity="0.1" d="M174.034 343.323L219.715 316.888L174.034 290.453L128.353 316.888L174.034 343.323Z" fill="#6CFFF8"/>
<path opacity="0.1" d="M174.034 343.323L219.714 316.888V319.319L174.034 345.754L128.353 319.319V316.888L174.034 343.323Z" fill="white"/>
</g>
<g opacity="0.2">
<path opacity="0.1" d="M174.034 133.059L219.714 106.624V159.494L174.034 185.929L128.353 159.494V106.624L174.034 133.059Z" fill="#6CFFF8"/>
<path opacity="0.1" d="M174.034 185.929L219.714 159.494V106.624L174.034 133.059V185.929Z" fill="#6CFFF8"/>
<path opacity="0.1" d="M128.354 159.494L174.035 185.929V133.059L128.354 106.624V159.494Z" fill="#26FFEF"/>
<path opacity="0.1" d="M174.034 133.059L219.715 106.624L174.034 80.1892L128.353 106.624L174.034 133.059Z" fill="#6CFFF8"/>
<path opacity="0.1" d="M174.034 133.059L217.597 107.536L219.714 108.751L174.034 135.186L128.353 108.751L130.47 107.536L174.034 133.059Z" fill="white"/>
</g>
<g opacity="0.2">
<path opacity="0.7" d="M174.035 334.815L205.195 316.888L174.035 298.657L142.875 316.888L174.035 334.815Z" fill="#00DEC8"/>
<path opacity="0.7" d="M233.33 300.784L264.187 282.857L233.33 264.93L202.17 282.857L233.33 300.784Z" fill="#00DEC8"/>
<path opacity="0.7" d="M114.74 298.657L145.899 280.426L114.74 262.499L83.58 280.426L114.74 298.657Z" fill="#00DEC8"/>
<path opacity="0.7" d="M55.4465 262.803L86.6062 244.876L55.4465 226.645L24.2867 244.876L55.4465 262.803Z" fill="#00DEC8"/>
<path opacity="0.7" d="M292.321 267.057L323.48 248.826L292.321 230.899L261.463 248.826L292.321 267.057Z" fill="#00DEC8"/>
</g>
<g opacity="0.2">
<path opacity="0.1" d="M114.738 166.786L160.419 140.351V193.221L114.738 219.656L69.36 193.221V140.351L114.738 166.786Z" fill="#6CFFF8"/>
<path opacity="0.1" d="M114.738 219.656L160.419 193.221V140.351L114.738 166.786V219.656Z" fill="#6CFFF8"/>
<path opacity="0.1" d="M69.3607 193.221L114.739 219.656V166.786L69.3607 140.351V193.221Z" fill="#26FFEF"/>
<path opacity="0.1" d="M114.738 166.786L160.419 140.351L114.738 113.917L69.3601 140.351L114.738 166.786Z" fill="#6CFFF8"/>
<path opacity="0.1" d="M114.738 166.786L158.301 141.567L160.419 142.782L114.738 169.217L69.36 142.782L71.1751 141.567L114.738 166.786Z" fill="white"/>
</g>
<g opacity="0.2">
<path opacity="0.1" d="M55.7472 200.817L101.125 174.383V227.252L55.7472 253.687L10.0664 227.252V174.383L55.7472 200.817Z" fill="#6CFFF8"/>
<path opacity="0.1" d="M55.7473 253.687L101.125 227.252V174.383L55.7473 200.817V253.687Z" fill="#6CFFF8"/>
<path opacity="0.1" d="M10.067 227.252L55.7478 253.687V200.817L10.067 174.383V227.252Z" fill="#26FFEF"/>
<path opacity="0.1" d="M55.7469 200.817L101.125 174.383L55.7469 147.948L10.0661 174.383L55.7469 200.817Z" fill="#6CFFF8"/>
<path opacity="0.1" d="M55.7472 200.818L99.3103 175.598L101.125 176.813L55.7472 203.248L10.0664 176.813V174.383L55.7472 200.818Z" fill="white"/>
</g>
<g opacity="0.2">
<path opacity="0.1" d="M233.328 169.217L278.707 142.782V195.652L233.328 222.087L187.647 195.652V142.782L233.328 169.217Z" fill="#6CFFF8"/>
<path opacity="0.1" d="M233.328 222.087L278.707 195.652V142.782L233.328 169.217V222.087Z" fill="#6CFFF8"/>
<path opacity="0.1" d="M187.648 195.652L233.329 222.087V169.217L187.648 142.782V195.652Z" fill="#26FFEF"/>
<path opacity="0.1" d="M233.329 169.217L278.707 142.782L233.329 116.347L187.648 142.782L233.329 169.217Z" fill="#6CFFF8"/>
<path opacity="0.1" d="M233.328 169.217L276.892 143.998L278.707 144.909L233.328 171.344L187.647 144.909L189.765 143.998L233.328 169.217Z" fill="white"/>
</g>
<g opacity="0.2">
<path opacity="0.1" d="M174.034 203.248L219.714 176.813V229.683L174.034 256.118L128.353 229.683V176.813L174.034 203.248Z" fill="#6CFFF8"/>
<path opacity="0.1" d="M174.034 256.118L219.714 229.683V176.813L174.034 203.248V256.118Z" fill="#6CFFF8"/>
<path opacity="0.1" d="M128.354 229.683L174.035 256.118V203.248L128.354 176.813V229.683Z" fill="#26FFEF"/>
<path opacity="0.1" d="M174.034 203.248L219.715 176.813L174.034 150.378L128.353 176.813L174.034 203.248Z" fill="#6CFFF8"/>
<path opacity="0.1" d="M174.034 203.248L217.597 177.725L219.714 178.94L174.034 205.375L128.353 178.94L130.47 177.725L174.034 203.248Z" fill="white"/>
</g>
<g opacity="0.2">
<path opacity="0.1" d="M114.738 236.976L160.419 210.541V263.411L114.738 289.846L69.36 263.411V210.541L114.738 236.976Z" fill="#6CFFF8"/>
<path opacity="0.1" d="M114.738 289.846L160.419 263.411V210.541L114.738 236.976V289.846Z" fill="#6CFFF8"/>
<path opacity="0.1" d="M69.3607 263.411L114.739 289.846V236.976L69.3607 210.541V263.411Z" fill="#26FFEF"/>
<path opacity="0.1" d="M114.738 236.976L160.419 210.541L114.738 184.106L69.3601 210.541L114.738 236.976Z" fill="#6CFFF8"/>
<path opacity="0.1" d="M114.738 236.976L158.301 211.756L160.419 212.972L114.738 239.407L69.36 212.972V210.541L114.738 236.976Z" fill="white"/>
</g>
<g opacity="0.2">
<path opacity="0.1" d="M292.319 205.375L338 178.94V231.81L292.319 258.245L246.941 231.81V178.94L292.319 205.375Z" fill="#6CFFF8"/>
<path opacity="0.1" d="M292.319 258.245L338 231.81V178.94L292.319 205.375V258.245Z" fill="#6CFFF8"/>
<path opacity="0.1" d="M246.942 231.81L292.32 258.245V205.375L246.942 178.94V231.81Z" fill="#26FFEF"/>
<path opacity="0.1" d="M292.319 205.375L338 178.94L292.319 152.505L246.94 178.94L292.319 205.375Z" fill="#6CFFF8"/>
<path opacity="0.1" d="M292.319 205.375L336.185 180.156L338 181.371L292.319 207.806L246.941 181.371L248.756 180.156L292.319 205.375Z" fill="white"/>
</g>
<g opacity="0.2">
<path opacity="0.1" d="M233.328 239.406L278.707 212.971V265.841L233.328 292.276L187.647 265.841V212.971L233.328 239.406Z" fill="#6CFFF8"/>
<path opacity="0.1" d="M233.328 292.276L278.707 265.841V212.971L233.328 239.406V292.276Z" fill="#6CFFF8"/>
<path opacity="0.1" d="M187.648 265.841L233.329 292.276V239.406L187.648 212.971V265.841Z" fill="#26FFEF"/>
<path opacity="0.1" d="M233.329 239.406L278.707 212.971L233.329 186.537L187.648 212.971L233.329 239.406Z" fill="#6CFFF8"/>
<path opacity="0.1" d="M233.328 239.406L278.707 212.971V215.098L233.328 241.533L187.647 215.098L189.765 214.187L233.328 239.406Z" fill="white"/>
</g>
<g opacity="0.2">
<path opacity="0.1" d="M174.034 273.134L219.714 247.003V299.569L174.034 326.004L128.353 299.569V247.003L174.034 273.134Z" fill="#6CFFF8"/>
<path opacity="0.1" d="M174.034 326.004L219.714 299.569V247.003L174.034 273.134V326.004Z" fill="#6CFFF8"/>
<path opacity="0.1" d="M128.354 299.569L174.035 326.004V273.134L128.354 247.003V299.569Z" fill="#26FFEF"/>
<path opacity="0.1" d="M174.034 273.134L219.715 247.003L174.034 220.568L128.353 247.003L174.034 273.134Z" fill="#6CFFF8"/>
<path opacity="0.1" d="M174.034 273.134L219.714 247.003V249.13L174.034 275.565L128.353 249.13V247.003L174.034 273.134Z" fill="white"/>
</g>
<g opacity="0.2">
<path opacity="0.7" d="M55.4465 192.918L86.6062 174.991L55.4465 156.76L24.2867 174.991L55.4465 192.918Z" fill="#00DEC8"/>
<path opacity="0.7" d="M292.321 197.172L323.48 178.941L292.321 161.014L261.463 178.941L292.321 197.172Z" fill="#00DEC8"/>
</g>
<g opacity="0.2">
<path opacity="0.1" d="M174.034 62.8698L219.714 36.4348V89.3047L174.034 115.74L128.353 89.3047V36.4348L174.034 62.8698Z" fill="#6CFFF8"/>
<path opacity="0.1" d="M174.034 115.74L219.714 89.3047V36.4348L174.034 62.8698V115.74Z" fill="#6CFFF8"/>
<path opacity="0.1" d="M128.354 89.3047L174.035 115.74V62.8698L128.354 36.4348V89.3047Z" fill="#26FFEF"/>
<path opacity="0.1" d="M174.034 62.8699L219.715 36.435L174.034 10L128.353 36.435L174.034 62.8699Z" fill="#6CFFF8"/>
<path opacity="0.1" d="M174.034 62.8698L219.714 36.4348V38.5618L174.034 64.9968L128.353 38.5618V36.4348L174.034 62.8698Z" fill="white"/>
</g>
<g opacity="0.2">
<path opacity="0.1" d="M114.738 96.5971L160.419 70.4661V123.032L114.738 149.467L69.36 123.032V70.4661L114.738 96.5971Z" fill="#6CFFF8"/>
<path opacity="0.1" d="M114.738 149.467L160.419 123.032V70.4661L114.738 96.5971V149.467Z" fill="#6CFFF8"/>
<path opacity="0.1" d="M69.3607 123.032L114.739 149.467V96.5971L69.3607 70.4661V123.032Z" fill="#26FFEF"/>
<path opacity="0.1" d="M114.738 96.597L160.419 70.4659L114.738 44.031L69.3601 70.4659L114.738 96.597Z" fill="#6CFFF8"/>
<path opacity="0.1" d="M114.738 96.597L160.419 70.4661V72.593L114.738 99.0278L69.36 72.593V70.4661L114.738 96.597Z" fill="white"/>
</g>
<g opacity="0.2">
<path opacity="0.1" d="M55.7472 130.628L101.125 104.193V157.063L55.7472 183.498L10.0664 157.063V104.193L55.7472 130.628Z" fill="#6CFFF8"/>
<path opacity="0.1" d="M55.7473 183.498L101.125 157.063V104.193L55.7473 130.628V183.498Z" fill="#6CFFF8"/>
<path opacity="0.1" d="M10.067 157.063L55.7478 183.498V130.628L10.067 104.193V157.063Z" fill="#26FFEF"/>
<path opacity="0.1" d="M55.7469 130.628L101.125 104.193L55.7469 77.7585L10.0661 104.193L55.7469 130.628Z" fill="#6CFFF8"/>
<path opacity="0.1" d="M55.7472 130.628L101.125 104.193V106.624L55.7472 133.059L10.0664 106.624V104.193L55.7472 130.628Z" fill="white"/>
</g>
<g opacity="0.2">
<path opacity="0.1" d="M233.328 99.0279L278.707 72.593V125.463L233.328 151.898L187.647 125.463V72.593L233.328 99.0279Z" fill="#6CFFF8"/>
<path opacity="0.1" d="M233.328 151.898L278.707 125.463V72.593L233.328 99.0279V151.898Z" fill="#6CFFF8"/>
<path opacity="0.1" d="M187.648 125.463L233.329 151.898V99.0279L187.648 72.593V125.463Z" fill="#26FFEF"/>
<path opacity="0.1" d="M233.329 99.0279L278.707 72.5929L233.329 46.158L187.648 72.5929L233.329 99.0279Z" fill="#6CFFF8"/>
<path opacity="0.1" d="M233.328 99.0281L278.707 72.593V75.0238L233.328 101.459L187.647 75.0238V72.593L233.328 99.0281Z" fill="white"/>
</g>
<g opacity="0.2">
<path opacity="0.1" d="M292.319 135.186L338 108.751V161.621L292.319 188.056L246.941 161.621V108.751L292.319 135.186Z" fill="#6CFFF8"/>
<path opacity="0.1" d="M292.319 188.056L338 161.621V108.751L292.319 135.186V188.056Z" fill="#6CFFF8"/>
<path opacity="0.1" d="M246.942 161.621L292.32 188.056V135.186L246.942 108.751V161.621Z" fill="#26FFEF"/>
<path opacity="0.1" d="M292.319 135.186L338 108.751L292.319 82.3162L246.94 108.751L292.319 135.186Z" fill="#6CFFF8"/>
<path opacity="0.1" d="M292.319 135.186L338 108.751V111.182L292.319 137.617L246.941 111.182V108.751L292.319 135.186Z" fill="white"/>
</g>
</g>
</svg>
