<svg width="637" height="535" viewBox="0 0 637 535" fill="none" xmlns="http://www.w3.org/2000/svg">
<path d="M273.129 216.714L273.525 216.117L204.433 175.951H204.235L132.966 215.322L133.362 215.719L204.433 176.548L273.129 216.714Z" fill="#40F3EB"/>
<g opacity="0.1">
<g opacity="0.1">
<path opacity="0.1" d="M344.404 408.395L374.297 391.096V425.695L344.404 442.994L314.51 425.695V391.096L344.404 408.395Z" fill="#40F3EB"/>
<path opacity="0.1" d="M344.404 442.994L374.297 425.695V391.096L344.404 408.395V442.994Z" fill="#40F3EB"/>
<path opacity="0.1" d="M314.511 425.695L344.405 442.994V408.395L314.511 391.096V425.695Z" fill="#A9FFFB"/>
<path opacity="0.1" d="M344.404 408.395L374.298 391.096L344.404 373.797L314.511 391.096L344.404 408.395Z" fill="#40F3EB"/>
<path opacity="0.1" d="M344.404 408.396L372.912 391.693L374.297 392.488L344.404 409.787L314.51 392.488L315.896 391.693L344.404 408.396Z" fill="white"/>
</g>
<g opacity="0.1">
<path opacity="0.1" d="M305.6 430.467L335.494 413.168V447.766L305.6 465.065L275.904 447.766V413.168L305.6 430.467Z" fill="#40F3EB"/>
<path opacity="0.1" d="M305.6 465.065L335.494 447.766V413.168L305.6 430.467V465.065Z" fill="#40F3EB"/>
<path opacity="0.1" d="M275.906 447.766L305.602 465.065V430.467L275.906 413.168V447.766Z" fill="#A9FFFB"/>
<path opacity="0.1" d="M305.6 430.467L335.494 413.168L305.6 395.869L275.904 413.168L305.6 430.467Z" fill="#40F3EB"/>
<path opacity="0.1" d="M305.6 430.467L334.108 413.963L335.494 414.758L305.6 432.057L275.904 414.758L277.092 413.963L305.6 430.467Z" fill="white"/>
</g>
<g opacity="0.1">
<path opacity="0.1" d="M266.994 452.737L296.689 435.438V470.036L266.994 487.335L237.1 470.036V435.438L266.994 452.737Z" fill="#40F3EB"/>
<path opacity="0.1" d="M266.994 487.335L296.689 470.036V435.438L266.994 452.737V487.335Z" fill="#40F3EB"/>
<path opacity="0.1" d="M237.098 470.036L266.991 487.335V452.737L237.098 435.438V470.036Z" fill="#A9FFFB"/>
<path opacity="0.1" d="M266.994 452.737L296.689 435.438L266.994 418.139L237.1 435.438L266.994 452.737Z" fill="#40F3EB"/>
<path opacity="0.1" d="M266.994 452.737L295.502 436.233L296.689 436.83L266.994 454.129L237.1 437.029V435.438L266.994 452.737Z" fill="white"/>
</g>
<g opacity="0.1">
<path opacity="0.1" d="M383.201 432.057L412.897 414.758V449.356L383.201 466.655L353.308 449.356V414.758L383.201 432.057Z" fill="#40F3EB"/>
<path opacity="0.1" d="M383.201 466.655L412.897 449.356V414.758L383.201 432.057V466.655Z" fill="#40F3EB"/>
<path opacity="0.1" d="M353.305 449.356L383.199 466.655V432.057L353.305 414.758V449.356Z" fill="#A9FFFB"/>
<path opacity="0.1" d="M383.202 432.057L412.898 414.758L383.202 397.459L353.309 414.758L383.202 432.057Z" fill="#40F3EB"/>
<path opacity="0.1" d="M383.201 432.057L411.709 415.554L412.897 416.15L383.201 433.449L353.308 416.15L354.693 415.554L383.201 432.057Z" fill="white"/>
</g>
<g opacity="0.1">
<path opacity="0.1" d="M344.404 454.129L374.297 437.029V471.428L344.404 488.727L314.51 471.428V437.029L344.404 454.129Z" fill="#40F3EB"/>
<path opacity="0.1" d="M344.404 488.727L374.297 471.428V437.029L344.404 454.129V488.727Z" fill="#40F3EB"/>
<path opacity="0.1" d="M314.511 471.428L344.405 488.727V454.129L314.511 437.029V471.428Z" fill="#A9FFFB"/>
<path opacity="0.1" d="M344.404 454.129L374.298 437.028L344.404 419.729L314.511 437.028L344.404 454.129Z" fill="#40F3EB"/>
<path opacity="0.1" d="M344.404 454.129L372.912 437.625L374.297 438.42L344.404 455.72L314.51 438.42L315.896 437.625L344.404 454.129Z" fill="white"/>
</g>
<g opacity="0.1">
<path opacity="0.1" d="M305.6 476.399L335.494 459.099V493.698L305.6 510.997L275.904 493.698V459.099L305.6 476.399Z" fill="#40F3EB"/>
<path opacity="0.1" d="M305.6 510.997L335.494 493.698V459.099L305.6 476.399V510.997Z" fill="#40F3EB"/>
<path opacity="0.1" d="M275.906 493.698L305.602 510.997V476.399L275.906 459.099V493.698Z" fill="#A9FFFB"/>
<path opacity="0.1" d="M305.6 476.399L335.494 459.1L305.6 441.8L275.904 459.1L305.6 476.399Z" fill="#40F3EB"/>
<path opacity="0.1" d="M305.6 476.399L334.108 459.895L335.494 460.69L305.6 477.989L275.904 460.69V459.099L305.6 476.399Z" fill="white"/>
</g>
<g opacity="0.1">
<path opacity="0.1" d="M421.807 455.719L451.7 438.42V473.018L421.807 490.317L392.111 473.018V438.42L421.807 455.719Z" fill="#40F3EB"/>
<path opacity="0.1" d="M421.806 490.317L451.7 473.018V438.42L421.806 455.719V490.317Z" fill="#40F3EB"/>
<path opacity="0.1" d="M392.111 473.018L421.807 490.317V455.719L392.111 438.42V473.018Z" fill="#A9FFFB"/>
<path opacity="0.1" d="M421.807 455.719L451.701 438.42L421.807 421.121L392.111 438.42L421.807 455.719Z" fill="#40F3EB"/>
<path opacity="0.1" d="M421.807 455.719L451.7 438.42V440.011L421.807 457.31L392.111 440.011L393.299 439.216L421.807 455.719Z" fill="white"/>
</g>
<g opacity="0.1">
<path opacity="0.1" d="M383.201 477.989L412.897 460.69V495.288L383.201 512.587L353.308 495.288V460.69L383.201 477.989Z" fill="#40F3EB"/>
<path opacity="0.1" d="M383.201 512.587L412.897 495.288V460.69L383.201 477.989V512.587Z" fill="#40F3EB"/>
<path opacity="0.1" d="M353.305 495.288L383.199 512.587V477.989L353.305 460.69V495.288Z" fill="#A9FFFB"/>
<path opacity="0.1" d="M383.202 477.989L412.898 460.69L383.202 443.391L353.309 460.69L383.202 477.989Z" fill="#40F3EB"/>
<path opacity="0.1" d="M383.201 477.989L412.897 460.69V462.082L383.201 479.381L353.308 462.082L354.693 461.286L383.201 477.989Z" fill="white"/>
</g>
<g opacity="0.1">
<path opacity="0.1" d="M344.404 500.061L374.297 482.762V517.36L344.404 534.659L314.51 517.36V482.762L344.404 500.061Z" fill="#40F3EB"/>
<path opacity="0.1" d="M344.404 534.659L374.297 517.36V482.762L344.404 500.061V534.659Z" fill="#40F3EB"/>
<path opacity="0.1" d="M314.511 517.36L344.405 534.659V500.061L314.511 482.762V517.36Z" fill="#A9FFFB"/>
<path opacity="0.1" d="M344.404 500.061L374.298 482.762L344.404 465.463L314.511 482.762L344.404 500.061Z" fill="#40F3EB"/>
<path opacity="0.1" d="M344.404 500.061L374.297 482.762V484.352L344.404 501.651L314.51 484.352V482.762L344.404 500.061Z" fill="white"/>
</g>
<g opacity="0.1">
<path opacity="0.1" d="M344.404 362.463L374.297 345.164V379.762L344.404 397.062L314.51 379.762V345.164L344.404 362.463Z" fill="#40F3EB"/>
<path opacity="0.1" d="M344.404 397.062L374.297 379.762V345.164L344.404 362.463V397.062Z" fill="#40F3EB"/>
<path opacity="0.1" d="M314.511 379.762L344.405 397.062V362.463L314.511 345.164V379.762Z" fill="#A9FFFB"/>
<path opacity="0.1" d="M344.404 362.463L374.298 345.164L344.404 327.865L314.511 345.164L344.404 362.463Z" fill="#40F3EB"/>
<path opacity="0.1" d="M344.404 362.463L372.912 345.761L374.297 346.556L344.404 363.855L314.51 346.556L315.896 345.761L344.404 362.463Z" fill="white"/>
</g>
<g opacity="0.1">
<path opacity="0.7" d="M344.398 494.493L364.79 482.762L344.398 470.831L324.007 482.762L344.398 494.493Z" fill="#0BC6D2"/>
<path opacity="0.7" d="M383.199 472.223L403.392 460.491L383.199 448.76L362.808 460.491L383.199 472.223Z" fill="#0BC6D2"/>
<path opacity="0.7" d="M305.598 470.831L325.989 458.901L305.598 447.169L285.207 458.901L305.598 470.831Z" fill="#0BC6D2"/>
<path opacity="0.7" d="M266.793 447.368L287.184 435.636L266.793 423.706L246.402 435.636L266.793 447.368Z" fill="#0BC6D2"/>
<path opacity="0.7" d="M421.806 450.152L442.197 438.221L421.806 426.49L401.613 438.221L421.806 450.152Z" fill="#0BC6D2"/>
</g>
<g opacity="0.1">
<path opacity="0.1" d="M305.6 384.534L335.494 367.235V401.833L305.6 419.132L275.904 401.833V367.235L305.6 384.534Z" fill="#40F3EB"/>
<path opacity="0.1" d="M305.6 419.132L335.494 401.833V367.235L305.6 384.534V419.132Z" fill="#40F3EB"/>
<path opacity="0.1" d="M275.906 401.833L305.602 419.132V384.534L275.906 367.235V401.833Z" fill="#A9FFFB"/>
<path opacity="0.1" d="M305.6 384.534L335.494 367.235L305.6 349.936L275.904 367.235L305.6 384.534Z" fill="#40F3EB"/>
<path opacity="0.1" d="M305.6 384.534L334.108 368.03L335.494 368.826L305.6 386.125L275.904 368.826L277.092 368.03L305.6 384.534Z" fill="white"/>
</g>
<g opacity="0.1">
<path opacity="0.1" d="M266.994 406.805L296.689 389.506V424.104L266.994 441.403L237.1 424.104V389.506L266.994 406.805Z" fill="#40F3EB"/>
<path opacity="0.1" d="M266.994 441.403L296.689 424.104V389.506L266.994 406.805V441.403Z" fill="#40F3EB"/>
<path opacity="0.1" d="M237.098 424.104L266.991 441.403V406.805L237.098 389.506V424.104Z" fill="#A9FFFB"/>
<path opacity="0.1" d="M266.994 406.805L296.689 389.506L266.994 372.207L237.1 389.506L266.994 406.805Z" fill="#40F3EB"/>
<path opacity="0.1" d="M266.994 406.805L295.502 390.301L296.689 391.096L266.994 408.396L237.1 391.096V389.506L266.994 406.805Z" fill="white"/>
</g>
<g opacity="0.1">
<path opacity="0.1" d="M383.201 386.125L412.897 368.826V403.424L383.201 420.723L353.308 403.424V368.826L383.201 386.125Z" fill="#40F3EB"/>
<path opacity="0.1" d="M383.201 420.723L412.897 403.424V368.826L383.201 386.125V420.723Z" fill="#40F3EB"/>
<path opacity="0.1" d="M353.305 403.424L383.199 420.723V386.125L353.305 368.826V403.424Z" fill="#A9FFFB"/>
<path opacity="0.1" d="M383.202 386.125L412.898 368.826L383.202 351.527L353.309 368.826L383.202 386.125Z" fill="#40F3EB"/>
<path opacity="0.1" d="M383.201 386.125L411.709 369.622L412.897 370.218L383.201 387.517L353.308 370.218L354.693 369.622L383.201 386.125Z" fill="white"/>
</g>
<g opacity="0.1">
<path opacity="0.1" d="M344.404 408.395L374.297 391.096V425.695L344.404 442.994L314.51 425.695V391.096L344.404 408.395Z" fill="#40F3EB"/>
<path opacity="0.1" d="M344.404 442.994L374.297 425.695V391.096L344.404 408.395V442.994Z" fill="#40F3EB"/>
<path opacity="0.1" d="M314.511 425.695L344.405 442.994V408.395L314.511 391.096V425.695Z" fill="#A9FFFB"/>
<path opacity="0.1" d="M344.404 408.395L374.298 391.096L344.404 373.797L314.511 391.096L344.404 408.395Z" fill="#40F3EB"/>
<path opacity="0.1" d="M344.404 408.396L372.912 391.693L374.297 392.488L344.404 409.787L314.51 392.488L315.896 391.693L344.404 408.396Z" fill="white"/>
</g>
<g opacity="0.1">
<path opacity="0.1" d="M305.6 430.467L335.494 413.168V447.766L305.6 465.065L275.904 447.766V413.168L305.6 430.467Z" fill="#40F3EB"/>
<path opacity="0.1" d="M305.6 465.065L335.494 447.766V413.168L305.6 430.467V465.065Z" fill="#40F3EB"/>
<path opacity="0.1" d="M275.906 447.766L305.602 465.065V430.467L275.906 413.168V447.766Z" fill="#A9FFFB"/>
<path opacity="0.1" d="M305.6 430.467L335.494 413.168L305.6 395.869L275.904 413.168L305.6 430.467Z" fill="#40F3EB"/>
<path opacity="0.1" d="M305.6 430.467L334.108 413.963L335.494 414.758L305.6 432.058L275.904 414.758V413.168L305.6 430.467Z" fill="white"/>
</g>
<g opacity="0.1">
<path opacity="0.1" d="M421.807 409.787L451.7 392.488V427.086L421.807 444.385L392.111 427.086V392.488L421.807 409.787Z" fill="#40F3EB"/>
<path opacity="0.1" d="M421.806 444.385L451.7 427.086V392.488L421.806 409.787V444.385Z" fill="#40F3EB"/>
<path opacity="0.1" d="M392.111 427.086L421.807 444.385V409.787L392.111 392.488V427.086Z" fill="#A9FFFB"/>
<path opacity="0.1" d="M421.807 409.787L451.701 392.488L421.807 375.189L392.111 392.488L421.807 409.787Z" fill="#40F3EB"/>
<path opacity="0.1" d="M421.807 409.787L450.512 393.284L451.7 394.079L421.807 411.378L392.111 394.079L393.299 393.284L421.807 409.787Z" fill="white"/>
</g>
<g opacity="0.1">
<path opacity="0.1" d="M383.201 432.057L412.897 414.758V449.356L383.201 466.655L353.308 449.356V414.758L383.201 432.057Z" fill="#40F3EB"/>
<path opacity="0.1" d="M383.201 466.655L412.897 449.356V414.758L383.201 432.057V466.655Z" fill="#40F3EB"/>
<path opacity="0.1" d="M353.305 449.356L383.199 466.655V432.057L353.305 414.758V449.356Z" fill="#A9FFFB"/>
<path opacity="0.1" d="M383.202 432.057L412.898 414.758L383.202 397.459L353.309 414.758L383.202 432.057Z" fill="#40F3EB"/>
<path opacity="0.1" d="M383.201 432.057L412.897 414.758V416.15L383.201 433.449L353.308 416.15L354.693 415.553L383.201 432.057Z" fill="white"/>
</g>
<g opacity="0.1">
<path opacity="0.1" d="M344.404 454.129L374.297 437.029V471.428L344.404 488.727L314.51 471.428V437.029L344.404 454.129Z" fill="#40F3EB"/>
<path opacity="0.1" d="M344.404 488.727L374.297 471.428V437.029L344.404 454.129V488.727Z" fill="#40F3EB"/>
<path opacity="0.1" d="M314.511 471.428L344.405 488.727V454.129L314.511 437.029V471.428Z" fill="#A9FFFB"/>
<path opacity="0.1" d="M344.404 454.129L374.298 437.028L344.404 419.729L314.511 437.028L344.404 454.129Z" fill="#40F3EB"/>
<path opacity="0.1" d="M344.404 454.129L374.297 437.029V438.42L344.404 455.72L314.51 438.42V437.029L344.404 454.129Z" fill="white"/>
</g>
<g opacity="0.1">
<path opacity="0.7" d="M266.793 401.635L287.184 389.903L266.793 377.973L246.402 389.903L266.793 401.635Z" fill="#0BC6D2"/>
<path opacity="0.7" d="M421.806 404.419L442.197 392.488L421.806 380.757L401.613 392.488L421.806 404.419Z" fill="#0BC6D2"/>
</g>
<g opacity="0.1">
<path opacity="0.1" d="M344.404 316.531L374.297 299.232V333.83L344.404 351.129L314.51 333.83V299.232L344.404 316.531Z" fill="#40F3EB"/>
<path opacity="0.1" d="M344.404 351.129L374.297 333.83V299.232L344.404 316.531V351.129Z" fill="#40F3EB"/>
<path opacity="0.1" d="M314.511 333.83L344.405 351.129V316.531L314.511 299.232V333.83Z" fill="#A9FFFB"/>
<path opacity="0.1" d="M344.404 316.531L374.298 299.232L344.404 281.933L314.511 299.232L344.404 316.531Z" fill="#40F3EB"/>
<path opacity="0.1" d="M344.404 316.531L374.297 299.232V300.624L344.404 317.923L314.51 300.624V299.232L344.404 316.531Z" fill="white"/>
</g>
<g opacity="0.1">
<path opacity="0.1" d="M305.6 338.602L335.494 321.502V355.901L305.6 373.201L275.904 355.901V321.502L305.6 338.602Z" fill="#40F3EB"/>
<path opacity="0.1" d="M305.6 373.201L335.494 355.901V321.502L305.6 338.602V373.201Z" fill="#40F3EB"/>
<path opacity="0.1" d="M275.906 355.901L305.602 373.201V338.602L275.906 321.502V355.901Z" fill="#A9FFFB"/>
<path opacity="0.1" d="M305.6 338.602L335.494 321.502L305.6 304.203L275.904 321.502L305.6 338.602Z" fill="#40F3EB"/>
<path opacity="0.1" d="M305.6 338.602L335.494 321.502V322.894L305.6 340.193L275.904 322.894V321.502L305.6 338.602Z" fill="white"/>
</g>
<g opacity="0.1">
<path opacity="0.1" d="M266.994 360.873L296.689 343.574V378.172L266.994 395.471L237.1 378.172V343.574L266.994 360.873Z" fill="#40F3EB"/>
<path opacity="0.1" d="M266.994 395.471L296.689 378.172V343.574L266.994 360.873V395.471Z" fill="#40F3EB"/>
<path opacity="0.1" d="M237.098 378.172L266.991 395.471V360.873L237.098 343.574V378.172Z" fill="#A9FFFB"/>
<path opacity="0.1" d="M266.994 360.873L296.689 343.574L266.994 326.275L237.1 343.574L266.994 360.873Z" fill="#40F3EB"/>
<path opacity="0.1" d="M266.994 360.873L296.689 343.574V345.164L266.994 362.464L237.1 345.164V343.574L266.994 360.873Z" fill="white"/>
</g>
<g opacity="0.1">
<path opacity="0.1" d="M383.201 340.193L412.897 322.894V357.492L383.201 374.791L353.308 357.492V322.894L383.201 340.193Z" fill="#40F3EB"/>
<path opacity="0.1" d="M383.201 374.791L412.897 357.492V322.894L383.201 340.193V374.791Z" fill="#40F3EB"/>
<path opacity="0.1" d="M353.305 357.492L383.199 374.791V340.193L353.305 322.894V357.492Z" fill="#A9FFFB"/>
<path opacity="0.1" d="M383.202 340.193L412.898 322.894L383.202 305.595L353.309 322.894L383.202 340.193Z" fill="#40F3EB"/>
<path opacity="0.1" d="M383.201 340.193L412.897 322.894V324.485L383.201 341.784L353.308 324.485V322.894L383.201 340.193Z" fill="white"/>
</g>
<g opacity="0.1">
<path opacity="0.1" d="M421.807 363.855L451.7 346.556V381.154L421.807 398.453L392.111 381.154V346.556L421.807 363.855Z" fill="#40F3EB"/>
<path opacity="0.1" d="M421.806 398.453L451.7 381.154V346.556L421.806 363.855V398.453Z" fill="#40F3EB"/>
<path opacity="0.1" d="M392.111 381.154L421.807 398.453V363.855L392.111 346.556V381.154Z" fill="#A9FFFB"/>
<path opacity="0.1" d="M421.807 363.855L451.701 346.556L421.807 329.257L392.111 346.556L421.807 363.855Z" fill="#40F3EB"/>
<path opacity="0.1" d="M421.807 363.855L451.7 346.556V348.147L421.807 365.446L392.111 348.147V346.556L421.807 363.855Z" fill="white"/>
</g>
</g>
<g opacity="0.1">
<path opacity="0.1" d="M504.365 245.943L534.061 228.644V263.242L504.365 280.541L474.471 263.242V228.644L504.365 245.943Z" fill="#40F3EB"/>
<path opacity="0.1" d="M504.365 280.541L534.061 263.242V228.644L504.365 245.943V280.541Z" fill="#40F3EB"/>
<path opacity="0.1" d="M474.469 263.242L504.362 280.541V245.943L474.469 228.644V263.242Z" fill="#A9FFFB"/>
<path opacity="0.1" d="M504.364 245.943L534.06 228.644L504.364 211.345L474.471 228.644L504.364 245.943Z" fill="#40F3EB"/>
<path opacity="0.1" d="M504.365 245.943L534.061 228.644V230.234L504.365 247.533L474.471 230.234V228.644L504.365 245.943Z" fill="white"/>
</g>
<path opacity="0.4" d="M504.365 225.065L534.061 207.765L504.365 190.466L474.471 207.765L504.365 225.065Z" fill="#03002D"/>
<path d="M504.365 164.22L534.061 146.921V181.519L504.365 198.818L474.471 181.519V146.921L504.365 164.22Z" fill="#40F3EB"/>
<path d="M504.365 198.818L534.061 181.519V146.921L504.365 164.22V198.818Z" fill="#40F3EB"/>
<path d="M474.468 181.519L504.362 198.818V164.22L474.468 146.921V181.519Z" fill="#A9FFFB"/>
<path d="M504.365 164.22L534.061 146.92L504.365 129.621L474.471 146.92L504.365 164.22Z" fill="#40F3EB"/>
<path d="M504.361 160.044L526.732 146.92L504.361 133.797L481.792 146.92L504.361 160.044Z" fill="#A9FFFB"/>
<path d="M504.365 164.22L534.061 146.921V148.511L504.365 165.81L474.471 148.511V146.921L504.365 164.22Z" fill="white"/>
<path d="M504.365 112.322L534.061 95.023V129.621L504.365 146.92L474.471 129.621V95.023L504.365 112.322Z" fill="#40F3EB"/>
<path d="M504.365 146.92L534.061 129.621V95.023L504.365 112.322V146.92Z" fill="#40F3EB"/>
<path d="M474.468 129.621L504.362 146.92V112.322L474.468 95.023V129.621Z" fill="#A9FFFB"/>
<path d="M504.363 112.322L534.059 95.0232L504.363 77.7241L474.47 95.0232L504.363 112.322Z" fill="#40F3EB"/>
<path d="M504.365 112.322L534.061 95.023V96.6137L504.365 113.913L474.471 96.6137V95.023L504.365 112.322Z" fill="white"/>
<g opacity="0.1">
<path opacity="0.1" d="M111.588 265.827L141.482 248.528V283.126L111.588 300.425L81.8925 283.126V248.528L111.588 265.827Z" fill="#40F3EB"/>
<path opacity="0.1" d="M111.588 300.425L141.482 283.126V248.528L111.588 265.827V300.425Z" fill="#40F3EB"/>
<path opacity="0.1" d="M81.8941 283.126L111.59 300.425V265.827L81.8941 248.528V283.126Z" fill="#A9FFFB"/>
<path opacity="0.1" d="M111.589 265.827L141.482 248.528L111.589 231.229L81.893 248.528L111.589 265.827Z" fill="#40F3EB"/>
<path opacity="0.1" d="M111.588 265.827L141.482 248.528V250.119L111.588 267.418L81.8925 250.119V248.528L111.588 265.827Z" fill="white"/>
</g>
<path d="M110.792 253.101L154.543 227.65L154.148 227.451L110.792 202.397H110.594L66.8423 227.65L67.2383 227.848L110.792 253.101ZM153.356 227.65L110.792 252.306L68.2281 227.65L110.792 202.993L153.356 227.65Z" fill="#40F3EB"/>
<path opacity="0.4" d="M111.582 244.949L141.476 227.65L111.582 210.35L81.8861 227.65L111.582 244.949Z" fill="#03002D"/>
<path d="M111.582 184.104L141.476 166.805V201.403L111.582 218.702L81.8861 201.403V166.805L111.582 184.104Z" fill="#40F3EB"/>
<path d="M111.582 218.702L141.476 201.403V166.805L111.582 184.104V218.702Z" fill="#40F3EB"/>
<path d="M81.8845 201.403L111.58 218.702V184.104L81.8845 166.805V201.403Z" fill="#A9FFFB"/>
<path d="M111.582 184.104L141.476 166.805L111.582 149.506L81.8861 166.805L111.582 184.104Z" fill="#40F3EB"/>
<path d="M111.582 184.104L141.476 166.805V168.395L111.582 185.694L81.8861 168.395V166.805L111.582 184.104Z" fill="white"/>
<path d="M296.781 508.259L340.532 482.807L340.136 482.609L296.781 457.555H296.583L252.831 482.807L253.227 483.006L296.781 508.259ZM339.344 482.807L296.781 507.464L254.217 482.807L296.781 458.151L339.344 482.807Z" fill="#40F3EB"/>
<path opacity="0.2" d="M297.571 500.107L327.464 482.808L297.571 465.508L267.875 482.808L297.571 500.107Z" fill="#03002D"/>
<path d="M297.571 439.262L327.464 421.963V456.561L297.571 473.86L267.875 456.561V421.963L297.571 439.262Z" fill="#40F3EB"/>
<path d="M297.571 473.86L327.464 456.561V421.963L297.571 439.262V473.86Z" fill="#40F3EB"/>
<path d="M267.873 456.561L297.569 473.86V439.262L267.873 421.963V456.561Z" fill="#A9FFFB"/>
<path d="M297.571 439.262L327.464 421.963L297.571 404.663L267.875 421.963L297.571 439.262Z" fill="#40F3EB"/>
<path d="M297.571 439.262L327.464 421.963V423.553L297.571 440.852L267.875 423.553V421.963L297.571 439.262Z" fill="white"/>
<path d="M593.248 365.844L637 340.392L636.604 340.193L593.248 315.139H593.05L549.299 340.392L549.695 340.591L593.248 365.844ZM635.812 340.392L593.248 365.048L550.684 340.392L593.248 315.736L635.812 340.392Z" fill="#40F3EB"/>
<g opacity="0.1">
<path opacity="0.1" d="M593.247 379.166L622.943 361.867V396.465L593.247 413.764L563.354 396.465V361.867L593.247 379.166Z" fill="#40F3EB"/>
<path opacity="0.1" d="M593.247 413.764L622.943 396.465V361.867L593.247 379.166V413.764Z" fill="#40F3EB"/>
<path opacity="0.1" d="M563.351 396.465L593.245 413.764V379.166L563.351 361.867V396.465Z" fill="#A9FFFB"/>
<path opacity="0.1" d="M593.247 379.166L622.943 361.867L593.247 344.568L563.354 361.867L593.247 379.166Z" fill="#40F3EB"/>
<path opacity="0.1" d="M593.247 379.166L622.943 361.867V363.457L593.247 380.757L563.354 363.457V361.867L593.247 379.166Z" fill="white"/>
</g>
<path opacity="0.1" d="M593.247 358.288L622.943 340.989L593.247 323.689L563.354 340.989L593.247 358.288Z" fill="#03002D"/>
<path d="M593.247 297.443L622.943 280.143V314.742L593.247 332.041L563.354 314.742V280.143L593.247 297.443Z" fill="#40F3EB"/>
<path d="M593.247 332.041L622.943 314.742V280.143L593.247 297.443V332.041Z" fill="#40F3EB"/>
<path d="M563.358 314.742L593.251 332.041V297.443L563.358 280.143V314.742Z" fill="#A9FFFB"/>
<path d="M593.247 297.443L622.943 280.144L593.247 262.844L563.354 280.144L593.247 297.443Z" fill="#40F3EB"/>
<path d="M593.247 297.443L622.943 280.143V281.535L593.247 298.834L563.354 281.535V280.143L593.247 297.443Z" fill="white"/>
<g opacity="0.1">
<path opacity="0.1" d="M225.107 117.17L254.803 99.8706V134.469L225.107 151.768L195.213 134.469V99.8706L225.107 117.17Z" fill="#40F3EB"/>
<path opacity="0.1" d="M225.107 151.768L254.803 134.469V99.8706L225.107 117.17V151.768Z" fill="#40F3EB"/>
<path opacity="0.1" d="M195.211 134.469L225.104 151.768V117.17L195.211 99.8706V134.469Z" fill="#A9FFFB"/>
<path opacity="0.1" d="M225.107 117.17L254.803 99.8706L225.107 82.5715L195.213 99.8706L225.107 117.17Z" fill="#40F3EB"/>
<path opacity="0.1" d="M225.107 117.17L254.803 99.8706V101.461L225.107 118.76L195.213 101.461V99.8706L225.107 117.17Z" fill="white"/>
</g>
<path opacity="0.1" d="M225.107 96.2916L254.803 78.9925L225.107 61.6935L195.213 78.9925L225.107 96.2916Z" fill="#03002D"/>
<path d="M225.107 35.4465L254.803 18.1474V52.7457L225.107 70.0448L195.213 52.7457V18.1474L225.107 35.4465Z" fill="#40F3EB"/>
<path d="M225.107 70.0448L254.803 52.7457V18.1474L225.107 35.4465V70.0448Z" fill="#40F3EB"/>
<path d="M195.21 52.7457L225.104 70.0448V35.4465L195.21 18.1474V52.7457Z" fill="#A9FFFB"/>
<path d="M225.103 35.4466L254.799 18.1475L225.103 0.848389L195.21 18.1475L225.103 35.4466Z" fill="#40F3EB"/>
<path d="M225.107 35.4465L254.803 18.1474V19.7381L225.107 37.0373L195.213 19.7381V18.1474L225.107 35.4465Z" fill="white"/>
<g opacity="0.1">
<path opacity="0.1" d="M102.944 428.598L77.0102 451.464L70.2792 417.661L96.0155 394.596L128.681 405.731L135.61 439.534L102.944 428.598Z" fill="#40F3EB"/>
<path opacity="0.1" d="M96.0153 394.596L70.2791 417.661L77.0102 451.464L102.944 428.598L96.0153 394.596Z" fill="#40F3EB"/>
<path opacity="0.1" d="M128.681 405.731L96.0155 394.596L102.945 428.598L135.61 439.534L128.681 405.731Z" fill="#A9FFFB"/>
<path opacity="0.1" d="M102.946 428.597L77.0113 451.464L109.677 462.4L135.611 439.534L102.946 428.597Z" fill="#40F3EB"/>
<path opacity="0.1" d="M102.946 428.598L77.0113 451.464L76.8134 450.072L102.55 427.007L135.215 438.142L135.611 439.534L102.946 428.598Z" fill="white"/>
</g>
<path opacity="0.4" d="M97.6014 415.275L127.495 398.175L97.6014 380.876L67.7077 398.175L97.6014 415.275Z" fill="#03002D"/>
<path opacity="0.4" d="M97.6007 445.499C117.2 445.499 136.997 441.125 151.845 432.574C166.495 424.223 174.414 412.889 174.414 400.959C174.414 389.028 166.297 377.695 151.845 369.343C121.951 352.044 73.2502 352.044 43.3565 369.343C28.7066 377.695 20.7877 389.028 20.7877 400.959C20.7877 412.889 28.9046 424.223 43.3565 432.574C58.2043 441.125 78.0015 445.499 97.6007 445.499ZM97.6007 356.618C117.2 356.618 136.601 360.992 151.647 369.542C166.099 377.893 173.82 388.83 173.82 400.76C173.82 412.492 165.901 423.627 151.647 431.978C121.951 449.277 73.4481 449.277 43.7524 431.978C29.3005 423.627 21.5796 412.69 21.5796 400.959C21.5796 389.227 29.4984 378.092 43.7524 369.741C58.6002 360.992 78.0015 356.618 97.6007 356.618Z" fill="#40F3EB"/>
<path opacity="0.2" d="M97.5998 457.429C122.544 457.429 147.489 451.862 166.494 440.926C184.905 430.188 195.2 415.872 195.2 400.76C195.2 385.648 185.103 371.332 166.494 360.594C128.483 338.523 66.7162 338.523 28.7057 360.594C10.2943 371.332 -0.000167847 385.648 -0.000167847 400.76C-0.000167847 415.872 10.0964 430.188 28.7057 440.926L28.9037 440.727L28.7057 440.926C47.711 451.862 72.6554 457.429 97.5998 457.429ZM97.5998 344.687C122.346 344.687 147.291 350.254 166.098 361.191C184.311 371.729 194.408 385.847 194.408 400.76C194.408 415.673 184.311 429.791 166.098 440.329C128.285 462.202 66.7162 462.202 28.9037 440.329C10.6903 429.791 0.593781 415.673 0.593781 400.76C0.593781 385.847 10.6903 371.729 28.9037 361.191C47.9089 350.254 72.8534 344.687 97.5998 344.687Z" fill="#40F3EB"/>
<path d="M97.5976 435.955C113.039 435.955 128.679 432.574 140.359 425.615C151.842 419.053 158.177 410.105 158.177 400.561C158.177 391.017 151.842 382.268 140.359 375.507C116.801 361.787 78.3944 361.787 54.8358 375.507C43.3535 382.268 37.0184 391.017 37.0184 400.561C37.0184 410.105 43.3535 418.854 54.8358 425.615C66.7141 432.574 82.1558 435.955 97.5976 435.955ZM97.5976 366.162C113.039 366.162 128.283 369.542 140.161 376.303C151.446 382.864 157.583 391.613 157.583 400.76C157.583 409.907 151.446 418.656 140.161 425.217C116.801 438.738 78.5924 438.738 55.2318 425.217L55.0338 425.416L55.2318 425.217C43.9474 418.656 37.8103 409.907 37.8103 400.76C37.8103 391.613 43.9474 382.864 55.2318 376.303C66.9121 369.542 82.1558 366.162 97.5976 366.162Z" fill="#40F3EB"/>
<path d="M100.966 367.554L104.529 333.154L132.443 353.436L129.078 387.835L97.6004 402.152L69.6864 381.87L100.966 367.554Z" fill="#40F3EB"/>
<path d="M129.078 387.835L132.443 353.436L104.529 333.154L100.966 367.554L129.078 387.835Z" fill="#40F3EB"/>
<path d="M97.6002 402.152L129.078 387.835L100.966 367.554L69.6863 381.87L97.6002 402.152Z" fill="#A9FFFB"/>
<path d="M100.966 367.554L104.53 333.154L73.0523 347.471L69.6867 381.87L100.966 367.554Z" fill="#40F3EB"/>
<path d="M100.965 367.554L104.528 333.154L105.716 334.148L102.351 368.548L70.8734 382.665L69.6855 381.87L100.965 367.554Z" fill="white"/>
<path d="M344.404 247.026L374.297 229.726V264.325L344.404 281.624L314.51 264.325V229.726L344.404 247.026Z" fill="#40F3EB"/>
<path d="M344.404 281.624L374.297 264.325V229.726L344.404 247.026V281.624Z" fill="#40F3EB"/>
<path d="M314.511 264.325L344.405 281.624V247.026L314.511 229.726V264.325Z" fill="#A9FFFB"/>
<path d="M344.404 247.026L374.298 229.727L344.404 212.428L314.511 229.727L344.404 247.026Z" fill="#40F3EB"/>
<path d="M344.404 247.026L372.912 230.323L374.297 231.118L344.404 248.417L314.51 231.118L315.896 230.522L344.404 247.026Z" fill="white"/>
<path d="M305.599 269.097L335.493 251.798V286.396L305.599 303.695L275.903 286.396V251.798L305.599 269.097Z" fill="#40F3EB"/>
<path d="M305.599 303.695L335.493 286.396V251.798L305.599 269.097V303.695Z" fill="#40F3EB"/>
<path d="M275.903 286.396L305.599 303.695V269.097L275.903 251.798V286.396Z" fill="#A9FFFB"/>
<path d="M305.599 269.097L335.493 251.798L305.599 234.499L275.903 251.798L305.599 269.097Z" fill="#40F3EB"/>
<path d="M305.599 269.097L334.107 252.593L335.493 253.389L305.599 270.688L275.903 253.389L277.091 252.593L305.599 269.097Z" fill="white"/>
<path d="M266.994 291.367L296.689 274.068V308.666L266.994 325.965L237.1 308.666V274.068L266.994 291.367Z" fill="#40F3EB"/>
<path d="M266.994 325.965L296.689 308.666V274.068L266.994 291.367V325.965Z" fill="#40F3EB"/>
<path d="M237.098 308.666L266.991 325.965V291.367L237.098 274.068V308.666Z" fill="#A9FFFB"/>
<path d="M266.994 291.367L296.689 274.068L266.994 256.769L237.1 274.068L266.994 291.367Z" fill="#40F3EB"/>
<path d="M266.994 291.367L295.502 274.863L296.689 275.659L266.994 292.958L237.1 275.659V274.068L266.994 291.367Z" fill="white"/>
<path d="M383.201 270.688L412.897 253.389V287.987L383.201 305.286L353.308 287.987V253.389L383.201 270.688Z" fill="#40F3EB"/>
<path d="M383.201 305.286L412.897 287.987V253.389L383.201 270.688V305.286Z" fill="#40F3EB"/>
<path d="M353.305 287.987L383.199 305.286V270.688L353.305 253.389V287.987Z" fill="#A9FFFB"/>
<path d="M383.202 270.688L412.898 253.389L383.202 236.09L353.309 253.389L383.202 270.688Z" fill="#40F3EB"/>
<path d="M383.201 270.688L411.709 254.184L412.897 254.78L383.201 272.08L353.308 254.78L354.693 254.184L383.201 270.688Z" fill="white"/>
<path d="M344.404 292.958L374.297 275.659V310.257L344.404 327.556L314.51 310.257V275.659L344.404 292.958Z" fill="#40F3EB"/>
<path d="M344.404 327.556L374.297 310.257V275.659L344.404 292.958V327.556Z" fill="#40F3EB"/>
<path d="M314.511 310.257L344.405 327.556V292.958L314.511 275.659V310.257Z" fill="#A9FFFB"/>
<path d="M344.404 292.958L374.298 275.659L344.404 258.36L314.511 275.659L344.404 292.958Z" fill="#40F3EB"/>
<path d="M344.404 292.958L372.912 276.255L374.297 277.051L344.404 294.35L314.51 277.051L315.896 276.255L344.404 292.958Z" fill="white"/>
<path d="M305.599 315.029L335.493 297.73V332.328L305.599 349.628L275.903 332.328V297.73L305.599 315.029Z" fill="#40F3EB"/>
<path d="M305.599 349.628L335.493 332.328V297.73L305.599 315.029V349.628Z" fill="#40F3EB"/>
<path d="M275.903 332.328L305.599 349.628V315.029L275.903 297.73V332.328Z" fill="#A9FFFB"/>
<path d="M305.599 315.029L335.493 297.73L305.599 280.431L275.903 297.73L305.599 315.029Z" fill="#40F3EB"/>
<path d="M305.599 315.029L334.107 298.526L335.493 299.321L305.599 316.62L275.903 299.321V297.73L305.599 315.029Z" fill="white"/>
<path d="M421.807 294.35L451.7 277.051V311.649L421.807 328.948L392.111 311.649V277.051L421.807 294.35Z" fill="#40F3EB"/>
<path d="M421.806 328.948L451.7 311.649V277.051L421.806 294.35V328.948Z" fill="#40F3EB"/>
<path d="M392.111 311.649L421.807 328.948V294.35L392.111 277.051V311.649Z" fill="#A9FFFB"/>
<path d="M421.807 294.35L451.701 277.051L421.807 259.752L392.111 277.051L421.807 294.35Z" fill="#40F3EB"/>
<path d="M421.807 294.35L451.7 277.051V278.642L421.807 295.941L392.111 278.642L393.299 277.846L421.807 294.35Z" fill="white"/>
<path d="M383.201 316.62L412.897 299.321V333.919L383.201 351.218L353.308 333.919V299.321L383.201 316.62Z" fill="#40F3EB"/>
<path d="M383.201 351.218L412.897 333.919V299.321L383.201 316.62V351.218Z" fill="#40F3EB"/>
<path d="M353.305 333.919L383.199 351.218V316.62L353.305 299.321V333.919Z" fill="#A9FFFB"/>
<path d="M383.202 316.62L412.898 299.321L383.202 282.022L353.309 299.321L383.202 316.62Z" fill="#40F3EB"/>
<path d="M383.201 316.62L412.897 299.321V300.712L383.201 318.012L353.308 300.712L354.693 300.116L383.201 316.62Z" fill="white"/>
<path d="M344.404 338.89L374.297 321.591V355.99L344.404 373.289L314.51 355.99V321.591L344.404 338.89Z" fill="#40F3EB"/>
<path d="M344.404 373.289L374.297 355.99V321.591L344.404 338.89V373.289Z" fill="#40F3EB"/>
<path d="M314.511 355.99L344.405 373.289V338.89L314.511 321.591V355.99Z" fill="#A9FFFB"/>
<path d="M344.404 338.89L374.298 321.591L344.404 304.292L314.511 321.591L344.404 338.89Z" fill="#40F3EB"/>
<path d="M344.404 338.89L374.297 321.591V322.983L344.404 340.282L314.51 322.983V321.591L344.404 338.89Z" fill="white"/>
<path d="M344.404 201.094L374.297 183.795V218.393L344.404 235.692L314.51 218.393V183.795L344.404 201.094Z" fill="#40F3EB"/>
<path d="M344.404 235.692L374.297 218.393V183.795L344.404 201.094V235.692Z" fill="#40F3EB"/>
<path d="M314.511 218.393L344.405 235.692V201.094L314.511 183.795V218.393Z" fill="#A9FFFB"/>
<path d="M344.404 201.094L374.298 183.795L344.404 166.496L314.511 183.795L344.404 201.094Z" fill="#40F3EB"/>
<path d="M344.404 201.094L372.912 184.59L374.297 185.187L344.404 202.486L314.51 185.187L315.896 184.59L344.404 201.094Z" fill="white"/>
<path opacity="0.7" d="M344.398 333.124L364.79 321.392L344.398 309.462L324.007 321.392L344.398 333.124Z" fill="#0BC6D2"/>
<path opacity="0.7" d="M383.199 310.854L403.392 299.122L383.199 287.391L362.808 299.122L383.199 310.854Z" fill="#0BC6D2"/>
<path opacity="0.7" d="M305.598 309.462L325.989 297.73L305.598 285.8L285.207 297.73L305.598 309.462Z" fill="#0BC6D2"/>
<path opacity="0.7" d="M266.793 285.999L287.184 274.267L266.793 262.337L246.402 274.267L266.793 285.999Z" fill="#0BC6D2"/>
<path opacity="0.7" d="M421.806 288.782L442.197 276.852L421.806 265.12L401.613 276.852L421.806 288.782Z" fill="#0BC6D2"/>
<path d="M305.599 223.364L335.493 206.065V240.464L305.599 257.763L275.903 240.464V206.065L305.599 223.364Z" fill="#40F3EB"/>
<path d="M305.599 257.763L335.493 240.464V206.065L305.599 223.364V257.763Z" fill="#40F3EB"/>
<path d="M275.903 240.464L305.599 257.763V223.364L275.903 206.065V240.464Z" fill="#A9FFFB"/>
<path d="M305.599 223.364L335.493 206.065L305.599 188.766L275.903 206.065L305.599 223.364Z" fill="#40F3EB"/>
<path d="M305.599 223.364L334.107 206.661L335.493 207.457L305.599 224.756L275.903 207.457L277.091 206.661L305.599 223.364Z" fill="white"/>
<path d="M266.994 245.435L296.689 228.136V262.734L266.994 280.033L237.1 262.734V228.136L266.994 245.435Z" fill="#40F3EB"/>
<path d="M266.994 280.033L296.689 262.734V228.136L266.994 245.435V280.033Z" fill="#40F3EB"/>
<path d="M237.098 262.734L266.991 280.033V245.435L237.098 228.136V262.734Z" fill="#A9FFFB"/>
<path d="M266.994 245.435L296.689 228.136L266.994 210.837L237.1 228.136L266.994 245.435Z" fill="#40F3EB"/>
<path d="M266.994 245.435L295.502 228.931L296.689 229.726L266.994 247.025L237.1 229.726V228.136L266.994 245.435Z" fill="white"/>
<path d="M383.201 224.756L412.897 207.456V242.055L383.201 259.354L353.308 242.055V207.456L383.201 224.756Z" fill="#40F3EB"/>
<path d="M383.201 259.354L412.897 242.055V207.456L383.201 224.756V259.354Z" fill="#40F3EB"/>
<path d="M353.305 242.055L383.199 259.354V224.756L353.305 207.456V242.055Z" fill="#A9FFFB"/>
<path d="M383.202 224.756L412.898 207.457L383.202 190.157L353.309 207.457L383.202 224.756Z" fill="#40F3EB"/>
<path d="M383.201 224.756L411.709 208.252L412.897 209.047L383.201 226.346L353.308 209.047L354.693 208.252L383.201 224.756Z" fill="white"/>
<path d="M344.404 247.026L374.297 229.726V264.325L344.404 281.624L314.51 264.325V229.726L344.404 247.026Z" fill="#40F3EB"/>
<path d="M344.404 281.624L374.297 264.325V229.726L344.404 247.026V281.624Z" fill="#40F3EB"/>
<path d="M314.511 264.325L344.405 281.624V247.026L314.511 229.726V264.325Z" fill="#A9FFFB"/>
<path d="M344.404 247.026L374.298 229.727L344.404 212.428L314.511 229.727L344.404 247.026Z" fill="#40F3EB"/>
<path d="M344.404 247.026L372.912 230.522L374.297 231.118L344.404 248.417L314.51 231.118L315.896 230.522L344.404 247.026Z" fill="white"/>
<path d="M305.599 269.097L335.493 251.798V286.396L305.599 303.695L275.903 286.396V251.798L305.599 269.097Z" fill="#40F3EB"/>
<path d="M305.599 303.695L335.493 286.396V251.798L305.599 269.097V303.695Z" fill="#40F3EB"/>
<path d="M275.903 286.396L305.599 303.695V269.097L275.903 251.798V286.396Z" fill="#A9FFFB"/>
<path d="M305.599 269.097L335.493 251.798L305.599 234.499L275.903 251.798L305.599 269.097Z" fill="#40F3EB"/>
<path d="M305.599 269.097L334.107 252.593L335.493 253.389L305.599 270.688L275.903 253.389V251.798L305.599 269.097Z" fill="white"/>
<path d="M421.807 248.418L451.7 231.119V265.717L421.807 283.016L392.111 265.717V231.119L421.807 248.418Z" fill="#40F3EB"/>
<path d="M421.806 283.016L451.7 265.717V231.119L421.806 248.418V283.016Z" fill="#40F3EB"/>
<path d="M392.111 265.717L421.807 283.016V248.418L392.111 231.119V265.717Z" fill="#A9FFFB"/>
<path d="M421.807 248.418L451.701 231.119L421.807 213.82L392.111 231.119L421.807 248.418Z" fill="#40F3EB"/>
<path d="M421.807 248.418L450.512 231.914L451.7 232.709L421.807 250.008L392.111 232.709L393.299 231.914L421.807 248.418Z" fill="white"/>
<path d="M383.201 270.688L412.897 253.389V287.987L383.201 305.286L353.308 287.987V253.389L383.201 270.688Z" fill="#40F3EB"/>
<path d="M383.201 305.286L412.897 287.987V253.389L383.201 270.688V305.286Z" fill="#40F3EB"/>
<path d="M353.305 287.987L383.199 305.286V270.688L353.305 253.389V287.987Z" fill="#A9FFFB"/>
<path d="M383.202 270.688L412.898 253.389L383.202 236.09L353.309 253.389L383.202 270.688Z" fill="#40F3EB"/>
<path d="M383.201 270.688L412.897 253.389V254.78L383.201 272.08L353.308 254.78L354.693 254.184L383.201 270.688Z" fill="white"/>
<path d="M344.404 292.958L374.297 275.659V310.257L344.404 327.556L314.51 310.257V275.659L344.404 292.958Z" fill="#40F3EB"/>
<path d="M344.404 327.556L374.297 310.257V275.659L344.404 292.958V327.556Z" fill="#40F3EB"/>
<path d="M314.511 310.257L344.405 327.556V292.958L314.511 275.659V310.257Z" fill="#A9FFFB"/>
<path d="M344.404 292.958L374.298 275.659L344.404 258.36L314.511 275.659L344.404 292.958Z" fill="#40F3EB"/>
<path d="M344.404 292.958L374.297 275.659V277.051L344.404 294.35L314.51 277.051V275.659L344.404 292.958Z" fill="white"/>
<path opacity="0.7" d="M266.793 240.265L287.184 228.534L266.793 216.802L246.402 228.534L266.793 240.265Z" fill="#0BC6D2"/>
<path opacity="0.7" d="M421.806 243.049L442.197 231.318L421.806 219.387L401.613 231.318L421.806 243.049Z" fill="#0BC6D2"/>
<path d="M344.404 155.162L374.297 137.862V172.461L344.404 189.76L314.51 172.461V137.862L344.404 155.162Z" fill="#40F3EB"/>
<path d="M344.404 189.76L374.297 172.461V137.862L344.404 155.162V189.76Z" fill="#40F3EB"/>
<path d="M314.511 172.461L344.405 189.76V155.162L314.511 137.862V172.461Z" fill="#A9FFFB"/>
<path d="M344.404 155.162L374.298 137.863L344.404 120.563L314.511 137.863L344.404 155.162Z" fill="#40F3EB"/>
<path d="M344.404 155.162L374.297 137.862V139.254L344.404 156.553L314.51 139.254V137.862L344.404 155.162Z" fill="white"/>
<path d="M305.599 177.432L335.493 160.133V194.731L305.599 212.03L275.903 194.731V160.133L305.599 177.432Z" fill="#40F3EB"/>
<path d="M305.599 212.03L335.493 194.731V160.133L305.599 177.432V212.03Z" fill="#40F3EB"/>
<path d="M275.903 194.731L305.599 212.03V177.432L275.903 160.133V194.731Z" fill="#A9FFFB"/>
<path d="M305.599 177.432L335.493 160.133L305.599 142.834L275.903 160.133L305.599 177.432Z" fill="#40F3EB"/>
<path d="M305.599 177.432L335.493 160.133V161.525L305.599 178.824L275.903 161.525V160.133L305.599 177.432Z" fill="white"/>
<path d="M266.994 199.503L296.689 182.204V216.802L266.994 234.101L237.1 216.802V182.204L266.994 199.503Z" fill="#40F3EB"/>
<path d="M266.994 234.101L296.689 216.802V182.204L266.994 199.503V234.101Z" fill="#40F3EB"/>
<path d="M237.098 216.802L266.991 234.101V199.503L237.098 182.204V216.802Z" fill="#A9FFFB"/>
<path d="M266.994 199.503L296.689 182.204L266.994 164.905L237.1 182.204L266.994 199.503Z" fill="#40F3EB"/>
<path d="M266.994 199.503L296.689 182.204V183.795L266.994 201.094L237.1 183.795V182.204L266.994 199.503Z" fill="white"/>
<path d="M383.201 178.824L412.897 161.525V196.123L383.201 213.422L353.308 196.123V161.525L383.201 178.824Z" fill="#40F3EB"/>
<path d="M383.201 213.422L412.897 196.123V161.525L383.201 178.824V213.422Z" fill="#40F3EB"/>
<path d="M353.305 196.123L383.199 213.422V178.824L353.305 161.525V196.123Z" fill="#A9FFFB"/>
<path d="M383.202 178.824L412.898 161.525L383.202 144.226L353.309 161.525L383.202 178.824Z" fill="#40F3EB"/>
<path d="M383.201 178.824L412.897 161.525V163.115L383.201 180.414L353.308 163.115V161.525L383.201 178.824Z" fill="white"/>
<path d="M421.807 202.486L451.7 185.187V219.785L421.807 237.084L392.111 219.785V185.187L421.807 202.486Z" fill="#40F3EB"/>
<path d="M421.806 237.084L451.7 219.785V185.187L421.806 202.486V237.084Z" fill="#40F3EB"/>
<path d="M392.111 219.785L421.807 237.084V202.486L392.111 185.187V219.785Z" fill="#A9FFFB"/>
<path d="M421.807 202.486L451.701 185.187L421.807 167.888L392.111 185.187L421.807 202.486Z" fill="#40F3EB"/>
<path d="M421.807 202.486L451.7 185.187V186.777L421.807 204.076L392.111 186.777V185.187L421.807 202.486Z" fill="white"/>
<path opacity="0.4" d="M517.822 387.915C515.636 387.915 513.863 386.134 513.863 383.938C513.863 381.742 515.636 379.961 517.822 379.961C520.009 379.961 521.782 381.742 521.782 383.938C521.782 386.134 520.009 387.915 517.822 387.915Z" fill="#40F3EB"/>
<path d="M517.823 385.727C516.839 385.727 516.041 384.926 516.041 383.938C516.041 382.949 516.839 382.148 517.823 382.148C518.807 382.148 519.604 382.949 519.604 383.938C519.604 384.926 518.807 385.727 517.823 385.727Z" fill="#40F3EB"/>
<path opacity="0.4" d="M161.675 203.59C159.488 203.59 157.715 201.81 157.715 199.613C157.715 197.417 159.488 195.636 161.675 195.636C163.862 195.636 165.634 197.417 165.634 199.613C165.634 201.81 163.862 203.59 161.675 203.59Z" fill="#40F3EB"/>
<path d="M161.674 201.403C160.69 201.403 159.893 200.602 159.893 199.613C159.893 198.625 160.69 197.824 161.674 197.824C162.658 197.824 163.456 198.625 163.456 199.613C163.456 200.602 162.658 201.403 161.674 201.403Z" fill="#40F3EB"/>
<path opacity="0.4" d="M45.336 422.234C43.1493 422.234 41.3766 420.454 41.3766 418.258C41.3766 416.061 43.1493 414.281 45.336 414.281C47.5227 414.281 49.2954 416.061 49.2954 418.258C49.2954 420.454 47.5227 422.234 45.336 422.234Z" fill="#40F3EB"/>
<path d="M45.3369 420.047C44.3528 420.047 43.555 419.246 43.555 418.258C43.555 417.269 44.3528 416.468 45.3369 416.468C46.3209 416.468 47.1187 417.269 47.1187 418.258C47.1187 419.246 46.3209 420.047 45.3369 420.047Z" fill="#40F3EB"/>
<path opacity="0.4" d="M122.146 438.937C118.648 438.937 115.811 436.088 115.811 432.574C115.811 429.06 118.648 426.211 122.146 426.211C125.645 426.211 128.481 429.06 128.481 432.574C128.481 436.088 125.645 438.937 122.146 438.937Z" fill="#40F3EB"/>
<path d="M122.142 435.358C120.612 435.358 119.371 434.112 119.371 432.574C119.371 431.037 120.612 429.79 122.142 429.79C123.673 429.79 124.914 431.037 124.914 432.574C124.914 434.112 123.673 435.358 122.142 435.358Z" fill="#40F3EB"/>
<path opacity="0.4" d="M142.933 381.87C140.527 381.87 138.577 379.911 138.577 377.495C138.577 375.08 140.527 373.121 142.933 373.121C145.338 373.121 147.288 375.08 147.288 377.495C147.288 379.911 145.338 381.87 142.933 381.87Z" fill="#40F3EB"/>
<path d="M142.93 379.285C141.946 379.285 141.148 378.484 141.148 377.496C141.148 376.507 141.946 375.706 142.93 375.706C143.914 375.706 144.712 376.507 144.712 377.496C144.712 378.484 143.914 379.285 142.93 379.285Z" fill="#40F3EB"/>
<path opacity="0.4" d="M204.633 180.127C202.446 180.127 200.673 178.346 200.673 176.15C200.673 173.954 202.446 172.173 204.633 172.173C206.82 172.173 208.592 173.954 208.592 176.15C208.592 178.346 206.82 180.127 204.633 180.127Z" fill="#40F3EB"/>
<path d="M204.633 177.94C203.649 177.94 202.852 177.138 202.852 176.15C202.852 175.162 203.649 174.36 204.633 174.36C205.617 174.36 206.415 175.162 206.415 176.15C206.415 177.138 205.617 177.94 204.633 177.94Z" fill="#40F3EB"/>
<path opacity="0.4" d="M563.356 362.265C561.169 362.265 559.396 360.484 559.396 358.288C559.396 356.091 561.169 354.311 563.356 354.311C565.542 354.311 567.315 356.091 567.315 358.288C567.315 360.484 565.542 362.265 563.356 362.265Z" fill="#40F3EB"/>
<path d="M563.36 360.077C562.376 360.077 561.578 359.276 561.578 358.288C561.578 357.3 562.376 356.498 563.36 356.498C564.344 356.498 565.142 357.3 565.142 358.288C565.142 359.276 564.344 360.077 563.36 360.077Z" fill="#40F3EB"/>
</svg>
