<svg width="17" height="24" viewBox="0 0 17 24" fill="none" xmlns="http://www.w3.org/2000/svg">
<path d="M13.6782 10.7435C14.9203 10.1113 15.6974 8.99787 15.5159 7.143C15.2714 4.60813 13.0808 3.75813 10.3155 3.51607L10.3149 0H8.17233L8.17173 3.4236C7.608 3.4236 7.03333 3.43467 6.46127 3.44613L6.4608 0.000466665L4.32013 0.000266679L4.31973 3.51547C3.8558 3.52493 3.4002 3.53393 2.95533 3.53393V3.52353L0 3.52233L0.000400035 5.8078C0.000400035 5.8078 1.58267 5.77807 1.5566 5.80693C2.42413 5.80753 2.7074 6.31087 2.78887 6.74533L2.78953 10.7509V16.3773C2.75133 16.65 2.5906 17.0857 1.984 17.0865C2.0116 17.1107 0.4254 17.0862 0.4254 17.0862L0.000400035 19.6419H2.7882C3.30767 19.6425 3.81807 19.6505 4.3188 19.6545L4.32067 23.2104L6.4608 23.211L6.4602 19.6924C7.049 19.7044 7.61733 19.7096 8.17247 19.7089L8.17187 23.211H10.3144L10.3156 19.6611C13.9171 19.4544 16.4384 18.5479 16.7519 15.1687C17.0045 12.4481 15.7229 11.2337 13.6782 10.7435ZM6.51247 5.96207C7.72087 5.96207 11.5213 5.5776 11.5218 8.09967C11.5213 10.5176 7.72207 10.2351 6.51247 10.2351V5.96207ZM6.51153 17.1038L6.51247 12.3923C7.96433 12.3919 12.5181 11.9749 12.5187 14.747C12.5193 17.4054 7.96433 17.1027 6.51153 17.1038Z" fill="#4A38AE"/>
</svg>
