<svg width="28" height="24" viewBox="0 0 28 24" fill="none" xmlns="http://www.w3.org/2000/svg">
<path d="M27.0073 12.1796C26.9865 11.6089 26.801 11.0564 26.4732 10.5888C26.1454 10.1211 25.6894 9.75828 25.16 9.54397C24.6307 9.32966 24.0506 9.27305 23.4898 9.38095C22.929 9.48886 22.4114 9.75668 21.9994 10.1521C19.693 8.58429 16.9817 7.71811 14.1935 7.6583L15.5114 1.33248L19.8503 2.24486C19.9018 2.72433 20.1226 3.16971 20.473 3.50107C20.8234 3.83242 21.2803 4.02804 21.7619 4.05282C22.2435 4.0776 22.7182 3.92991 23.1007 3.63626C23.4833 3.34262 23.7486 2.92224 23.8491 2.4506C23.9496 1.97895 23.8787 1.48692 23.6492 1.06283C23.4196 0.63874 23.0464 0.310357 22.5965 0.136628C22.1467 -0.0371006 21.6496 -0.0447986 21.1946 0.114916C20.7396 0.27463 20.3564 0.591298 20.1138 1.00808L15.1464 0.0145998C15.0652 -0.00322252 14.9812 -0.00474396 14.8994 0.0101246C14.8176 0.0249931 14.7395 0.0559559 14.6697 0.101217C14.5999 0.146479 14.5398 0.20514 14.4929 0.2738C14.446 0.34246 14.4131 0.419753 14.3963 0.501201L12.8959 7.53665C10.0734 7.5792 7.32487 8.44604 4.98863 10.0305C4.67607 9.73639 4.3033 9.51379 3.89616 9.37809C3.48902 9.24239 3.05724 9.19684 2.63075 9.2446C2.20425 9.29235 1.79324 9.43228 1.4262 9.65467C1.05916 9.87706 0.744859 10.1766 0.505088 10.5325C0.265317 10.8885 0.105807 11.2923 0.0376118 11.716C-0.0305835 12.1397 -0.00583296 12.5732 0.110148 12.9864C0.226129 13.3995 0.430567 13.7826 0.709294 14.1089C0.988021 14.4352 1.33437 14.6971 1.72434 14.8762C1.70151 15.1732 1.70151 15.4714 1.72434 15.7683C1.72434 20.3099 7.01613 24 13.5447 24C20.0733 24 25.3651 20.3099 25.3651 15.7683C25.3879 15.4714 25.3879 15.1732 25.3651 14.8762C25.8654 14.6275 26.2851 14.2423 26.5757 13.7652C26.8664 13.288 27.016 12.7383 27.0073 12.1796ZM6.73228 14.2071C6.73228 13.6694 6.9459 13.1537 7.32613 12.7735C7.70636 12.3932 8.22206 12.1796 8.75979 12.1796C9.29752 12.1796 9.81322 12.3932 10.1935 12.7735C10.5737 13.1537 10.7873 13.6694 10.7873 14.2071C10.7873 14.7449 10.5737 15.2606 10.1935 15.6408C9.81322 16.021 9.29752 16.2347 8.75979 16.2347C8.22206 16.2347 7.70636 16.021 7.32613 15.6408C6.9459 15.2606 6.73228 14.7449 6.73228 14.2071ZM18.5121 19.7828C17.0736 20.8668 15.3038 21.4185 13.5042 21.344C11.7045 21.4185 9.93468 20.8668 8.49621 19.7828C8.41 19.6777 8.36594 19.5444 8.3726 19.4086C8.37927 19.2729 8.43619 19.1445 8.53228 19.0484C8.62838 18.9523 8.75678 18.8954 8.89252 18.8887C9.02825 18.8821 9.16162 18.9261 9.26667 19.0123C10.4857 19.9065 11.9736 20.3571 13.4839 20.2897C14.996 20.3719 16.4909 19.9356 17.7214 19.0529C17.7732 18.9948 17.8365 18.948 17.9072 18.9154C17.9779 18.8828 18.0545 18.8651 18.1324 18.8634C18.2102 18.8617 18.2876 18.876 18.3597 18.9055C18.4317 18.9349 18.497 18.9789 18.5513 19.0347C18.6057 19.0904 18.648 19.1567 18.6756 19.2295C18.7032 19.3023 18.7156 19.38 18.7119 19.4578C18.7082 19.5356 18.6886 19.6118 18.6542 19.6816C18.6198 19.7515 18.5715 19.8135 18.5121 19.8639V19.7828ZM18.1471 16.3158C17.7461 16.3158 17.3541 16.1968 17.0207 15.9741C16.6873 15.7513 16.4274 15.4346 16.274 15.0641C16.1205 14.6937 16.0804 14.286 16.1586 13.8927C16.2368 13.4994 16.4299 13.1381 16.7135 12.8546C16.997 12.571 17.3583 12.3779 17.7516 12.2997C18.1449 12.2215 18.5526 12.2616 18.923 12.4151C19.2935 12.5685 19.6102 12.8284 19.833 13.1618C20.0557 13.4952 20.1747 13.8872 20.1747 14.2882C20.1857 14.563 20.1407 14.837 20.0425 15.0938C19.9442 15.3506 19.7948 15.5848 19.6033 15.782C19.4117 15.9792 19.1821 16.1354 18.9283 16.2411C18.6744 16.3468 18.4018 16.3998 18.1269 16.3969L18.1471 16.3158Z" fill="#4A38AE"/>
</svg>
