<svg width="148" height="26" viewBox="0 0 148 26" fill="none" xmlns="http://www.w3.org/2000/svg">
<path d="M48.1211 14.475H41.5986V21.1888C41.5986 21.3482 41.5508 21.4758 41.4392 21.5715C41.3275 21.6672 41.2 21.715 41.0724 21.715H39.8125C39.6531 21.715 39.5255 21.6672 39.4139 21.5556C39.3022 21.4439 39.2544 21.3163 39.2544 21.1888V6.56512C39.2544 5.59234 39.9401 4.53982 41.3275 3.43946C42.699 2.32315 43.8791 1.78094 44.8678 1.78094C45.8406 1.78094 47.0207 2.3391 48.4081 3.43946C49.7796 4.53982 50.4813 5.59234 50.4813 6.56512V21.1888C50.4813 21.3323 50.4334 21.4599 50.3218 21.5556C50.2102 21.6672 50.0826 21.715 49.9231 21.715H48.6952C48.5517 21.715 48.4241 21.6672 48.3284 21.5556C48.2168 21.4439 48.1689 21.3163 48.1689 21.1888V14.475H48.1211ZM41.5827 6.86812V12.4178H48.1051V6.86812C48.1051 6.29402 47.7064 5.65613 46.9091 4.98635C46.1117 4.30061 45.426 3.96572 44.8359 3.96572C44.2778 3.96572 43.5921 4.30061 42.7787 4.98635C41.9973 5.65613 41.5827 6.29402 41.5827 6.86812Z" fill="#4A38AE"/>
<path d="M62.1078 21.1888V10.855C62.1078 10.3766 61.7888 9.88221 61.1669 9.3719C60.545 8.86158 60.0187 8.60643 59.5881 8.60643C59.1735 8.60643 58.6472 8.86158 58.0094 9.3719C57.3874 9.88221 57.0685 10.3766 57.0685 10.855V21.1888C57.0685 21.3483 57.0206 21.4759 56.9249 21.5716C56.8293 21.6672 56.7017 21.7151 56.5422 21.7151H55.3462C54.9794 21.7151 54.804 21.5397 54.804 21.1729V10.5201C54.804 9.65895 55.3781 8.78185 56.5422 7.87285C57.7064 6.96386 58.711 6.51733 59.5722 6.51733C60.1303 6.51733 60.7682 6.7406 61.4699 7.18712C62.1716 7.63364 62.7776 8.14396 63.256 8.70211C63.7344 8.14396 64.3404 7.63364 65.058 7.18712C65.7757 6.7406 66.4135 6.51733 66.9398 6.51733C67.8169 6.51733 68.8375 6.96386 70.0017 7.87285C71.1658 8.78185 71.7399 9.65895 71.7399 10.5201V21.1888C71.7399 21.3483 71.6921 21.4759 71.5805 21.5716C71.4688 21.6672 71.3412 21.7151 71.2137 21.7151H70.0176C69.6508 21.7151 69.4754 21.5397 69.4754 21.1729V10.855C69.4754 10.3766 69.1565 9.88221 68.5345 9.3719C67.9126 8.86158 67.3704 8.60643 66.9239 8.60643C66.5092 8.60643 65.983 8.86158 65.3451 9.3719C64.7231 9.88221 64.4042 10.3766 64.4042 10.855V21.1888C64.4042 21.5556 64.2288 21.731 63.862 21.731H62.6659C62.5065 21.731 62.3789 21.6832 62.2832 21.5875C62.1556 21.4759 62.1078 21.3483 62.1078 21.1888Z" fill="#4A38AE"/>
<path d="M78.1987 1.23891V8.06433C78.5814 7.6497 79.0598 7.28292 79.6339 6.96397C80.208 6.66097 80.7343 6.5015 81.2286 6.5015C82.0738 6.5015 83.0626 6.94802 84.2267 7.85702C85.3909 8.76601 85.965 9.675 85.965 10.5999V17.8241C85.965 18.7171 85.359 19.642 84.131 20.567C82.9191 21.4919 81.8506 21.9544 80.9256 21.9544C79.9848 21.9544 78.9163 21.4919 77.7203 20.5829C76.5242 19.658 75.9182 18.749 75.9182 17.8559V1.23891C75.9182 1.07943 75.966 0.951855 76.0617 0.856172C76.1574 0.760488 76.285 0.712646 76.4445 0.712646H77.6405C77.8 0.712646 77.9276 0.760488 78.0232 0.856172C78.1508 0.951855 78.1987 1.07943 78.1987 1.23891ZM83.6686 10.9348C83.6686 10.4405 83.3337 9.91421 82.6798 9.38795C82.026 8.8617 81.436 8.59059 80.9416 8.59059C80.4632 8.59059 79.8891 8.8617 79.2033 9.38795C78.5176 9.91421 78.1827 10.4245 78.1827 10.9029V17.5211C78.1827 17.9995 78.5017 18.5098 79.1555 19.052C79.8093 19.5942 80.3834 19.8653 80.9097 19.8653C81.436 19.8653 82.0101 19.5942 82.6798 19.0679C83.3337 18.5417 83.6686 18.0314 83.6686 17.5211V10.9348Z" fill="#4A38AE"/>
<path d="M96.5225 7.45849L96.379 8.35154C96.3152 8.67049 96.092 8.79806 95.6933 8.73427C95.2946 8.65454 94.9597 8.6067 94.6726 8.6067C94.258 8.6067 93.7317 8.8778 93.0938 9.43595C92.4719 9.97816 92.153 10.4885 92.153 10.9509V21.1731C92.153 21.5399 91.9775 21.7153 91.6107 21.7153H90.4147C90.2552 21.7153 90.1276 21.6675 90.032 21.5718C89.9363 21.4761 89.8884 21.3486 89.8884 21.1891V10.6479C89.8884 9.77085 90.4625 8.86185 91.5948 7.93691C92.7271 7.01197 93.7317 6.5495 94.5929 6.5495C95.1351 6.5495 95.6454 6.62924 96.1238 6.78871C96.4747 6.86844 96.6023 7.10765 96.5225 7.45849Z" fill="#4A38AE"/>
<path d="M100.619 7.90475C101.831 6.97981 102.884 6.51733 103.808 6.51733C104.733 6.51733 105.786 6.9798 106.998 7.8888C108.21 8.81374 108.816 9.73868 108.816 10.6796V17.808C108.816 18.701 108.21 19.626 106.982 20.5669C105.77 21.5078 104.702 21.9702 103.808 21.9702C102.884 21.9702 101.831 21.5078 100.619 20.5828C99.407 19.6579 98.801 18.7329 98.801 17.808V10.6636C98.801 9.75463 99.407 8.82969 100.619 7.90475ZM106.535 17.505V10.9666C106.535 10.4404 106.201 9.93005 105.547 9.38784C104.893 8.86158 104.303 8.59048 103.808 8.59048C103.314 8.59048 102.724 8.86158 102.07 9.38784C101.416 9.9141 101.081 10.4404 101.081 10.9666V17.4891C101.081 18.0153 101.4 18.5256 102.054 19.0678C102.708 19.5941 103.282 19.8652 103.808 19.8652C104.303 19.8652 104.893 19.5941 105.547 19.0678C106.201 18.5416 106.535 18.0153 106.535 17.505Z" fill="#4A38AE"/>
<path d="M117.158 8.60669C116.759 8.60669 116.233 8.8459 115.579 9.34026C114.925 9.83463 114.606 10.2652 114.606 10.6639V11.3177C114.606 11.828 115.053 12.2746 115.962 12.6254L119.406 13.9171C120.921 14.5231 121.687 15.4481 121.687 16.7079V18.175C121.687 18.9405 121.112 19.7538 119.964 20.6309C118.816 21.508 117.795 21.9545 116.918 21.9545C115.993 21.9545 114.638 21.4921 112.852 20.5831C112.453 20.3598 112.341 20.0568 112.517 19.69L112.852 18.9086C113.011 18.5418 113.314 18.4621 113.777 18.6694C115.371 19.4668 116.424 19.8655 116.918 19.8655C117.333 19.8655 117.859 19.6262 118.497 19.1478C119.119 18.6694 119.438 18.2388 119.438 17.888V17.0109C119.438 16.676 119.31 16.389 119.071 16.1657C118.816 15.9424 118.465 15.7351 117.987 15.5278L114.686 14.268C113.171 13.6939 112.405 12.8168 112.405 11.6686V10.3768C112.405 9.57947 112.995 8.73427 114.191 7.84122C115.371 6.94817 116.376 6.50165 117.173 6.50165C118.067 6.50165 119.374 6.93222 121.097 7.79338C121.24 7.85717 121.336 7.95285 121.4 8.11232C121.463 8.25585 121.447 8.41532 121.368 8.57479L121.065 9.3881C120.889 9.77084 120.586 9.85057 120.172 9.62731C118.577 8.94158 117.588 8.60669 117.158 8.60669Z" fill="#4A38AE"/>
<path d="M127.283 7.28317V17.4735C127.283 18.0157 127.602 18.5419 128.256 19.0682C128.91 19.5945 129.484 19.8656 129.978 19.8656C130.456 19.8656 131.031 19.5945 131.684 19.0682C132.338 18.5419 132.673 17.9997 132.673 17.4735V7.28317C132.673 6.91639 132.849 6.74097 133.215 6.74097H134.411C134.571 6.74097 134.698 6.78881 134.794 6.88449C134.89 6.98018 134.938 7.10775 134.938 7.26723V17.7765C134.938 18.7174 134.332 19.6423 133.136 20.5672C131.94 21.4922 130.871 21.9387 129.962 21.9387C129.021 21.9387 127.953 21.4762 126.773 20.5672C125.577 19.6423 124.987 18.7174 124.987 17.7765V7.28317C124.987 7.1237 125.034 6.99612 125.13 6.90044C125.226 6.80476 125.353 6.75691 125.513 6.75691H126.709C126.868 6.75691 126.996 6.80476 127.092 6.90044C127.235 6.99612 127.283 7.1237 127.283 7.28317Z" fill="#4A38AE"/>
<path d="M143.471 8.60669C143.072 8.60669 142.546 8.8459 141.892 9.34026C141.238 9.83463 140.919 10.2652 140.919 10.6639V11.3177C140.919 11.828 141.366 12.2746 142.274 12.6254L145.719 13.9171C147.234 14.5231 148 15.4481 148 16.7079V18.175C148 18.9405 147.425 19.7538 146.277 20.6309C145.129 21.508 144.108 21.9545 143.231 21.9545C142.306 21.9545 140.951 21.4921 139.165 20.5831C138.766 20.3598 138.654 20.0568 138.83 19.69L139.165 18.9086C139.324 18.5418 139.627 18.4621 140.09 18.6694C141.684 19.4668 142.737 19.8655 143.231 19.8655C143.646 19.8655 144.172 19.6262 144.81 19.1478C145.432 18.6694 145.751 18.2388 145.751 17.888V17.0109C145.751 16.676 145.623 16.389 145.384 16.1657C145.129 15.9424 144.778 15.7351 144.3 15.5278L140.999 14.268C139.484 13.6939 138.718 12.8168 138.718 11.6686V10.3768C138.718 9.57947 139.308 8.73427 140.504 7.84122C141.684 6.94817 142.689 6.50165 143.486 6.50165C144.38 6.50165 145.687 6.93222 147.41 7.79338C147.553 7.85717 147.649 7.95285 147.713 8.11232C147.776 8.25585 147.76 8.41532 147.681 8.57479L147.378 9.3881C147.202 9.77084 146.899 9.85057 146.485 9.62731C144.89 8.94158 143.885 8.60669 143.471 8.60669Z" fill="#4A38AE"/>
<path d="M104.991 3.58318C104.991 3.4556 104.943 3.34397 104.848 3.26424C104.752 3.1845 104.624 3.13666 104.465 3.13666H103.301C103.141 3.13666 103.014 3.1845 102.918 3.26424C102.822 3.34397 102.774 3.4556 102.774 3.58318V8.04841H104.991V3.58318Z" fill="#4A38AE"/>
<path d="M102.788 24.8408C102.788 24.9684 102.836 25.08 102.931 25.1597C103.027 25.2395 103.155 25.2873 103.314 25.2873H104.478C104.638 25.2873 104.765 25.2395 104.861 25.1597C104.957 25.08 105.005 24.9684 105.005 24.8408V20.3755H102.788V24.8408Z" fill="#4A38AE"/>
<path d="M23.7244 12.5933C23.533 12.5933 23.3736 12.4498 23.3417 12.2584C22.8473 8.86164 20.1203 6.1825 16.7076 5.73597C16.5003 5.70408 16.3408 5.51271 16.3727 5.3054C16.4046 5.09808 16.596 4.93861 16.8033 4.9705C20.5509 5.46487 23.549 8.41511 24.1071 12.1627C24.139 12.37 23.9955 12.5774 23.7723 12.6092C23.7723 12.5933 23.7563 12.5933 23.7244 12.5933Z" fill="#4A38AE"/>
<path d="M21.7128 19.2433C21.6171 19.2433 21.5215 19.2114 21.4577 19.1476C21.2982 19.0041 21.2823 18.7649 21.4258 18.6054C22.5261 17.3934 23.1959 15.9103 23.3873 14.2997C23.4192 14.0923 23.6105 13.9329 23.8179 13.9648C24.0252 13.9967 24.1847 14.188 24.1528 14.3953C23.9454 16.1655 23.1959 17.808 21.9999 19.1317C21.9201 19.2114 21.8085 19.2433 21.7128 19.2433Z" fill="#4A38AE"/>
<path d="M16.7689 21.8425C16.5775 21.8425 16.418 21.699 16.3862 21.5076C16.3543 21.3003 16.5137 21.093 16.721 21.077C18.0128 20.9016 19.2567 20.4072 20.3092 19.6258C20.4846 19.4982 20.7238 19.5301 20.8514 19.7056C20.979 19.881 20.9471 20.1202 20.7717 20.2478C19.6075 21.1089 18.252 21.6671 16.8167 21.8584C16.8008 21.8425 16.7848 21.8425 16.7689 21.8425Z" fill="#4A38AE"/>
<path d="M14.6323 21.8427C14.6163 21.8427 14.6004 21.8427 14.5844 21.8427C10.7093 21.3324 7.69523 18.2705 7.2487 14.3953C7.21681 14.188 7.37628 13.9967 7.5836 13.9648C7.79091 13.9329 7.98228 14.0923 8.01417 14.2997C8.4288 17.824 11.1558 20.6148 14.6801 21.0772C14.8874 21.1091 15.0469 21.3005 15.015 21.5078C14.9991 21.6992 14.8236 21.8427 14.6323 21.8427Z" fill="#4A38AE"/>
<path d="M7.66259 12.5934C7.64664 12.5934 7.63069 12.5934 7.5988 12.5934C7.39148 12.5616 7.24796 12.3702 7.2639 12.1469C7.51906 10.4246 8.28453 8.82989 9.49652 7.55411C9.64005 7.39464 9.8952 7.39464 10.0387 7.53816C10.1982 7.68169 10.1982 7.93685 10.0547 8.08037C8.95431 9.24452 8.25263 10.6798 8.02937 12.2586C8.01342 12.4499 7.85395 12.5934 7.66259 12.5934Z" fill="#4A38AE"/>
<path d="M10.9818 7.17123C10.8543 7.17123 10.7426 7.10744 10.6629 7.01175C10.5353 6.83633 10.5832 6.59712 10.7586 6.46955C11.8908 5.67218 13.1985 5.14592 14.57 4.9705C14.7773 4.93861 14.9846 5.09808 15.0006 5.3054C15.0325 5.51271 14.873 5.72003 14.6657 5.73597C13.4218 5.89545 12.2257 6.37386 11.2051 7.10744C11.1413 7.15528 11.0616 7.17123 10.9818 7.17123Z" fill="#4A38AE"/>
<path d="M15.7019 20.2802C11.9064 20.2802 8.82861 17.1864 8.82861 13.4069C8.82861 9.61145 11.9224 6.53363 15.7019 6.53363C19.4973 6.53363 22.5751 9.6274 22.5751 13.4069C22.5751 17.2023 19.4973 20.2802 15.7019 20.2802ZM15.7019 7.2991C12.337 7.2991 9.59408 10.042 9.59408 13.4069C9.59408 16.7718 12.337 19.5147 15.7019 19.5147C19.0667 19.5147 21.8097 16.7718 21.8097 13.4069C21.7937 10.042 19.0667 7.2991 15.7019 7.2991Z" fill="#4A38AE"/>
<path d="M7.63378 15.0812C8.10057 15.0812 8.47898 14.7027 8.47898 14.236C8.47898 13.7692 8.10057 13.3907 7.63378 13.3907C7.16698 13.3907 6.78857 13.7692 6.78857 14.236C6.78857 14.7027 7.16698 15.0812 7.63378 15.0812Z" fill="#4A38AE"/>
<path d="M23.8015 13.1515C24.2683 13.1515 24.6467 12.7731 24.6467 12.3063C24.6467 11.8395 24.2683 11.4611 23.8015 11.4611C23.3347 11.4611 22.9563 11.8395 22.9563 12.3063C22.9563 12.7731 23.3347 13.1515 23.8015 13.1515Z" fill="#4A38AE"/>
<path d="M17.9503 11.5093C17.9503 10.2973 16.9615 9.30859 15.7495 9.30859C14.5376 9.30859 13.5488 10.2973 13.5488 11.5093C13.5488 12.2748 13.9316 12.9446 14.5376 13.3433L14.5694 13.1838C14.6173 12.8967 14.9043 12.6575 15.1914 12.6575H16.3077C16.6107 12.6575 16.8818 12.8967 16.9296 13.1838L16.9615 13.3433C17.5516 12.9446 17.9503 12.2748 17.9503 11.5093Z" fill="#4A38AE"/>
<path d="M14.5367 13.3423L13.9307 17.0421C13.8829 17.3292 14.0902 17.5684 14.3772 17.5684H17.1202C17.4232 17.5684 17.6145 17.3292 17.5667 17.0421L16.9607 13.3423C16.6098 13.5656 16.1952 13.7091 15.7487 13.7091C15.3022 13.7091 14.8875 13.5656 14.5367 13.3423Z" fill="#4A38AE"/>
<path d="M16.309 12.6408H15.1927C14.8897 12.6408 14.6186 12.88 14.5707 13.1671L14.5388 13.3265C14.8897 13.5498 15.3043 13.6933 15.7508 13.6933C16.1973 13.6933 16.612 13.5657 16.9628 13.3265L16.9309 13.1671C16.8831 12.88 16.612 12.6408 16.309 12.6408Z" fill="#4A38AE"/>
<path d="M30.6757 14.1082C30.4206 14.1082 30.1654 13.9806 30.0378 13.7414C29.99 13.6616 25.445 5.70395 15.7013 5.70395C5.95748 5.70395 1.41251 13.6616 1.36467 13.7414C1.1733 14.0922 0.726781 14.2198 0.375941 14.0284C0.0251015 13.837 -0.102476 13.3905 0.0888906 13.0397C0.280258 12.6888 5.06444 4.25275 15.7013 4.25275C26.3221 4.25275 31.1063 12.6888 31.3136 13.0397C31.505 13.3905 31.3774 13.837 31.0266 14.0284C30.9149 14.0763 30.7874 14.1082 30.6757 14.1082Z" fill="#4A38AE"/>
<path d="M15.7013 22.5125C5.08038 22.5125 0.296205 14.0764 0.0888906 13.7255C-0.102476 13.3747 0.0251015 12.9281 0.375941 12.7368C0.726781 12.5454 1.1733 12.673 1.36467 13.0238C1.41251 13.1036 5.95748 21.0613 15.7013 21.0613C25.445 21.0613 29.99 13.1036 30.0378 13.0238C30.2292 12.673 30.6757 12.5454 31.0266 12.7368C31.3774 12.9281 31.505 13.3747 31.3136 13.7255C31.1063 14.0923 26.3221 22.5125 15.7013 22.5125Z" fill="#4A38AE"/>
</svg>
