<svg width="24" height="24" viewBox="0 0 24 24" fill="none" xmlns="http://www.w3.org/2000/svg">
<path d="M0.423911 11.5079L5.954 13.8785L8.09448 21.7848C8.23144 22.2912 8.77056 22.4784 9.1284 22.1423L12.211 19.2561C12.5341 18.9537 12.9943 18.9386 13.332 19.2202L18.8919 23.8563C19.2747 24.1759 19.817 23.935 19.913 23.4037L23.9859 0.902248C24.0907 0.321911 23.5942 -0.162224 23.1131 0.0514974L0.417431 10.1073C-0.142649 10.3554 -0.137769 11.2662 0.423911 11.5079ZM7.74952 12.6166L18.5574 4.97122C18.7516 4.83422 18.9515 5.13588 18.7847 5.31358L9.86504 14.8364C9.55152 15.1716 9.34928 15.6202 9.292 16.1071L8.98816 18.6932C8.94792 19.0385 8.5256 19.0728 8.44264 18.7386L7.27408 14.0227C7.14024 13.4848 7.33528 12.9102 7.74952 12.6166Z" fill="#4A38AE"/>
</svg>
