<svg width="1440" height="660" viewBox="0 0 1440 660" fill="none" xmlns="http://www.w3.org/2000/svg">
<rect width="1440" height="660" fill="#4A38AE"/>
<g opacity="0.7">
<g opacity="0.2">
<path opacity="0.1" d="M1147.97 202.248L1193.65 175.813V228.683L1147.97 255.118L1102.29 228.683V175.813L1147.97 202.248Z" fill="#6CFFF8"/>
<path opacity="0.1" d="M1147.97 255.118L1193.65 228.683V175.813L1147.97 202.248V255.118Z" fill="#6CFFF8"/>
<path opacity="0.1" d="M1102.29 228.683L1147.97 255.118V202.248L1102.29 175.813V228.683Z" fill="#26FFEF"/>
<path opacity="0.1" d="M1147.97 202.248L1193.65 175.813L1147.97 149.378L1102.29 175.813L1147.97 202.248Z" fill="#6CFFF8"/>
<path opacity="0.1" d="M1147.97 202.248L1191.53 176.725L1193.65 177.94L1147.97 204.375L1102.29 177.94L1104.4 176.725L1147.97 202.248Z" fill="white"/>
</g>
<g opacity="0.2">
<path opacity="0.1" d="M1088.67 235.976L1134.35 209.541V262.411L1088.67 288.845L1043.29 262.411V209.541L1088.67 235.976Z" fill="#6CFFF8"/>
<path opacity="0.1" d="M1088.67 288.845L1134.35 262.411V209.541L1088.67 235.976V288.845Z" fill="#6CFFF8"/>
<path opacity="0.1" d="M1043.29 262.411L1088.67 288.845V235.976L1043.29 209.541V262.411Z" fill="#26FFEF"/>
<path opacity="0.1" d="M1088.67 235.976L1134.35 209.541L1088.67 183.106L1043.29 209.541L1088.67 235.976Z" fill="#6CFFF8"/>
<path opacity="0.1" d="M1088.67 235.976L1132.23 210.756L1134.35 211.971L1088.67 238.406L1043.29 211.971L1045.11 210.756L1088.67 235.976Z" fill="white"/>
</g>
<g opacity="0.2">
<path opacity="0.1" d="M1029.68 270.007L1075.06 243.572V296.442L1029.68 322.877L984 296.442V243.572L1029.68 270.007Z" fill="#6CFFF8"/>
<path opacity="0.1" d="M1029.68 322.877L1075.06 296.442V243.572L1029.68 270.007V322.877Z" fill="#6CFFF8"/>
<path opacity="0.1" d="M984.001 296.442L1029.68 322.877V270.007L984.001 243.572V296.442Z" fill="#26FFEF"/>
<path opacity="0.1" d="M1029.68 270.007L1075.06 243.572L1029.68 217.137L984 243.572L1029.68 270.007Z" fill="#6CFFF8"/>
<path opacity="0.1" d="M1029.68 270.007L1073.24 244.787L1075.06 245.699L1029.68 272.134L984 246.003V243.572L1029.68 270.007Z" fill="white"/>
</g>
<g opacity="0.2">
<path opacity="0.1" d="M1207.26 238.406L1252.64 211.971V264.841L1207.26 291.276L1161.58 264.841V211.971L1207.26 238.406Z" fill="#6CFFF8"/>
<path opacity="0.1" d="M1207.26 291.276L1252.64 264.841V211.971L1207.26 238.406V291.276Z" fill="#6CFFF8"/>
<path opacity="0.1" d="M1161.58 264.841L1207.26 291.276V238.406L1161.58 211.971V264.841Z" fill="#26FFEF"/>
<path opacity="0.1" d="M1207.26 238.406L1252.64 211.971L1207.26 185.537L1161.58 211.971L1207.26 238.406Z" fill="#6CFFF8"/>
<path opacity="0.1" d="M1207.26 238.406L1250.83 213.187L1252.64 214.099L1207.26 240.533L1161.58 214.099L1163.7 213.187L1207.26 238.406Z" fill="white"/>
</g>
<g opacity="0.2">
<path opacity="0.1" d="M1147.97 272.134L1193.65 246.003V298.569L1147.97 325.004L1102.29 298.569V246.003L1147.97 272.134Z" fill="#6CFFF8"/>
<path opacity="0.1" d="M1147.97 325.004L1193.65 298.569V246.003L1147.97 272.134V325.004Z" fill="#6CFFF8"/>
<path opacity="0.1" d="M1102.29 298.569L1147.97 325.004V272.134L1102.29 246.003V298.569Z" fill="#26FFEF"/>
<path opacity="0.1" d="M1147.97 272.134L1193.65 246.003L1147.97 219.568L1102.29 246.003L1147.97 272.134Z" fill="#6CFFF8"/>
<path opacity="0.1" d="M1147.97 272.134L1191.53 246.914L1193.65 248.13L1147.97 274.565L1102.29 248.13L1104.4 246.914L1147.97 272.134Z" fill="white"/>
</g>
<g opacity="0.2">
<path opacity="0.1" d="M1088.67 306.165L1134.35 279.73V332.6L1088.67 359.035L1043.29 332.6V279.73L1088.67 306.165Z" fill="#6CFFF8"/>
<path opacity="0.1" d="M1088.67 359.035L1134.35 332.6V279.73L1088.67 306.165V359.035Z" fill="#6CFFF8"/>
<path opacity="0.1" d="M1043.29 332.6L1088.67 359.035V306.165L1043.29 279.73V332.6Z" fill="#26FFEF"/>
<path opacity="0.1" d="M1088.67 306.165L1134.35 279.73L1088.67 253.295L1043.29 279.73L1088.67 306.165Z" fill="#6CFFF8"/>
<path opacity="0.1" d="M1088.67 306.165L1132.23 280.945L1134.35 282.161L1088.67 308.596L1043.29 282.161V279.73L1088.67 306.165Z" fill="white"/>
</g>
<g opacity="0.2">
<path opacity="0.1" d="M1266.25 274.565L1311.93 248.13V300.999L1266.25 327.434L1220.87 300.999V248.13L1266.25 274.565Z" fill="#6CFFF8"/>
<path opacity="0.1" d="M1266.25 327.434L1311.93 300.999V248.13L1266.25 274.565V327.434Z" fill="#6CFFF8"/>
<path opacity="0.1" d="M1220.88 300.999L1266.25 327.434V274.565L1220.88 248.13V300.999Z" fill="#26FFEF"/>
<path opacity="0.1" d="M1266.25 274.565L1311.93 248.13L1266.25 221.695L1220.87 248.13L1266.25 274.565Z" fill="#6CFFF8"/>
<path opacity="0.1" d="M1266.25 274.564L1311.93 248.13V250.56L1266.25 276.995L1220.87 250.56L1222.69 249.345L1266.25 274.564Z" fill="white"/>
</g>
<g opacity="0.2">
<path opacity="0.1" d="M1207.26 308.595L1252.64 282.161V335.03L1207.26 361.465L1161.58 335.03V282.161L1207.26 308.595Z" fill="#6CFFF8"/>
<path opacity="0.1" d="M1207.26 361.465L1252.64 335.03V282.161L1207.26 308.595V361.465Z" fill="#6CFFF8"/>
<path opacity="0.1" d="M1161.58 335.03L1207.26 361.465V308.595L1161.58 282.161V335.03Z" fill="#26FFEF"/>
<path opacity="0.1" d="M1207.26 308.596L1252.64 282.161L1207.26 255.726L1161.58 282.161L1207.26 308.596Z" fill="#6CFFF8"/>
<path opacity="0.1" d="M1207.26 308.595L1252.64 282.161V284.287L1207.26 310.722L1161.58 284.287L1163.7 283.072L1207.26 308.595Z" fill="white"/>
</g>
<g opacity="0.2">
<path opacity="0.1" d="M1147.97 342.323L1193.65 315.888V368.758L1147.97 395.193L1102.29 368.758V315.888L1147.97 342.323Z" fill="#6CFFF8"/>
<path opacity="0.1" d="M1147.97 395.193L1193.65 368.758V315.888L1147.97 342.323V395.193Z" fill="#6CFFF8"/>
<path opacity="0.1" d="M1102.29 368.758L1147.97 395.193V342.323L1102.29 315.888V368.758Z" fill="#26FFEF"/>
<path opacity="0.1" d="M1147.97 342.323L1193.65 315.888L1147.97 289.453L1102.29 315.888L1147.97 342.323Z" fill="#6CFFF8"/>
<path opacity="0.1" d="M1147.97 342.323L1193.65 315.888V318.319L1147.97 344.754L1102.29 318.319V315.888L1147.97 342.323Z" fill="white"/>
</g>
<g opacity="0.2">
<path opacity="0.1" d="M1147.97 132.059L1193.65 105.624V158.494L1147.97 184.929L1102.29 158.494V105.624L1147.97 132.059Z" fill="#6CFFF8"/>
<path opacity="0.1" d="M1147.97 184.929L1193.65 158.494V105.624L1147.97 132.059V184.929Z" fill="#6CFFF8"/>
<path opacity="0.1" d="M1102.29 158.494L1147.97 184.929V132.059L1102.29 105.624V158.494Z" fill="#26FFEF"/>
<path opacity="0.1" d="M1147.97 132.059L1193.65 105.624L1147.97 79.1892L1102.29 105.624L1147.97 132.059Z" fill="#6CFFF8"/>
<path opacity="0.1" d="M1147.97 132.059L1191.53 106.536L1193.65 107.751L1147.97 134.186L1102.29 107.751L1104.4 106.536L1147.97 132.059Z" fill="white"/>
</g>
<g opacity="0.2">
<path opacity="0.7" d="M1147.97 333.815L1179.13 315.888L1147.97 297.657L1116.81 315.888L1147.97 333.815Z" fill="#00DEC8"/>
<path opacity="0.7" d="M1207.26 299.784L1238.12 281.857L1207.26 263.93L1176.1 281.857L1207.26 299.784Z" fill="#00DEC8"/>
<path opacity="0.7" d="M1088.67 297.657L1119.83 279.426L1088.67 261.499L1057.51 279.426L1088.67 297.657Z" fill="#00DEC8"/>
<path opacity="0.7" d="M1029.38 261.803L1060.54 243.876L1029.38 225.645L998.22 243.876L1029.38 261.803Z" fill="#00DEC8"/>
<path opacity="0.7" d="M1266.25 266.057L1297.41 247.826L1266.25 229.899L1235.4 247.826L1266.25 266.057Z" fill="#00DEC8"/>
</g>
<g opacity="0.2">
<path opacity="0.1" d="M1088.67 165.786L1134.35 139.351V192.221L1088.67 218.656L1043.29 192.221V139.351L1088.67 165.786Z" fill="#6CFFF8"/>
<path opacity="0.1" d="M1088.67 218.656L1134.35 192.221V139.351L1088.67 165.786V218.656Z" fill="#6CFFF8"/>
<path opacity="0.1" d="M1043.29 192.221L1088.67 218.656V165.786L1043.29 139.351V192.221Z" fill="#26FFEF"/>
<path opacity="0.1" d="M1088.67 165.786L1134.35 139.351L1088.67 112.917L1043.29 139.351L1088.67 165.786Z" fill="#6CFFF8"/>
<path opacity="0.1" d="M1088.67 165.786L1132.23 140.567L1134.35 141.782L1088.67 168.217L1043.29 141.782L1045.11 140.567L1088.67 165.786Z" fill="white"/>
</g>
<g opacity="0.2">
<path opacity="0.1" d="M1029.68 199.817L1075.06 173.383V226.252L1029.68 252.687L984 226.252V173.383L1029.68 199.817Z" fill="#6CFFF8"/>
<path opacity="0.1" d="M1029.68 252.687L1075.06 226.252V173.383L1029.68 199.817V252.687Z" fill="#6CFFF8"/>
<path opacity="0.1" d="M984.001 226.252L1029.68 252.687V199.817L984.001 173.383V226.252Z" fill="#26FFEF"/>
<path opacity="0.1" d="M1029.68 199.817L1075.06 173.383L1029.68 146.948L984 173.383L1029.68 199.817Z" fill="#6CFFF8"/>
<path opacity="0.1" d="M1029.68 199.818L1073.24 174.598L1075.06 175.813L1029.68 202.248L984 175.813V173.383L1029.68 199.818Z" fill="white"/>
</g>
<g opacity="0.2">
<path opacity="0.1" d="M1207.26 168.217L1252.64 141.782V194.652L1207.26 221.087L1161.58 194.652V141.782L1207.26 168.217Z" fill="#6CFFF8"/>
<path opacity="0.1" d="M1207.26 221.087L1252.64 194.652V141.782L1207.26 168.217V221.087Z" fill="#6CFFF8"/>
<path opacity="0.1" d="M1161.58 194.652L1207.26 221.087V168.217L1161.58 141.782V194.652Z" fill="#26FFEF"/>
<path opacity="0.1" d="M1207.26 168.217L1252.64 141.782L1207.26 115.347L1161.58 141.782L1207.26 168.217Z" fill="#6CFFF8"/>
<path opacity="0.1" d="M1207.26 168.217L1250.83 142.998L1252.64 143.909L1207.26 170.344L1161.58 143.909L1163.7 142.998L1207.26 168.217Z" fill="white"/>
</g>
<g opacity="0.2">
<path opacity="0.1" d="M1147.97 202.248L1193.65 175.813V228.683L1147.97 255.118L1102.29 228.683V175.813L1147.97 202.248Z" fill="#6CFFF8"/>
<path opacity="0.1" d="M1147.97 255.118L1193.65 228.683V175.813L1147.97 202.248V255.118Z" fill="#6CFFF8"/>
<path opacity="0.1" d="M1102.29 228.683L1147.97 255.118V202.248L1102.29 175.813V228.683Z" fill="#26FFEF"/>
<path opacity="0.1" d="M1147.97 202.248L1193.65 175.813L1147.97 149.378L1102.29 175.813L1147.97 202.248Z" fill="#6CFFF8"/>
<path opacity="0.1" d="M1147.97 202.248L1191.53 176.725L1193.65 177.94L1147.97 204.375L1102.29 177.94L1104.4 176.725L1147.97 202.248Z" fill="white"/>
</g>
<g opacity="0.2">
<path opacity="0.1" d="M1088.67 235.976L1134.35 209.541V262.411L1088.67 288.845L1043.29 262.411V209.541L1088.67 235.976Z" fill="#6CFFF8"/>
<path opacity="0.1" d="M1088.67 288.845L1134.35 262.411V209.541L1088.67 235.976V288.845Z" fill="#6CFFF8"/>
<path opacity="0.1" d="M1043.29 262.411L1088.67 288.845V235.976L1043.29 209.541V262.411Z" fill="#26FFEF"/>
<path opacity="0.1" d="M1088.67 235.976L1134.35 209.541L1088.67 183.106L1043.29 209.541L1088.67 235.976Z" fill="#6CFFF8"/>
<path opacity="0.1" d="M1088.67 235.976L1132.23 210.756L1134.35 211.971L1088.67 238.407L1043.29 211.971V209.541L1088.67 235.976Z" fill="white"/>
</g>
<g opacity="0.2">
<path opacity="0.1" d="M1266.25 204.375L1311.93 177.94V230.81L1266.25 257.245L1220.87 230.81V177.94L1266.25 204.375Z" fill="#6CFFF8"/>
<path opacity="0.1" d="M1266.25 257.245L1311.93 230.81V177.94L1266.25 204.375V257.245Z" fill="#6CFFF8"/>
<path opacity="0.1" d="M1220.88 230.81L1266.25 257.245V204.375L1220.88 177.94V230.81Z" fill="#26FFEF"/>
<path opacity="0.1" d="M1266.25 204.375L1311.93 177.94L1266.25 151.505L1220.87 177.94L1266.25 204.375Z" fill="#6CFFF8"/>
<path opacity="0.1" d="M1266.25 204.375L1310.12 179.156L1311.93 180.371L1266.25 206.806L1220.87 180.371L1222.69 179.156L1266.25 204.375Z" fill="white"/>
</g>
<g opacity="0.2">
<path opacity="0.1" d="M1207.26 238.406L1252.64 211.971V264.841L1207.26 291.276L1161.58 264.841V211.971L1207.26 238.406Z" fill="#6CFFF8"/>
<path opacity="0.1" d="M1207.26 291.276L1252.64 264.841V211.971L1207.26 238.406V291.276Z" fill="#6CFFF8"/>
<path opacity="0.1" d="M1161.58 264.841L1207.26 291.276V238.406L1161.58 211.971V264.841Z" fill="#26FFEF"/>
<path opacity="0.1" d="M1207.26 238.406L1252.64 211.971L1207.26 185.537L1161.58 211.971L1207.26 238.406Z" fill="#6CFFF8"/>
<path opacity="0.1" d="M1207.26 238.406L1252.64 211.971V214.098L1207.26 240.533L1161.58 214.098L1163.7 213.187L1207.26 238.406Z" fill="white"/>
</g>
<g opacity="0.2">
<path opacity="0.1" d="M1147.97 272.134L1193.65 246.003V298.569L1147.97 325.004L1102.29 298.569V246.003L1147.97 272.134Z" fill="#6CFFF8"/>
<path opacity="0.1" d="M1147.97 325.004L1193.65 298.569V246.003L1147.97 272.134V325.004Z" fill="#6CFFF8"/>
<path opacity="0.1" d="M1102.29 298.569L1147.97 325.004V272.134L1102.29 246.003V298.569Z" fill="#26FFEF"/>
<path opacity="0.1" d="M1147.97 272.134L1193.65 246.003L1147.97 219.568L1102.29 246.003L1147.97 272.134Z" fill="#6CFFF8"/>
<path opacity="0.1" d="M1147.97 272.134L1193.65 246.003V248.13L1147.97 274.565L1102.29 248.13V246.003L1147.97 272.134Z" fill="white"/>
</g>
<g opacity="0.2">
<path opacity="0.7" d="M1029.38 191.918L1060.54 173.991L1029.38 155.76L998.22 173.991L1029.38 191.918Z" fill="#00DEC8"/>
<path opacity="0.7" d="M1266.25 196.172L1297.41 177.941L1266.25 160.014L1235.4 177.941L1266.25 196.172Z" fill="#00DEC8"/>
</g>
<g opacity="0.2">
<path opacity="0.1" d="M1147.97 61.8698L1193.65 35.4348V88.3047L1147.97 114.74L1102.29 88.3047V35.4348L1147.97 61.8698Z" fill="#6CFFF8"/>
<path opacity="0.1" d="M1147.97 114.74L1193.65 88.3047V35.4348L1147.97 61.8698V114.74Z" fill="#6CFFF8"/>
<path opacity="0.1" d="M1102.29 88.3047L1147.97 114.74V61.8698L1102.29 35.4348V88.3047Z" fill="#26FFEF"/>
<path opacity="0.1" d="M1147.97 61.8699L1193.65 35.435L1147.97 9L1102.29 35.435L1147.97 61.8699Z" fill="#6CFFF8"/>
<path opacity="0.1" d="M1147.97 61.8698L1193.65 35.4348V37.5618L1147.97 63.9968L1102.29 37.5618V35.4348L1147.97 61.8698Z" fill="white"/>
</g>
<g opacity="0.2">
<path opacity="0.1" d="M1088.67 95.597L1134.35 69.4659V122.032L1088.67 148.467L1043.29 122.032V69.4659L1088.67 95.597Z" fill="#6CFFF8"/>
<path opacity="0.1" d="M1088.67 148.467L1134.35 122.032V69.4659L1088.67 95.597V148.467Z" fill="#6CFFF8"/>
<path opacity="0.1" d="M1043.29 122.032L1088.67 148.467V95.597L1043.29 69.4659V122.032Z" fill="#26FFEF"/>
<path opacity="0.1" d="M1088.67 95.597L1134.35 69.4659L1088.67 43.031L1043.29 69.4659L1088.67 95.597Z" fill="#6CFFF8"/>
<path opacity="0.1" d="M1088.67 95.5969L1134.35 69.4659V71.5929L1088.67 98.0277L1043.29 71.5929V69.4659L1088.67 95.5969Z" fill="white"/>
</g>
<g opacity="0.2">
<path opacity="0.1" d="M1029.68 129.628L1075.06 103.193V156.063L1029.68 182.498L984 156.063V103.193L1029.68 129.628Z" fill="#6CFFF8"/>
<path opacity="0.1" d="M1029.68 182.498L1075.06 156.063V103.193L1029.68 129.628V182.498Z" fill="#6CFFF8"/>
<path opacity="0.1" d="M984.001 156.063L1029.68 182.498V129.628L984.001 103.193V156.063Z" fill="#26FFEF"/>
<path opacity="0.1" d="M1029.68 129.628L1075.06 103.194L1029.68 76.7587L984 103.194L1029.68 129.628Z" fill="#6CFFF8"/>
<path opacity="0.1" d="M1029.68 129.628L1075.06 103.193V105.624L1029.68 132.059L984 105.624V103.193L1029.68 129.628Z" fill="white"/>
</g>
<g opacity="0.2">
<path opacity="0.1" d="M1207.26 98.0278L1252.64 71.5929V124.463L1207.26 150.898L1161.58 124.463V71.5929L1207.26 98.0278Z" fill="#6CFFF8"/>
<path opacity="0.1" d="M1207.26 150.898L1252.64 124.463V71.5929L1207.26 98.0278V150.898Z" fill="#6CFFF8"/>
<path opacity="0.1" d="M1161.58 124.463L1207.26 150.898V98.0278L1161.58 71.5929V124.463Z" fill="#26FFEF"/>
<path opacity="0.1" d="M1207.26 98.0279L1252.64 71.5929L1207.26 45.158L1161.58 71.5929L1207.26 98.0279Z" fill="#6CFFF8"/>
<path opacity="0.1" d="M1207.26 98.0279L1252.64 71.5929V74.0237L1207.26 100.459L1161.58 74.0237V71.5929L1207.26 98.0279Z" fill="white"/>
</g>
<g opacity="0.2">
<path opacity="0.1" d="M1266.25 134.186L1311.93 107.751V160.621L1266.25 187.056L1220.87 160.621V107.751L1266.25 134.186Z" fill="#6CFFF8"/>
<path opacity="0.1" d="M1266.25 187.056L1311.93 160.621V107.751L1266.25 134.186V187.056Z" fill="#6CFFF8"/>
<path opacity="0.1" d="M1220.88 160.621L1266.25 187.056V134.186L1220.88 107.751V160.621Z" fill="#26FFEF"/>
<path opacity="0.1" d="M1266.25 134.186L1311.93 107.751L1266.25 81.3163L1220.87 107.751L1266.25 134.186Z" fill="#6CFFF8"/>
<path opacity="0.1" d="M1266.25 134.186L1311.93 107.751V110.182L1266.25 136.617L1220.87 110.182V107.751L1266.25 134.186Z" fill="white"/>
</g>
</g>
</svg>
