<svg width="13" height="23" viewBox="0 0 13 23" fill="none" xmlns="http://www.w3.org/2000/svg">
<path d="M12.5105 0.00478553L9.39235 0C5.88926 0 3.62541 2.22168 3.62541 5.66033V8.27012H0.490293C0.219381 8.27012 0 8.48021 0 8.73934V12.5206C0 12.7798 0.219631 12.9896 0.490293 12.9896H3.62541V22.531C3.62541 22.7902 3.84479 23 4.1157 23H8.20614C8.47705 23 8.69643 22.7899 8.69643 22.531V12.9896H12.3621C12.633 12.9896 12.8524 12.7798 12.8524 12.5206L12.8539 8.73934C12.8539 8.61492 12.8021 8.49576 12.7103 8.40771C12.6185 8.31965 12.4934 8.27012 12.3634 8.27012H8.69643V6.05777C8.69643 4.99442 8.96134 4.45462 10.4095 4.45462L12.51 4.4539C12.7806 4.4539 13 4.24381 13 3.98491V0.473768C13 0.21511 12.7809 0.00526409 12.5105 0.00478553Z" fill="#4A38AE"/>
</svg>
