<svg width="1199" height="400" viewBox="0 0 1199 400" fill="none" xmlns="http://www.w3.org/2000/svg">
<rect width="1199" height="400" rx="8" fill="#4A38AE"/>
<g opacity="0.7">
<g opacity="0.2">
<path opacity="0.1" d="M1026.97 202.248L1072.65 175.813V228.683L1026.97 255.118L981.286 228.683V175.813L1026.97 202.248Z" fill="#6CFFF8"/>
<path opacity="0.1" d="M1026.97 255.118L1072.65 228.683V175.813L1026.97 202.248V255.118Z" fill="#6CFFF8"/>
<path opacity="0.1" d="M981.287 228.683L1026.97 255.118V202.248L981.287 175.813V228.683Z" fill="#26FFEF"/>
<path opacity="0.1" d="M1026.97 202.248L1072.65 175.813L1026.97 149.378L981.287 175.813L1026.97 202.248Z" fill="#6CFFF8"/>
<path opacity="0.1" d="M1026.97 202.248L1070.53 176.725L1072.65 177.94L1026.97 204.375L981.286 177.94L983.404 176.725L1026.97 202.248Z" fill="white"/>
</g>
<g opacity="0.2">
<path opacity="0.1" d="M967.672 235.976L1013.35 209.541V262.411L967.672 288.845L922.294 262.411V209.541L967.672 235.976Z" fill="#6CFFF8"/>
<path opacity="0.1" d="M967.672 288.845L1013.35 262.411V209.541L967.672 235.976V288.845Z" fill="#6CFFF8"/>
<path opacity="0.1" d="M922.294 262.411L967.672 288.845V235.976L922.294 209.541V262.411Z" fill="#26FFEF"/>
<path opacity="0.1" d="M967.672 235.976L1013.35 209.541L967.672 183.106L922.294 209.541L967.672 235.976Z" fill="#6CFFF8"/>
<path opacity="0.1" d="M967.672 235.976L1011.23 210.756L1013.35 211.971L967.672 238.406L922.294 211.971L924.109 210.756L967.672 235.976Z" fill="white"/>
</g>
<g opacity="0.2">
<path opacity="0.1" d="M908.681 270.007L954.059 243.572V296.442L908.681 322.877L863 296.442V243.572L908.681 270.007Z" fill="#6CFFF8"/>
<path opacity="0.1" d="M908.681 322.877L954.059 296.442V243.572L908.681 270.007V322.877Z" fill="#6CFFF8"/>
<path opacity="0.1" d="M863.001 296.442L908.681 322.877V270.007L863.001 243.572V296.442Z" fill="#26FFEF"/>
<path opacity="0.1" d="M908.68 270.007L954.059 243.572L908.68 217.137L863 243.572L908.68 270.007Z" fill="#6CFFF8"/>
<path opacity="0.1" d="M908.681 270.007L952.244 244.787L954.059 245.699L908.681 272.134L863 246.003V243.572L908.681 270.007Z" fill="white"/>
</g>
<g opacity="0.2">
<path opacity="0.1" d="M1086.26 238.406L1131.64 211.971V264.841L1086.26 291.276L1040.58 264.841V211.971L1086.26 238.406Z" fill="#6CFFF8"/>
<path opacity="0.1" d="M1086.26 291.276L1131.64 264.841V211.971L1086.26 238.406V291.276Z" fill="#6CFFF8"/>
<path opacity="0.1" d="M1040.58 264.841L1086.26 291.276V238.406L1040.58 211.971V264.841Z" fill="#26FFEF"/>
<path opacity="0.1" d="M1086.26 238.406L1131.64 211.971L1086.26 185.537L1040.58 211.971L1086.26 238.406Z" fill="#6CFFF8"/>
<path opacity="0.1" d="M1086.26 238.406L1129.83 213.187L1131.64 214.099L1086.26 240.533L1040.58 214.099L1042.7 213.187L1086.26 238.406Z" fill="white"/>
</g>
<g opacity="0.2">
<path opacity="0.1" d="M1026.97 272.134L1072.65 246.003V298.569L1026.97 325.004L981.286 298.569V246.003L1026.97 272.134Z" fill="#6CFFF8"/>
<path opacity="0.1" d="M1026.97 325.004L1072.65 298.569V246.003L1026.97 272.134V325.004Z" fill="#6CFFF8"/>
<path opacity="0.1" d="M981.287 298.569L1026.97 325.004V272.134L981.287 246.003V298.569Z" fill="#26FFEF"/>
<path opacity="0.1" d="M1026.97 272.134L1072.65 246.003L1026.97 219.568L981.287 246.003L1026.97 272.134Z" fill="#6CFFF8"/>
<path opacity="0.1" d="M1026.97 272.134L1070.53 246.914L1072.65 248.13L1026.97 274.565L981.286 248.13L983.404 246.914L1026.97 272.134Z" fill="white"/>
</g>
<g opacity="0.2">
<path opacity="0.1" d="M967.672 306.165L1013.35 279.73V332.6L967.672 359.035L922.294 332.6V279.73L967.672 306.165Z" fill="#6CFFF8"/>
<path opacity="0.1" d="M967.672 359.035L1013.35 332.6V279.73L967.672 306.165V359.035Z" fill="#6CFFF8"/>
<path opacity="0.1" d="M922.294 332.6L967.672 359.035V306.165L922.294 279.73V332.6Z" fill="#26FFEF"/>
<path opacity="0.1" d="M967.672 306.165L1013.35 279.73L967.672 253.295L922.294 279.73L967.672 306.165Z" fill="#6CFFF8"/>
<path opacity="0.1" d="M967.672 306.165L1011.23 280.945L1013.35 282.161L967.672 308.596L922.294 282.161V279.73L967.672 306.165Z" fill="white"/>
</g>
<g opacity="0.2">
<path opacity="0.1" d="M1145.25 274.565L1190.93 248.13V300.999L1145.25 327.434L1099.87 300.999V248.13L1145.25 274.565Z" fill="#6CFFF8"/>
<path opacity="0.1" d="M1145.25 327.434L1190.93 300.999V248.13L1145.25 274.565V327.434Z" fill="#6CFFF8"/>
<path opacity="0.1" d="M1099.88 300.999L1145.25 327.434V274.565L1099.88 248.13V300.999Z" fill="#26FFEF"/>
<path opacity="0.1" d="M1145.25 274.565L1190.93 248.13L1145.25 221.695L1099.87 248.13L1145.25 274.565Z" fill="#6CFFF8"/>
<path opacity="0.1" d="M1145.25 274.564L1190.93 248.13V250.56L1145.25 276.995L1099.87 250.56L1101.69 249.345L1145.25 274.564Z" fill="white"/>
</g>
<g opacity="0.2">
<path opacity="0.1" d="M1086.26 308.595L1131.64 282.161V335.03L1086.26 361.465L1040.58 335.03V282.161L1086.26 308.595Z" fill="#6CFFF8"/>
<path opacity="0.1" d="M1086.26 361.465L1131.64 335.03V282.161L1086.26 308.595V361.465Z" fill="#6CFFF8"/>
<path opacity="0.1" d="M1040.58 335.03L1086.26 361.465V308.595L1040.58 282.161V335.03Z" fill="#26FFEF"/>
<path opacity="0.1" d="M1086.26 308.596L1131.64 282.161L1086.26 255.726L1040.58 282.161L1086.26 308.596Z" fill="#6CFFF8"/>
<path opacity="0.1" d="M1086.26 308.595L1131.64 282.161V284.287L1086.26 310.722L1040.58 284.287L1042.7 283.072L1086.26 308.595Z" fill="white"/>
</g>
<g opacity="0.2">
<path opacity="0.1" d="M1026.97 342.323L1072.65 315.888V368.758L1026.97 395.193L981.286 368.758V315.888L1026.97 342.323Z" fill="#6CFFF8"/>
<path opacity="0.1" d="M1026.97 395.193L1072.65 368.758V315.888L1026.97 342.323V395.193Z" fill="#6CFFF8"/>
<path opacity="0.1" d="M981.287 368.758L1026.97 395.193V342.323L981.287 315.888V368.758Z" fill="#26FFEF"/>
<path opacity="0.1" d="M1026.97 342.323L1072.65 315.888L1026.97 289.453L981.287 315.888L1026.97 342.323Z" fill="#6CFFF8"/>
<path opacity="0.1" d="M1026.97 342.323L1072.65 315.888V318.319L1026.97 344.754L981.286 318.319V315.888L1026.97 342.323Z" fill="white"/>
</g>
<g opacity="0.2">
<path opacity="0.1" d="M1026.97 132.059L1072.65 105.624V158.494L1026.97 184.929L981.286 158.494V105.624L1026.97 132.059Z" fill="#6CFFF8"/>
<path opacity="0.1" d="M1026.97 184.929L1072.65 158.494V105.624L1026.97 132.059V184.929Z" fill="#6CFFF8"/>
<path opacity="0.1" d="M981.287 158.494L1026.97 184.929V132.059L981.287 105.624V158.494Z" fill="#26FFEF"/>
<path opacity="0.1" d="M1026.97 132.059L1072.65 105.624L1026.97 79.1891L981.287 105.624L1026.97 132.059Z" fill="#6CFFF8"/>
<path opacity="0.1" d="M1026.97 132.059L1070.53 106.536L1072.65 107.751L1026.97 134.186L981.286 107.751L983.404 106.536L1026.97 132.059Z" fill="white"/>
</g>
<g opacity="0.2">
<path opacity="0.7" d="M1026.97 333.815L1058.13 315.888L1026.97 297.657L995.809 315.888L1026.97 333.815Z" fill="#00DEC8"/>
<path opacity="0.7" d="M1086.26 299.784L1117.12 281.857L1086.26 263.93L1055.1 281.857L1086.26 299.784Z" fill="#00DEC8"/>
<path opacity="0.7" d="M967.673 297.657L998.833 279.426L967.673 261.499L936.514 279.426L967.673 297.657Z" fill="#00DEC8"/>
<path opacity="0.7" d="M908.38 261.803L939.54 243.876L908.38 225.645L877.22 243.876L908.38 261.803Z" fill="#00DEC8"/>
<path opacity="0.7" d="M1145.25 266.057L1176.41 247.826L1145.25 229.899L1114.4 247.826L1145.25 266.057Z" fill="#00DEC8"/>
</g>
<g opacity="0.2">
<path opacity="0.1" d="M967.672 165.786L1013.35 139.351V192.221L967.672 218.656L922.294 192.221V139.351L967.672 165.786Z" fill="#6CFFF8"/>
<path opacity="0.1" d="M967.672 218.656L1013.35 192.221V139.351L967.672 165.786V218.656Z" fill="#6CFFF8"/>
<path opacity="0.1" d="M922.294 192.221L967.672 218.656V165.786L922.294 139.351V192.221Z" fill="#26FFEF"/>
<path opacity="0.1" d="M967.672 165.786L1013.35 139.351L967.672 112.916L922.294 139.351L967.672 165.786Z" fill="#6CFFF8"/>
<path opacity="0.1" d="M967.672 165.786L1011.23 140.567L1013.35 141.782L967.672 168.217L922.294 141.782L924.109 140.567L967.672 165.786Z" fill="white"/>
</g>
<g opacity="0.2">
<path opacity="0.1" d="M908.681 199.817L954.059 173.383V226.252L908.681 252.687L863 226.252V173.383L908.681 199.817Z" fill="#6CFFF8"/>
<path opacity="0.1" d="M908.681 252.687L954.059 226.252V173.383L908.681 199.817V252.687Z" fill="#6CFFF8"/>
<path opacity="0.1" d="M863.001 226.252L908.681 252.687V199.817L863.001 173.383V226.252Z" fill="#26FFEF"/>
<path opacity="0.1" d="M908.68 199.817L954.059 173.383L908.68 146.948L863 173.383L908.68 199.817Z" fill="#6CFFF8"/>
<path opacity="0.1" d="M908.681 199.818L952.244 174.598L954.059 175.813L908.681 202.248L863 175.813V173.383L908.681 199.818Z" fill="white"/>
</g>
<g opacity="0.2">
<path opacity="0.1" d="M1086.26 168.217L1131.64 141.782V194.652L1086.26 221.087L1040.58 194.652V141.782L1086.26 168.217Z" fill="#6CFFF8"/>
<path opacity="0.1" d="M1086.26 221.087L1131.64 194.652V141.782L1086.26 168.217V221.087Z" fill="#6CFFF8"/>
<path opacity="0.1" d="M1040.58 194.652L1086.26 221.087V168.217L1040.58 141.782V194.652Z" fill="#26FFEF"/>
<path opacity="0.1" d="M1086.26 168.217L1131.64 141.782L1086.26 115.347L1040.58 141.782L1086.26 168.217Z" fill="#6CFFF8"/>
<path opacity="0.1" d="M1086.26 168.217L1129.83 142.998L1131.64 143.909L1086.26 170.344L1040.58 143.909L1042.7 142.998L1086.26 168.217Z" fill="white"/>
</g>
<g opacity="0.2">
<path opacity="0.1" d="M1026.97 202.248L1072.65 175.813V228.683L1026.97 255.118L981.286 228.683V175.813L1026.97 202.248Z" fill="#6CFFF8"/>
<path opacity="0.1" d="M1026.97 255.118L1072.65 228.683V175.813L1026.97 202.248V255.118Z" fill="#6CFFF8"/>
<path opacity="0.1" d="M981.287 228.683L1026.97 255.118V202.248L981.287 175.813V228.683Z" fill="#26FFEF"/>
<path opacity="0.1" d="M1026.97 202.248L1072.65 175.813L1026.97 149.378L981.287 175.813L1026.97 202.248Z" fill="#6CFFF8"/>
<path opacity="0.1" d="M1026.97 202.248L1070.53 176.725L1072.65 177.94L1026.97 204.375L981.286 177.94L983.404 176.725L1026.97 202.248Z" fill="white"/>
</g>
<g opacity="0.2">
<path opacity="0.1" d="M967.672 235.976L1013.35 209.541V262.411L967.672 288.845L922.294 262.411V209.541L967.672 235.976Z" fill="#6CFFF8"/>
<path opacity="0.1" d="M967.672 288.845L1013.35 262.411V209.541L967.672 235.976V288.845Z" fill="#6CFFF8"/>
<path opacity="0.1" d="M922.294 262.411L967.672 288.845V235.976L922.294 209.541V262.411Z" fill="#26FFEF"/>
<path opacity="0.1" d="M967.672 235.976L1013.35 209.541L967.672 183.106L922.294 209.541L967.672 235.976Z" fill="#6CFFF8"/>
<path opacity="0.1" d="M967.672 235.976L1011.23 210.756L1013.35 211.971L967.672 238.407L922.294 211.971V209.541L967.672 235.976Z" fill="white"/>
</g>
<g opacity="0.2">
<path opacity="0.1" d="M1145.25 204.375L1190.93 177.94V230.81L1145.25 257.245L1099.87 230.81V177.94L1145.25 204.375Z" fill="#6CFFF8"/>
<path opacity="0.1" d="M1145.25 257.245L1190.93 230.81V177.94L1145.25 204.375V257.245Z" fill="#6CFFF8"/>
<path opacity="0.1" d="M1099.88 230.81L1145.25 257.245V204.375L1099.88 177.94V230.81Z" fill="#26FFEF"/>
<path opacity="0.1" d="M1145.25 204.375L1190.93 177.94L1145.25 151.505L1099.87 177.94L1145.25 204.375Z" fill="#6CFFF8"/>
<path opacity="0.1" d="M1145.25 204.375L1189.12 179.156L1190.93 180.371L1145.25 206.806L1099.87 180.371L1101.69 179.156L1145.25 204.375Z" fill="white"/>
</g>
<g opacity="0.2">
<path opacity="0.1" d="M1086.26 238.406L1131.64 211.971V264.841L1086.26 291.276L1040.58 264.841V211.971L1086.26 238.406Z" fill="#6CFFF8"/>
<path opacity="0.1" d="M1086.26 291.276L1131.64 264.841V211.971L1086.26 238.406V291.276Z" fill="#6CFFF8"/>
<path opacity="0.1" d="M1040.58 264.841L1086.26 291.276V238.406L1040.58 211.971V264.841Z" fill="#26FFEF"/>
<path opacity="0.1" d="M1086.26 238.406L1131.64 211.971L1086.26 185.537L1040.58 211.971L1086.26 238.406Z" fill="#6CFFF8"/>
<path opacity="0.1" d="M1086.26 238.406L1131.64 211.971V214.098L1086.26 240.533L1040.58 214.098L1042.7 213.187L1086.26 238.406Z" fill="white"/>
</g>
<g opacity="0.2">
<path opacity="0.1" d="M1026.97 272.134L1072.65 246.003V298.569L1026.97 325.004L981.286 298.569V246.003L1026.97 272.134Z" fill="#6CFFF8"/>
<path opacity="0.1" d="M1026.97 325.004L1072.65 298.569V246.003L1026.97 272.134V325.004Z" fill="#6CFFF8"/>
<path opacity="0.1" d="M981.287 298.569L1026.97 325.004V272.134L981.287 246.003V298.569Z" fill="#26FFEF"/>
<path opacity="0.1" d="M1026.97 272.134L1072.65 246.003L1026.97 219.568L981.287 246.003L1026.97 272.134Z" fill="#6CFFF8"/>
<path opacity="0.1" d="M1026.97 272.134L1072.65 246.003V248.13L1026.97 274.565L981.286 248.13V246.003L1026.97 272.134Z" fill="white"/>
</g>
<g opacity="0.2">
<path opacity="0.7" d="M908.38 191.918L939.54 173.991L908.38 155.76L877.22 173.991L908.38 191.918Z" fill="#00DEC8"/>
<path opacity="0.7" d="M1145.25 196.172L1176.41 177.941L1145.25 160.014L1114.4 177.941L1145.25 196.172Z" fill="#00DEC8"/>
</g>
<g opacity="0.2">
<path opacity="0.1" d="M1026.97 61.8698L1072.65 35.4348V88.3047L1026.97 114.74L981.286 88.3047V35.4348L1026.97 61.8698Z" fill="#6CFFF8"/>
<path opacity="0.1" d="M1026.97 114.74L1072.65 88.3047V35.4348L1026.97 61.8698V114.74Z" fill="#6CFFF8"/>
<path opacity="0.1" d="M981.287 88.3047L1026.97 114.74V61.8698L981.287 35.4348V88.3047Z" fill="#26FFEF"/>
<path opacity="0.1" d="M1026.97 61.8699L1072.65 35.435L1026.97 9L981.287 35.435L1026.97 61.8699Z" fill="#6CFFF8"/>
<path opacity="0.1" d="M1026.97 61.8698L1072.65 35.4348V37.5618L1026.97 63.9968L981.286 37.5618V35.4348L1026.97 61.8698Z" fill="white"/>
</g>
<g opacity="0.2">
<path opacity="0.1" d="M967.672 95.597L1013.35 69.466V122.032L967.672 148.467L922.294 122.032V69.466L967.672 95.597Z" fill="#6CFFF8"/>
<path opacity="0.1" d="M967.672 148.467L1013.35 122.032V69.466L967.672 95.597V148.467Z" fill="#6CFFF8"/>
<path opacity="0.1" d="M922.294 122.032L967.672 148.467V95.597L922.294 69.466V122.032Z" fill="#26FFEF"/>
<path opacity="0.1" d="M967.672 95.597L1013.35 69.4659L967.672 43.031L922.294 69.4659L967.672 95.597Z" fill="#6CFFF8"/>
<path opacity="0.1" d="M967.672 95.597L1013.35 69.466V71.593L967.672 98.0278L922.294 71.593V69.466L967.672 95.597Z" fill="white"/>
</g>
<g opacity="0.2">
<path opacity="0.1" d="M908.681 129.628L954.059 103.193V156.063L908.681 182.498L863 156.063V103.193L908.681 129.628Z" fill="#6CFFF8"/>
<path opacity="0.1" d="M908.681 182.498L954.059 156.063V103.193L908.681 129.628V182.498Z" fill="#6CFFF8"/>
<path opacity="0.1" d="M863.001 156.063L908.681 182.498V129.628L863.001 103.193V156.063Z" fill="#26FFEF"/>
<path opacity="0.1" d="M908.68 129.628L954.059 103.194L908.68 76.7587L863 103.194L908.68 129.628Z" fill="#6CFFF8"/>
<path opacity="0.1" d="M908.681 129.628L954.059 103.193V105.624L908.681 132.059L863 105.624V103.193L908.681 129.628Z" fill="white"/>
</g>
<g opacity="0.2">
<path opacity="0.1" d="M1086.26 98.0278L1131.64 71.5929V124.463L1086.26 150.898L1040.58 124.463V71.5929L1086.26 98.0278Z" fill="#6CFFF8"/>
<path opacity="0.1" d="M1086.26 150.898L1131.64 124.463V71.5929L1086.26 98.0278V150.898Z" fill="#6CFFF8"/>
<path opacity="0.1" d="M1040.58 124.463L1086.26 150.898V98.0278L1040.58 71.5929V124.463Z" fill="#26FFEF"/>
<path opacity="0.1" d="M1086.26 98.0279L1131.64 71.5929L1086.26 45.158L1040.58 71.5929L1086.26 98.0279Z" fill="#6CFFF8"/>
<path opacity="0.1" d="M1086.26 98.0279L1131.64 71.5929V74.0237L1086.26 100.459L1040.58 74.0237V71.5929L1086.26 98.0279Z" fill="white"/>
</g>
<g opacity="0.2">
<path opacity="0.1" d="M1145.25 134.186L1190.93 107.751V160.621L1145.25 187.056L1099.87 160.621V107.751L1145.25 134.186Z" fill="#6CFFF8"/>
<path opacity="0.1" d="M1145.25 187.056L1190.93 160.621V107.751L1145.25 134.186V187.056Z" fill="#6CFFF8"/>
<path opacity="0.1" d="M1099.88 160.621L1145.25 187.056V134.186L1099.88 107.751V160.621Z" fill="#26FFEF"/>
<path opacity="0.1" d="M1145.25 134.186L1190.93 107.751L1145.25 81.3163L1099.87 107.751L1145.25 134.186Z" fill="#6CFFF8"/>
<path opacity="0.1" d="M1145.25 134.186L1190.93 107.751V110.182L1145.25 136.617L1099.87 110.182V107.751L1145.25 134.186Z" fill="white"/>
</g>
</g>
</svg>
