<svg width="193" height="32" viewBox="0 0 193 32" fill="none" xmlns="http://www.w3.org/2000/svg">
<path d="M62.6615 17.9207H54.1683V26.6631C54.1683 26.8708 54.106 27.0369 53.9606 27.1615C53.8153 27.2861 53.6491 27.3484 53.483 27.3484H51.8425C51.6349 27.3484 51.4687 27.2861 51.3234 27.1407C51.178 26.9954 51.1157 26.8292 51.1157 26.6631V7.62086C51.1157 6.35414 52.0087 4.9836 53.8153 3.55076C55.6011 2.09715 57.1378 1.39111 58.4253 1.39111C59.692 1.39111 61.2287 2.11792 63.0353 3.55076C64.8212 4.9836 65.7348 6.35414 65.7348 7.62086V26.6631C65.7348 26.85 65.6726 27.0161 65.5272 27.1407C65.3818 27.2861 65.2157 27.3484 65.008 27.3484H63.4091C63.2222 27.3484 63.0561 27.2861 62.9315 27.1407C62.7861 26.9954 62.7238 26.8292 62.7238 26.6631V17.9207H62.6615ZM54.1475 8.01541V15.2419H62.6407V8.01541C62.6407 7.26784 62.1216 6.43721 61.0833 5.56504C60.045 4.67211 59.1521 4.23603 58.3838 4.23603C57.657 4.23603 56.764 4.67211 55.705 5.56504C54.6874 6.43721 54.1475 7.26784 54.1475 8.01541Z" fill="#4A38AE"/>
<path d="M80.8745 26.6631V13.2069C80.8745 12.5839 80.4592 11.9402 79.6493 11.2757C78.8395 10.6112 78.1542 10.2789 77.5935 10.2789C77.0536 10.2789 76.3683 10.6112 75.5377 11.2757C74.7278 11.9402 74.3125 12.5839 74.3125 13.2069V26.6631C74.3125 26.8708 74.2502 27.0369 74.1256 27.1615C74.001 27.2861 73.8349 27.3484 73.6272 27.3484H72.0698C71.5922 27.3484 71.3638 27.12 71.3638 26.6424V12.7708C71.3638 11.6495 72.1113 10.5073 73.6272 9.32369C75.1431 8.14004 76.4514 7.55859 77.5727 7.55859C78.2995 7.55859 79.1302 7.84932 80.0439 8.43076C80.9576 9.0122 81.7467 9.67671 82.3696 10.4035C82.9926 9.67671 83.7817 9.0122 84.7162 8.43076C85.6506 7.84932 86.4813 7.55859 87.1665 7.55859C88.3087 7.55859 89.6377 8.14004 91.1536 9.32369C92.6695 10.5073 93.417 11.6495 93.417 12.7708V26.6631C93.417 26.8708 93.3547 27.0369 93.2094 27.1615C93.064 27.2861 92.8979 27.3484 92.7318 27.3484H91.1743C90.6967 27.3484 90.4683 27.12 90.4683 26.6424V13.2069C90.4683 12.5839 90.053 11.9402 89.2431 11.2757C88.4332 10.6112 87.7272 10.2789 87.1458 10.2789C86.6059 10.2789 85.9206 10.6112 85.09 11.2757C84.2801 11.9402 83.8648 12.5839 83.8648 13.2069V26.6631C83.8648 27.1408 83.6363 27.3692 83.1587 27.3692H81.6013C81.3936 27.3692 81.2275 27.3069 81.1029 27.1823C80.9368 27.0369 80.8745 26.8708 80.8745 26.6631Z" fill="#4A38AE"/>
<path d="M101.827 0.685271V9.57304C102.325 9.03312 102.948 8.55551 103.696 8.14019C104.443 7.74565 105.129 7.53799 105.772 7.53799C106.873 7.53799 108.16 8.11943 109.676 9.30308C111.192 10.4867 111.94 11.6704 111.94 12.8748V22.2817C111.94 23.4446 111.151 24.649 109.552 25.8534C107.974 27.0578 106.582 27.66 105.378 27.66C104.153 27.66 102.761 27.0578 101.204 25.8742C99.6465 24.6698 98.8574 23.4861 98.8574 22.3232V0.685271C98.8574 0.477613 98.9197 0.311487 99.0443 0.186892C99.1689 0.0622973 99.335 0 99.5427 0H101.1C101.308 0 101.474 0.0622973 101.598 0.186892C101.765 0.311487 101.827 0.477613 101.827 0.685271ZM108.95 13.3109C108.95 12.6671 108.514 11.9819 107.662 11.2966C106.811 10.6113 106.042 10.2583 105.399 10.2583C104.776 10.2583 104.028 10.6113 103.135 11.2966C102.242 11.9819 101.806 12.6464 101.806 13.2693V21.8872C101.806 22.5101 102.221 23.1746 103.073 23.8807C103.924 24.5867 104.672 24.9397 105.357 24.9397C106.042 24.9397 106.79 24.5867 107.662 23.9014C108.514 23.2162 108.95 22.5517 108.95 21.8872V13.3109Z" fill="#4A38AE"/>
<path d="M125.688 8.78424L125.502 9.94712C125.418 10.3624 125.128 10.5286 124.609 10.4455C124.089 10.3417 123.653 10.2794 123.28 10.2794C122.74 10.2794 122.054 10.6324 121.224 11.3592C120.414 12.0652 119.999 12.7297 119.999 13.332V26.6428C119.999 27.1204 119.77 27.3489 119.293 27.3489H117.735C117.527 27.3489 117.361 27.2866 117.237 27.162C117.112 27.0374 117.05 26.8713 117.05 26.6636V12.9374C117.05 11.7953 117.797 10.6116 119.272 9.40721C120.746 8.20279 122.054 7.60059 123.176 7.60059C123.882 7.60059 124.546 7.70442 125.169 7.91207C125.626 8.0159 125.792 8.32739 125.688 8.78424Z" fill="#4A38AE"/>
<path d="M131.022 9.36522C132.6 8.1608 133.97 7.55859 135.175 7.55859C136.379 7.55859 137.75 8.1608 139.328 9.34445C140.906 10.5489 141.695 11.7533 141.695 12.9785V22.2608C141.695 23.4237 140.906 24.6281 139.307 25.8533C137.729 27.0785 136.338 27.6807 135.175 27.6807C133.97 27.6807 132.6 27.0785 131.022 25.874C129.443 24.6696 128.654 23.4652 128.654 22.2608V12.9577C128.654 11.7741 129.443 10.5696 131.022 9.36522ZM138.726 21.8662V13.3523C138.726 12.667 138.29 12.0025 137.438 11.2964C136.587 10.6112 135.818 10.2582 135.175 10.2582C134.531 10.2582 133.763 10.6112 132.911 11.2964C132.06 11.9817 131.624 12.667 131.624 13.3523V21.8455C131.624 22.5307 132.039 23.1953 132.891 23.9013C133.742 24.5866 134.489 24.9396 135.175 24.9396C135.818 24.9396 136.587 24.5866 137.438 23.9013C138.29 23.216 138.726 22.5307 138.726 21.8662Z" fill="#4A38AE"/>
<path d="M152.557 10.2792C152.038 10.2792 151.352 10.5907 150.501 11.2344C149.65 11.8781 149.234 12.4388 149.234 12.958V13.8094C149.234 14.4739 149.816 15.0553 150.999 15.5122L155.485 17.1942C157.458 17.9833 158.454 19.1877 158.454 20.8282V22.7387C158.454 23.7354 157.707 24.7945 156.212 25.9366C154.716 27.0787 153.387 27.6602 152.245 27.6602C151.041 27.6602 149.276 27.0579 146.95 25.8743C146.431 25.5836 146.286 25.189 146.514 24.7114L146.95 23.6939C147.158 23.2163 147.552 23.1124 148.155 23.3824C150.231 24.4207 151.602 24.9398 152.245 24.9398C152.785 24.9398 153.471 24.6283 154.301 24.0054C155.111 23.3824 155.526 22.8217 155.526 22.3649V21.2228C155.526 20.7867 155.36 20.4129 155.049 20.1222C154.716 19.8314 154.26 19.5615 153.637 19.2915L149.338 17.651C147.365 16.9035 146.369 15.7613 146.369 14.2662V12.5842C146.369 11.5459 147.137 10.4453 148.694 9.28241C150.231 8.11953 151.539 7.53809 152.578 7.53809C153.741 7.53809 155.443 8.09876 157.686 9.22012C157.873 9.30318 157.997 9.42777 158.081 9.63543C158.164 9.82232 158.143 10.03 158.039 10.2376L157.644 11.2967C157.416 11.7951 157.022 11.8989 156.482 11.6082C154.405 10.7153 153.118 10.2792 152.557 10.2792Z" fill="#4A38AE"/>
<path d="M165.742 8.55589V21.8252C165.742 22.5313 166.158 23.2165 167.009 23.9018C167.86 24.5871 168.608 24.9401 169.252 24.9401C169.875 24.9401 170.622 24.5871 171.474 23.9018C172.325 23.2165 172.761 22.5105 172.761 21.8252V8.55589C172.761 8.07828 172.99 7.84985 173.467 7.84985H175.025C175.232 7.84985 175.398 7.91215 175.523 8.03675C175.648 8.16134 175.71 8.32747 175.71 8.53513V22.2198C175.71 23.445 174.921 24.6494 173.363 25.8538C171.806 27.0582 170.415 27.6397 169.231 27.6397C168.006 27.6397 166.614 27.0375 165.078 25.8538C163.52 24.6494 162.752 23.445 162.752 22.2198V8.55589C162.752 8.34823 162.814 8.18211 162.939 8.05751C163.063 7.93292 163.23 7.87062 163.437 7.87062H164.995C165.202 7.87062 165.368 7.93292 165.493 8.05751C165.68 8.18211 165.742 8.34823 165.742 8.55589Z" fill="#4A38AE"/>
<path d="M186.822 10.2792C186.302 10.2792 185.617 10.5907 184.766 11.2344C183.914 11.8781 183.499 12.4388 183.499 12.958V13.8094C183.499 14.4739 184.08 15.0553 185.264 15.5122L189.749 17.1942C191.722 17.9833 192.719 19.1877 192.719 20.8282V22.7387C192.719 23.7354 191.971 24.7945 190.476 25.9366C188.981 27.0787 187.652 27.6602 186.51 27.6602C185.306 27.6602 183.541 27.0579 181.215 25.8743C180.696 25.5836 180.55 25.189 180.779 24.7114L181.215 23.6939C181.422 23.2163 181.817 23.1124 182.419 23.3824C184.496 24.4207 185.866 24.9398 186.51 24.9398C187.05 24.9398 187.735 24.6283 188.566 24.0054C189.376 23.3824 189.791 22.8217 189.791 22.3649V21.2228C189.791 20.7867 189.625 20.4129 189.313 20.1222C188.981 19.8314 188.524 19.5615 187.901 19.2915L183.603 17.651C181.63 16.9035 180.633 15.7613 180.633 14.2662V12.5842C180.633 11.5459 181.402 10.4453 182.959 9.28241C184.496 8.11953 185.804 7.53809 186.842 7.53809C188.005 7.53809 189.708 8.09876 191.951 9.22012C192.138 9.30318 192.262 9.42777 192.345 9.63543C192.428 9.82232 192.408 10.03 192.304 10.2376L191.909 11.2967C191.681 11.7951 191.286 11.8989 190.746 11.6082C188.67 10.7153 187.361 10.2792 186.822 10.2792Z" fill="#4A38AE"/>
<path d="M136.714 3.73794C136.714 3.57181 136.651 3.42645 136.527 3.32262C136.402 3.21879 136.236 3.15649 136.028 3.15649H134.512C134.305 3.15649 134.139 3.21879 134.014 3.32262C133.889 3.42645 133.827 3.57181 133.827 3.73794V9.55236H136.714V3.73794Z" fill="#4A38AE"/>
<path d="M133.847 31.4184C133.847 31.5846 133.909 31.7299 134.034 31.8337C134.158 31.9376 134.324 31.9999 134.532 31.9999H136.048C136.256 31.9999 136.422 31.9376 136.546 31.8337C136.671 31.7299 136.733 31.5846 136.733 31.4184V25.604H133.847V31.4184Z" fill="#4A38AE"/>
<path d="M30.8928 15.4704C30.6436 15.4704 30.436 15.2835 30.3944 15.0343C29.7507 10.6112 26.1997 7.12257 21.7558 6.54113C21.4859 6.49959 21.2782 6.2504 21.3198 5.98045C21.3613 5.71049 21.6105 5.50284 21.8804 5.54437C26.7604 6.18811 30.6644 10.0298 31.3912 14.9097C31.4327 15.1797 31.2458 15.4497 30.9551 15.4912C30.9551 15.4704 30.9343 15.4704 30.8928 15.4704Z" fill="#4A38AE"/>
<path d="M28.2739 24.1297C28.1493 24.1297 28.0247 24.0882 27.9416 24.0051C27.734 23.8183 27.7132 23.5068 27.9001 23.2991C29.3329 21.7209 30.2051 19.7897 30.4543 17.6924C30.4958 17.4224 30.745 17.2148 31.015 17.2563C31.2849 17.2978 31.4926 17.547 31.451 17.817C31.1811 20.122 30.2051 22.2608 28.6477 23.9844C28.5438 24.0882 28.3985 24.1297 28.2739 24.1297Z" fill="#4A38AE"/>
<path d="M21.8357 27.5143C21.5865 27.5143 21.3789 27.3275 21.3373 27.0783C21.2958 26.8083 21.5035 26.5384 21.7734 26.5176C23.4554 26.2892 25.0752 25.6454 26.4457 24.6279C26.6741 24.4618 26.9856 24.5033 27.1518 24.7317C27.3179 24.9602 27.2764 25.2716 27.0479 25.4378C25.532 26.5591 23.7669 27.2859 21.898 27.5351C21.8772 27.5143 21.8565 27.5143 21.8357 27.5143Z" fill="#4A38AE"/>
<path d="M19.053 27.5146C19.0322 27.5146 19.0114 27.5146 18.9907 27.5146C13.9446 26.8501 10.0199 22.8631 9.43841 17.817C9.39688 17.547 9.60454 17.2978 9.87449 17.2563C10.1444 17.2147 10.3936 17.4224 10.4352 17.6924C10.9751 22.2816 14.526 25.9156 19.1153 26.5178C19.3852 26.5594 19.5929 26.8086 19.5514 27.0785C19.5306 27.3277 19.3022 27.5146 19.053 27.5146Z" fill="#4A38AE"/>
<path d="M9.97775 15.4707C9.95698 15.4707 9.93622 15.4707 9.89469 15.4707C9.62473 15.4291 9.43784 15.18 9.4586 14.8892C9.79086 12.6465 10.7876 10.57 12.3658 8.90869C12.5527 8.70103 12.885 8.70103 13.0719 8.88792C13.2795 9.07481 13.2795 9.40707 13.0926 9.59396C11.6598 11.1099 10.7461 12.9788 10.4554 15.0346C10.4346 15.2838 10.2269 15.4707 9.97775 15.4707Z" fill="#4A38AE"/>
<path d="M14.2997 8.41005C14.1336 8.41005 13.9882 8.32698 13.8844 8.20239C13.7183 7.97397 13.7806 7.66248 14.009 7.49635C15.4834 6.45806 17.1862 5.77279 18.972 5.54437C19.242 5.50284 19.5119 5.71049 19.5327 5.98045C19.5742 6.2504 19.3666 6.52036 19.0966 6.54113C17.4769 6.74878 15.9194 7.37176 14.5904 8.32698C14.5074 8.38928 14.4035 8.41005 14.2997 8.41005Z" fill="#4A38AE"/>
<path d="M20.4461 25.48C15.5039 25.48 11.4961 21.4514 11.4961 16.5299C11.4961 11.5876 15.5247 7.57983 20.4461 7.57983C25.3884 7.57983 29.3962 11.6084 29.3962 16.5299C29.3962 21.4722 25.3884 25.48 20.4461 25.48ZM20.4461 8.57659C16.0646 8.57659 12.4929 12.1483 12.4929 16.5299C12.4929 20.9115 16.0646 24.4832 20.4461 24.4832C24.8277 24.4832 28.3994 20.9115 28.3994 16.5299C28.3787 12.1483 24.8277 8.57659 20.4461 8.57659Z" fill="#4A38AE"/>
<path d="M9.93994 18.71C10.5478 18.71 11.0405 18.2172 11.0405 17.6094C11.0405 17.0015 10.5478 16.5088 9.93994 16.5088C9.3321 16.5088 8.83936 17.0015 8.83936 17.6094C8.83936 18.2172 9.3321 18.71 9.93994 18.71Z" fill="#4A38AE"/>
<path d="M30.9941 16.1975C31.602 16.1975 32.0947 15.7048 32.0947 15.0969C32.0947 14.4891 31.602 13.9963 30.9941 13.9963C30.3863 13.9963 29.8936 14.4891 29.8936 15.0969C29.8936 15.7048 30.3863 16.1975 30.9941 16.1975Z" fill="#4A38AE"/>
<path d="M23.3749 14.0588C23.3749 12.4806 22.0874 11.1931 20.5092 11.1931C18.931 11.1931 17.6436 12.4806 17.6436 14.0588C17.6436 15.0556 18.1419 15.9277 18.931 16.4469L18.9726 16.2392C19.0349 15.8654 19.4086 15.5539 19.7824 15.5539H21.236C21.6306 15.5539 21.9836 15.8654 22.0459 16.2392L22.0874 16.4469C22.8558 15.9277 23.3749 15.0556 23.3749 14.0588Z" fill="#4A38AE"/>
<path d="M18.9294 16.4458L18.1403 21.2635C18.078 21.6373 18.348 21.9488 18.7217 21.9488H22.2935C22.688 21.9488 22.9372 21.6373 22.8749 21.2635L22.0858 16.4458C21.629 16.7365 21.0891 16.9234 20.5076 16.9234C19.9262 16.9234 19.3863 16.7365 18.9294 16.4458Z" fill="#4A38AE"/>
<path d="M21.2362 15.5322H19.7826C19.388 15.5322 19.035 15.8437 18.9727 16.2175L18.9312 16.4252C19.388 16.7159 19.9279 16.9028 20.5094 16.9028C21.0908 16.9028 21.6307 16.7366 22.0876 16.4252L22.0461 16.2175C21.9838 15.8437 21.6307 15.5322 21.2362 15.5322Z" fill="#4A38AE"/>
<path d="M39.9446 17.4429C39.6123 17.4429 39.2801 17.2768 39.1139 16.9653C39.0516 16.8614 33.1334 6.49931 20.4455 6.49931C7.75757 6.49931 1.83931 16.8614 1.77701 16.9653C1.52782 17.4221 0.946381 17.5882 0.489534 17.3391C0.032686 17.0899 -0.13344 16.5084 0.115749 16.0516C0.364939 15.5947 6.59468 4.60962 20.4455 4.60962C34.2755 4.60962 40.5052 15.5947 40.7752 16.0516C41.0244 16.5084 40.8583 17.0899 40.4014 17.3391C40.2561 17.4014 40.0899 17.4429 39.9446 17.4429Z" fill="#4A38AE"/>
<path d="M20.4455 28.3867C6.61545 28.3867 0.385705 17.4016 0.115749 16.9447C-0.13344 16.4879 0.032686 15.9064 0.489534 15.6573C0.946381 15.4081 1.52782 15.5742 1.77701 16.031C1.83931 16.1349 7.75757 26.497 20.4455 26.497C33.1334 26.497 39.0516 16.1349 39.1139 16.031C39.3631 15.5742 39.9446 15.4081 40.4014 15.6573C40.8583 15.9064 41.0244 16.4879 40.7752 16.9447C40.5052 17.4223 34.2755 28.3867 20.4455 28.3867Z" fill="#4A38AE"/>
</svg>
