<svg width="220" height="220" viewBox="0 0 220 220" fill="none" xmlns="http://www.w3.org/2000/svg">
<path d="M106.45 120.645V99.3549C106.45 89.944 110.189 80.9185 116.843 74.264C123.498 67.6095 132.523 63.871 141.934 63.871C151.345 63.871 160.371 67.6095 167.025 74.264C173.68 80.9185 177.418 89.944 177.418 99.3549V120.645H198.709V99.3549C198.709 84.2975 192.727 69.8567 182.08 59.2095C171.433 48.5622 156.992 42.5807 141.934 42.5807C126.877 42.5807 112.436 48.5622 101.789 59.2095C91.1417 69.8567 85.1602 84.2975 85.1602 99.3549V120.645H106.45Z" fill="#5CFFF7"/>
<path d="M110 191.613C119.798 191.613 127.741 183.67 127.741 173.871C127.741 164.073 119.798 156.129 110 156.129C100.201 156.129 92.2576 164.073 92.2576 173.871C92.2576 183.67 100.201 191.613 110 191.613Z" fill="#5CFFF7"/>
<path d="M209.355 127.742H74.5158C71.6925 127.742 68.9849 128.863 66.9885 130.86C64.9921 132.856 63.8706 135.564 63.8706 138.387V209.355C63.8706 212.178 64.9921 214.886 66.9885 216.882C68.9849 218.878 71.6925 220 74.5158 220H209.355C212.178 220 214.885 218.878 216.882 216.882C218.878 214.886 220 212.178 220 209.355V138.387C220 135.564 218.878 132.856 216.882 130.86C214.885 128.863 212.178 127.742 209.355 127.742ZM198.709 195.161C198.709 196.102 198.336 197.005 197.67 197.67C197.005 198.336 196.102 198.71 195.161 198.71C194.22 198.71 193.317 198.336 192.652 197.67C191.986 197.005 191.613 196.102 191.613 195.161V180.968C191.613 180.027 191.239 179.124 190.573 178.459C189.908 177.793 189.005 177.419 188.064 177.419H177.419V195.161C177.419 196.102 177.045 197.005 176.38 197.67C175.714 198.336 174.812 198.71 173.871 198.71C172.93 198.71 172.027 198.336 171.362 197.67C170.696 197.005 170.322 196.102 170.322 195.161V177.419H134.555C133.657 183.635 130.439 189.279 125.548 193.218C120.657 197.156 114.455 199.096 108.192 198.646C101.928 198.196 96.0674 195.391 91.7889 190.794C87.5104 186.197 85.1318 180.151 85.1318 173.871C85.1318 167.591 87.5104 161.545 91.7889 156.948C96.0674 152.351 101.928 149.546 108.192 149.096C114.455 148.646 120.657 150.586 125.548 154.524C130.439 158.462 133.657 164.107 134.555 170.322H188.064C190.888 170.322 193.595 171.444 195.592 173.44C197.588 175.437 198.709 178.144 198.709 180.968V195.161Z" fill="#5CFFF7"/>
<path d="M172.679 41.0691L172.264 40.7923C167.296 37.4882 163.223 33.0063 160.408 27.7462C157.593 22.4861 156.123 16.6112 156.129 10.6452C156.129 7.82189 155.008 5.11425 153.011 3.1179C151.015 1.12154 148.307 0 145.484 0H31.9355C29.1122 0 26.4046 1.12154 24.4082 3.1179C22.4119 5.11425 21.2903 7.82189 21.2903 10.6452C21.2989 16.6136 19.83 22.4914 17.0148 27.7541C14.1995 33.0169 10.1254 37.501 5.15581 40.8065L4.74065 41.0833C3.28449 42.0539 2.09011 43.3687 1.26322 44.911C0.436339 46.4534 0.00246167 48.1758 0 49.9258C0 142.539 82.6065 174.276 83.9478 175.457C85.4276 176.192 87.0574 176.575 88.7097 176.575C90.3621 176.575 91.9919 176.192 93.4717 175.457C94.6072 174.457 177.419 142.042 177.419 49.9258C177.419 48.1734 176.987 46.4481 176.16 44.9031C175.333 43.358 174.137 42.0411 172.679 41.0691ZM88.7097 46.1291C87.3061 46.1291 85.934 45.7128 84.767 44.933C83.5999 44.1532 82.6903 43.0449 82.1532 41.7481C81.616 40.4513 81.4755 39.0244 81.7493 37.6478C82.0232 36.2711 82.6991 35.0066 83.6916 34.0141C84.6841 33.0216 85.9486 32.3457 87.3252 32.0719C88.7019 31.798 90.1288 31.9386 91.4256 32.4757C92.7223 33.0129 93.8307 33.9225 94.6105 35.0895C95.3903 36.2566 95.8065 37.6287 95.8065 39.0323C95.8065 40.9145 95.0588 42.7196 93.7279 44.0505C92.397 45.3814 90.5919 46.1291 88.7097 46.1291ZM113.548 156.299V132.759L133.799 112.509C134.465 111.843 134.839 110.941 134.839 110V91.7542C138.184 90.8906 141.099 88.8367 143.038 85.9774C144.977 83.1182 145.806 79.65 145.371 76.2229C144.936 72.7959 143.265 69.6452 140.673 67.3615C138.081 65.0778 134.745 63.8178 131.29 63.8178C127.836 63.8178 124.5 65.0778 121.908 67.3615C119.316 69.6452 117.645 72.7959 117.21 76.2229C116.775 79.65 117.604 83.1182 119.543 85.9774C121.482 88.8367 124.397 90.8906 127.742 91.7542V108.531L107.491 128.782C106.826 129.447 106.452 130.349 106.452 131.29V160.742C100.263 164.315 98.6098 164.897 92.2581 168.144V52.722C95.6031 51.8583 98.5182 49.8044 100.457 46.9452C102.396 44.0859 103.225 40.6178 102.79 37.1907C102.355 33.7636 100.685 30.6129 98.0925 28.3292C95.5004 26.0455 92.1644 24.7856 88.7097 24.7856C85.2551 24.7856 81.9191 26.0455 79.327 28.3292C76.7349 30.6129 75.0646 33.7636 74.6293 37.1907C74.194 40.6178 75.0236 44.0859 76.9624 46.9452C78.9013 49.8044 81.8164 51.8583 85.1614 52.722V168.13C78.8204 164.89 77.1597 164.305 70.9678 160.728V131.29C70.9676 130.349 70.5936 129.447 69.9281 128.782L49.6775 108.531V91.7542C53.0224 90.8906 55.9375 88.8367 57.8764 85.9774C59.8153 83.1182 60.6448 79.65 60.2095 76.2229C59.7742 72.7959 58.104 69.6452 55.5118 67.3615C52.9197 65.0778 49.5837 63.8178 46.1291 63.8178C42.6744 63.8178 39.3384 65.0778 36.7463 67.3615C34.1542 69.6452 32.4839 72.7959 32.0486 76.2229C31.6133 79.65 32.4429 83.1182 34.3818 85.9774C36.3206 88.8367 39.2358 90.8906 42.5807 91.7542V110C42.5809 110.941 42.9549 111.843 43.6204 112.509L63.871 132.759V156.299C46.3511 144.644 31.9945 128.827 22.0865 110.263C12.1785 91.6993 7.02822 70.9682 7.09678 49.9258C7.09669 49.3418 7.24077 48.7668 7.51622 48.2518C7.79167 47.7368 8.18998 47.2977 8.67581 46.9736L9.09452 46.6968C15.0344 42.7451 19.9044 37.3853 23.2706 31.095C26.6367 24.8048 28.3944 17.7795 28.3871 10.6452C28.3871 9.70408 28.761 8.80153 29.4264 8.13608C30.0919 7.47063 30.9944 7.09678 31.9355 7.09678H145.484C146.425 7.09678 147.328 7.47063 147.993 8.13608C148.659 8.80153 149.032 9.70408 149.032 10.6452C149.025 17.7799 150.783 24.8056 154.15 31.096C157.516 37.3864 162.388 42.7459 168.329 46.6968L168.744 46.9736C169.23 47.2977 169.628 47.7368 169.903 48.2518C170.179 48.7668 170.323 49.3418 170.323 49.9258C170.391 70.9682 165.241 91.6993 155.333 110.263C145.425 128.827 131.068 144.644 113.548 156.299ZM131.29 85.1613C129.887 85.1613 128.515 84.7451 127.348 83.9653C126.181 83.1855 125.271 82.0772 124.734 80.7804C124.197 79.4836 124.056 78.0567 124.33 76.6801C124.604 75.3034 125.28 74.0389 126.272 73.0464C127.265 72.0539 128.529 71.378 129.906 71.1041C131.283 70.8303 132.709 70.9709 134.006 71.508C135.303 72.0451 136.411 72.9548 137.191 74.1218C137.971 75.2889 138.387 76.661 138.387 78.0646C138.387 79.9467 137.64 81.7518 136.309 83.0827C134.978 84.4137 133.173 85.1613 131.29 85.1613ZM46.1291 85.1613C44.7255 85.1613 43.3534 84.7451 42.1863 83.9653C41.0192 83.1855 40.1096 82.0772 39.5725 80.7804C39.0354 79.4836 38.8948 78.0567 39.1687 76.6801C39.4425 75.3034 40.1184 74.0389 41.1109 73.0464C42.1034 72.0539 43.3679 71.378 44.7446 71.1041C46.1212 70.8303 47.5481 70.9709 48.8449 71.508C50.1417 72.0451 51.25 72.9548 52.0298 74.1218C52.8096 75.2889 53.2258 76.661 53.2258 78.0646C53.2258 79.9467 52.4782 81.7518 51.1472 83.0827C49.8163 84.4137 48.0113 85.1613 46.1291 85.1613Z" fill="#4A38AE"/>
</svg>
