<svg width="220" height="220" viewBox="0 0 220 220" fill="none" xmlns="http://www.w3.org/2000/svg">
<path d="M171.875 113.438H123.75C122.838 113.438 121.964 113.8 121.319 114.444C120.675 115.089 120.312 115.963 120.312 116.875V165C120.312 165.912 120.675 166.786 121.319 167.431C121.964 168.075 122.838 168.438 123.75 168.438H171.875C172.787 168.438 173.661 168.075 174.306 167.431C174.95 166.786 175.312 165.912 175.312 165V116.875C175.312 115.963 174.95 115.089 174.306 114.444C173.661 113.8 172.787 113.438 171.875 113.438ZM147.812 149.531C146.113 149.531 144.451 149.027 143.038 148.083C141.625 147.139 140.523 145.796 139.873 144.226C139.222 142.656 139.052 140.928 139.384 139.261C139.715 137.594 140.534 136.063 141.736 134.861C142.938 133.659 144.469 132.84 146.136 132.509C147.803 132.177 149.531 132.347 151.101 132.998C152.671 133.648 154.014 134.75 154.958 136.163C155.902 137.576 156.406 139.238 156.406 140.938C156.406 143.217 155.501 145.403 153.889 147.014C152.278 148.626 150.092 149.531 147.812 149.531Z" fill="#5CFFF7"/>
<path d="M213.125 144.375C214.037 144.375 214.911 144.013 215.556 143.368C216.2 142.724 216.562 141.849 216.562 140.938C216.562 140.026 216.2 139.151 215.556 138.507C214.911 137.862 214.037 137.5 213.125 137.5H202.812V113.438H213.125C214.037 113.438 214.911 113.075 215.556 112.431C216.2 111.786 216.562 110.912 216.562 110C216.562 109.088 216.2 108.214 215.556 107.569C214.911 106.925 214.037 106.562 213.125 106.562H202.812V96.25C202.812 93.515 201.726 90.8919 199.792 88.958C197.858 87.024 195.235 85.9375 192.5 85.9375H182.188V72.1875C182.188 71.2758 181.825 70.4015 181.181 69.7568C180.536 69.1122 179.662 68.75 178.75 68.75C177.838 68.75 176.964 69.1122 176.319 69.7568C175.675 70.4015 175.312 71.2758 175.312 72.1875V85.9375H151.25V72.1875C151.25 71.2758 150.888 70.4015 150.243 69.7568C149.599 69.1122 148.724 68.75 147.812 68.75C146.901 68.75 146.026 69.1122 145.382 69.7568C144.737 70.4015 144.375 71.2758 144.375 72.1875V85.9375H120.312V72.1875C120.312 71.2758 119.95 70.4015 119.306 69.7568C118.661 69.1122 117.787 68.75 116.875 68.75C115.963 68.75 115.089 69.1122 114.444 69.7568C113.8 70.4015 113.438 71.2758 113.438 72.1875V85.9375H103.125C100.39 85.9375 97.7669 87.024 95.833 88.958C93.899 90.8919 92.8125 93.515 92.8125 96.25V106.562H82.5C81.5883 106.562 80.714 106.925 80.0693 107.569C79.4247 108.214 79.0625 109.088 79.0625 110C79.0625 110.912 79.4247 111.786 80.0693 112.431C80.714 113.075 81.5883 113.438 82.5 113.438H92.8125V137.5H82.5C81.5883 137.5 80.714 137.862 80.0693 138.507C79.4247 139.151 79.0625 140.026 79.0625 140.938C79.0625 141.849 79.4247 142.724 80.0693 143.368C80.714 144.013 81.5883 144.375 82.5 144.375H92.8125V168.438H82.5C81.5883 168.438 80.714 168.8 80.0693 169.444C79.4247 170.089 79.0625 170.963 79.0625 171.875C79.0625 172.787 79.4247 173.661 80.0693 174.306C80.714 174.95 81.5883 175.312 82.5 175.312H92.8125V185.625C92.8125 188.36 93.899 190.983 95.833 192.917C97.7669 194.851 100.39 195.938 103.125 195.938H113.438V209.688C113.438 210.599 113.8 211.474 114.444 212.118C115.089 212.763 115.963 213.125 116.875 213.125C117.787 213.125 118.661 212.763 119.306 212.118C119.95 211.474 120.312 210.599 120.312 209.688V195.938H144.375V209.688C144.375 210.599 144.737 211.474 145.382 212.118C146.026 212.763 146.901 213.125 147.812 213.125C148.724 213.125 149.599 212.763 150.243 212.118C150.888 211.474 151.25 210.599 151.25 209.688V195.938H175.312V209.688C175.312 210.599 175.675 211.474 176.319 212.118C176.964 212.763 177.838 213.125 178.75 213.125C179.662 213.125 180.536 212.763 181.181 212.118C181.825 211.474 182.188 210.599 182.188 209.688V195.938H192.5C195.235 195.938 197.858 194.851 199.792 192.917C201.726 190.983 202.812 188.36 202.812 185.625V175.312H213.125C214.037 175.312 214.911 174.95 215.556 174.306C216.2 173.661 216.562 172.787 216.562 171.875C216.562 170.963 216.2 170.089 215.556 169.444C214.911 168.8 214.037 168.438 213.125 168.438H202.812V144.375H213.125ZM182.188 165C182.188 167.735 181.101 170.358 179.167 172.292C177.233 174.226 174.61 175.312 171.875 175.312H123.75C121.015 175.312 118.392 174.226 116.458 172.292C114.524 170.358 113.438 167.735 113.438 165V116.875C113.438 114.14 114.524 111.517 116.458 109.583C118.392 107.649 121.015 106.562 123.75 106.562H171.875C174.61 106.562 177.233 107.649 179.167 109.583C181.101 111.517 182.188 114.14 182.188 116.875V165Z" fill="#5CFFF7"/>
<path d="M163.178 63.2087C165.075 57.9957 165.449 52.3503 164.256 46.9326C163.063 41.5149 160.352 36.5489 156.441 32.615C153.503 29.6524 149.957 27.3617 146.049 25.9007C142.141 24.4397 137.962 23.8431 133.801 24.1519C133.113 19.2271 130.913 14.6371 127.507 11.0144C124.1 7.39164 119.654 4.91454 114.781 3.92437C109.908 2.9342 104.848 3.47971 100.297 5.48572C95.7473 7.49173 91.9312 10.8595 89.3751 15.125C86.8185 10.8594 83.0018 7.49167 78.4511 5.48599C73.9004 3.48032 68.8397 2.93542 63.9663 3.92638C59.0929 4.91734 54.6469 7.39539 51.2408 11.019C47.8348 14.6426 45.6365 19.2334 44.9488 24.1587C40.7879 23.8513 36.6098 24.4486 32.7018 25.9096C28.7937 27.3705 25.2483 29.6604 22.3094 32.6219C18.398 36.5557 15.6872 41.5218 14.4941 46.9395C13.301 52.3572 13.6748 58.0026 15.5719 63.2156C11.7696 66.4335 8.71422 70.4414 6.61855 74.9603C4.52288 79.4793 3.43726 84.4006 3.43726 89.3819C3.43726 94.3631 4.52288 99.2845 6.61855 103.803C8.71422 108.322 11.7696 112.33 15.5719 115.548C13.6748 120.761 13.301 126.407 14.4941 131.824C15.6872 137.242 18.398 142.208 22.3094 146.142C25.2475 149.104 28.7927 151.395 32.701 152.856C36.6093 154.317 40.7878 154.914 44.9488 154.605C45.6387 159.529 47.8387 164.118 51.2456 167.74C54.6525 171.362 59.0988 173.838 63.9717 174.828C68.8447 175.817 73.9046 175.271 78.4542 173.265C83.0039 171.258 86.8194 167.89 89.3751 163.625C91.9323 167.891 95.7498 171.258 100.301 173.264C104.853 175.269 109.914 175.813 114.788 174.821C119.662 173.828 124.107 171.349 127.513 167.724C130.918 164.099 133.115 159.507 133.801 154.581C137.961 154.89 142.139 154.294 146.047 152.835C149.955 151.376 153.501 149.088 156.441 146.128C160.352 142.194 163.063 137.228 164.256 131.811C165.449 126.393 165.075 120.747 163.178 115.534C166.981 112.317 170.036 108.309 172.132 103.79C174.227 99.2707 175.313 94.3493 175.313 89.3681C175.313 84.3869 174.227 79.4655 172.132 74.9466C170.036 70.4276 166.981 66.4197 163.178 63.2019V63.2087ZM106.563 103.125C106.563 104.037 106.2 104.911 105.556 105.556C104.911 106.2 104.037 106.562 103.125 106.562H75.6251C74.7134 106.562 73.839 106.2 73.1944 105.556C72.5497 104.911 72.1876 104.037 72.1876 103.125V75.625C72.1876 74.7133 72.5497 73.839 73.1944 73.1943C73.839 72.5497 74.7134 72.1875 75.6251 72.1875H103.125C104.037 72.1875 104.911 72.5497 105.556 73.1943C106.2 73.839 106.563 74.7133 106.563 75.625V103.125ZM68.7501 168.438C64.5615 168.424 60.5225 166.878 57.395 164.092C54.2675 161.306 52.2675 157.472 51.7722 153.312C56.2463 151.91 60.3142 149.445 63.6282 146.128C64.1913 145.471 64.4856 144.625 64.4522 143.76C64.4188 142.894 64.0601 142.074 63.4479 141.462C62.8357 140.849 62.0151 140.491 61.1499 140.457C60.2848 140.424 59.4389 140.718 58.7813 141.281C55.3006 144.764 50.7664 146.998 45.8843 147.636C41.0022 148.274 36.0461 147.28 31.7872 144.81C27.5283 142.339 24.2056 138.53 22.336 133.975C20.4665 129.42 20.155 124.375 21.4501 119.625C26.4735 122.347 32.0993 123.765 37.8126 123.75C38.7242 123.75 39.5986 123.388 40.2432 122.743C40.8879 122.099 41.2501 121.224 41.2501 120.312C41.2501 119.401 40.8879 118.526 40.2432 117.882C39.5986 117.237 38.7242 116.875 37.8126 116.875C30.5191 116.875 23.5244 113.978 18.3671 108.82C13.2099 103.663 10.3126 96.6684 10.3126 89.375C10.3126 82.0815 13.2099 75.0868 18.3671 69.9296C23.5244 64.7723 30.5191 61.875 37.8126 61.875C38.7242 61.875 39.5986 61.5128 40.2432 60.8682C40.8879 60.2235 41.2501 59.3492 41.2501 58.4375C41.2501 57.5258 40.8879 56.6515 40.2432 56.0068C39.5986 55.3622 38.7242 55 37.8126 55C32.0919 54.9923 26.461 56.4213 21.4363 59.1559C20.1252 54.4006 20.4258 49.3449 22.2913 44.7784C24.1567 40.2119 27.482 36.3918 31.7477 33.9146C36.0134 31.4374 40.9793 30.4426 45.8701 31.0856C50.7608 31.7286 55.3009 33.9732 58.7813 37.4687C59.4389 38.0319 60.2848 38.3262 61.1499 38.2928C62.0151 38.2593 62.8357 37.9007 63.4479 37.2885C64.0601 36.6763 64.4188 35.8556 64.4522 34.9905C64.4856 34.1254 64.1913 33.2795 63.6282 32.6219C60.3179 29.2925 56.2497 26.8155 51.7722 25.4031C52.2896 21.0568 54.4498 17.073 57.8101 14.2684C61.1704 11.4637 65.4763 10.0506 69.8451 10.3187C74.2138 10.5868 78.3145 12.5159 81.3066 15.7105C84.2988 18.905 85.9556 23.1231 85.9376 27.5V65.3125H75.6251C72.89 65.3125 70.267 66.399 68.333 68.333C66.3991 70.2669 65.3126 72.8899 65.3126 75.625H55.0001C54.0884 75.625 53.214 75.9872 52.5694 76.6318C51.9247 77.2765 51.5626 78.1508 51.5626 79.0625C51.5626 79.9742 51.9247 80.8485 52.5694 81.4932C53.214 82.1378 54.0884 82.5 55.0001 82.5H65.3126V96.25H55.0001C54.0884 96.25 53.214 96.6122 52.5694 97.2568C51.9247 97.9015 51.5626 98.7758 51.5626 99.6875C51.5626 100.599 51.9247 101.474 52.5694 102.118C53.214 102.763 54.0884 103.125 55.0001 103.125H65.3126C65.3126 105.86 66.3991 108.483 68.333 110.417C70.267 112.351 72.89 113.437 75.6251 113.437H85.9376V151.25C85.9321 155.807 84.1195 160.175 80.8974 163.397C77.6753 166.619 73.3068 168.432 68.7501 168.438ZM140.938 116.875C140.026 116.875 139.152 117.237 138.507 117.882C137.862 118.526 137.5 119.401 137.5 120.312C137.5 121.224 137.862 122.099 138.507 122.743C139.152 123.388 140.026 123.75 140.938 123.75C146.658 123.758 152.289 122.329 157.314 119.594C158.625 124.349 158.324 129.405 156.459 133.972C154.593 138.538 151.268 142.358 147.002 144.835C142.737 147.313 137.771 148.307 132.88 147.664C127.989 147.021 123.449 144.777 119.969 141.281C119.311 140.718 118.465 140.424 117.6 140.457C116.735 140.491 115.914 140.849 115.302 141.462C114.69 142.074 114.331 142.894 114.298 143.76C114.265 144.625 114.559 145.471 115.122 146.128C118.434 149.451 122.502 151.922 126.978 153.33C126.461 157.674 124.302 161.657 120.943 164.461C117.585 167.266 113.281 168.68 108.914 168.414C104.546 168.148 100.446 166.223 97.4525 163.031C94.4591 159.84 92.7991 155.625 92.8126 151.25V113.437H103.125C105.86 113.437 108.483 112.351 110.417 110.417C112.351 108.483 113.438 105.86 113.438 103.125H123.75C124.662 103.125 125.536 102.763 126.181 102.118C126.825 101.474 127.188 100.599 127.188 99.6875C127.188 98.7758 126.825 97.9015 126.181 97.2568C125.536 96.6122 124.662 96.25 123.75 96.25H113.438V82.5H123.75C124.662 82.5 125.536 82.1378 126.181 81.4932C126.825 80.8485 127.188 79.9742 127.188 79.0625C127.188 78.1508 126.825 77.2765 126.181 76.6318C125.536 75.9872 124.662 75.625 123.75 75.625H113.438C113.438 72.8899 112.351 70.2669 110.417 68.333C108.483 66.399 105.86 65.3125 103.125 65.3125H92.8126V27.5C92.8035 23.1262 94.4667 18.9143 97.4615 15.7266C100.456 12.5389 104.556 10.6165 108.922 10.353C113.288 10.0894 117.59 11.5046 120.946 14.3089C124.303 17.1131 126.461 21.0943 126.978 25.4375C122.5 26.8499 118.432 29.3269 115.122 32.6562C114.599 33.3189 114.339 34.1506 114.39 34.993C114.441 35.8353 114.8 36.6294 115.399 37.224C115.998 37.8185 116.795 38.1721 117.637 38.2172C118.48 38.2624 119.31 37.996 119.969 37.4687C123.45 33.983 127.987 31.7465 132.872 31.1078C137.757 30.4691 142.716 31.464 146.976 33.9375C151.237 36.4111 154.559 40.2243 156.427 44.7832C158.294 49.3421 158.601 54.3906 157.3 59.1422C152.278 56.4146 146.652 54.9904 140.938 55C140.026 55 139.152 55.3622 138.507 56.0068C137.862 56.6515 137.5 57.5258 137.5 58.4375C137.5 59.3492 137.862 60.2235 138.507 60.8682C139.152 61.5128 140.026 61.875 140.938 61.875C148.231 61.875 155.226 64.7723 160.383 69.9296C165.54 75.0868 168.438 82.0815 168.438 89.375C168.438 96.6684 165.54 103.663 160.383 108.82C155.226 113.978 148.231 116.875 140.938 116.875Z" fill="#4A38AE"/>
<path d="M96.25 79.0625H82.5C81.5883 79.0625 80.714 79.4247 80.0693 80.0693C79.4247 80.714 79.0625 81.5883 79.0625 82.5C79.0625 83.4117 79.4247 84.286 80.0693 84.9307C80.714 85.5753 81.5883 85.9375 82.5 85.9375H96.25C97.1617 85.9375 98.036 85.5753 98.6807 84.9307C99.3253 84.286 99.6875 83.4117 99.6875 82.5C99.6875 81.5883 99.3253 80.714 98.6807 80.0693C98.036 79.4247 97.1617 79.0625 96.25 79.0625Z" fill="#4A38AE"/>
<path d="M96.25 92.8125H82.5C81.5883 92.8125 80.714 93.1747 80.0693 93.8193C79.4247 94.464 79.0625 95.3383 79.0625 96.25C79.0625 97.1617 79.4247 98.036 80.0693 98.6807C80.714 99.3253 81.5883 99.6875 82.5 99.6875H96.25C97.1617 99.6875 98.036 99.3253 98.6807 98.6807C99.3253 98.036 99.6875 97.1617 99.6875 96.25C99.6875 95.3383 99.3253 94.464 98.6807 93.8193C98.036 93.1747 97.1617 92.8125 96.25 92.8125Z" fill="#4A38AE"/>
</svg>
