<svg width="220" height="220" viewBox="0 0 220 220" fill="none" xmlns="http://www.w3.org/2000/svg">
<path d="M206.25 106.563H165V92.3245C167.362 91.7067 169.518 90.4711 171.244 88.7444C172.971 87.0178 174.207 84.8625 174.824 82.5001H202.812C203.724 82.5001 204.599 82.1379 205.243 81.4933C205.888 80.8486 206.25 79.9743 206.25 79.0626C206.25 78.1509 205.888 77.2766 205.243 76.6319C204.599 75.9872 203.724 75.6251 202.812 75.6251H174.824C174.074 72.6771 172.363 70.0632 169.961 68.1963C167.56 66.3293 164.604 65.3158 161.562 65.3158C158.521 65.3158 155.565 66.3293 153.164 68.1963C150.762 70.0632 149.051 72.6771 148.301 75.6251H120.312C119.401 75.6251 118.526 75.9872 117.882 76.6319C117.237 77.2766 116.875 78.1509 116.875 79.0626C116.875 79.9743 117.237 80.8486 117.882 81.4933C118.526 82.1379 119.401 82.5001 120.312 82.5001H148.301C148.918 84.8625 150.154 87.0178 151.881 88.7444C153.607 90.4711 155.763 91.7067 158.125 92.3245V106.563H116.875C114.14 106.563 111.517 107.649 109.583 109.583C107.649 111.517 106.563 114.14 106.562 116.875V140.938H216.562V116.875C216.562 114.14 215.476 111.517 213.542 109.583C211.608 107.649 208.985 106.563 206.25 106.563ZM154.688 79.0626C154.688 77.7028 155.091 76.3736 155.846 75.243C156.602 74.1124 157.675 73.2313 158.932 72.7109C160.188 72.1906 161.57 72.0544 162.904 72.3197C164.237 72.585 165.462 73.2397 166.424 74.2012C167.385 75.1627 168.04 76.3877 168.305 77.7213C168.571 79.055 168.435 80.4373 167.914 81.6935C167.394 82.9498 166.513 84.0235 165.382 84.7789C164.251 85.5344 162.922 85.9376 161.562 85.9376C159.739 85.9376 157.99 85.2133 156.701 83.9239C155.412 82.6346 154.688 80.8859 154.688 79.0626ZM140.938 130.625H130.625C129.713 130.625 128.839 130.263 128.194 129.618C127.55 128.974 127.188 128.099 127.188 127.188C127.188 126.276 127.55 125.402 128.194 124.757C128.839 124.112 129.713 123.75 130.625 123.75H140.938C141.849 123.75 142.724 124.112 143.368 124.757C144.013 125.402 144.375 126.276 144.375 127.188C144.375 128.099 144.013 128.974 143.368 129.618C142.724 130.263 141.849 130.625 140.938 130.625ZM192.5 130.625H161.562C160.651 130.625 159.776 130.263 159.132 129.618C158.487 128.974 158.125 128.099 158.125 127.188C158.125 126.276 158.487 125.402 159.132 124.757C159.776 124.112 160.651 123.75 161.562 123.75H192.5C193.412 123.75 194.286 124.112 194.931 124.757C195.575 125.402 195.938 126.276 195.938 127.188C195.938 128.099 195.575 128.974 194.931 129.618C194.286 130.263 193.412 130.625 192.5 130.625Z" fill="#5CFFF7"/>
<path d="M106.562 206.25C106.563 208.985 107.649 211.608 109.583 213.542C111.517 215.476 114.14 216.562 116.875 216.562H206.25C208.985 216.562 211.608 215.476 213.542 213.542C215.476 211.608 216.562 208.985 216.562 206.25V182.188H106.562V206.25ZM161.562 192.5H192.5C193.412 192.5 194.286 192.862 194.931 193.507C195.575 194.151 195.938 195.026 195.938 195.938C195.938 196.849 195.575 197.724 194.931 198.368C194.286 199.013 193.412 199.375 192.5 199.375H161.562C160.651 199.375 159.776 199.013 159.132 198.368C158.487 197.724 158.125 196.849 158.125 195.938C158.125 195.026 158.487 194.151 159.132 193.507C159.776 192.862 160.651 192.5 161.562 192.5ZM130.625 192.5H140.938C141.849 192.5 142.724 192.862 143.368 193.507C144.013 194.151 144.375 195.026 144.375 195.938C144.375 196.849 144.013 197.724 143.368 198.368C142.724 199.013 141.849 199.375 140.938 199.375H130.625C129.713 199.375 128.839 199.013 128.194 198.368C127.55 197.724 127.188 196.849 127.188 195.938C127.188 195.026 127.55 194.151 128.194 193.507C128.839 192.862 129.713 192.5 130.625 192.5Z" fill="#5CFFF7"/>
<path d="M106.562 175.312H216.562V147.812H106.562V175.312ZM161.562 158.125H192.5C193.412 158.125 194.286 158.487 194.931 159.132C195.575 159.776 195.938 160.651 195.938 161.562C195.938 162.474 195.575 163.349 194.931 163.993C194.286 164.638 193.412 165 192.5 165H161.562C160.651 165 159.776 164.638 159.132 163.993C158.487 163.349 158.125 162.474 158.125 161.562C158.125 160.651 158.487 159.776 159.132 159.132C159.776 158.487 160.651 158.125 161.562 158.125ZM130.625 158.125H140.938C141.849 158.125 142.724 158.487 143.368 159.132C144.013 159.776 144.375 160.651 144.375 161.562C144.375 162.474 144.013 163.349 143.368 163.993C142.724 164.638 141.849 165 140.938 165H130.625C129.713 165 128.839 164.638 128.194 163.993C127.55 163.349 127.188 162.474 127.188 161.562C127.188 160.651 127.55 159.776 128.194 159.132C128.839 158.487 129.713 158.125 130.625 158.125Z" fill="#5CFFF7"/>
<path d="M20.625 27.5H27.3763C28.2879 27.5 29.1623 27.1378 29.8069 26.4932C30.4516 25.8485 30.8137 24.9742 30.8137 24.0625C30.8137 23.1508 30.4516 22.2765 29.8069 21.6318C29.1623 20.9872 28.2879 20.625 27.3763 20.625H20.625C19.7133 20.625 18.839 20.9872 18.1943 21.6318C17.5497 22.2765 17.1875 23.1508 17.1875 24.0625C17.1875 24.9742 17.5497 25.8485 18.1943 26.4932C18.839 27.1378 19.7133 27.5 20.625 27.5Z" fill="#4A38AE"/>
<path d="M27.3763 55H20.625C19.7133 55 18.839 55.3622 18.1943 56.0068C17.5497 56.6515 17.1875 57.5258 17.1875 58.4375C17.1875 59.3492 17.5497 60.2235 18.1943 60.8682C18.839 61.5128 19.7133 61.875 20.625 61.875H27.3763C28.2879 61.875 29.1623 61.5128 29.8069 60.8682C30.4516 60.2235 30.8137 59.3492 30.8137 58.4375C30.8137 57.5258 30.4516 56.6515 29.8069 56.0068C29.1623 55.3622 28.2879 55 27.3763 55Z" fill="#4A38AE"/>
<path d="M27.3763 89.375H20.625C19.7133 89.375 18.839 89.7372 18.1943 90.3818C17.5497 91.0265 17.1875 91.9008 17.1875 92.8125C17.1875 93.7242 17.5497 94.5985 18.1943 95.2432C18.839 95.8878 19.7133 96.25 20.625 96.25H27.3763C28.2879 96.25 29.1623 95.8878 29.8069 95.2432C30.4516 94.5985 30.8137 93.7242 30.8137 92.8125C30.8137 91.9008 30.4516 91.0265 29.8069 90.3818C29.1623 89.7372 28.2879 89.375 27.3763 89.375Z" fill="#4A38AE"/>
<path d="M165 3.4375H106.562C103.827 3.4375 101.204 4.52399 99.2705 6.45796C97.3365 8.39193 96.25 11.015 96.25 13.75V103.125C96.25 105.86 97.3365 108.483 99.2705 110.417C101.204 112.351 103.827 113.438 106.562 113.438H134.062V127.676C131.7 128.293 129.545 129.529 127.818 131.256C126.092 132.982 124.856 135.138 124.238 137.5H102.637C101.887 134.552 100.175 131.938 97.7738 130.071C95.3722 128.204 92.4169 127.191 89.375 127.191C86.3331 127.191 83.3778 128.204 80.9762 130.071C78.5746 131.938 76.8634 134.552 76.1131 137.5H57.9494C57.3317 135.138 56.096 132.982 54.3693 131.256C52.6427 129.529 50.4874 128.293 48.125 127.676V113.438H72.1875C74.9225 113.438 77.5456 112.351 79.4795 110.417C81.4135 108.483 82.5 105.86 82.5 103.125V13.75C82.5 11.015 81.4135 8.39193 79.4795 6.45796C77.5456 4.52399 74.9225 3.4375 72.1875 3.4375H13.75C11.015 3.4375 8.39193 4.52399 6.45796 6.45796C4.52399 8.39193 3.4375 11.015 3.4375 13.75V103.125C3.4375 105.86 4.52399 108.483 6.45796 110.417C8.39193 112.351 11.015 113.438 13.75 113.438H41.25V127.676C38.8876 128.293 36.7323 129.529 35.0057 131.256C33.279 132.982 32.0433 135.138 31.4256 137.5H6.875C5.96332 137.5 5.08898 137.862 4.44432 138.507C3.79966 139.151 3.4375 140.026 3.4375 140.938C3.4375 141.849 3.79966 142.724 4.44432 143.368C5.08898 144.013 5.96332 144.375 6.875 144.375H31.4256C32.1759 147.323 33.8871 149.937 36.2887 151.804C38.6903 153.671 41.6456 154.684 44.6875 154.684C47.7294 154.684 50.6847 153.671 53.0863 151.804C55.4879 149.937 57.1991 147.323 57.9494 144.375H76.1131C76.7308 146.737 77.9665 148.893 79.6932 150.619C81.4198 152.346 83.5751 153.582 85.9375 154.199V171.875C85.9375 172.787 86.2997 173.661 86.9443 174.306C87.589 174.95 88.4633 175.312 89.375 175.312C90.2867 175.312 91.161 174.95 91.8057 174.306C92.4503 173.661 92.8125 172.787 92.8125 171.875V154.199C95.1749 153.582 97.3302 152.346 99.0568 150.619C100.783 148.893 102.019 146.737 102.637 144.375H124.238C124.988 147.323 126.7 149.937 129.101 151.804C131.503 153.671 134.458 154.684 137.5 154.684C140.542 154.684 143.497 153.671 145.899 151.804C148.3 149.937 150.012 147.323 150.762 144.375H171.875C172.787 144.375 173.661 144.013 174.306 143.368C174.95 142.724 175.312 141.849 175.312 140.938C175.312 140.026 174.95 139.151 174.306 138.507C173.661 137.862 172.787 137.5 171.875 137.5H150.762C150.144 135.138 148.908 132.982 147.182 131.256C145.455 129.529 143.3 128.293 140.938 127.676V113.438H165C167.735 113.438 170.358 112.351 172.292 110.417C174.226 108.483 175.312 105.86 175.312 103.125V13.75C175.312 11.015 174.226 8.39193 172.292 6.45796C170.358 4.52399 167.735 3.4375 165 3.4375ZM10.3125 44.6875H75.625V72.1875H10.3125V44.6875ZM13.75 10.3125H72.1875C73.0992 10.3125 73.9735 10.6747 74.6182 11.3193C75.2628 11.964 75.625 12.8383 75.625 13.75V37.8125H10.3125V13.75C10.3125 12.8383 10.6747 11.964 11.3193 11.3193C11.964 10.6747 12.8383 10.3125 13.75 10.3125ZM10.3125 103.125V79.0625H75.625V103.125C75.625 104.037 75.2628 104.911 74.6182 105.556C73.9735 106.2 73.0992 106.562 72.1875 106.562H13.75C12.8383 106.562 11.964 106.2 11.3193 105.556C10.6747 104.911 10.3125 104.037 10.3125 103.125ZM44.6875 147.812C43.3278 147.812 41.9985 147.409 40.868 146.654C39.7374 145.898 38.8562 144.825 38.3358 143.568C37.8155 142.312 37.6793 140.93 37.9446 139.596C38.2099 138.263 38.8647 137.038 39.8261 136.076C40.7876 135.115 42.0126 134.46 43.3463 134.195C44.6799 133.929 46.0622 134.065 47.3184 134.586C48.5747 135.106 49.6484 135.987 50.4039 137.118C51.1593 138.249 51.5625 139.578 51.5625 140.938C51.5625 142.761 50.8382 144.51 49.5489 145.799C48.2595 147.088 46.5109 147.812 44.6875 147.812ZM89.375 147.812C88.0153 147.812 86.686 147.409 85.5555 146.654C84.4249 145.898 83.5437 144.825 83.0233 143.568C82.503 142.312 82.3668 140.93 82.6321 139.596C82.8974 138.263 83.5522 137.038 84.5136 136.076C85.4751 135.115 86.7001 134.46 88.0338 134.195C89.3674 133.929 90.7497 134.065 92.006 134.586C93.2622 135.106 94.3359 135.987 95.0914 137.118C95.8468 138.249 96.25 139.578 96.25 140.938C96.25 142.761 95.5257 144.51 94.2364 145.799C92.947 147.088 91.1984 147.812 89.375 147.812ZM144.375 140.938C144.375 142.297 143.972 143.626 143.216 144.757C142.461 145.888 141.387 146.769 140.131 147.289C138.875 147.81 137.492 147.946 136.159 147.68C134.825 147.415 133.6 146.76 132.639 145.799C131.677 144.837 131.022 143.612 130.757 142.279C130.492 140.945 130.628 139.563 131.148 138.307C131.669 137.05 132.55 135.977 133.68 135.221C134.811 134.466 136.14 134.062 137.5 134.062C139.323 134.062 141.072 134.787 142.361 136.076C143.651 137.365 144.375 139.114 144.375 140.938ZM103.125 44.6875H168.438V72.1875H103.125V44.6875ZM106.562 10.3125H165C165.912 10.3125 166.786 10.6747 167.431 11.3193C168.075 11.964 168.438 12.8383 168.438 13.75V37.8125H103.125V13.75C103.125 12.8383 103.487 11.964 104.132 11.3193C104.776 10.6747 105.651 10.3125 106.562 10.3125ZM165 106.562H106.562C105.651 106.562 104.776 106.2 104.132 105.556C103.487 104.911 103.125 104.037 103.125 103.125V79.0625H168.438V103.125C168.438 104.037 168.075 104.911 167.431 105.556C166.786 106.2 165.912 106.562 165 106.562Z" fill="#4A38AE"/>
<path d="M113.437 27.5H120.189C121.1 27.5 121.975 27.1378 122.619 26.4932C123.264 25.8485 123.626 24.9742 123.626 24.0625C123.626 23.1508 123.264 22.2765 122.619 21.6318C121.975 20.9872 121.1 20.625 120.189 20.625H113.437C112.526 20.625 111.651 20.9872 111.007 21.6318C110.362 22.2765 110 23.1508 110 24.0625C110 24.9742 110.362 25.8485 111.007 26.4932C111.651 27.1378 112.526 27.5 113.437 27.5Z" fill="#4A38AE"/>
<path d="M120.189 55H113.437C112.526 55 111.651 55.3622 111.007 56.0068C110.362 56.6515 110 57.5258 110 58.4375C110 59.3492 110.362 60.2235 111.007 60.8682C111.651 61.5128 112.526 61.875 113.437 61.875H120.189C121.1 61.875 121.975 61.5128 122.619 60.8682C123.264 60.2235 123.626 59.3492 123.626 58.4375C123.626 57.5258 123.264 56.6515 122.619 56.0068C121.975 55.3622 121.1 55 120.189 55Z" fill="#4A38AE"/>
<path d="M120.189 89.375H113.437C112.526 89.375 111.651 89.7372 111.007 90.3818C110.362 91.0265 110 91.9008 110 92.8125C110 93.7242 110.362 94.5985 111.007 95.2432C111.651 95.8878 112.526 96.25 113.437 96.25H120.189C121.1 96.25 121.975 95.8878 122.619 95.2432C123.264 94.5985 123.626 93.7242 123.626 92.8125C123.626 91.9008 123.264 91.0265 122.619 90.3818C121.975 89.7372 121.1 89.375 120.189 89.375Z" fill="#4A38AE"/>
</svg>
