<svg width="220" height="220" viewBox="0 0 220 220" fill="none" xmlns="http://www.w3.org/2000/svg">
<path d="M171.875 141.213V160.796L189.062 150.975V131.392L171.875 141.213Z" fill="#5CFFF7"/>
<path d="M185.571 125.469L168.438 115.679L151.306 125.469L168.438 135.259L185.571 125.469Z" fill="#5CFFF7"/>
<path d="M165 141.213L147.812 131.392V150.975L165 160.796V141.213Z" fill="#5CFFF7"/>
<path d="M216.562 84.2188C216.562 78.7487 214.39 73.5026 210.522 69.6347C206.654 65.7667 201.408 63.5938 195.938 63.5938H140.938C135.467 63.5938 130.221 65.7667 126.353 69.6347C122.485 73.5026 120.313 78.7487 120.312 84.2188H216.562Z" fill="#5CFFF7"/>
<path d="M120.312 194.219C120.313 199.689 122.485 204.935 126.353 208.803C130.221 212.671 135.467 214.844 140.938 214.844H195.938C201.408 214.844 206.654 212.671 210.522 208.803C214.39 204.935 216.562 199.689 216.562 194.219H120.312Z" fill="#5CFFF7"/>
<path d="M216.562 91.0938H120.312V187.344H216.562V91.0938ZM194.219 155.952L170.156 169.702C169.637 169.999 169.049 170.155 168.451 170.155C167.853 170.155 167.266 169.999 166.746 169.702L142.684 155.952C142.155 155.654 141.715 155.22 141.408 154.696C141.101 154.172 140.939 153.576 140.938 152.969V125.469C140.946 124.866 141.108 124.276 141.409 123.753C141.71 123.231 142.139 122.794 142.656 122.485L166.719 108.735C167.238 108.438 167.826 108.282 168.424 108.282C169.022 108.282 169.609 108.438 170.129 108.735L194.191 122.485C194.707 122.796 195.135 123.233 195.436 123.755C195.736 124.277 195.899 124.867 195.91 125.469V152.969C195.914 153.571 195.76 154.163 195.463 154.687C195.166 155.21 194.737 155.647 194.219 155.952Z" fill="#5CFFF7"/>
<path d="M169.613 44.055L93.988 6.2425C92.57 5.53443 91.0079 5.16272 89.423 5.15625H89.3748H89.3267C87.7423 5.16059 86.1803 5.52993 84.7617 6.23563L9.13672 44.0481C7.41852 44.9004 5.97368 46.2173 4.96624 47.8494C3.95881 49.4815 3.42913 51.3633 3.43735 53.2812V127.284C3.43106 129.2 3.96165 131.08 4.96897 132.71C5.9763 134.34 7.4201 135.655 9.13672 136.507L84.7617 174.319C86.1772 175.023 87.7355 175.393 89.3164 175.398H89.3748C89.3748 175.398 89.4127 175.398 89.4333 175.398C91.0137 175.392 92.5717 175.024 93.988 174.323L169.613 136.51C171.33 135.658 172.774 134.342 173.782 132.712C174.789 131.081 175.319 129.201 175.312 127.284V53.2812C175.319 51.3645 174.789 49.4841 173.782 47.8534C172.774 46.2226 171.33 44.9068 169.613 44.055ZM86.178 13.2241C86.4157 13.8812 86.8502 14.449 87.4222 14.8504C87.9942 15.2518 88.6761 15.4671 89.3748 15.4671C90.0736 15.4671 90.7555 15.2518 91.3275 14.8504C91.8995 14.449 92.334 13.8812 92.5717 13.2241L164.189 49.0325L92.2142 85.0197C91.9209 84.5283 91.505 84.1215 91.0073 83.839C90.5096 83.5564 89.9471 83.4079 89.3748 83.4079C88.8026 83.4079 88.2401 83.5564 87.7424 83.839C87.2447 84.1215 86.8288 84.5283 86.5355 85.0197L14.5611 49.0325L86.178 13.2241ZM13.9183 131.209C14.2819 130.647 14.4683 129.989 14.4531 129.32C14.4379 128.651 14.2219 128.002 13.8331 127.457C13.4443 126.912 12.9007 126.497 12.2729 126.265C11.645 126.033 10.962 125.995 10.3124 126.156V54.5944L83.012 90.9425C82.8728 91.4158 82.8411 91.9143 82.9193 92.4015C82.9976 92.8886 83.1837 93.3521 83.4641 93.7581C83.7445 94.164 84.1121 94.5022 84.54 94.7477C84.968 94.9933 85.4454 95.1402 85.9373 95.1775V167.221L13.9183 131.209ZM92.8123 167.221V95.2188C93.3052 95.1769 93.7825 95.0261 94.21 94.7773C94.6375 94.5285 95.0044 94.188 95.2843 93.7802C95.5641 93.3724 95.75 92.9075 95.8284 92.4192C95.9068 91.9308 95.8758 91.4312 95.7377 90.9562L168.437 54.5944V126.156C167.788 125.995 167.105 126.033 166.477 126.265C165.849 126.497 165.305 126.912 164.917 127.457C164.528 128.002 164.312 128.651 164.297 129.32C164.281 129.989 164.468 130.647 164.831 131.209L92.8123 167.221Z" fill="#4A38AE"/>
<path d="M114.512 99L107.672 95.5625C106.856 95.1545 105.912 95.0872 105.047 95.3754C104.182 95.6635 103.467 96.2835 103.059 97.099C102.651 97.9145 102.583 98.8587 102.872 99.7238C103.16 100.589 103.78 101.304 104.595 101.712L111.439 105.15C111.844 105.356 112.285 105.48 112.737 105.514C113.189 105.549 113.644 105.494 114.075 105.352C114.506 105.21 114.904 104.984 115.248 104.688C115.591 104.391 115.872 104.029 116.075 103.623C116.278 103.218 116.398 102.776 116.429 102.323C116.46 101.87 116.402 101.416 116.256 100.986C116.111 100.557 115.882 100.16 115.583 99.8188C115.284 99.4779 114.92 99.1996 114.512 99Z" fill="#4A38AE"/>
<path d="M135.043 109.271L128.199 105.834C127.383 105.426 126.439 105.36 125.573 105.648C124.708 105.937 123.993 106.558 123.586 107.374C123.178 108.19 123.112 109.134 123.4 109.999C123.689 110.864 124.31 111.579 125.126 111.987L131.966 115.407C132.443 115.643 132.968 115.767 133.5 115.768C134.274 115.769 135.026 115.508 135.633 115.028C136.241 114.548 136.669 113.877 136.848 113.124C137.026 112.37 136.945 111.578 136.618 110.877C136.29 110.175 135.735 109.604 135.043 109.257V109.271Z" fill="#4A38AE"/>
<path d="M155.567 119.532L148.726 116.095C147.911 115.687 146.967 115.62 146.101 115.908C145.236 116.196 144.521 116.816 144.113 117.631C143.705 118.447 143.638 119.391 143.926 120.256C144.214 121.121 144.834 121.837 145.65 122.244L152.494 125.682C153.31 126.09 154.254 126.156 155.119 125.867C155.548 125.724 155.944 125.498 156.285 125.202C156.626 124.906 156.905 124.546 157.107 124.142C157.309 123.738 157.429 123.298 157.461 122.848C157.492 122.397 157.435 121.945 157.292 121.516C157.149 121.088 156.923 120.692 156.627 120.351C156.331 120.01 155.971 119.731 155.567 119.529V119.532Z" fill="#4A38AE"/>
<path d="M50.5518 105.847L43.7077 109.285C43.304 109.487 42.9439 109.766 42.6481 110.108C42.3524 110.449 42.1267 110.845 41.9841 111.273C41.8414 111.702 41.7845 112.154 41.8166 112.604C41.8487 113.055 41.9692 113.494 42.1712 113.898C42.3732 114.302 42.6528 114.662 42.9939 114.958C43.3351 115.253 43.7311 115.479 44.1595 115.622C44.5879 115.764 45.0402 115.821 45.4905 115.789C45.9409 115.757 46.3805 115.637 46.7843 115.435L53.6249 112.014C54.0289 111.812 54.3893 111.533 54.6853 111.192C54.9814 110.851 55.2073 110.455 55.3503 110.027C55.4933 109.598 55.5506 109.146 55.5188 108.695C55.4869 108.245 55.3667 107.805 55.1649 107.401C54.9631 106.997 54.6838 106.637 54.3427 106.341C54.0017 106.045 53.6057 105.819 53.1773 105.676C52.3122 105.387 51.3678 105.454 50.5518 105.861V105.847Z" fill="#4A38AE"/>
<path d="M71.0765 95.5864L64.2359 99.0239C63.5439 99.3707 62.9892 99.941 62.6616 100.642C62.334 101.344 62.2528 102.135 62.4309 102.888C62.6091 103.642 63.0363 104.313 63.6434 104.793C64.2504 105.273 65.0018 105.534 65.7759 105.535C66.3081 105.536 66.8333 105.412 67.309 105.174L74.1531 101.736C74.5569 101.534 74.9169 101.255 75.2127 100.913C75.5084 100.572 75.7341 100.176 75.8768 99.7478C76.0194 99.3194 76.0764 98.8671 76.0443 98.4168C76.0122 97.9664 75.8916 97.5268 75.6896 97.123C75.4876 96.7192 75.2081 96.3591 74.8669 96.0634C74.5257 95.7676 74.1297 95.542 73.7013 95.3993C73.2729 95.2566 72.8207 95.1997 72.3703 95.2318C71.9199 95.2639 71.4803 95.3844 71.0765 95.5864Z" fill="#4A38AE"/>
<path d="M30.0221 116.112L23.1815 119.549C22.4894 119.896 21.9347 120.467 21.6072 121.168C21.2796 121.869 21.1983 122.661 21.3765 123.414C21.5547 124.167 21.9819 124.838 22.5889 125.318C23.196 125.799 23.9474 126.06 24.7215 126.06C25.2523 126.067 25.7774 125.949 26.2546 125.716L33.0986 122.279C33.9141 121.871 34.5342 121.156 34.8223 120.29C35.1105 119.425 35.0432 118.481 34.6352 117.666C34.2272 116.85 33.512 116.23 32.6469 115.942C31.7817 115.654 30.8376 115.721 30.0221 116.129V116.112Z" fill="#4A38AE"/>
<path d="M89.375 76.6802C90.2867 76.6802 91.161 76.3181 91.8057 75.6734C92.4503 75.0288 92.8125 74.1544 92.8125 73.2427V66.4399C92.8125 65.5282 92.4503 64.6539 91.8057 64.0092C91.161 63.3646 90.2867 63.0024 89.375 63.0024C88.4633 63.0024 87.589 63.3646 86.9443 64.0092C86.2997 64.6539 85.9375 65.5282 85.9375 66.4399V73.2427C85.9375 74.1544 86.2997 75.0288 86.9443 75.6734C87.589 76.3181 88.4633 76.6802 89.375 76.6802Z" fill="#4A38AE"/>
<path d="M89.375 56.2752C90.2867 56.2752 91.161 55.913 91.8057 55.2684C92.4503 54.6237 92.8125 53.7494 92.8125 52.8377V46.0383C92.8125 45.1266 92.4503 44.2523 91.8057 43.6077C91.161 42.963 90.2867 42.6008 89.375 42.6008C88.4633 42.6008 87.589 42.963 86.9443 43.6077C86.2997 44.2523 85.9375 45.1266 85.9375 46.0383V52.8377C85.9375 53.7494 86.2997 54.6237 86.9443 55.2684C87.589 55.913 88.4633 56.2752 89.375 56.2752Z" fill="#4A38AE"/>
<path d="M89.375 35.8738C90.2867 35.8738 91.161 35.5117 91.8057 34.867C92.4503 34.2224 92.8125 33.348 92.8125 32.4363V25.6335C92.8125 24.7218 92.4503 23.8475 91.8057 23.2028C91.161 22.5582 90.2867 22.196 89.375 22.196C88.4633 22.196 87.589 22.5582 86.9443 23.2028C86.2997 23.8475 85.9375 24.7218 85.9375 25.6335V32.4363C85.9375 33.348 86.2997 34.2224 86.9443 34.867C87.589 35.5117 88.4633 35.8738 89.375 35.8738Z" fill="#4A38AE"/>
</svg>
