<svg width="220" height="220" viewBox="0 0 220 220" fill="none" xmlns="http://www.w3.org/2000/svg">
<path d="M127.188 177.031H96.25C94.3515 177.031 92.8125 178.57 92.8125 180.469V187.344C92.8125 189.242 94.3515 190.781 96.25 190.781H127.188C129.086 190.781 130.625 189.242 130.625 187.344V180.469C130.625 178.57 129.086 177.031 127.188 177.031Z" fill="#5CFFF7"/>
<path d="M65.3125 104.844V204.531C65.3125 207.266 66.399 209.889 68.333 211.823C70.2669 213.757 72.89 214.844 75.625 214.844H206.25C208.985 214.844 211.608 213.757 213.542 211.823C215.476 209.889 216.562 207.266 216.562 204.531V104.844H65.3125ZM137.5 187.344C137.5 190.079 136.414 192.702 134.48 194.636C132.546 196.57 129.923 197.656 127.188 197.656H96.25C93.515 197.656 90.8919 196.57 88.958 194.636C87.024 192.702 85.9375 190.079 85.9375 187.344V180.469C85.9375 177.734 87.024 175.111 88.958 173.177C90.8919 171.243 93.515 170.156 96.25 170.156H127.188C129.923 170.156 132.546 171.243 134.48 173.177C136.414 175.111 137.5 177.734 137.5 180.469V187.344ZM137.5 152.969C137.5 155.704 136.414 158.327 134.48 160.261C132.546 162.195 129.923 163.281 127.188 163.281H96.25C93.515 163.281 90.8919 162.195 88.958 160.261C87.024 158.327 85.9375 155.704 85.9375 152.969V135.781C85.9375 133.046 87.024 130.423 88.958 128.489C90.8919 126.555 93.515 125.469 96.25 125.469H127.188C129.923 125.469 132.546 126.555 134.48 128.489C136.414 130.423 137.5 133.046 137.5 135.781V152.969ZM195.938 187.344C195.938 190.079 194.851 192.702 192.917 194.636C190.983 196.57 188.36 197.656 185.625 197.656H154.688C151.952 197.656 149.329 196.57 147.395 194.636C145.461 192.702 144.375 190.079 144.375 187.344V135.781C144.375 133.046 145.461 130.423 147.395 128.489C149.329 126.555 151.952 125.469 154.688 125.469H185.625C188.36 125.469 190.983 126.555 192.917 128.489C194.851 130.423 195.938 133.046 195.938 135.781V187.344Z" fill="#5CFFF7"/>
<path d="M127.188 132.344H96.25C94.3515 132.344 92.8125 133.883 92.8125 135.781V152.969C92.8125 154.867 94.3515 156.406 96.25 156.406H127.188C129.086 156.406 130.625 154.867 130.625 152.969V135.781C130.625 133.883 129.086 132.344 127.188 132.344Z" fill="#5CFFF7"/>
<path d="M216.562 97.9688V73.9062C216.562 71.1712 215.476 68.5482 213.542 66.6142C211.608 64.6802 208.985 63.5938 206.25 63.5938H75.625C72.89 63.5938 70.2669 64.6802 68.333 66.6142C66.399 68.5482 65.3125 71.1712 65.3125 73.9062V97.9688H216.562ZM127.188 77.3438H134.062C134.974 77.3438 135.849 77.7059 136.493 78.3506C137.138 78.9952 137.5 79.8696 137.5 80.7812C137.5 81.6929 137.138 82.5673 136.493 83.2119C135.849 83.8566 134.974 84.2188 134.062 84.2188H127.188C126.276 84.2188 125.401 83.8566 124.757 83.2119C124.112 82.5673 123.75 81.6929 123.75 80.7812C123.75 79.8696 124.112 78.9952 124.757 78.3506C125.401 77.7059 126.276 77.3438 127.188 77.3438ZM106.562 77.3438H113.438C114.349 77.3438 115.224 77.7059 115.868 78.3506C116.513 78.9952 116.875 79.8696 116.875 80.7812C116.875 81.6929 116.513 82.5673 115.868 83.2119C115.224 83.8566 114.349 84.2188 113.438 84.2188H106.562C105.651 84.2188 104.776 83.8566 104.132 83.2119C103.487 82.5673 103.125 81.6929 103.125 80.7812C103.125 79.8696 103.487 78.9952 104.132 78.3506C104.776 77.7059 105.651 77.3438 106.562 77.3438ZM85.9375 77.3438H92.8125C93.7242 77.3438 94.5985 77.7059 95.2432 78.3506C95.8878 78.9952 96.25 79.8696 96.25 80.7812C96.25 81.6929 95.8878 82.5673 95.2432 83.2119C94.5985 83.8566 93.7242 84.2188 92.8125 84.2188H85.9375C85.0258 84.2188 84.1515 83.8566 83.5068 83.2119C82.8622 82.5673 82.5 81.6929 82.5 80.7812C82.5 79.8696 82.8622 78.9952 83.5068 78.3506C84.1515 77.7059 85.0258 77.3438 85.9375 77.3438Z" fill="#5CFFF7"/>
<path d="M185.625 132.344H154.688C152.789 132.344 151.25 133.883 151.25 135.781V187.344C151.25 189.242 152.789 190.781 154.688 190.781H185.625C187.523 190.781 189.062 189.242 189.062 187.344V135.781C189.062 133.883 187.523 132.344 185.625 132.344Z" fill="#5CFFF7"/>
<path d="M163.01 42.0647L92.8125 6.96436C90.4246 5.7758 87.7936 5.15722 85.1263 5.15722C82.4589 5.15722 79.8279 5.7758 77.44 6.96436L7.2394 42.0647C6.09716 42.6356 5.13648 43.5133 4.46506 44.5995C3.79363 45.6857 3.43799 46.9374 3.43799 48.2144C3.43799 49.4913 3.79363 50.743 4.46506 51.8292C5.13648 52.9154 6.09716 53.7932 7.2394 54.364L25.8775 63.6831L7.2394 73.0022C6.09716 73.5731 5.13648 74.4508 4.46506 75.537C3.79363 76.6232 3.43799 77.8749 3.43799 79.1519C3.43799 80.4288 3.79363 81.6805 4.46506 82.7667C5.13648 83.8529 6.09716 84.7307 7.2394 85.3016L25.8775 94.6206L7.2394 103.94C6.09716 104.511 5.13648 105.388 4.46506 106.474C3.79363 107.561 3.43799 108.812 3.43799 110.089C3.43799 111.366 3.79363 112.618 4.46506 113.704C5.13648 114.79 6.09716 115.668 7.2394 116.239L77.4366 151.339C79.8247 152.527 82.4556 153.145 85.1228 153.145C87.79 153.145 90.421 152.527 92.8091 151.339L163.006 116.239C164.148 115.668 165.109 114.79 165.781 113.704C166.452 112.618 166.808 111.366 166.808 110.089C166.808 108.812 166.452 107.561 165.781 106.474C165.109 105.388 164.148 104.511 163.006 103.94L144.375 94.6206L163.01 85.3016C164.152 84.7307 165.113 83.8529 165.784 82.7667C166.455 81.6805 166.811 80.4288 166.811 79.1519C166.811 77.8749 166.455 76.6232 165.784 75.537C165.113 74.4508 164.152 73.5731 163.01 73.0022L144.375 63.6831L163.01 54.364C164.152 53.7932 165.113 52.9154 165.784 51.8292C166.455 50.743 166.811 49.4913 166.811 48.2144C166.811 46.9374 166.455 45.6857 165.784 44.5995C165.113 43.5133 164.152 42.6356 163.01 42.0647ZM159.937 110.089L89.736 145.19C88.3025 145.902 86.7235 146.273 85.1228 146.273C83.5221 146.273 81.9432 145.902 80.5097 145.19L10.3125 110.089L33.5638 98.4637L77.44 120.402C79.8281 121.59 82.4591 122.208 85.1263 122.208C87.7935 122.208 90.4244 121.59 92.8125 120.402L136.689 98.4637L159.937 110.089ZM159.937 79.1519L89.736 114.252C88.3025 114.964 86.7235 115.335 85.1228 115.335C83.5221 115.335 81.9432 114.964 80.5097 114.252L10.3125 79.1519L33.5638 67.5262L77.44 89.4644C79.8281 90.6521 82.4591 91.2703 85.1263 91.2703C87.7935 91.2703 90.4244 90.6521 92.8125 89.4644L136.689 67.5262L159.937 79.1519ZM89.736 83.3147C88.3029 84.0285 86.7238 84.4 85.1228 84.4C83.5219 84.4 81.9427 84.0285 80.5097 83.3147L10.3125 48.2144L80.5097 13.1141C81.943 12.401 83.522 12.03 85.1228 12.03C86.7237 12.03 88.3027 12.401 89.736 13.1141L159.937 48.2144L89.736 83.3147Z" fill="#4A38AE"/>
<path d="M78.9731 29.2531L53.3568 42.0647C52.2146 42.6356 51.2539 43.5133 50.5825 44.5995C49.9111 45.6857 49.5554 46.9374 49.5554 48.2144C49.5554 49.4913 49.9111 50.7431 50.5825 51.8293C51.2539 52.9155 52.2146 53.7932 53.3568 54.3641L78.9765 67.1756C80.8877 68.1245 82.9925 68.6182 85.1262 68.6182C87.2599 68.6182 89.3647 68.1245 91.2759 67.1756L116.875 54.3641C118.017 53.7932 118.978 52.9155 119.649 51.8293C120.321 50.7431 120.676 49.4913 120.676 48.2144C120.676 46.9374 120.321 45.6857 119.649 44.5995C118.978 43.5133 118.017 42.6356 116.875 42.0647L91.2725 29.2531C89.3615 28.3035 87.2566 27.8093 85.1228 27.8093C82.9889 27.8093 80.884 28.3035 78.9731 29.2531ZM113.819 48.2144L88.1993 61.0225C87.2451 61.5015 86.1922 61.7509 85.1245 61.7509C84.0568 61.7509 83.0039 61.5015 82.0496 61.0225L56.4059 48.2281H56.4231L82.0496 35.4063C83.0043 34.9289 84.0571 34.6803 85.1245 34.6803C86.1919 34.6803 87.2446 34.9289 88.1993 35.4063L113.819 48.2144Z" fill="#4A38AE"/>
</svg>
