<svg width="739" height="587" viewBox="0 0 739 587" fill="none" xmlns="http://www.w3.org/2000/svg">
<path d="M316.866 166.478L317.325 165.786L237.17 119.188H236.94L154.259 164.863L154.718 165.324L237.17 119.881L316.866 166.478Z" fill="#40F3EB"/>
<g opacity="0.1">
<g opacity="0.1">
<path opacity="0.1" d="M399.549 388.852L434.229 368.783V408.921L399.549 428.99L364.868 408.921V368.783L399.549 388.852Z" fill="#40F3EB"/>
<path opacity="0.1" d="M399.549 428.99L434.229 408.921V368.783L399.549 388.852V428.99Z" fill="#40F3EB"/>
<path opacity="0.1" d="M364.869 408.921L399.549 428.99V388.852L364.869 368.783V408.921Z" fill="#A9FFFB"/>
<path opacity="0.1" d="M399.549 388.852L434.229 368.783L399.549 348.714L364.868 368.783L399.549 388.852Z" fill="#40F3EB"/>
<path opacity="0.1" d="M399.549 388.852L432.621 369.475L434.229 370.398L399.549 390.467L364.868 370.398L366.476 369.475L399.549 388.852Z" fill="white"/>
</g>
<g opacity="0.1">
<path opacity="0.1" d="M354.532 414.457L389.213 394.388V434.527L354.532 454.596L320.082 434.527V394.388L354.532 414.457Z" fill="#40F3EB"/>
<path opacity="0.1" d="M354.532 454.596L389.213 434.527V394.388L354.532 414.457V454.596Z" fill="#40F3EB"/>
<path opacity="0.1" d="M320.082 434.527L354.533 454.596V414.457L320.082 394.388V434.527Z" fill="#A9FFFB"/>
<path opacity="0.1" d="M354.532 414.458L389.213 394.389L354.532 374.32L320.082 394.389L354.532 414.458Z" fill="#40F3EB"/>
<path opacity="0.1" d="M354.532 414.458L387.605 395.311L389.213 396.234L354.532 416.303L320.082 396.234L321.46 395.311L354.532 414.458Z" fill="white"/>
</g>
<g opacity="0.1">
<path opacity="0.1" d="M309.747 440.294L344.198 420.225V460.363L309.747 480.432L275.067 460.363V420.225L309.747 440.294Z" fill="#40F3EB"/>
<path opacity="0.1" d="M309.747 480.432L344.198 460.363V420.225L309.747 440.294V480.432Z" fill="#40F3EB"/>
<path opacity="0.1" d="M275.067 460.363L309.747 480.432V440.294L275.067 420.225V460.363Z" fill="#A9FFFB"/>
<path opacity="0.1" d="M309.747 440.294L344.198 420.225L309.747 400.156L275.067 420.225L309.747 440.294Z" fill="#40F3EB"/>
<path opacity="0.1" d="M309.747 440.294L342.819 421.147L344.198 421.839L309.747 441.909L275.067 422.07V420.225L309.747 440.294Z" fill="white"/>
</g>
<g opacity="0.1">
<path opacity="0.1" d="M444.564 416.303L479.015 396.234V436.372L444.564 456.441L409.884 436.372V396.234L444.564 416.303Z" fill="#40F3EB"/>
<path opacity="0.1" d="M444.564 456.441L479.015 436.372V396.234L444.564 416.303V456.441Z" fill="#40F3EB"/>
<path opacity="0.1" d="M409.884 436.372L444.564 456.441V416.303L409.884 396.234V436.372Z" fill="#A9FFFB"/>
<path opacity="0.1" d="M444.564 416.303L479.015 396.234L444.564 376.165L409.884 396.234L444.564 416.303Z" fill="#40F3EB"/>
<path opacity="0.1" d="M444.564 416.303L477.637 397.156L479.015 397.849L444.564 417.918L409.884 397.849L411.491 397.156L444.564 416.303Z" fill="white"/>
</g>
<g opacity="0.1">
<path opacity="0.1" d="M399.549 441.908L434.229 422.07V461.978L399.549 482.047L364.868 461.978V422.07L399.549 441.908Z" fill="#40F3EB"/>
<path opacity="0.1" d="M399.549 482.047L434.229 461.978V422.07L399.549 441.908V482.047Z" fill="#40F3EB"/>
<path opacity="0.1" d="M364.869 461.978L399.549 482.047V441.908L364.869 422.07V461.978Z" fill="#A9FFFB"/>
<path opacity="0.1" d="M399.549 441.908L434.229 422.07L399.549 402.001L364.868 422.07L399.549 441.908Z" fill="#40F3EB"/>
<path opacity="0.1" d="M399.549 441.909L432.621 422.762L434.229 423.685L399.549 443.754L364.868 423.685L366.476 422.762L399.549 441.909Z" fill="white"/>
</g>
<g opacity="0.1">
<path opacity="0.1" d="M354.532 467.744L389.213 447.675V487.813L354.532 507.883L320.082 487.813V447.675L354.532 467.744Z" fill="#40F3EB"/>
<path opacity="0.1" d="M354.532 507.883L389.213 487.813V447.675L354.532 467.744V507.883Z" fill="#40F3EB"/>
<path opacity="0.1" d="M320.082 487.813L354.533 507.883V467.744L320.082 447.675V487.813Z" fill="#A9FFFB"/>
<path opacity="0.1" d="M354.532 467.744L389.213 447.675L354.532 427.606L320.082 447.675L354.532 467.744Z" fill="#40F3EB"/>
<path opacity="0.1" d="M354.532 467.744L387.605 448.598L389.213 449.521L354.532 469.59L320.082 449.521V447.675L354.532 467.744Z" fill="white"/>
</g>
<g opacity="0.1">
<path opacity="0.1" d="M489.349 443.754L524.03 423.685V463.823L489.349 483.892L454.899 463.823V423.685L489.349 443.754Z" fill="#40F3EB"/>
<path opacity="0.1" d="M489.349 483.892L524.03 463.823V423.685L489.349 443.754V483.892Z" fill="#40F3EB"/>
<path opacity="0.1" d="M454.899 463.823L489.35 483.892V443.754L454.899 423.685V463.823Z" fill="#A9FFFB"/>
<path opacity="0.1" d="M489.349 443.754L524.03 423.685L489.349 403.616L454.899 423.685L489.349 443.754Z" fill="#40F3EB"/>
<path opacity="0.1" d="M489.349 443.754L524.03 423.685V425.53L489.349 445.599L454.899 425.53L456.277 424.608L489.349 443.754Z" fill="white"/>
</g>
<g opacity="0.1">
<path opacity="0.1" d="M444.564 469.59L479.015 449.521V489.659L444.564 509.728L409.884 489.659V449.521L444.564 469.59Z" fill="#40F3EB"/>
<path opacity="0.1" d="M444.564 509.728L479.015 489.659V449.521L444.564 469.59V509.728Z" fill="#40F3EB"/>
<path opacity="0.1" d="M409.884 489.659L444.564 509.728V469.59L409.884 449.521V489.659Z" fill="#A9FFFB"/>
<path opacity="0.1" d="M444.564 469.59L479.015 449.521L444.564 429.452L409.884 449.521L444.564 469.59Z" fill="#40F3EB"/>
<path opacity="0.1" d="M444.564 469.59L479.015 449.521V451.135L444.564 471.204L409.884 451.135L411.491 450.213L444.564 469.59Z" fill="white"/>
</g>
<g opacity="0.1">
<path opacity="0.1" d="M399.549 495.195L434.229 475.126V515.264L399.549 535.333L364.868 515.264V475.126L399.549 495.195Z" fill="#40F3EB"/>
<path opacity="0.1" d="M399.549 535.333L434.229 515.264V475.126L399.549 495.195V535.333Z" fill="#40F3EB"/>
<path opacity="0.1" d="M364.869 515.264L399.549 535.333V495.195L364.869 475.126V515.264Z" fill="#A9FFFB"/>
<path opacity="0.1" d="M399.549 495.195L434.229 475.126L399.549 455.057L364.868 475.126L399.549 495.195Z" fill="#40F3EB"/>
<path opacity="0.1" d="M399.549 495.195L434.229 475.126V476.972L399.549 497.041L364.868 476.972V475.126L399.549 495.195Z" fill="white"/>
</g>
<g opacity="0.1">
<path opacity="0.1" d="M399.549 335.565L434.229 315.496V355.634L399.549 375.704L364.868 355.634V315.496L399.549 335.565Z" fill="#40F3EB"/>
<path opacity="0.1" d="M399.549 375.704L434.229 355.634V315.496L399.549 335.565V375.704Z" fill="#40F3EB"/>
<path opacity="0.1" d="M364.869 355.634L399.549 375.704V335.565L364.869 315.496V355.634Z" fill="#A9FFFB"/>
<path opacity="0.1" d="M399.549 335.565L434.229 315.496L399.549 295.427L364.868 315.496L399.549 335.565Z" fill="#40F3EB"/>
<path opacity="0.1" d="M399.549 335.565L432.621 316.188L434.229 317.111L399.549 337.18L364.868 317.111L366.476 316.188L399.549 335.565Z" fill="white"/>
</g>
<g opacity="0.1">
<path opacity="0.7" d="M399.549 488.736L423.205 475.126L399.549 461.285L375.893 475.126L399.549 488.736Z" fill="#0BC6D2"/>
<path opacity="0.7" d="M444.565 462.9L467.991 449.29L444.565 435.68L420.909 449.29L444.565 462.9Z" fill="#0BC6D2"/>
<path opacity="0.7" d="M354.533 461.285L378.189 447.445L354.533 433.835L330.877 447.445L354.533 461.285Z" fill="#0BC6D2"/>
<path opacity="0.7" d="M309.517 434.065L333.174 420.455L309.517 406.615L285.861 420.455L309.517 434.065Z" fill="#0BC6D2"/>
<path opacity="0.7" d="M489.35 437.295L513.006 423.454L489.35 409.844L465.923 423.454L489.35 437.295Z" fill="#0BC6D2"/>
</g>
<g opacity="0.1">
<path opacity="0.1" d="M354.532 361.17L389.213 341.101V381.239L354.532 401.309L320.082 381.239V341.101L354.532 361.17Z" fill="#40F3EB"/>
<path opacity="0.1" d="M354.532 401.309L389.213 381.239V341.101L354.532 361.17V401.309Z" fill="#40F3EB"/>
<path opacity="0.1" d="M320.082 381.239L354.533 401.309V361.17L320.082 341.101V381.239Z" fill="#A9FFFB"/>
<path opacity="0.1" d="M354.532 361.171L389.213 341.102L354.532 321.032L320.082 341.102L354.532 361.171Z" fill="#40F3EB"/>
<path opacity="0.1" d="M354.532 361.171L387.605 342.024L389.213 342.947L354.532 363.016L320.082 342.947L321.46 342.024L354.532 361.171Z" fill="white"/>
</g>
<g opacity="0.1">
<path opacity="0.1" d="M309.747 387.007L344.198 366.938V407.076L309.747 427.145L275.067 407.076V366.938L309.747 387.007Z" fill="#40F3EB"/>
<path opacity="0.1" d="M309.747 427.145L344.198 407.076V366.938L309.747 387.007V427.145Z" fill="#40F3EB"/>
<path opacity="0.1" d="M275.067 407.076L309.747 427.145V387.007L275.067 366.938V407.076Z" fill="#A9FFFB"/>
<path opacity="0.1" d="M309.747 387.007L344.198 366.938L309.747 346.869L275.067 366.938L309.747 387.007Z" fill="#40F3EB"/>
<path opacity="0.1" d="M309.747 387.007L342.819 367.86L344.198 368.783L309.747 388.852L275.067 368.783V366.938L309.747 387.007Z" fill="white"/>
</g>
<g opacity="0.1">
<path opacity="0.1" d="M444.564 363.016L479.015 342.947V383.085L444.564 403.154L409.884 383.085V342.947L444.564 363.016Z" fill="#40F3EB"/>
<path opacity="0.1" d="M444.564 403.154L479.015 383.085V342.947L444.564 363.016V403.154Z" fill="#40F3EB"/>
<path opacity="0.1" d="M409.884 383.085L444.564 403.154V363.016L409.884 342.947V383.085Z" fill="#A9FFFB"/>
<path opacity="0.1" d="M444.564 363.016L479.015 342.947L444.564 322.878L409.884 342.947L444.564 363.016Z" fill="#40F3EB"/>
<path opacity="0.1" d="M444.564 363.016L477.637 343.87L479.015 344.562L444.564 364.631L409.884 344.562L411.491 343.87L444.564 363.016Z" fill="white"/>
</g>
<g opacity="0.1">
<path opacity="0.1" d="M399.549 388.852L434.229 368.783V408.921L399.549 428.99L364.868 408.921V368.783L399.549 388.852Z" fill="#40F3EB"/>
<path opacity="0.1" d="M399.549 428.99L434.229 408.921V368.783L399.549 388.852V428.99Z" fill="#40F3EB"/>
<path opacity="0.1" d="M364.869 408.921L399.549 428.99V388.852L364.869 368.783V408.921Z" fill="#A9FFFB"/>
<path opacity="0.1" d="M399.549 388.852L434.229 368.783L399.549 348.714L364.868 368.783L399.549 388.852Z" fill="#40F3EB"/>
<path opacity="0.1" d="M399.549 388.852L432.621 369.475L434.229 370.398L399.549 390.467L364.868 370.398L366.476 369.475L399.549 388.852Z" fill="white"/>
</g>
<g opacity="0.1">
<path opacity="0.1" d="M354.532 414.457L389.213 394.388V434.527L354.532 454.596L320.082 434.527V394.388L354.532 414.457Z" fill="#40F3EB"/>
<path opacity="0.1" d="M354.532 454.596L389.213 434.527V394.388L354.532 414.457V454.596Z" fill="#40F3EB"/>
<path opacity="0.1" d="M320.082 434.527L354.533 454.596V414.457L320.082 394.388V434.527Z" fill="#A9FFFB"/>
<path opacity="0.1" d="M354.532 414.458L389.213 394.389L354.532 374.32L320.082 394.389L354.532 414.458Z" fill="#40F3EB"/>
<path opacity="0.1" d="M354.532 414.458L387.605 395.311L389.213 396.234L354.532 416.303L320.082 396.234V394.388L354.532 414.458Z" fill="white"/>
</g>
<g opacity="0.1">
<path opacity="0.1" d="M489.349 390.467L524.03 370.398V410.536L489.349 430.605L454.899 410.536V370.398L489.349 390.467Z" fill="#40F3EB"/>
<path opacity="0.1" d="M489.349 430.605L524.03 410.536V370.398L489.349 390.467V430.605Z" fill="#40F3EB"/>
<path opacity="0.1" d="M454.899 410.536L489.35 430.605V390.467L454.899 370.398V410.536Z" fill="#A9FFFB"/>
<path opacity="0.1" d="M489.349 390.467L524.03 370.398L489.349 350.329L454.899 370.398L489.349 390.467Z" fill="#40F3EB"/>
<path opacity="0.1" d="M489.349 390.467L522.652 371.321L524.03 372.243L489.349 392.312L454.899 372.243L456.277 371.321L489.349 390.467Z" fill="white"/>
</g>
<g opacity="0.1">
<path opacity="0.1" d="M444.564 416.303L479.015 396.234V436.372L444.564 456.441L409.884 436.372V396.234L444.564 416.303Z" fill="#40F3EB"/>
<path opacity="0.1" d="M444.564 456.441L479.015 436.372V396.234L444.564 416.303V456.441Z" fill="#40F3EB"/>
<path opacity="0.1" d="M409.884 436.372L444.564 456.441V416.303L409.884 396.234V436.372Z" fill="#A9FFFB"/>
<path opacity="0.1" d="M444.564 416.303L479.015 396.234L444.564 376.165L409.884 396.234L444.564 416.303Z" fill="#40F3EB"/>
<path opacity="0.1" d="M444.564 416.303L479.015 396.234V397.849L444.564 417.918L409.884 397.849L411.491 397.157L444.564 416.303Z" fill="white"/>
</g>
<g opacity="0.1">
<path opacity="0.1" d="M399.549 441.908L434.229 422.07V461.978L399.549 482.047L364.868 461.978V422.07L399.549 441.908Z" fill="#40F3EB"/>
<path opacity="0.1" d="M399.549 482.047L434.229 461.978V422.07L399.549 441.908V482.047Z" fill="#40F3EB"/>
<path opacity="0.1" d="M364.869 461.978L399.549 482.047V441.908L364.869 422.07V461.978Z" fill="#A9FFFB"/>
<path opacity="0.1" d="M399.549 441.908L434.229 422.07L399.549 402.001L364.868 422.07L399.549 441.908Z" fill="#40F3EB"/>
<path opacity="0.1" d="M399.549 441.908L434.229 422.07V423.685L399.549 443.754L364.868 423.685V422.07L399.549 441.908Z" fill="white"/>
</g>
<g opacity="0.1">
<path opacity="0.7" d="M309.517 381.009L333.174 367.399L309.517 353.558L285.861 367.399L309.517 381.009Z" fill="#0BC6D2"/>
<path opacity="0.7" d="M489.35 384.239L513.006 370.398L489.35 356.788L465.923 370.398L489.35 384.239Z" fill="#0BC6D2"/>
</g>
<g opacity="0.1">
<path opacity="0.1" d="M399.549 282.279L434.229 262.209V302.348L399.549 322.417L364.868 302.348V262.209L399.549 282.279Z" fill="#40F3EB"/>
<path opacity="0.1" d="M399.549 322.417L434.229 302.348V262.209L399.549 282.279V322.417Z" fill="#40F3EB"/>
<path opacity="0.1" d="M364.869 302.348L399.549 322.417V282.279L364.869 262.209V302.348Z" fill="#A9FFFB"/>
<path opacity="0.1" d="M399.549 282.279L434.229 262.209L399.549 242.14L364.868 262.209L399.549 282.279Z" fill="#40F3EB"/>
<path opacity="0.1" d="M399.549 282.279L434.229 262.209V263.824L399.549 283.893L364.868 263.824V262.209L399.549 282.279Z" fill="white"/>
</g>
<g opacity="0.1">
<path opacity="0.1" d="M354.532 307.884L389.213 288.045V327.953L354.532 348.022L320.082 327.953V288.045L354.532 307.884Z" fill="#40F3EB"/>
<path opacity="0.1" d="M354.532 348.022L389.213 327.953V288.045L354.532 307.884V348.022Z" fill="#40F3EB"/>
<path opacity="0.1" d="M320.082 327.953L354.533 348.022V307.884L320.082 288.045V327.953Z" fill="#A9FFFB"/>
<path opacity="0.1" d="M354.532 307.884L389.213 288.045L354.532 267.976L320.082 288.045L354.532 307.884Z" fill="#40F3EB"/>
<path opacity="0.1" d="M354.532 307.884L389.213 288.045V289.66L354.532 309.729L320.082 289.66V288.045L354.532 307.884Z" fill="white"/>
</g>
<g opacity="0.1">
<path opacity="0.1" d="M309.747 333.72L344.198 313.651V353.789L309.747 373.858L275.067 353.789V313.651L309.747 333.72Z" fill="#40F3EB"/>
<path opacity="0.1" d="M309.747 373.858L344.198 353.789V313.651L309.747 333.72V373.858Z" fill="#40F3EB"/>
<path opacity="0.1" d="M275.067 353.789L309.747 373.858V333.72L275.067 313.651V353.789Z" fill="#A9FFFB"/>
<path opacity="0.1" d="M309.747 333.72L344.198 313.651L309.747 293.582L275.067 313.651L309.747 333.72Z" fill="#40F3EB"/>
<path opacity="0.1" d="M309.747 333.72L344.198 313.651V315.496L309.747 335.565L275.067 315.496V313.651L309.747 333.72Z" fill="white"/>
</g>
<g opacity="0.1">
<path opacity="0.1" d="M444.564 309.729L479.015 289.66V329.798L444.564 349.867L409.884 329.798V289.66L444.564 309.729Z" fill="#40F3EB"/>
<path opacity="0.1" d="M444.564 349.867L479.015 329.798V289.66L444.564 309.729V349.867Z" fill="#40F3EB"/>
<path opacity="0.1" d="M409.884 329.798L444.564 349.867V309.729L409.884 289.66V329.798Z" fill="#A9FFFB"/>
<path opacity="0.1" d="M444.564 309.729L479.015 289.66L444.564 269.591L409.884 289.66L444.564 309.729Z" fill="#40F3EB"/>
<path opacity="0.1" d="M444.564 309.729L479.015 289.66V291.506L444.564 311.575L409.884 291.506V289.66L444.564 309.729Z" fill="white"/>
</g>
<g opacity="0.1">
<path opacity="0.1" d="M489.349 337.18L524.03 317.111V357.249L489.349 377.318L454.899 357.249V317.111L489.349 337.18Z" fill="#40F3EB"/>
<path opacity="0.1" d="M489.349 377.318L524.03 357.249V317.111L489.349 337.18V377.318Z" fill="#40F3EB"/>
<path opacity="0.1" d="M454.899 357.249L489.35 377.318V337.18L454.899 317.111V357.249Z" fill="#A9FFFB"/>
<path opacity="0.1" d="M489.349 337.18L524.03 317.111L489.349 297.042L454.899 317.111L489.349 337.18Z" fill="#40F3EB"/>
<path opacity="0.1" d="M489.349 337.18L524.03 317.111V318.957L489.349 339.026L454.899 318.957V317.111L489.349 337.18Z" fill="white"/>
</g>
</g>
<g opacity="0.2">
<g opacity="0.2">
<path opacity="0.2" d="M353.151 439.602L377.267 425.53C381.401 423.223 384.846 417.226 384.846 412.381V406.614C384.846 402.001 388.061 396.464 391.966 394.158L397.019 391.159L396.559 390.467L391.506 393.466C387.372 395.772 383.927 401.77 383.927 406.614V412.381C383.927 416.995 380.712 422.531 376.808 424.838L352.692 438.909L353.151 439.602Z" fill="#40F3EB"/>
<path opacity="0.2" d="M343.736 434.296L367.851 420.224C371.985 417.917 375.43 411.92 375.43 407.076V401.309C375.43 396.695 378.646 391.159 382.55 388.852L387.603 385.853L387.143 385.161L382.091 388.16C377.957 390.467 374.512 396.464 374.512 401.309V407.076C374.512 411.689 371.296 417.225 367.392 419.532L343.276 433.604L343.736 434.296Z" fill="#40F3EB"/>
<path opacity="0.2" d="M334.318 428.759L358.434 414.688C362.568 412.381 366.013 406.384 366.013 401.539V395.772C366.013 391.159 369.228 385.622 373.133 383.316L378.185 380.317L377.726 379.625L372.673 382.624C368.539 384.93 365.094 390.928 365.094 395.772V401.539C365.094 406.153 361.879 411.689 357.974 413.996L333.859 428.067L334.318 428.759Z" fill="#40F3EB"/>
<path opacity="0.2" d="M324.902 423.223L349.018 409.152C353.152 406.845 356.597 400.847 356.597 396.003V390.467C356.597 385.853 359.812 380.317 363.717 378.01L368.769 375.011L368.31 374.319L363.257 377.318C359.123 379.625 355.678 385.622 355.678 390.467V396.234C355.678 400.847 352.463 406.384 348.558 408.69L324.443 422.762L324.902 423.223Z" fill="#40F3EB"/>
<path opacity="0.2" d="M315.485 417.918L339.6 403.846C343.734 401.539 347.179 395.542 347.179 390.697V384.93C347.179 380.317 350.395 374.781 354.299 372.474L359.352 369.475L358.893 368.783L353.84 371.782C349.706 374.089 346.261 380.086 346.261 384.93V390.697C346.261 395.311 343.045 400.847 339.141 403.154L315.026 417.226L315.485 417.918Z" fill="#40F3EB"/>
<path opacity="0.2" d="M306.298 412.381L330.413 398.31C334.547 396.003 337.992 390.005 337.992 385.161V379.394C337.992 374.781 341.208 369.244 345.112 366.937L350.165 363.939L349.706 363.247L344.653 366.245C340.519 368.552 337.074 374.55 337.074 379.394V385.161C337.074 389.775 333.858 395.311 329.954 397.618L305.839 411.689L306.298 412.381Z" fill="#40F3EB"/>
<path opacity="0.2" d="M296.882 407.076L320.998 393.004C325.132 390.697 328.577 384.7 328.577 379.855V374.088C328.577 369.475 331.792 363.939 335.696 361.632L340.749 358.633L340.29 357.941L335.237 360.94C331.103 363.247 327.658 369.244 327.658 374.088V379.855C327.658 384.469 324.443 390.005 320.538 392.312L296.423 406.383L296.882 407.076Z" fill="#40F3EB"/>
<path opacity="0.2" d="M287.466 401.539L311.581 387.468C315.715 385.161 319.16 379.163 319.16 374.319V368.552C319.16 363.939 322.376 358.402 326.28 356.095L331.333 353.097L330.874 352.405L325.821 355.403C321.687 357.71 318.242 363.708 318.242 368.552V374.319C318.242 378.933 315.026 384.469 311.122 386.776L287.007 400.847L287.466 401.539Z" fill="#40F3EB"/>
<path opacity="0.2" d="M278.049 396.234L302.164 382.162C306.298 379.855 309.743 373.858 309.743 369.014V363.247C309.743 358.633 312.959 353.097 316.863 350.79L321.916 347.791L321.456 347.099L316.404 350.098C312.27 352.405 308.825 358.402 308.825 363.247V369.014C308.825 373.627 305.609 379.163 301.705 381.47L277.589 395.542L278.049 396.234Z" fill="#40F3EB"/>
<path opacity="0.2" d="M268.633 390.697L292.748 376.626C296.882 374.319 300.327 368.321 300.327 363.477V357.71C300.327 353.097 303.543 347.56 307.447 345.254L312.5 342.255L312.04 341.563L306.988 344.562C302.854 346.868 299.409 352.866 299.409 357.71V363.477C299.409 368.091 296.193 373.627 292.289 375.934L268.173 390.005L268.633 390.697Z" fill="#40F3EB"/>
<path opacity="0.2" d="M259.216 385.392L283.331 371.32C287.465 369.013 290.91 363.016 290.91 358.172V352.405C290.91 347.791 294.126 342.255 298.03 339.948L303.083 336.949L302.623 336.257L297.571 339.256C293.437 341.563 289.992 347.56 289.992 352.405V358.172C289.992 362.785 286.776 368.321 282.872 370.628L258.756 384.7L259.216 385.392Z" fill="#40F3EB"/>
<path opacity="0.2" d="M249.799 379.856L273.915 365.784C278.049 363.477 281.494 357.48 281.494 352.635V346.868C281.494 342.255 284.709 336.719 288.614 334.412L293.667 331.413L293.207 330.721L288.154 333.72C284.02 336.027 280.575 342.024 280.575 346.868V352.635C280.575 357.249 277.36 362.785 273.455 365.092L249.34 379.164L249.799 379.856Z" fill="#40F3EB"/>
<path opacity="0.2" d="M240.383 374.319L264.499 360.248C268.633 357.941 272.078 351.943 272.078 347.099V341.332C272.078 336.719 275.294 331.182 279.198 328.875L284.251 325.877L283.791 325.185L278.739 328.183C274.605 330.49 271.159 336.488 271.159 341.332V347.099C271.159 351.713 267.944 357.249 264.04 359.556L239.924 373.627L240.383 374.319Z" fill="#40F3EB"/>
<path opacity="0.2" d="M231.196 369.013L255.312 354.942C259.446 352.635 262.891 346.638 262.891 341.793V336.026C262.891 331.413 266.107 325.877 270.011 323.57L275.064 320.571L274.604 319.879L269.552 322.878C265.418 325.185 261.972 331.182 261.972 336.026V341.793C261.972 346.407 258.757 351.943 254.853 354.25L230.737 368.321L231.196 369.013Z" fill="#40F3EB"/>
<path opacity="0.2" d="M221.779 363.477L245.895 349.406C250.029 347.099 253.474 341.101 253.474 336.257V330.49C253.474 325.877 256.689 320.34 260.594 318.034L265.646 315.035L265.187 314.343L260.134 317.342C256 319.648 252.555 325.646 252.555 330.49V336.257C252.555 340.871 249.34 346.407 245.435 348.714L221.32 362.785L221.779 363.477Z" fill="#40F3EB"/>
<path opacity="0.2" d="M212.363 358.172L236.479 344.1C240.613 341.794 244.058 335.796 244.058 330.952V325.185C244.058 320.571 247.273 315.035 251.178 312.728L256.23 309.729L255.771 309.037L250.718 312.036C246.584 314.343 243.139 320.34 243.139 325.185V330.952C243.139 335.565 239.924 341.101 236.019 343.408L211.904 357.48L212.363 358.172Z" fill="#40F3EB"/>
<path opacity="0.2" d="M202.946 352.635L227.062 338.564C231.196 336.257 234.641 330.259 234.641 325.415V319.648C234.641 315.035 237.856 309.498 241.761 307.192L246.813 304.193L246.354 303.501L241.301 306.5C237.167 308.806 233.722 314.804 233.722 319.648V325.415C233.722 330.029 230.507 335.565 226.602 337.872L202.487 351.943L202.946 352.635Z" fill="#40F3EB"/>
<path opacity="0.2" d="M193.53 347.33L217.645 333.258C221.78 330.951 225.225 324.954 225.225 320.11V314.343C225.225 309.729 228.44 304.193 232.344 301.886L237.397 298.887L236.938 298.195L231.885 301.194C227.751 303.501 224.306 309.498 224.306 314.343V320.11C224.306 324.723 221.091 330.259 217.186 332.566L193.071 346.638L193.53 347.33Z" fill="#40F3EB"/>
<path opacity="0.2" d="M184.114 341.794L208.23 327.722C212.364 325.415 215.809 319.418 215.809 314.573V308.806C215.809 304.193 219.024 298.657 222.928 296.35L227.981 293.351L227.522 292.659L222.469 295.658C218.335 297.965 214.89 303.962 214.89 308.806V314.573C214.89 319.187 211.675 324.723 207.77 327.03L183.655 341.102L184.114 341.794Z" fill="#40F3EB"/>
<path opacity="0.2" d="M174.697 336.488L198.812 322.416C202.946 320.11 206.391 314.112 206.391 309.268V303.501C206.391 298.887 209.607 293.351 213.511 291.044L218.564 288.045L218.105 287.353L213.052 290.352C208.918 292.659 205.473 298.657 205.473 303.501V309.268C205.473 313.881 202.257 319.418 198.353 321.724L174.237 335.796L174.697 336.488Z" fill="#40F3EB"/>
</g>
<g opacity="0.2">
<path opacity="0.2" d="M446.628 439.602L447.087 438.909L422.971 424.838C419.067 422.531 415.852 416.995 415.852 412.381V406.614C415.852 401.77 412.407 396.003 408.273 393.466L403.22 390.467L402.76 391.159L407.813 394.158C411.718 396.464 414.933 402.001 414.933 406.614V412.381C414.933 417.226 418.378 422.993 422.512 425.53L446.628 439.602Z" fill="#40F3EB"/>
<path opacity="0.2" d="M456.045 434.296L456.504 433.604L432.389 419.532C428.485 417.225 425.269 411.689 425.269 407.076V401.309C425.269 396.464 421.824 390.697 417.69 388.16L412.637 385.161L412.178 385.853L417.231 388.852C421.135 391.159 424.35 396.695 424.35 401.309V407.076C424.35 411.92 427.796 417.687 431.93 420.224L456.045 434.296Z" fill="#40F3EB"/>
<path opacity="0.2" d="M465.461 428.759L465.92 428.067L441.805 413.996C437.9 411.689 434.685 406.153 434.685 401.539V395.772C434.685 390.928 431.24 385.161 427.106 382.624L422.053 379.625L421.594 380.317L426.646 383.316C430.551 385.622 433.766 391.159 433.766 395.772V401.539C433.766 406.384 437.211 412.15 441.345 414.688L465.461 428.759Z" fill="#40F3EB"/>
<path opacity="0.2" d="M474.877 423.223L475.336 422.531L451.22 408.46C447.316 406.153 444.101 400.617 444.101 396.003V390.467C444.101 385.622 440.656 379.855 436.522 377.318L431.469 374.319L431.009 375.011L436.062 378.01C439.967 380.317 443.182 385.853 443.182 390.467V396.234C443.182 401.078 446.627 406.845 450.761 409.382L474.877 423.223Z" fill="#40F3EB"/>
<path opacity="0.2" d="M484.064 417.918L484.523 417.226L460.407 403.154C456.503 400.847 453.288 395.311 453.288 390.697V384.93C453.288 380.086 449.843 374.319 445.709 371.782L440.656 368.783L440.196 369.475L445.249 372.474C449.154 374.781 452.369 380.317 452.369 384.93V390.697C452.369 395.542 455.814 401.309 459.948 403.846L484.064 417.918Z" fill="#40F3EB"/>
<path opacity="0.2" d="M493.481 412.381L493.94 411.689L469.825 397.618C465.921 395.311 462.705 389.775 462.705 385.161V379.394C462.705 374.55 459.26 368.783 455.126 366.245L450.073 363.247L449.614 363.939L454.667 366.937C458.571 369.244 461.786 374.781 461.786 379.394V385.161C461.786 390.005 465.232 395.772 469.366 398.31L493.481 412.381Z" fill="#40F3EB"/>
<path opacity="0.2" d="M502.897 407.076L503.356 406.383L479.241 392.312C475.337 390.005 472.121 384.469 472.121 379.855V374.088C472.121 369.244 468.676 363.477 464.542 360.94L459.489 357.941L459.03 358.633L464.083 361.632C467.987 363.939 471.202 369.475 471.202 374.088V379.855C471.202 384.7 474.648 390.467 478.782 393.004L502.897 407.076Z" fill="#40F3EB"/>
<path opacity="0.2" d="M512.314 401.539L512.773 400.847L488.658 386.776C484.754 384.469 481.538 378.933 481.538 374.319V368.552C481.538 363.708 478.093 357.941 473.959 355.403L468.906 352.405L468.447 353.097L473.5 356.095C477.404 358.402 480.619 363.939 480.619 368.552V374.319C480.619 379.163 484.065 384.93 488.199 387.468L512.314 401.539Z" fill="#40F3EB"/>
<path opacity="0.2" d="M521.73 396.234L522.189 395.542L498.074 381.47C494.17 379.163 490.954 373.627 490.954 369.014V363.247C490.954 358.402 487.509 352.635 483.375 350.098L478.322 347.099L477.863 347.791L482.916 350.79C486.82 353.097 490.036 358.633 490.036 363.247V369.014C490.036 373.858 493.481 379.625 497.615 382.162L521.73 396.234Z" fill="#40F3EB"/>
<path opacity="0.2" d="M531.146 390.697L531.605 390.005L507.49 375.934C503.586 373.627 500.37 368.091 500.37 363.477V357.71C500.37 352.866 496.925 347.099 492.791 344.562L487.738 341.563L487.279 342.255L492.332 345.254C496.236 347.56 499.451 353.097 499.451 357.71V363.477C499.451 368.321 502.897 374.088 507.031 376.626L531.146 390.697Z" fill="#40F3EB"/>
<path opacity="0.2" d="M540.564 385.392L541.023 384.7L516.907 370.628C513.003 368.321 509.788 362.785 509.788 358.172V352.405C509.788 347.56 506.343 341.793 502.208 339.256L497.156 336.257L496.696 336.949L501.749 339.948C505.654 342.255 508.869 347.791 508.869 352.405V358.172C508.869 363.016 512.314 368.783 516.448 371.32L540.564 385.392Z" fill="#40F3EB"/>
<path opacity="0.2" d="M549.979 379.856L550.438 379.164L526.323 365.092C522.419 362.785 519.203 357.249 519.203 352.635V346.868C519.203 342.024 515.758 336.257 511.624 333.72L506.571 330.721L506.112 331.413L511.165 334.412C515.069 336.719 518.285 342.255 518.285 346.868V352.635C518.285 357.48 521.73 363.247 525.864 365.784L549.979 379.856Z" fill="#40F3EB"/>
<path opacity="0.2" d="M559.166 374.319L559.625 373.627L535.51 359.556C531.606 357.249 528.39 351.713 528.39 347.099V341.332C528.39 336.488 524.945 330.721 520.811 328.183L515.758 325.185L515.299 325.877L520.352 328.875C524.256 331.182 527.471 336.719 527.471 341.332V347.099C527.471 351.943 530.917 357.71 535.051 360.248L559.166 374.319Z" fill="#40F3EB"/>
<path opacity="0.2" d="M568.584 369.013L569.043 368.321L544.928 354.25C541.023 351.943 537.808 346.407 537.808 341.793V336.026C537.808 331.182 534.363 325.415 530.229 322.878L525.176 319.879L524.716 320.571L529.769 323.57C533.674 325.877 536.889 331.413 536.889 336.026V341.793C536.889 346.638 540.334 352.405 544.468 354.942L568.584 369.013Z" fill="#40F3EB"/>
<path opacity="0.2" d="M578 363.477L578.459 362.785L554.344 348.714C550.439 346.407 547.224 340.871 547.224 336.257V330.49C547.224 325.646 543.779 319.879 539.645 317.342L534.592 314.343L534.133 315.035L539.185 318.034C543.09 320.34 546.305 325.877 546.305 330.49V336.257C546.305 341.101 549.75 346.868 553.884 349.406L578 363.477Z" fill="#40F3EB"/>
<path opacity="0.2" d="M587.416 358.172L587.875 357.48L563.76 343.408C559.855 341.101 556.64 335.565 556.64 330.952V325.185C556.64 320.34 553.195 314.573 549.061 312.036L544.008 309.037L543.549 309.729L548.601 312.728C552.506 315.035 555.721 320.571 555.721 325.185V330.952C555.721 335.796 559.166 341.563 563.3 344.1L587.416 358.172Z" fill="#40F3EB"/>
<path opacity="0.2" d="M596.833 352.635L597.292 351.943L573.177 337.872C569.273 335.565 566.057 330.029 566.057 325.415V319.648C566.057 314.804 562.612 309.037 558.478 306.5L553.425 303.501L552.966 304.193L558.019 307.192C561.923 309.498 565.139 315.035 565.139 319.648V325.415C565.139 330.259 568.584 336.026 572.718 338.564L596.833 352.635Z" fill="#40F3EB"/>
<path opacity="0.2" d="M606.249 347.33L606.708 346.638L582.593 332.566C578.688 330.259 575.473 324.723 575.473 320.11V314.343C575.473 309.498 572.028 303.731 567.894 301.194L562.841 298.195L562.382 298.887L567.434 301.886C571.339 304.193 574.554 309.729 574.554 314.343V320.11C574.554 324.954 577.999 330.721 582.133 333.258L606.249 347.33Z" fill="#40F3EB"/>
<path opacity="0.2" d="M615.666 341.794L616.125 341.102L592.01 327.03C588.106 324.723 584.89 319.187 584.89 314.573V308.806C584.89 303.962 581.445 298.195 577.311 295.658L572.258 292.659L571.799 293.351L576.852 296.35C580.756 298.657 583.972 304.193 583.972 308.806V314.573C583.972 319.418 587.417 325.185 591.551 327.722L615.666 341.794Z" fill="#40F3EB"/>
<path opacity="0.2" d="M625.082 336.488L625.542 335.796L601.426 321.724C597.522 319.418 594.306 313.881 594.306 309.268V303.501C594.306 298.657 590.861 292.89 586.727 290.352L581.674 287.353L581.215 288.045L586.268 291.044C590.172 293.351 593.388 298.887 593.388 303.501V309.268C593.388 314.112 596.833 319.879 600.967 322.416L625.082 336.488Z" fill="#40F3EB"/>
</g>
<g opacity="0.2">
<g opacity="0.2">
<path opacity="0.2" d="M213.972 296.811V318.264L399.546 425.761L585.12 318.264V296.811H213.972Z" fill="#232DAD"/>
<path opacity="0.2" d="M399.546 404.307L585.12 296.811L399.546 189.084L213.972 296.811L399.546 404.307Z" fill="#BCBEFF"/>
<path opacity="0.2" d="M399.546 401.77L582.823 295.427L585.12 296.811L399.546 404.307L213.972 296.811L216.269 295.427L399.546 401.77Z" fill="white"/>
</g>
</g>
</g>
<path d="M418.838 158.404C419.987 158.404 421.135 157.942 422.283 157.25L446.399 143.179L445.94 142.487L421.824 156.558C419.987 157.712 418.379 157.712 417.001 157.02C415.623 156.328 414.934 154.713 414.934 152.637V146.87C414.934 144.563 414.015 142.718 412.637 141.795C411.03 140.872 409.192 141.103 407.125 142.256L402.072 145.255L402.532 145.947L407.585 142.948C409.422 141.795 411.03 141.795 412.408 142.487C413.786 143.179 414.475 144.794 414.475 146.87V152.868C414.475 155.174 415.393 157.02 416.771 157.942C417.46 158.173 418.149 158.404 418.838 158.404Z" fill="#40F3EB"/>
<path d="M428.256 163.94C429.404 163.94 430.553 163.479 431.701 162.787L455.816 148.715L455.357 148.023L431.242 162.095C429.404 163.248 427.797 163.248 426.418 162.556C425.04 161.864 424.351 160.249 424.351 158.173V152.406C424.351 150.099 423.433 148.254 422.055 147.331C420.447 146.409 418.61 146.639 416.543 147.793L411.49 150.792L411.949 151.484L417.002 148.485C418.839 147.331 420.447 147.331 421.825 148.023C423.203 148.715 423.892 150.33 423.892 152.406V158.173C423.892 160.48 424.811 162.325 426.189 163.248C426.878 163.71 427.567 163.94 428.256 163.94Z" fill="#40F3EB"/>
<path d="M437.672 169.246C438.82 169.246 439.969 168.784 441.117 168.092L465.232 154.021L464.773 153.329L440.658 167.4C438.82 168.554 437.213 168.554 435.835 167.862C434.457 167.17 433.768 165.555 433.768 163.479V157.712C433.768 155.405 432.849 153.559 431.471 152.637C429.863 151.714 428.026 151.945 425.959 153.098L420.906 156.097L421.365 156.789L426.418 153.79C428.255 152.637 429.863 152.637 431.241 153.329C432.619 154.021 433.308 155.636 433.308 157.712V163.479C433.308 165.785 434.227 167.631 435.605 168.554C436.064 169.015 436.983 169.246 437.672 169.246Z" fill="#40F3EB"/>
<path d="M447.088 174.782C448.236 174.782 449.385 174.321 450.533 173.629L474.648 159.557L474.189 158.865L450.074 172.937C448.236 174.09 446.629 174.09 445.25 173.398C443.872 172.706 443.183 171.091 443.183 169.015V163.248C443.183 160.941 442.265 159.096 440.887 158.173C439.279 157.25 437.442 157.481 435.375 158.634L430.322 161.633L430.781 162.325L435.834 159.327C437.671 158.173 439.279 158.173 440.657 158.865C442.035 159.557 442.724 161.172 442.724 163.248V169.015C442.724 171.322 443.643 173.167 445.021 174.09C445.48 174.551 446.169 174.782 447.088 174.782Z" fill="#40F3EB"/>
<path d="M456.504 180.088C457.653 180.088 458.801 179.626 459.949 178.934L484.065 165.094L483.606 164.402L459.49 178.473C457.653 179.626 456.045 179.626 454.667 178.934C453.289 178.242 452.6 176.628 452.6 174.551V168.784C452.6 166.478 451.681 164.632 450.303 163.709C448.696 162.787 446.858 163.017 444.791 164.171L439.738 167.17L440.198 167.862L445.25 164.863C447.088 163.709 448.696 163.709 450.074 164.402C451.452 165.094 452.141 166.708 452.141 168.784V174.551C452.141 176.858 453.059 178.704 454.437 179.626C454.897 179.857 455.586 180.088 456.504 180.088Z" fill="#40F3EB"/>
<path d="M465.921 185.624C467.069 185.624 468.218 185.163 469.366 184.471L493.481 170.399L493.022 169.707L468.907 183.779C467.069 184.932 465.462 184.932 464.084 184.24C462.706 183.548 462.017 181.933 462.017 179.857V174.09C462.017 171.783 461.098 169.938 459.72 169.015C458.112 168.092 456.275 168.323 454.208 169.477L449.155 172.475L449.614 173.167L454.667 170.169C456.504 169.015 458.112 169.015 459.49 169.707C460.868 170.399 461.557 172.014 461.557 174.09V179.857C461.557 182.164 462.476 184.009 463.854 184.932C464.313 185.393 465.002 185.624 465.921 185.624Z" fill="#40F3EB"/>
<path d="M475.108 190.929C476.257 190.929 477.405 190.468 478.553 189.776L502.898 175.935L502.439 175.243L478.324 189.315C476.486 190.468 474.879 190.468 473.501 189.776C472.123 189.084 471.434 187.469 471.434 185.393V179.626C471.434 177.319 470.515 175.474 469.137 174.551C467.529 173.629 465.692 173.859 463.625 175.013L458.572 178.011L459.031 178.703L464.084 175.705C465.921 174.551 467.529 174.551 468.907 175.243C470.285 175.935 470.974 177.55 470.974 179.626V185.393C470.974 187.7 471.893 189.545 473.271 190.468C473.73 190.699 474.419 190.929 475.108 190.929Z" fill="#40F3EB"/>
<path d="M484.525 196.466C485.673 196.466 486.822 196.004 487.97 195.312L512.085 181.241L511.626 180.549L487.511 194.62C485.673 195.774 484.066 195.774 482.688 195.082C481.31 194.39 480.621 192.775 480.621 190.699V184.932C480.621 182.625 479.702 180.78 478.324 179.857C476.716 178.934 474.879 179.165 472.812 180.318L467.759 183.317L468.218 184.009L473.271 181.01C475.108 179.857 476.716 179.857 478.094 180.549C479.472 181.241 480.161 182.856 480.161 184.932V190.699C480.161 193.006 481.08 194.851 482.458 195.774C483.147 196.235 483.836 196.466 484.525 196.466Z" fill="#40F3EB"/>
<path d="M493.941 201.771C495.089 201.771 496.238 201.31 497.386 200.618L521.501 186.547L521.042 185.855L496.927 199.926C495.089 201.079 493.482 201.079 492.104 200.387C490.726 199.695 490.037 198.081 490.037 196.005V190.238C490.037 187.931 489.118 186.085 487.74 185.163C486.132 184.24 484.295 184.471 482.228 185.624L477.175 188.623L477.634 189.315L482.687 186.316C484.524 185.163 486.132 185.163 487.51 185.855C488.888 186.547 489.577 188.161 489.577 190.238V196.005C489.577 198.311 490.496 200.157 491.874 201.079C492.563 201.772 493.252 201.771 493.941 201.771Z" fill="#40F3EB"/>
<path d="M503.357 207.308C504.505 207.308 505.654 206.846 506.802 206.154L530.917 192.083L530.458 191.391L506.343 205.462C504.505 206.616 502.898 206.616 501.52 205.924C500.142 205.232 499.453 203.617 499.453 201.541V195.774C499.453 193.467 498.534 191.621 497.156 190.699C495.548 189.776 493.711 190.007 491.644 191.16L486.591 194.159L487.05 194.851L492.103 191.852C493.94 190.699 495.548 190.699 496.926 191.391C498.304 192.083 498.993 193.698 498.993 195.774V201.541C498.993 203.847 499.912 205.693 501.29 206.616C501.979 207.077 502.668 207.308 503.357 207.308Z" fill="#40F3EB"/>
<path d="M512.774 212.613C513.923 212.613 515.071 212.152 516.219 211.46L540.335 197.389L539.876 196.696L515.76 210.768C513.923 211.921 512.315 211.921 510.937 211.229C509.559 210.537 508.87 208.923 508.87 206.846V201.31C508.87 199.003 507.951 197.158 506.573 196.235C504.966 195.312 503.128 195.543 501.061 196.696L496.008 199.695L496.468 200.387L501.521 197.389C503.358 196.235 504.966 196.235 506.344 196.927C507.722 197.619 508.411 199.234 508.411 201.31V207.077C508.411 209.384 509.329 211.229 510.707 212.152C511.396 212.613 512.085 212.613 512.774 212.613Z" fill="#40F3EB"/>
<path d="M522.19 218.15C523.338 218.15 524.487 217.688 525.635 216.996L549.75 202.925L549.291 202.233L525.176 216.304C523.338 217.458 521.731 217.458 520.353 216.766C518.975 216.074 518.286 214.459 518.286 212.383V206.616C518.286 204.309 517.367 202.464 515.989 201.541C514.381 200.618 512.544 200.849 510.477 202.002L505.424 205.001L505.883 205.693L510.936 202.694C512.773 201.541 514.381 201.541 515.759 202.233C517.137 202.925 517.826 204.54 517.826 206.616V212.383C517.826 214.689 518.745 216.535 520.123 217.458C520.582 217.919 521.271 218.15 522.19 218.15Z" fill="#40F3EB"/>
<path d="M531.607 223.455C532.756 223.455 533.904 222.994 535.053 222.302L559.168 208.231L558.709 207.539L534.593 221.841C532.756 222.994 531.148 222.994 529.77 222.302C528.392 221.61 527.703 219.995 527.703 217.919V212.152C527.703 209.845 526.784 208 525.406 207.077C523.799 206.154 521.961 206.385 519.894 207.539L514.841 210.537L515.301 211.229L520.354 208.231C522.191 207.077 523.799 207.077 525.177 207.769C526.555 208.461 527.244 210.076 527.244 212.152V217.919C527.244 220.226 528.162 222.071 529.54 222.994C530 223.455 530.689 223.455 531.607 223.455Z" fill="#40F3EB"/>
<path d="M541.024 228.991C542.172 228.991 543.321 228.53 544.469 227.838L568.584 213.767L568.125 213.075L544.01 227.146C542.172 228.299 540.565 228.299 539.187 227.607C537.809 226.915 537.12 225.301 537.12 223.224V217.458C537.12 215.151 536.201 213.305 534.823 212.383C533.215 211.46 531.378 211.691 529.311 212.844L524.258 215.843L524.717 216.535L529.77 213.536C531.607 212.383 533.215 212.383 534.593 213.075C535.971 213.767 536.66 215.381 536.66 217.458V223.224C536.66 225.531 537.579 227.377 538.957 228.299C539.416 228.761 540.105 228.991 541.024 228.991Z" fill="#40F3EB"/>
<path d="M550.21 234.297C551.359 234.297 552.507 233.836 553.656 233.144L577.771 219.072L577.312 218.38L553.196 232.452C551.359 233.605 549.751 233.605 548.373 232.913C546.995 232.221 546.306 230.606 546.306 228.53V222.763C546.306 220.456 545.387 218.611 544.009 217.688C542.402 216.766 540.564 216.996 538.497 218.15L533.445 221.148L533.904 221.84L539.186 219.072C541.024 217.919 542.631 217.919 544.009 218.611C545.387 219.303 546.076 220.918 546.076 222.994V228.761C546.076 231.068 546.995 232.913 548.373 233.836C548.832 234.297 549.521 234.297 550.21 234.297Z" fill="#40F3EB"/>
<path d="M559.626 239.834C560.775 239.834 561.923 239.372 563.072 238.68L587.187 224.609L586.728 223.917L562.612 237.988C560.775 239.141 559.167 239.141 557.789 238.449C556.411 237.757 555.722 236.143 555.722 234.067V228.3C555.722 225.993 554.803 224.147 553.425 223.225C551.818 222.302 549.98 222.533 547.913 223.686L542.86 226.685L543.32 227.377L548.602 224.378C550.44 223.225 552.047 223.225 553.425 223.917C554.803 224.609 555.492 226.223 555.492 228.3V234.067C555.492 236.373 556.411 238.219 557.789 239.141C558.248 239.603 558.937 239.834 559.626 239.834Z" fill="#40F3EB"/>
<path d="M569.044 245.139C570.192 245.139 571.341 244.678 572.489 243.986L596.604 230.145L596.145 229.453L572.03 243.524C570.192 244.678 568.585 244.678 567.207 243.986C565.829 243.294 565.14 241.679 565.14 239.603V233.836C565.14 231.529 564.221 229.683 562.843 228.761C561.235 227.838 559.398 228.069 557.331 229.222L552.278 232.221L552.737 232.913L557.79 229.914C559.627 228.761 561.235 228.761 562.613 229.453C563.991 230.145 564.68 231.76 564.68 233.836V239.603C564.68 241.909 565.599 243.755 566.977 244.678C567.666 245.139 568.355 245.139 569.044 245.139Z" fill="#40F3EB"/>
<path d="M578.459 250.675C579.608 250.675 580.756 250.214 581.905 249.522L606.02 235.451L605.561 234.758L581.445 248.83C579.608 249.983 578 249.983 576.622 249.291C575.244 248.599 574.555 246.984 574.555 244.908V239.141C574.555 236.835 573.636 234.989 572.258 234.066C570.651 233.144 568.813 233.374 566.746 234.528L561.694 237.527L562.153 238.219L567.206 235.22C569.043 234.066 570.651 234.066 572.029 234.758C573.407 235.45 574.096 237.065 574.096 239.141V244.908C574.096 247.215 575.014 249.061 576.392 249.983C577.081 250.445 577.77 250.675 578.459 250.675Z" fill="#40F3EB"/>
<path d="M587.877 255.981C589.025 255.981 590.174 255.52 591.322 254.828L615.438 240.756L614.978 240.064L590.863 254.136C589.025 255.289 587.418 255.289 586.04 254.597C584.662 253.905 583.973 252.29 583.973 250.214V244.447C583.973 242.14 583.054 240.295 581.676 239.372C580.068 238.449 578.231 238.68 576.164 239.833L571.111 242.832L571.57 243.524L576.623 240.525C578.46 239.372 580.068 239.372 581.446 240.064C582.824 240.756 583.513 242.371 583.513 244.447V250.214C583.513 252.521 584.432 254.366 585.81 255.289C586.499 255.981 587.188 255.981 587.877 255.981Z" fill="#40F3EB"/>
<path d="M597.293 261.517C598.441 261.517 599.59 261.056 600.738 260.364L624.854 246.293L624.394 245.601L600.279 259.672C598.441 260.825 596.834 260.825 595.456 260.133C594.078 259.441 593.389 257.827 593.389 255.75V249.983C593.389 247.677 592.47 245.831 591.092 244.908C589.484 243.986 587.647 244.216 585.58 245.37L580.527 248.369L580.986 249.061L586.039 246.062C587.877 244.908 589.484 244.908 590.862 245.601C592.24 246.293 592.929 247.907 592.929 249.983V255.75C592.929 258.057 593.848 259.903 595.226 260.825C595.685 261.287 596.604 261.517 597.293 261.517Z" fill="#40F3EB"/>
<path d="M380.484 158.865C381.173 158.865 381.862 158.635 382.551 158.404C384.159 157.481 384.848 155.636 384.848 153.329V147.562C384.848 145.486 385.537 143.871 386.915 143.179C388.293 142.487 389.901 142.718 391.738 143.64L396.791 146.639L397.25 145.947L392.197 142.948C390.13 141.795 388.063 141.564 386.685 142.487C385.078 143.41 384.389 145.255 384.389 147.562V153.329C384.389 155.405 383.7 157.02 382.322 157.712C380.944 158.404 379.336 158.173 377.499 157.251L353.383 143.179L352.924 143.871L377.039 157.943C378.188 158.635 379.336 158.865 380.484 158.865Z" fill="#40F3EB"/>
<path d="M371.068 164.402C371.757 164.402 372.446 164.171 373.135 163.94C374.743 163.018 375.432 161.172 375.432 158.865V152.868C375.432 150.792 376.121 149.177 377.499 148.485C378.877 147.793 380.484 148.023 382.322 148.946L387.375 151.945L387.834 151.253L382.781 148.254C380.714 147.101 378.647 146.87 377.269 147.793C375.661 148.715 374.972 150.561 374.972 152.868V158.635C374.972 160.711 374.283 162.326 372.905 163.018C371.527 163.71 369.92 163.479 368.082 162.556L343.967 148.485L343.507 149.177L367.623 163.248C368.771 163.94 369.92 164.402 371.068 164.402Z" fill="#40F3EB"/>
<path d="M361.651 169.707C362.34 169.707 363.029 169.476 363.718 169.246C365.326 168.323 366.015 166.478 366.015 164.171V158.404C366.015 156.328 366.704 154.713 368.082 154.021C369.46 153.329 371.067 153.56 372.905 154.482L377.957 157.481L378.417 156.789L373.364 153.79C371.297 152.637 369.23 152.406 367.852 153.329C366.244 154.252 365.555 156.097 365.555 158.404V164.171C365.555 166.247 364.866 167.862 363.488 168.554C362.11 169.246 360.502 169.015 358.665 168.092L334.55 154.021L334.09 154.713L358.206 168.784C359.354 169.476 360.502 169.707 361.651 169.707Z" fill="#40F3EB"/>
<path d="M352.235 175.243C352.924 175.243 353.613 175.013 354.302 174.782C355.91 173.859 356.599 172.014 356.599 169.707V163.94C356.599 161.864 357.288 160.249 358.666 159.557C360.044 158.865 361.651 159.096 363.489 160.019L368.541 163.017L369.001 162.325L363.948 159.327C361.881 158.173 359.814 157.943 358.436 158.865C356.828 159.788 356.139 161.633 356.139 163.94V169.707C356.139 171.783 355.45 173.398 354.072 174.09C352.694 174.782 351.086 174.551 349.249 173.629L325.134 159.557L324.674 160.249L348.79 174.321C349.938 174.782 351.086 175.243 352.235 175.243Z" fill="#40F3EB"/>
<path d="M342.818 180.549C343.507 180.549 344.196 180.318 344.885 180.088C346.492 179.165 347.181 177.32 347.181 175.013V169.015C347.181 166.939 347.871 165.324 349.249 164.632C350.627 163.94 352.234 164.171 354.072 165.094L359.124 168.092L359.584 167.4L354.531 164.402C352.464 163.248 350.397 163.017 349.019 163.94C347.411 164.863 346.722 166.708 346.722 169.015V174.782C346.722 176.858 346.033 178.473 344.655 179.165C343.277 179.857 341.669 179.626 339.832 178.704L315.717 164.632L315.257 165.324L339.373 179.626C340.521 180.318 341.669 180.549 342.818 180.549Z" fill="#40F3EB"/>
<path d="M333.402 186.086C334.091 186.086 334.78 185.855 335.469 185.624C337.076 184.701 337.765 182.856 337.765 180.549V174.782C337.765 172.706 338.454 171.091 339.833 170.399C341.211 169.707 342.818 169.938 344.656 170.861L349.708 173.86L350.168 173.167L345.115 170.169C343.048 169.015 340.981 168.785 339.603 169.707C337.995 170.63 337.306 172.475 337.306 174.782V180.549C337.306 182.625 336.617 184.24 335.239 184.932C333.861 185.624 332.253 185.393 330.416 184.471L306.301 170.399L305.841 171.091L329.957 185.163C331.105 185.624 332.483 186.086 333.402 186.086Z" fill="#40F3EB"/>
<path d="M323.986 191.391C324.675 191.391 325.364 191.16 326.053 190.93C327.66 190.007 328.349 188.161 328.349 185.855V180.088C328.349 178.012 329.038 176.397 330.417 175.705C331.795 175.013 333.402 175.243 335.24 176.166L340.292 179.165L340.752 178.473L335.699 175.474C333.632 174.321 331.565 174.09 330.187 175.013C328.579 175.935 327.89 177.781 327.89 180.088V185.855C327.89 187.931 327.201 189.545 325.823 190.238C324.445 190.93 322.837 190.699 321 189.776L296.884 175.705L296.425 176.397L320.541 190.468C321.919 191.16 323.067 191.391 323.986 191.391Z" fill="#40F3EB"/>
<path d="M314.568 196.927C315.257 196.927 315.946 196.697 316.635 196.466C318.243 195.543 318.932 193.698 318.932 191.391V185.624C318.932 183.548 319.621 181.933 320.999 181.241C322.377 180.549 323.985 180.78 325.822 181.702L330.875 184.701L331.334 184.009L326.281 181.01C324.214 179.857 322.147 179.626 320.769 180.549C319.162 181.472 318.473 183.317 318.473 185.624V191.391C318.473 193.467 317.784 195.082 316.406 195.774C315.028 196.466 313.42 196.235 311.582 195.313L287.467 181.241L287.008 181.933L311.123 196.005C312.501 196.466 313.65 196.927 314.568 196.927Z" fill="#40F3EB"/>
<path d="M305.381 202.233C306.07 202.233 306.759 202.002 307.448 201.772C309.056 200.849 309.745 199.003 309.745 196.697V190.93C309.745 188.854 310.434 187.239 311.812 186.547C313.19 185.855 314.798 186.085 316.635 187.008L321.688 190.007L322.147 189.315L317.094 186.316C315.027 185.163 312.96 184.932 311.582 185.855C309.975 186.777 309.286 188.623 309.286 190.93V196.697C309.286 198.773 308.597 200.388 307.219 201.08C305.841 201.772 304.233 201.541 302.395 200.618L278.28 186.547L277.821 187.239L301.707 201.31C303.085 202.002 304.233 202.233 305.381 202.233Z" fill="#40F3EB"/>
<path d="M295.965 207.769C296.655 207.769 297.344 207.538 298.033 207.308C299.64 206.385 300.329 204.54 300.329 202.233V196.466C300.329 194.39 301.018 192.775 302.396 192.083C303.774 191.391 305.382 191.622 307.219 192.544L312.272 195.543L312.731 194.851L307.679 191.852C305.612 190.699 303.545 190.468 302.167 191.391C300.559 192.314 299.87 194.159 299.87 196.466V202.233C299.87 204.309 299.181 205.924 297.803 206.616C296.425 207.308 294.817 207.077 292.98 206.154L268.864 192.083L268.405 192.775L292.52 206.846C293.669 207.308 294.817 207.769 295.965 207.769Z" fill="#40F3EB"/>
<path d="M286.548 213.075C287.237 213.075 287.926 212.844 288.615 212.613C290.223 211.691 290.912 209.845 290.912 207.538V201.771C290.912 199.695 291.601 198.081 292.979 197.389C294.357 196.697 295.965 196.927 297.802 197.85L302.855 200.849L303.314 200.157L298.262 197.158C296.195 196.005 294.128 195.774 292.75 196.697C291.142 197.619 290.453 199.465 290.453 201.771V207.538C290.453 209.615 289.764 211.229 288.386 211.921C287.008 212.613 285.4 212.383 283.563 211.46L259.447 197.389L258.988 198.081L283.103 212.152C284.252 212.844 285.4 213.075 286.548 213.075Z" fill="#40F3EB"/>
<path d="M277.132 218.611C277.821 218.611 278.51 218.381 279.199 218.15C280.807 217.227 281.496 215.382 281.496 213.075V207.308C281.496 205.232 282.185 203.617 283.563 202.925C284.941 202.233 286.549 202.464 288.386 203.386L293.439 206.385L293.898 205.693L288.845 202.694C286.778 201.541 284.711 201.31 283.333 202.233C281.726 203.156 281.037 205.001 281.037 207.308V212.844C281.037 214.92 280.348 216.535 278.97 217.227C277.592 217.919 275.984 217.688 274.147 216.766L250.031 202.694L249.572 203.386L273.687 217.458C274.836 218.15 275.984 218.611 277.132 218.611Z" fill="#40F3EB"/>
<path d="M267.716 223.917C268.405 223.917 269.094 223.686 269.783 223.455C271.391 222.533 272.08 220.687 272.08 218.38V212.613C272.08 210.537 272.769 208.922 274.147 208.23C275.525 207.538 277.132 207.769 278.97 208.692L284.023 211.691L284.482 210.999L279.429 208C277.362 206.846 275.295 206.616 273.917 207.538C272.309 208.461 271.62 210.307 271.62 212.613V218.38C271.62 220.456 270.931 222.071 269.553 222.763C268.175 223.455 266.568 223.225 264.73 222.302L240.615 208.23L240.155 208.922L264.271 222.994C265.419 223.686 266.568 223.917 267.716 223.917Z" fill="#40F3EB"/>
<path d="M258.299 229.453C258.988 229.453 259.677 229.222 260.366 228.992C261.974 228.069 262.663 226.223 262.663 223.917V218.15C262.663 216.074 263.352 214.459 264.73 213.767C266.108 213.075 267.716 213.305 269.553 214.228L274.606 217.227L275.065 216.535L270.012 213.536C267.945 212.383 265.878 212.152 264.5 213.075C262.893 213.997 262.204 215.843 262.204 218.15V223.917C262.204 225.993 261.515 227.607 260.137 228.299C258.759 228.992 257.151 228.761 255.313 227.838L231.198 213.767L230.739 214.459L254.854 228.53C256.002 228.992 257.151 229.453 258.299 229.453Z" fill="#40F3EB"/>
<path d="M248.883 234.759C249.572 234.759 250.261 234.528 250.95 234.297C252.557 233.375 253.246 231.529 253.246 229.222V223.455C253.246 221.379 253.935 219.764 255.313 219.072C256.692 218.38 258.299 218.611 260.137 219.534L265.189 222.533L265.649 221.841L260.596 218.842C258.529 217.688 256.462 217.458 255.084 218.38C253.476 219.303 252.787 221.149 252.787 223.455V229.222C252.787 231.298 252.098 232.913 250.72 233.605C249.342 234.297 247.734 234.067 245.897 233.144L221.782 219.072L221.322 219.764L245.438 233.836C246.586 234.528 247.964 234.759 248.883 234.759Z" fill="#40F3EB"/>
<path d="M239.466 240.295C240.155 240.295 240.844 240.064 241.533 239.834C243.14 238.911 243.829 237.065 243.829 234.759V228.992C243.829 226.916 244.518 225.301 245.897 224.609C247.275 223.917 248.882 224.147 250.72 225.07L255.772 228.069L256.232 227.377L251.179 224.378C249.112 223.225 247.045 222.994 245.667 223.917C244.059 224.839 243.37 226.685 243.37 228.992V234.759C243.37 236.835 242.681 238.45 241.303 239.142C239.925 239.834 238.317 239.603 236.48 238.68L212.365 224.609L211.905 225.301L236.021 239.372C237.399 239.834 238.547 240.295 239.466 240.295Z" fill="#40F3EB"/>
<path d="M230.05 245.6C230.739 245.6 231.428 245.37 232.117 245.139C233.724 244.216 234.413 242.371 234.413 240.064V234.297C234.413 232.221 235.102 230.606 236.48 229.914C237.859 229.222 239.466 229.453 241.304 230.376L246.356 233.374L246.816 232.682L241.763 229.684C239.696 228.53 237.629 228.299 236.251 229.222C234.643 230.145 233.954 231.99 233.954 234.297V240.064C233.954 242.14 233.265 243.755 231.887 244.447C230.509 245.139 228.901 244.908 227.064 243.986L202.949 229.914L202.489 230.606L226.605 244.678C227.983 245.37 229.131 245.6 230.05 245.6Z" fill="#40F3EB"/>
<path d="M220.863 251.137C221.552 251.137 222.241 250.906 222.93 250.675C224.537 249.753 225.226 247.907 225.226 245.601V239.834C225.226 237.757 225.915 236.143 227.293 235.451C228.671 234.759 230.279 234.989 232.117 235.912L237.169 238.911L237.629 238.219L232.576 235.22C230.509 234.067 228.442 233.836 227.064 234.759C225.456 235.681 224.767 237.527 224.767 239.834V245.601C224.767 247.677 224.078 249.291 222.7 249.983C221.322 250.675 219.714 250.445 217.877 249.522L193.762 235.451L193.302 236.143L217.418 250.214C218.566 250.675 219.714 251.137 220.863 251.137Z" fill="#40F3EB"/>
<path d="M211.447 256.443C212.136 256.443 212.825 256.212 213.514 255.981C215.122 255.058 215.811 253.213 215.811 250.906V245.139C215.811 243.063 216.5 241.448 217.878 240.756C219.256 240.064 220.863 240.295 222.701 241.218L227.754 244.216L228.213 243.524L223.16 240.526C221.093 239.372 219.026 239.142 217.648 240.064C216.04 240.987 215.351 242.832 215.351 245.139V250.906C215.351 252.982 214.662 254.597 213.284 255.289C211.906 255.981 210.299 255.75 208.461 254.828L184.346 240.756L183.886 241.448L208.002 255.52C209.15 256.212 210.299 256.443 211.447 256.443Z" fill="#40F3EB"/>
<path d="M202.03 261.979C202.719 261.979 203.408 261.748 204.097 261.517C205.704 260.595 206.393 258.749 206.393 256.443V250.676C206.393 248.599 207.082 246.985 208.46 246.293C209.838 245.601 211.446 245.831 213.284 246.754L218.336 249.753L218.796 249.061L213.743 246.062C211.676 244.909 209.609 244.678 208.231 245.601C206.623 246.523 205.934 248.369 205.934 250.676V256.443C205.934 258.519 205.245 260.133 203.867 260.825C202.489 261.517 200.881 261.287 199.044 260.364L174.928 246.293L174.469 246.985L198.585 261.056C199.733 261.517 200.881 261.979 202.03 261.979Z" fill="#40F3EB"/>
<path d="M213.972 251.137V272.821L399.546 380.317L585.121 272.821V251.137H213.972Z" fill="#5662F3"/>
<path d="M399.546 358.864L585.121 251.137L399.546 143.64L213.972 251.137L399.546 358.864Z" fill="#BCBEFF"/>
<path d="M399.546 356.326L582.824 249.983L585.121 251.137L399.546 358.864L213.972 251.137L216.269 249.983L399.546 356.326Z" fill="white"/>
<path d="M399.546 333.95L542.172 251.367L399.546 168.553L256.921 251.367L399.546 333.95Z" fill="#0F054C"/>
<path opacity="0.5" d="M399.546 333.95L542.172 251.367L399.546 168.553L256.921 251.367L399.546 333.95Z" fill="#0DFFF3"/>
<path opacity="0.5" d="M399.547 147.562L256.921 230.376V251.367L399.547 168.554V147.562Z" fill="#42E8E0"/>
<path opacity="0.5" d="M399.546 168.554L542.172 251.367V230.376L399.546 147.562V168.554Z" fill="#C4FFFC"/>
<path opacity="0.5" d="M399.546 313.189L542.172 230.376L399.546 147.562L256.921 230.376L399.546 313.189Z" fill="#1A57F3"/>
<path opacity="0.5" d="M399.546 263.363L456.505 230.376L399.546 197.388L342.588 230.376L399.546 263.363Z" fill="#40F3EB"/>
<path opacity="0.5" d="M399.546 200.387L345.114 231.99L342.588 230.375L399.546 197.388L456.505 230.375L453.979 231.99L399.546 200.387Z" fill="#40F3EB"/>
<path opacity="0.5" d="M399.547 313.189V333.95L256.921 251.367V230.375L399.547 313.189Z" fill="#3980EA"/>
<path opacity="0.5" d="M542.172 230.375V251.367L399.546 333.95V313.189L542.172 230.375Z" fill="#6044FF"/>
<path opacity="0.8" d="M399.546 310.883L540.335 229.222L542.172 230.376L399.546 313.189L256.921 230.376L258.758 229.222L399.546 310.883Z" fill="#40F3EB"/>
<path d="M353.154 405.692L377.269 391.62C381.403 389.314 384.848 383.316 384.848 378.472V372.705C384.848 368.091 388.064 362.555 391.968 360.248L397.021 357.249L396.562 356.557L391.509 359.556C387.375 361.863 383.93 367.86 383.93 372.705V378.472C383.93 383.085 380.714 388.622 376.81 390.928L352.695 405L353.154 405.692Z" fill="#40F3EB"/>
<path d="M343.738 400.155L367.853 386.084C371.987 383.777 375.432 377.779 375.432 372.935V367.399C375.432 362.785 378.648 357.249 382.552 354.942L387.605 351.944L387.145 351.251L382.093 354.25C377.959 356.557 374.514 362.555 374.514 367.399V373.166C374.514 377.779 371.298 383.316 367.394 385.623L343.278 399.694L343.738 400.155Z" fill="#40F3EB"/>
<path d="M334.321 394.85L358.436 380.778C362.57 378.472 366.015 372.474 366.015 367.63V361.863C366.015 357.249 369.231 351.713 373.135 349.406L378.188 346.407L377.728 345.715L372.676 348.714C368.542 351.021 365.097 357.019 365.097 361.863V367.63C365.097 372.243 361.881 377.78 357.977 380.086L333.861 394.158L334.321 394.85Z" fill="#40F3EB"/>
<path d="M324.904 389.313L349.02 375.242C353.154 372.935 356.599 366.937 356.599 362.093V356.326C356.599 351.713 359.815 346.176 363.719 343.87L368.772 340.871L368.312 340.179L363.26 343.178C359.126 345.484 355.68 351.482 355.68 356.326V362.093C355.68 366.707 352.465 372.243 348.561 374.55L324.445 388.621L324.904 389.313Z" fill="#40F3EB"/>
<path d="M315.487 384.008L339.603 369.937C343.737 367.63 347.182 361.632 347.182 356.788V351.021C347.182 346.407 350.397 340.871 354.302 338.564L359.354 335.565L358.895 334.873L353.842 337.872C349.708 340.179 346.263 346.177 346.263 351.021V356.788C346.263 361.401 343.048 366.938 339.143 369.244L315.028 383.316L315.487 384.008Z" fill="#40F3EB"/>
<path d="M306.3 378.472L330.416 364.4C334.55 362.093 337.995 356.096 337.995 351.251V345.484C337.995 340.871 341.21 335.335 345.115 333.028L350.167 330.029L349.708 329.337L344.655 332.336C340.521 334.643 337.076 340.64 337.076 345.484V351.251C337.076 355.865 333.861 361.401 329.956 363.708L305.841 377.779L306.3 378.472Z" fill="#40F3EB"/>
<path d="M296.884 372.935L321 358.864C325.134 356.557 328.579 350.56 328.579 345.715V339.948C328.579 335.335 331.794 329.798 335.699 327.492L340.752 324.493L340.292 323.801L335.24 326.8C331.105 329.106 327.66 335.104 327.66 339.948V345.715C327.66 350.329 324.445 355.865 320.541 358.172L296.425 372.243L296.884 372.935Z" fill="#40F3EB"/>
<path d="M287.468 367.63L311.584 353.558C315.718 351.252 319.163 345.254 319.163 340.41V334.643C319.163 330.029 322.378 324.493 326.283 322.186L331.335 319.187L330.876 318.495L325.823 321.494C321.689 323.801 318.244 329.798 318.244 334.643V340.41C318.244 345.023 315.029 350.56 311.124 352.866L287.009 366.938L287.468 367.63Z" fill="#40F3EB"/>
<path d="M278.051 362.093L302.167 348.022C306.301 345.715 309.746 339.717 309.746 334.873V329.106C309.746 324.493 312.961 318.956 316.865 316.65L321.918 313.651L321.459 312.959L316.406 315.958C312.272 318.264 308.827 324.262 308.827 329.106V334.873C308.827 339.487 305.612 345.023 301.707 347.33L277.592 361.401L278.051 362.093Z" fill="#40F3EB"/>
<path d="M268.635 356.788L292.75 342.716C296.885 340.409 300.33 334.412 300.33 329.568V323.801C300.33 319.187 303.545 313.651 307.449 311.344L312.502 308.345L312.043 307.653L306.99 310.652C302.856 312.959 299.411 318.956 299.411 323.801V329.568C299.411 334.181 296.196 339.717 292.291 342.024L268.176 356.096L268.635 356.788Z" fill="#40F3EB"/>
<path d="M259.218 351.251L283.333 337.18C287.468 334.873 290.913 328.875 290.913 324.031V318.264C290.913 313.651 294.128 308.114 298.032 305.808L303.085 302.809L302.626 302.117L297.573 305.116C293.439 307.422 289.994 313.42 289.994 318.264V324.031C289.994 328.645 286.779 334.181 282.874 336.488L258.759 350.559L259.218 351.251Z" fill="#40F3EB"/>
<path d="M249.802 345.946L273.917 331.874C278.051 329.568 281.496 323.57 281.496 318.726V312.959C281.496 308.345 284.712 302.809 288.616 300.502L293.669 297.503L293.21 296.811L288.157 299.81C284.023 302.117 280.578 308.115 280.578 312.959V318.726C280.578 323.339 277.362 328.876 273.458 331.182L249.343 345.254L249.802 345.946Z" fill="#40F3EB"/>
<path d="M240.386 340.41L264.501 326.338C268.635 324.031 272.08 318.034 272.08 313.189V307.422C272.08 302.809 275.296 297.273 279.2 294.966L284.253 291.967L283.793 291.275L278.741 294.274C274.607 296.581 271.161 302.578 271.161 307.422V313.189C271.161 317.803 267.946 323.339 264.042 325.646L239.926 339.717L240.386 340.41Z" fill="#40F3EB"/>
<path d="M231.199 335.104L255.314 321.032C259.448 318.726 262.893 312.728 262.893 307.884V302.117C262.893 297.503 266.109 291.967 270.013 289.66L275.066 286.661L274.607 285.969L269.554 288.968C265.42 291.275 261.975 297.273 261.975 302.117V307.884C261.975 312.497 258.759 318.034 254.855 320.34L230.739 334.412L231.199 335.104Z" fill="#40F3EB"/>
<path d="M221.782 329.568L245.897 315.496C250.031 313.19 253.476 307.192 253.476 302.348V296.581C253.476 291.967 256.692 286.431 260.596 284.124L265.649 281.125L265.19 280.433L260.137 283.432C256.003 285.739 252.558 291.736 252.558 296.581V302.348C252.558 306.961 249.342 312.497 245.438 314.804L221.322 328.876L221.782 329.568Z" fill="#40F3EB"/>
<path d="M212.366 324.031L236.481 309.96C240.615 307.653 244.06 301.656 244.06 296.811V291.275C244.06 286.661 247.276 281.125 251.18 278.818L256.233 275.819L255.773 275.127L250.721 278.126C246.586 280.433 243.141 286.431 243.141 291.275V297.042C243.141 301.656 239.926 307.192 236.022 309.499L211.906 323.57L212.366 324.031Z" fill="#40F3EB"/>
<path d="M202.949 318.726L227.064 304.654C231.198 302.347 234.643 296.35 234.643 291.506V285.739C234.643 281.125 237.859 275.589 241.763 273.282L246.816 270.283L246.356 269.591L241.304 272.59C237.17 274.897 233.724 280.894 233.724 285.739V291.506C233.724 296.119 230.509 301.655 226.605 303.962L202.489 318.034L202.949 318.726Z" fill="#40F3EB"/>
<path d="M193.532 313.189L217.648 299.118C221.782 296.811 225.227 290.814 225.227 285.969V280.202C225.227 275.589 228.442 270.053 232.347 267.746L237.399 264.747L236.94 264.055L231.887 267.054C227.753 269.361 224.308 275.358 224.308 280.202V285.969C224.308 290.583 221.093 296.119 217.188 298.426L193.073 312.497L193.532 313.189Z" fill="#40F3EB"/>
<path d="M184.117 307.884L208.232 293.813C212.366 291.506 215.811 285.508 215.811 280.664V274.897C215.811 270.283 219.027 264.747 222.931 262.44L227.984 259.441L227.525 258.749L222.472 261.748C218.338 264.055 214.893 270.053 214.893 274.897V280.664C214.893 285.277 211.677 290.814 207.773 293.12L183.657 307.192L184.117 307.884Z" fill="#40F3EB"/>
<path d="M174.699 302.348L198.815 288.276C202.949 285.969 206.394 279.972 206.394 275.127V269.36C206.394 264.747 209.609 259.211 213.514 256.904L218.566 253.905L218.107 253.213L213.054 256.212C208.92 258.519 205.475 264.516 205.475 269.36V275.127C205.475 279.741 202.26 285.277 198.355 287.584L174.24 301.656L174.699 302.348Z" fill="#40F3EB"/>
<path d="M446.63 405.692L447.089 405L422.974 390.928C419.069 388.622 415.854 383.085 415.854 378.472V372.705C415.854 367.86 412.409 362.093 408.275 359.556L403.222 356.557L402.763 357.249L407.816 360.248C411.72 362.555 414.935 368.091 414.935 372.705V378.472C414.935 383.316 418.38 389.083 422.515 391.62L446.63 405.692Z" fill="#40F3EB"/>
<path d="M456.046 400.155L456.505 399.463L432.389 385.392C428.485 383.085 425.27 377.549 425.27 372.935V367.399C425.27 362.555 421.825 356.788 417.69 354.25L412.638 351.251L412.178 351.944L417.231 354.942C421.135 357.249 424.351 362.785 424.351 367.399V373.166C424.351 378.01 427.796 383.777 431.93 386.315L456.046 400.155Z" fill="#40F3EB"/>
<path d="M465.463 394.85L465.922 394.158L441.807 380.086C437.903 377.78 434.687 372.243 434.687 367.63V361.863C434.687 357.019 431.242 351.252 427.108 348.714L422.055 345.715L421.596 346.407L426.649 349.406C430.553 351.713 433.768 357.249 433.768 361.863V367.63C433.768 372.474 437.214 378.241 441.348 380.778L465.463 394.85Z" fill="#40F3EB"/>
<path d="M474.879 389.313L475.338 388.621L451.223 374.55C447.319 372.243 444.103 366.707 444.103 362.093V356.326C444.103 351.482 440.658 345.715 436.524 343.178L431.471 340.179L431.012 340.871L436.065 343.87C439.969 346.176 443.184 351.713 443.184 356.326V362.093C443.184 366.937 446.63 372.704 450.764 375.242L474.879 389.313Z" fill="#40F3EB"/>
<path d="M484.066 384.008L484.525 383.316L460.409 369.244C456.505 366.938 453.29 361.401 453.29 356.788V351.021C453.29 346.177 449.845 340.41 445.71 337.872L440.658 334.873L440.198 335.565L445.251 338.564C449.156 340.871 452.371 346.407 452.371 351.021V356.788C452.371 361.632 455.816 367.399 459.95 369.937L484.066 384.008Z" fill="#40F3EB"/>
<path d="M493.482 378.472L493.941 377.779L469.825 363.708C465.921 361.401 462.706 355.865 462.706 351.251V345.484C462.706 340.64 459.261 334.873 455.127 332.336L450.074 329.337L449.614 330.029L454.667 333.028C458.572 335.335 461.787 340.871 461.787 345.484V351.251C461.787 356.096 465.232 361.863 469.366 364.4L493.482 378.472Z" fill="#40F3EB"/>
<path d="M502.899 372.935L503.358 372.243L479.243 358.172C475.339 355.865 472.123 350.329 472.123 345.715V339.948C472.123 335.104 468.678 329.337 464.544 326.8L459.491 323.801L459.032 324.493L464.085 327.492C467.989 329.798 471.204 335.335 471.204 339.948V345.715C471.204 350.56 474.649 356.326 478.784 358.864L502.899 372.935Z" fill="#40F3EB"/>
<path d="M512.315 367.63L512.774 366.938L488.659 352.866C484.755 350.56 481.539 345.023 481.539 340.41V334.643C481.539 329.798 478.094 324.031 473.96 321.494L468.907 318.495L468.448 319.187L473.501 322.186C477.405 324.493 480.62 330.029 480.62 334.643V340.41C480.62 345.254 484.066 351.021 488.2 353.558L512.315 367.63Z" fill="#40F3EB"/>
<path d="M560.776 384.239L663.668 324.954L663.209 324.262L560.776 383.316L522.191 361.401L498.076 347.33C494.171 345.023 490.956 339.487 490.956 334.873V329.106C490.956 324.262 487.511 318.495 483.377 315.958L478.324 312.959L477.865 313.651L482.917 316.65C486.822 318.956 490.037 324.493 490.037 329.106V334.873C490.037 339.718 493.482 345.485 497.616 348.022L521.732 362.093L560.776 384.239Z" fill="#40F3EB"/>
<path d="M531.149 356.788L531.608 356.096L507.492 342.024C503.588 339.717 500.373 334.181 500.373 329.568V323.801C500.373 318.956 496.928 313.189 492.794 310.652L487.741 307.653L487.281 308.345L492.334 311.344C496.239 313.651 499.454 319.187 499.454 323.801V329.568C499.454 334.412 502.899 340.179 507.033 342.716L531.149 356.788Z" fill="#40F3EB"/>
<path d="M540.564 351.251L541.023 350.559L516.908 336.488C513.004 334.181 509.788 328.645 509.788 324.031V318.264C509.788 313.42 506.343 307.653 502.209 305.116L497.156 302.117L496.697 302.809L501.75 305.808C505.654 308.114 508.869 313.651 508.869 318.264V324.031C508.869 328.875 512.315 334.642 516.449 337.18L540.564 351.251Z" fill="#40F3EB"/>
<path d="M549.982 345.946L550.441 345.254L526.325 331.182C522.421 328.876 519.206 323.339 519.206 318.726V312.959C519.206 308.115 515.761 302.348 511.627 299.81L506.574 296.811L506.114 297.503L511.167 300.502C515.072 302.809 518.287 308.345 518.287 312.959V318.726C518.287 323.57 521.732 329.337 525.866 331.874L549.982 345.946Z" fill="#40F3EB"/>
<path d="M559.169 340.41L559.628 339.717L535.512 325.646C531.608 323.339 528.393 317.803 528.393 313.189V307.422C528.393 302.578 524.948 296.811 520.813 294.274L515.761 291.275L515.301 291.967L520.354 294.966C524.259 297.273 527.474 302.809 527.474 307.422V313.189C527.474 318.034 530.919 323.801 535.053 326.338L559.169 340.41Z" fill="#40F3EB"/>
<path d="M568.584 335.104L569.043 334.412L544.928 320.34C541.024 318.034 537.808 312.497 537.808 307.884V302.117C537.808 297.273 534.363 291.506 530.229 288.968L525.176 285.969L524.717 286.661L529.77 289.66C533.674 291.967 536.889 297.503 536.889 302.117V307.884C536.889 312.728 540.335 318.495 544.469 321.032L568.584 335.104Z" fill="#40F3EB"/>
<path d="M578.002 329.568L578.461 328.876L554.345 314.804C550.441 312.497 547.226 306.961 547.226 302.348V296.581C547.226 291.736 543.781 285.969 539.647 283.432L534.594 280.433L534.134 281.125L539.187 284.124C543.092 286.431 546.307 291.967 546.307 296.581V302.348C546.307 307.192 549.752 312.959 553.886 315.496L578.002 329.568Z" fill="#40F3EB"/>
<path d="M587.418 324.031L587.877 323.339L563.761 309.268C559.857 306.961 556.642 301.425 556.642 296.811V291.275C556.642 286.431 553.197 280.664 549.063 278.126L544.01 275.127L543.55 275.819L548.603 278.818C552.508 281.125 555.723 286.661 555.723 291.275V297.042C555.723 301.886 559.168 307.653 563.302 310.191L587.418 324.031Z" fill="#40F3EB"/>
<path d="M596.834 318.726L597.293 318.034L573.178 303.962C569.273 301.655 566.058 296.119 566.058 291.506V285.739C566.058 280.894 562.613 275.127 558.479 272.59L553.426 269.591L552.966 270.514L558.019 273.513C561.924 275.819 565.139 281.356 565.139 285.969V291.736C565.139 296.58 568.584 302.347 572.718 304.885L596.834 318.726Z" fill="#40F3EB"/>
<path d="M606.251 313.189L606.71 312.497L582.595 298.426C578.69 296.119 575.475 290.583 575.475 285.969V280.202C575.475 275.358 572.03 269.591 567.896 267.054L562.843 264.055L562.383 264.747L567.436 267.746C571.341 270.053 574.556 275.589 574.556 280.202V285.969C574.556 290.814 578.001 296.581 582.135 299.118L606.251 313.189Z" fill="#40F3EB"/>
<path d="M615.667 307.884L616.126 307.192L592.011 293.12C588.107 290.814 584.891 285.277 584.891 280.664V274.897C584.891 270.053 581.446 264.286 577.312 261.748L572.259 258.749L571.8 259.441L576.853 262.44C580.757 264.747 583.973 270.283 583.973 274.897V280.664C583.973 285.508 587.418 291.275 591.552 293.813L615.667 307.884Z" fill="#40F3EB"/>
<path d="M625.084 302.348L625.543 301.656L601.428 287.584C597.524 285.277 594.308 279.741 594.308 275.127V269.36C594.308 264.516 590.863 258.749 586.729 256.212L581.676 253.213L581.217 253.905L586.27 256.904C590.174 259.211 593.39 264.747 593.39 269.36V275.127C593.39 279.972 596.835 285.739 600.969 288.276L625.084 302.348Z" fill="#40F3EB"/>
<g opacity="0.1">
<path opacity="0.1" d="M585.122 200.387L619.573 180.318V220.456L585.122 240.525L550.442 220.456V180.318L585.122 200.387Z" fill="#40F3EB"/>
<path opacity="0.1" d="M585.122 240.525L619.573 220.456V180.318L585.122 200.387V240.525Z" fill="#40F3EB"/>
<path opacity="0.1" d="M550.442 220.456L585.122 240.525V200.387L550.442 180.318V220.456Z" fill="#A9FFFB"/>
<path opacity="0.1" d="M585.122 200.387L619.573 180.318L585.122 160.249L550.442 180.318L585.122 200.387Z" fill="#40F3EB"/>
<path opacity="0.1" d="M585.122 200.387L619.573 180.318V182.164L585.122 202.233L550.442 182.164V180.318L585.122 200.387Z" fill="white"/>
</g>
<path opacity="0.4" d="M585.122 176.166L619.573 156.097L585.122 136.028L550.442 156.097L585.122 176.166Z" fill="#03002D"/>
<path d="M585.122 105.578L619.573 85.5093V125.647L585.122 145.717L550.442 125.647V85.5093L585.122 105.578Z" fill="#40F3EB"/>
<path d="M585.122 145.717L619.573 125.647V85.5093L585.122 105.578V145.717Z" fill="#40F3EB"/>
<path d="M550.442 125.647L585.122 145.717V105.578L550.442 85.5093V125.647Z" fill="#A9FFFB"/>
<path d="M585.122 105.578L619.573 85.5093L585.122 65.4402L550.442 85.5093L585.122 105.578Z" fill="#40F3EB"/>
<path d="M585.122 100.734L611.075 85.509L585.122 70.2842L558.939 85.509L585.122 100.734Z" fill="#A9FFFB"/>
<path d="M585.122 105.578L619.573 85.5093V87.3547L585.122 107.424L550.442 87.3547V85.5093L585.122 105.578Z" fill="white"/>
<path d="M585.122 45.3711L619.573 25.302V65.4401L585.122 85.5092L550.442 65.4401V25.302L585.122 45.3711Z" fill="#40F3EB"/>
<path d="M585.122 85.5092L619.573 65.4401V25.302L585.122 45.3711V85.5092Z" fill="#40F3EB"/>
<path d="M550.442 65.4401L585.122 85.5092V45.3711L550.442 25.302V65.4401Z" fill="#A9FFFB"/>
<path d="M585.122 45.3711L619.573 25.302L585.122 5.23291L550.442 25.302L585.122 45.3711Z" fill="#40F3EB"/>
<path d="M585.122 45.3711L619.573 25.302V27.1474L585.122 47.2165L550.442 27.1474V25.302L585.122 45.3711Z" fill="white"/>
<g opacity="0.1">
<path opacity="0.1" d="M129.453 223.455L164.134 203.386V243.524L129.453 263.594L95.0027 243.524V203.386L129.453 223.455Z" fill="#40F3EB"/>
<path opacity="0.1" d="M129.453 263.594L164.134 243.524V203.386L129.453 223.455V263.594Z" fill="#40F3EB"/>
<path opacity="0.1" d="M95.0029 243.524L129.454 263.594V223.455L95.0029 203.386V243.524Z" fill="#A9FFFB"/>
<path opacity="0.1" d="M129.453 223.456L164.134 203.386L129.453 183.317L95.0027 203.386L129.453 223.456Z" fill="#40F3EB"/>
<path opacity="0.1" d="M129.453 223.455L164.134 203.386V205.232L129.453 225.301L95.0027 205.232V203.386L129.453 223.455Z" fill="white"/>
</g>
<path d="M128.535 208.692L179.292 179.165L178.832 178.934L128.535 149.869H128.305L77.5477 179.165L78.007 179.396L128.535 208.692ZM177.914 179.165L128.535 207.769L79.1554 179.165L128.535 150.561L177.914 179.165Z" fill="#40F3EB"/>
<path opacity="0.4" d="M129.453 199.234L164.134 179.165L129.453 159.096L95.0027 179.165L129.453 199.234Z" fill="#03002D"/>
<path d="M129.453 128.646L164.134 108.577V148.716L129.453 168.785L95.0027 148.716V108.577L129.453 128.646Z" fill="#40F3EB"/>
<path d="M129.453 168.785L164.134 148.716V108.577L129.453 128.646V168.785Z" fill="#40F3EB"/>
<path d="M95.0023 148.716L129.453 168.785V128.646L95.0023 108.577V148.716Z" fill="#A9FFFB"/>
<path d="M129.453 128.646L164.134 108.577L129.453 88.5083L95.0027 108.577L129.453 128.646Z" fill="#40F3EB"/>
<path d="M129.453 128.646L164.134 108.577V110.423L129.453 130.492L95.0027 110.423V108.577L129.453 128.646Z" fill="white"/>
<path d="M688.243 339.487L739 309.96L738.541 309.729L688.243 280.664H688.014L637.256 309.96L637.716 310.19L688.243 339.487ZM737.622 309.96L688.243 338.564L638.864 309.96L688.243 281.356L737.622 309.96Z" fill="#40F3EB"/>
<g opacity="0.1">
<path opacity="0.1" d="M688.244 354.942L722.694 334.873V375.011L688.244 395.081L653.563 375.011V334.873L688.244 354.942Z" fill="#40F3EB"/>
<path opacity="0.1" d="M688.244 395.081L722.694 375.011V334.873L688.244 354.942V395.081Z" fill="#40F3EB"/>
<path opacity="0.1" d="M653.563 375.011L688.244 395.081V354.942L653.563 334.873V375.011Z" fill="#A9FFFB"/>
<path opacity="0.1" d="M688.244 354.942L722.694 334.873L688.244 314.804L653.563 334.873L688.244 354.942Z" fill="#40F3EB"/>
<path opacity="0.1" d="M688.244 354.942L722.694 334.873V336.719L688.244 356.788L653.563 336.719V334.873L688.244 354.942Z" fill="white"/>
</g>
<path opacity="0.1" d="M688.244 330.721L722.694 310.652L688.244 290.583L653.563 310.652L688.244 330.721Z" fill="#03002D"/>
<path d="M688.244 260.133L722.694 240.064V280.202L688.244 300.271L653.563 280.202V240.064L688.244 260.133Z" fill="#40F3EB"/>
<path d="M688.244 300.271L722.694 280.202V240.064L688.244 260.133V300.271Z" fill="#40F3EB"/>
<path d="M653.563 280.202L688.244 300.271V260.133L653.563 240.064V280.202Z" fill="#A9FFFB"/>
<path d="M688.244 260.133L722.694 240.064L688.244 219.995L653.563 240.064L688.244 260.133Z" fill="#40F3EB"/>
<path d="M688.244 260.133L722.694 240.064V241.679L688.244 261.748L653.563 241.679V240.064L688.244 260.133Z" fill="white"/>
<g opacity="0.1">
<path opacity="0.1" d="M402.992 546.175L437.442 526.106V566.244L402.992 586.313L368.311 566.244V526.106L402.992 546.175Z" fill="#40F3EB"/>
<path opacity="0.1" d="M402.992 586.313L437.442 566.244V526.106L402.992 546.175V586.313Z" fill="#40F3EB"/>
<path opacity="0.1" d="M368.312 566.244L402.992 586.313V546.175L368.312 526.106V566.244Z" fill="#A9FFFB"/>
<path opacity="0.1" d="M402.992 546.175L437.442 526.106L402.992 506.037L368.311 526.106L402.992 546.175Z" fill="#40F3EB"/>
<path opacity="0.1" d="M402.992 546.175L437.442 526.106V527.952L402.992 548.021L368.311 527.952V526.106L402.992 546.175Z" fill="white"/>
</g>
<path opacity="0.1" d="M402.992 521.954L437.442 501.885L402.992 481.816L368.311 501.885L402.992 521.954Z" fill="#03002D"/>
<path d="M402.992 451.366L437.442 431.297V471.435L402.992 491.504L368.311 471.435V431.297L402.992 451.366Z" fill="#40F3EB"/>
<path d="M402.992 491.504L437.442 471.435V431.297L402.992 451.366V491.504Z" fill="#40F3EB"/>
<path d="M368.312 471.435L402.992 491.504V451.366L368.312 431.297V471.435Z" fill="#A9FFFB"/>
<path d="M402.992 451.366L437.442 431.297L402.992 411.228L368.311 431.297L402.992 451.366Z" fill="#40F3EB"/>
<path d="M402.992 451.366L437.442 431.297V433.142L402.992 453.211L368.311 433.142V431.297L402.992 451.366Z" fill="white"/>
<g opacity="0.1">
<path opacity="0.1" d="M119.432 412.289L89.3447 438.817L81.5358 399.602L111.393 372.843L149.289 385.761L157.327 424.976L119.432 412.289Z" fill="#40F3EB"/>
<path opacity="0.1" d="M111.393 372.843L81.5359 399.602L89.3448 438.817L119.432 412.289L111.393 372.843Z" fill="#40F3EB"/>
<path opacity="0.1" d="M149.289 385.761L111.393 372.843L119.432 412.289L157.327 424.976L149.289 385.761Z" fill="#A9FFFB"/>
<path opacity="0.1" d="M119.432 412.289L89.3447 438.817L127.24 451.504L157.327 424.976L119.432 412.289Z" fill="#40F3EB"/>
<path opacity="0.1" d="M119.432 412.289L89.3448 438.817L89.1151 437.202L118.972 410.443L156.868 423.361L157.327 424.976L119.432 412.289Z" fill="white"/>
</g>
<path opacity="0.4" d="M113.229 396.833L147.91 376.995L113.229 356.926L78.5489 376.995L113.229 396.833Z" fill="#03002D"/>
<path opacity="0.4" d="M113.23 431.896C135.967 431.896 158.934 426.822 176.16 416.902C193.155 407.214 202.342 394.065 202.342 380.224C202.342 366.384 192.926 353.235 176.16 343.546C141.479 323.477 84.9801 323.477 50.2998 343.546C33.3041 353.235 24.1172 366.384 24.1172 380.224C24.1172 394.065 33.5338 407.214 50.2998 416.902C67.5251 426.822 90.4922 431.896 113.23 431.896ZM113.23 328.783C135.967 328.783 158.475 333.858 175.93 343.777C192.696 353.466 201.653 366.153 201.653 379.994C201.653 393.604 192.466 406.522 175.93 416.21C141.479 436.279 85.2097 436.279 50.759 416.21C33.9931 406.522 25.0359 393.834 25.0359 380.224C25.0359 366.614 34.2227 353.696 50.759 344.008C67.9844 333.858 90.4922 328.783 113.23 328.783Z" fill="#40F3EB"/>
<path opacity="0.2" d="M113.23 445.737C142.168 445.737 171.107 439.278 193.155 426.591C214.515 414.134 226.458 397.525 226.458 379.994C226.458 362.462 214.745 345.853 193.155 333.397C149.059 307.791 77.4012 307.791 33.3043 333.397C11.9449 345.853 0.00202942 362.462 0.00202942 379.994C0.00202942 397.525 11.7153 414.134 33.3043 426.591L33.534 426.36L33.3043 426.591C55.3528 439.278 84.2914 445.737 113.23 445.737ZM113.23 314.942C141.939 314.942 170.877 321.401 192.696 334.089C213.826 346.315 225.539 362.693 225.539 379.994C225.539 397.295 213.826 413.673 192.696 425.899C148.829 451.274 77.4012 451.274 33.534 425.899C12.4043 413.673 0.691086 397.295 0.691086 379.994C0.691086 362.693 12.4043 346.315 33.534 334.089C55.5824 321.401 84.521 314.942 113.23 314.942Z" fill="#40F3EB"/>
<path d="M113.23 420.824C131.144 420.824 149.288 416.902 162.839 408.829C176.16 401.216 183.509 390.836 183.509 379.763C183.509 368.691 176.16 358.541 162.839 350.698C135.508 334.781 90.9517 334.781 63.6209 350.698C50.3 358.541 42.9505 368.691 42.9505 379.763C42.9505 390.836 50.3 400.986 63.6209 408.829C77.4011 416.902 95.3155 420.824 113.23 420.824ZM113.23 339.856C131.144 339.856 148.829 343.777 162.609 351.62C175.7 359.233 182.82 369.383 182.82 379.994C182.82 390.605 175.7 400.755 162.609 408.367C135.508 424.054 91.1814 424.054 64.0802 408.367L63.8506 408.598L64.0802 408.367C50.989 400.755 43.8692 390.605 43.8692 379.994C43.8692 369.383 50.989 359.233 64.0802 351.62C77.6308 343.777 95.3155 339.856 113.23 339.856Z" fill="#40F3EB"/>
<path d="M117.134 341.47L121.268 301.563L153.652 325.092L149.747 365L113.23 381.609L80.8461 358.079L117.134 341.47Z" fill="#40F3EB"/>
<path d="M149.747 365L153.652 325.092L121.268 301.563L117.134 341.47L149.747 365Z" fill="#40F3EB"/>
<path d="M113.23 381.609L149.747 365L117.134 341.47L80.8461 358.079L113.23 381.609Z" fill="#A9FFFB"/>
<path d="M117.135 341.47L121.269 301.563L84.7513 318.172L80.8468 358.079L117.135 341.47Z" fill="#40F3EB"/>
<path d="M117.134 341.47L121.268 301.563L122.646 302.716L118.742 342.624L82.2242 359.002L80.8461 358.079L117.134 341.47Z" fill="white"/>
<path d="M399.547 146.712L434.227 126.643V166.781L399.547 186.85L364.866 166.781V126.643L399.547 146.712Z" fill="#40F3EB"/>
<path d="M399.547 186.85L434.227 166.781V126.643L399.547 146.712V186.85Z" fill="#40F3EB"/>
<path d="M364.867 166.781L399.547 186.85V146.712L364.867 126.643V166.781Z" fill="#A9FFFB"/>
<path d="M399.547 146.712L434.227 126.643L399.547 106.574L364.866 126.643L399.547 146.712Z" fill="#40F3EB"/>
<path d="M399.547 146.712L432.619 127.335L434.227 128.258L399.547 148.327L364.866 128.258L366.474 127.566L399.547 146.712Z" fill="white"/>
<path d="M354.53 172.317L389.211 152.248V192.386L354.53 212.456L320.08 192.386V152.248L354.53 172.317Z" fill="#40F3EB"/>
<path d="M354.53 212.456L389.211 192.386V152.248L354.53 172.317V212.456Z" fill="#40F3EB"/>
<path d="M320.08 192.386L354.531 212.456V172.317L320.08 152.248V192.386Z" fill="#A9FFFB"/>
<path d="M354.53 172.317L389.211 152.248L354.53 132.179L320.08 152.248L354.53 172.317Z" fill="#40F3EB"/>
<path d="M354.53 172.317L387.603 153.171L389.211 154.094L354.53 174.163L320.08 154.094L321.458 153.171L354.53 172.317Z" fill="white"/>
<path d="M309.745 198.153L344.196 178.084V218.222L309.745 238.291L275.065 218.222V178.084L309.745 198.153Z" fill="#40F3EB"/>
<path d="M309.745 238.291L344.196 218.222V178.084L309.745 198.153V238.291Z" fill="#40F3EB"/>
<path d="M275.065 218.222L309.745 238.291V198.153L275.065 178.084V218.222Z" fill="#A9FFFB"/>
<path d="M309.745 198.153L344.196 178.084L309.745 158.015L275.065 178.084L309.745 198.153Z" fill="#40F3EB"/>
<path d="M309.745 198.153L342.818 179.007L344.196 179.93L309.745 199.999L275.065 179.93V178.084L309.745 198.153Z" fill="white"/>
<path d="M444.562 174.163L479.013 154.094V194.232L444.562 214.301L409.882 194.232V154.094L444.562 174.163Z" fill="#40F3EB"/>
<path d="M444.562 214.301L479.013 194.232V154.094L444.562 174.163V214.301Z" fill="#40F3EB"/>
<path d="M409.882 194.232L444.562 214.301V174.163L409.882 154.094V194.232Z" fill="#A9FFFB"/>
<path d="M444.562 174.163L479.013 154.093L444.562 134.024L409.882 154.093L444.562 174.163Z" fill="#40F3EB"/>
<path d="M444.562 174.162L477.635 155.016L479.013 155.708L444.562 175.777L409.882 155.708L411.489 155.016L444.562 174.162Z" fill="white"/>
<path d="M399.547 199.999L434.227 179.93V220.068L399.547 240.137L364.866 220.068V179.93L399.547 199.999Z" fill="#40F3EB"/>
<path d="M399.547 240.137L434.227 220.068V179.93L399.547 199.999V240.137Z" fill="#40F3EB"/>
<path d="M364.867 220.068L399.547 240.137V199.999L364.867 179.93V220.068Z" fill="#A9FFFB"/>
<path d="M399.547 199.999L434.227 179.93L399.547 159.861L364.866 179.93L399.547 199.999Z" fill="#40F3EB"/>
<path d="M399.547 199.999L432.619 180.622L434.227 181.545L399.547 201.614L364.866 181.545L366.474 180.622L399.547 199.999Z" fill="white"/>
<path d="M354.53 225.604L389.211 205.535V245.673L354.53 265.742L320.08 245.673V205.535L354.53 225.604Z" fill="#40F3EB"/>
<path d="M354.53 265.742L389.211 245.673V205.535L354.53 225.604V265.742Z" fill="#40F3EB"/>
<path d="M320.08 245.673L354.531 265.742V225.604L320.08 205.535V245.673Z" fill="#A9FFFB"/>
<path d="M354.53 225.604L389.211 205.535L354.53 185.466L320.08 205.535L354.53 225.604Z" fill="#40F3EB"/>
<path d="M354.53 225.604L387.603 206.458L389.211 207.381L354.53 227.45L320.08 207.381V205.535L354.53 225.604Z" fill="white"/>
<path d="M489.347 201.614L524.028 181.544V221.683L489.347 241.752L454.897 221.683V181.544L489.347 201.614Z" fill="#40F3EB"/>
<path d="M489.347 241.752L524.028 221.683V181.544L489.347 201.614V241.752Z" fill="#40F3EB"/>
<path d="M454.898 221.683L489.348 241.752V201.614L454.898 181.544V221.683Z" fill="#A9FFFB"/>
<path d="M489.347 201.614L524.028 181.544L489.347 161.475L454.897 181.544L489.347 201.614Z" fill="#40F3EB"/>
<path d="M489.347 201.614L524.028 181.544V183.39L489.347 203.459L454.897 183.39L456.275 182.467L489.347 201.614Z" fill="white"/>
<path d="M444.562 227.449L479.013 207.38V247.519L444.562 267.588L409.882 247.519V207.38L444.562 227.449Z" fill="#40F3EB"/>
<path d="M444.562 267.588L479.013 247.519V207.38L444.562 227.449V267.588Z" fill="#40F3EB"/>
<path d="M409.882 247.519L444.562 267.588V227.449L409.882 207.38V247.519Z" fill="#A9FFFB"/>
<path d="M444.562 227.449L479.013 207.38L444.562 187.311L409.882 207.38L444.562 227.449Z" fill="#40F3EB"/>
<path d="M444.562 227.449L479.013 207.38V208.995L444.562 229.064L409.882 208.995L411.489 208.303L444.562 227.449Z" fill="white"/>
<path d="M399.547 253.286L434.227 233.217V273.124L399.547 293.193L364.866 273.124V233.217L399.547 253.286Z" fill="#40F3EB"/>
<path d="M399.547 293.193L434.227 273.124V233.217L399.547 253.286V293.193Z" fill="#40F3EB"/>
<path d="M364.867 273.124L399.547 293.193V253.286L364.867 233.217V273.124Z" fill="#A9FFFB"/>
<path d="M399.547 253.286L434.227 233.217L399.547 213.147L364.866 233.217L399.547 253.286Z" fill="#40F3EB"/>
<path d="M399.547 253.286L434.227 233.217V234.831L399.547 254.9L364.866 234.831V233.217L399.547 253.286Z" fill="white"/>
<path d="M399.547 93.425L434.227 73.356V113.494L399.547 133.563L364.866 113.494V73.356L399.547 93.425Z" fill="#40F3EB"/>
<path d="M399.547 133.563L434.227 113.494V73.356L399.547 93.425V133.563Z" fill="#40F3EB"/>
<path d="M364.867 113.494L399.547 133.563V93.425L364.867 73.356V113.494Z" fill="#A9FFFB"/>
<path d="M399.547 93.425L434.227 73.3559L399.547 53.2869L364.866 73.3559L399.547 93.425Z" fill="#40F3EB"/>
<path d="M399.547 93.4249L432.619 74.2786L434.227 74.9706L399.547 95.0397L364.866 74.9706L366.474 74.2786L399.547 93.4249Z" fill="white"/>
<path opacity="0.7" d="M399.547 246.596L423.203 232.986L399.547 219.145L375.891 232.986L399.547 246.596Z" fill="#0BC6D2"/>
<path opacity="0.7" d="M444.563 220.76L467.989 207.15L444.563 193.54L420.907 207.15L444.563 220.76Z" fill="#0BC6D2"/>
<path opacity="0.7" d="M354.531 219.145L378.187 205.535L354.531 191.694L330.875 205.535L354.531 219.145Z" fill="#0BC6D2"/>
<path opacity="0.7" d="M309.516 191.925L333.172 178.315L309.516 164.474L285.859 178.315L309.516 191.925Z" fill="#0BC6D2"/>
<path opacity="0.7" d="M489.348 195.154L513.004 181.314L489.348 167.704L465.921 181.314L489.348 195.154Z" fill="#0BC6D2"/>
<path d="M354.53 119.261L389.211 99.1921V139.1L354.53 159.169L320.08 139.1V99.1921L354.53 119.261Z" fill="#40F3EB"/>
<path d="M354.53 159.169L389.211 139.1V99.1921L354.53 119.261V159.169Z" fill="#40F3EB"/>
<path d="M320.08 139.1L354.531 159.169V119.261L320.08 99.1921V139.1Z" fill="#A9FFFB"/>
<path d="M354.53 119.261L389.211 99.1921L354.53 79.123L320.08 99.1921L354.53 119.261Z" fill="#40F3EB"/>
<path d="M354.53 119.261L387.603 99.8843L389.211 100.807L354.53 120.876L320.08 100.807L321.458 99.8843L354.53 119.261Z" fill="white"/>
<path d="M309.745 144.866L344.196 124.797V164.936L309.745 185.005L275.065 164.936V124.797L309.745 144.866Z" fill="#40F3EB"/>
<path d="M309.745 185.005L344.196 164.936V124.797L309.745 144.866V185.005Z" fill="#40F3EB"/>
<path d="M275.065 164.936L309.745 185.005V144.866L275.065 124.797V164.936Z" fill="#A9FFFB"/>
<path d="M309.745 144.866L344.196 124.797L309.745 104.728L275.065 124.797L309.745 144.866Z" fill="#40F3EB"/>
<path d="M309.745 144.866L342.818 125.72L344.196 126.643L309.745 146.712L275.065 126.643V124.797L309.745 144.866Z" fill="white"/>
<path d="M444.562 120.876L479.013 100.807V140.945L444.562 161.014L409.882 140.945V100.807L444.562 120.876Z" fill="#40F3EB"/>
<path d="M444.562 161.014L479.013 140.945V100.807L444.562 120.876V161.014Z" fill="#40F3EB"/>
<path d="M409.882 140.945L444.562 161.014V120.876L409.882 100.807V140.945Z" fill="#A9FFFB"/>
<path d="M444.562 120.876L479.013 100.807L444.562 80.7375L409.882 100.807L444.562 120.876Z" fill="#40F3EB"/>
<path d="M444.562 120.876L477.635 101.729L479.013 102.652L444.562 122.721L409.882 102.652L411.489 101.729L444.562 120.876Z" fill="white"/>
<path d="M399.547 146.712L434.227 126.643V166.781L399.547 186.85L364.866 166.781V126.643L399.547 146.712Z" fill="#40F3EB"/>
<path d="M399.547 186.85L434.227 166.781V126.643L399.547 146.712V186.85Z" fill="#40F3EB"/>
<path d="M364.867 166.781L399.547 186.85V146.712L364.867 126.643V166.781Z" fill="#A9FFFB"/>
<path d="M399.547 146.712L434.227 126.643L399.547 106.574L364.866 126.643L399.547 146.712Z" fill="#40F3EB"/>
<path d="M399.547 146.712L432.619 127.565L434.227 128.257L399.547 148.327L364.866 128.257L366.474 127.565L399.547 146.712Z" fill="white"/>
<path d="M354.53 172.317L389.211 152.248V192.386L354.53 212.456L320.08 192.386V152.248L354.53 172.317Z" fill="#40F3EB"/>
<path d="M354.53 212.456L389.211 192.386V152.248L354.53 172.317V212.456Z" fill="#40F3EB"/>
<path d="M320.08 192.386L354.531 212.456V172.317L320.08 152.248V192.386Z" fill="#A9FFFB"/>
<path d="M354.53 172.317L389.211 152.248L354.53 132.179L320.08 152.248L354.53 172.317Z" fill="#40F3EB"/>
<path d="M354.53 172.317L387.603 153.171L389.211 154.094L354.53 174.163L320.08 154.094V152.248L354.53 172.317Z" fill="white"/>
<path d="M489.347 148.327L524.028 128.258V168.396L489.347 188.465L454.897 168.396V128.258L489.347 148.327Z" fill="#40F3EB"/>
<path d="M489.347 188.465L524.028 168.396V128.258L489.347 148.327V188.465Z" fill="#40F3EB"/>
<path d="M454.898 168.396L489.348 188.465V148.327L454.898 128.258V168.396Z" fill="#A9FFFB"/>
<path d="M489.347 148.327L524.028 128.258L489.347 108.188L454.897 128.258L489.347 148.327Z" fill="#40F3EB"/>
<path d="M489.347 148.327L522.65 129.18L524.028 130.103L489.347 150.172L454.897 130.103L456.275 129.18L489.347 148.327Z" fill="white"/>
<path d="M444.562 174.163L479.013 154.094V194.232L444.562 214.301L409.882 194.232V154.094L444.562 174.163Z" fill="#40F3EB"/>
<path d="M444.562 214.301L479.013 194.232V154.094L444.562 174.163V214.301Z" fill="#40F3EB"/>
<path d="M409.882 194.232L444.562 214.301V174.163L409.882 154.094V194.232Z" fill="#A9FFFB"/>
<path d="M444.562 174.163L479.013 154.093L444.562 134.024L409.882 154.093L444.562 174.163Z" fill="#40F3EB"/>
<path d="M444.562 174.163L479.013 154.094V155.708L444.562 175.777L409.882 155.708L411.489 155.016L444.562 174.163Z" fill="white"/>
<path d="M399.547 199.999L434.227 179.93V220.068L399.547 240.137L364.866 220.068V179.93L399.547 199.999Z" fill="#40F3EB"/>
<path d="M399.547 240.137L434.227 220.068V179.93L399.547 199.999V240.137Z" fill="#40F3EB"/>
<path d="M364.867 220.068L399.547 240.137V199.999L364.867 179.93V220.068Z" fill="#A9FFFB"/>
<path d="M399.547 199.999L434.227 179.93L399.547 159.861L364.866 179.93L399.547 199.999Z" fill="#40F3EB"/>
<path d="M399.547 199.999L434.227 179.93V181.544L399.547 201.614L364.866 181.544V179.93L399.547 199.999Z" fill="white"/>
<path opacity="0.7" d="M309.516 138.869L333.172 125.259L309.516 111.649L285.859 125.259L309.516 138.869Z" fill="#0BC6D2"/>
<path opacity="0.7" d="M489.348 142.098L513.004 128.488L489.348 114.647L465.921 128.488L489.348 142.098Z" fill="#0BC6D2"/>
<path d="M399.547 40.1382L434.227 20.0691V60.2072L399.547 80.2763L364.866 60.2072V20.0691L399.547 40.1382Z" fill="#40F3EB"/>
<path d="M399.547 80.2763L434.227 60.2072V20.0691L399.547 40.1382V80.2763Z" fill="#40F3EB"/>
<path d="M364.867 60.2072L399.547 80.2763V40.1382L364.867 20.0691V60.2072Z" fill="#A9FFFB"/>
<path d="M399.547 40.1381L434.227 20.0691L399.547 0L364.866 20.0691L399.547 40.1381Z" fill="#40F3EB"/>
<path d="M399.547 40.1382L434.227 20.0691V21.6838L399.547 41.7529L364.866 21.6838V20.0691L399.547 40.1382Z" fill="white"/>
<path d="M354.53 65.9741L389.211 45.905V86.0432L354.53 106.112L320.08 86.0432V45.905L354.53 65.9741Z" fill="#40F3EB"/>
<path d="M354.53 106.112L389.211 86.0432V45.905L354.53 65.9741V106.112Z" fill="#40F3EB"/>
<path d="M320.08 86.0432L354.531 106.112V65.9741L320.08 45.905V86.0432Z" fill="#A9FFFB"/>
<path d="M354.53 65.9741L389.211 45.905L354.53 25.8359L320.08 45.905L354.53 65.9741Z" fill="#40F3EB"/>
<path d="M354.53 65.9741L389.211 45.905V47.5198L354.53 67.5889L320.08 47.5198V45.905L354.53 65.9741Z" fill="white"/>
<path d="M309.745 91.5796L344.196 71.5105V111.649L309.745 131.718L275.065 111.649V71.5105L309.745 91.5796Z" fill="#40F3EB"/>
<path d="M309.745 131.718L344.196 111.649V71.5105L309.745 91.5796V131.718Z" fill="#40F3EB"/>
<path d="M275.065 111.649L309.745 131.718V91.5796L275.065 71.5105V111.649Z" fill="#A9FFFB"/>
<path d="M309.745 91.5796L344.196 71.5105L309.745 51.4414L275.065 71.5105L309.745 91.5796Z" fill="#40F3EB"/>
<path d="M309.745 91.5796L344.196 71.5105V73.3559L309.745 93.425L275.065 73.3559V71.5105L309.745 91.5796Z" fill="white"/>
<path d="M444.562 67.5888L479.013 47.5198V87.6579L444.562 107.727L409.882 87.6579V47.5198L444.562 67.5888Z" fill="#40F3EB"/>
<path d="M444.562 107.727L479.013 87.6579V47.5198L444.562 67.5888V107.727Z" fill="#40F3EB"/>
<path d="M409.882 87.6579L444.562 107.727V67.5888L409.882 47.5198V87.6579Z" fill="#A9FFFB"/>
<path d="M444.562 67.5888L479.013 47.5198L444.562 27.4507L409.882 47.5198L444.562 67.5888Z" fill="#40F3EB"/>
<path d="M444.562 67.5888L479.013 47.5198V49.3652L444.562 69.4343L409.882 49.3652V47.5198L444.562 67.5888Z" fill="white"/>
<path d="M489.347 95.0398L524.028 74.9707V115.109L489.347 135.178L454.897 115.109V74.9707L489.347 95.0398Z" fill="#40F3EB"/>
<path d="M489.347 135.178L524.028 115.109V74.9707L489.347 95.0398V135.178Z" fill="#40F3EB"/>
<path d="M454.898 115.109L489.348 135.178V95.0398L454.898 74.9707V115.109Z" fill="#A9FFFB"/>
<path d="M489.347 95.0398L524.028 74.9707L489.347 54.9016L454.897 74.9707L489.347 95.0398Z" fill="#40F3EB"/>
<path d="M489.347 95.0398L524.028 74.9707V76.8161L489.347 96.8852L454.897 76.8161V74.9707L489.347 95.0398Z" fill="white"/>
<path opacity="0.4" d="M600.739 365.092C598.202 365.092 596.146 363.027 596.146 360.479C596.146 357.931 598.202 355.865 600.739 355.865C603.276 355.865 605.333 357.931 605.333 360.479C605.333 363.027 603.276 365.092 600.739 365.092Z" fill="#40F3EB"/>
<path d="M600.74 362.555C599.598 362.555 598.673 361.625 598.673 360.479C598.673 359.332 599.598 358.403 600.74 358.403C601.881 358.403 602.807 359.332 602.807 360.479C602.807 361.625 601.881 362.555 600.74 362.555Z" fill="#40F3EB"/>
<path opacity="0.4" d="M187.562 151.253C185.025 151.253 182.968 149.187 182.968 146.639C182.968 144.091 185.025 142.026 187.562 142.026C190.099 142.026 192.155 144.091 192.155 146.639C192.155 149.187 190.099 151.253 187.562 151.253Z" fill="#40F3EB"/>
<path d="M187.562 148.715C186.42 148.715 185.495 147.786 185.495 146.639C185.495 145.493 186.42 144.563 187.562 144.563C188.703 144.563 189.629 145.493 189.629 146.639C189.629 147.786 188.703 148.715 187.562 148.715Z" fill="#40F3EB"/>
<path opacity="0.4" d="M52.5948 404.907C50.0579 404.907 48.0014 402.842 48.0014 400.294C48.0014 397.746 50.0579 395.68 52.5948 395.68C55.1317 395.68 57.1882 397.746 57.1882 400.294C57.1882 402.842 55.1317 404.907 52.5948 404.907Z" fill="#40F3EB"/>
<path d="M52.5955 402.37C51.4539 402.37 50.5284 401.44 50.5284 400.294C50.5284 399.147 51.4539 398.218 52.5955 398.218C53.7371 398.218 54.6626 399.147 54.6626 400.294C54.6626 401.44 53.7371 402.37 52.5955 402.37Z" fill="#40F3EB"/>
<path opacity="0.4" d="M141.708 424.284C137.649 424.284 134.358 420.979 134.358 416.902C134.358 412.826 137.649 409.521 141.708 409.521C145.767 409.521 149.057 412.826 149.057 416.902C149.057 420.979 145.767 424.284 141.708 424.284Z" fill="#40F3EB"/>
<path d="M141.708 420.132C139.932 420.132 138.493 418.686 138.493 416.902C138.493 415.119 139.932 413.673 141.708 413.673C143.484 413.673 144.923 415.119 144.923 416.902C144.923 418.686 143.484 420.132 141.708 420.132Z" fill="#40F3EB"/>
<path opacity="0.4" d="M165.823 358.08C163.032 358.08 160.77 355.807 160.77 353.005C160.77 350.202 163.032 347.93 165.823 347.93C168.614 347.93 170.876 350.202 170.876 353.005C170.876 355.807 168.614 358.08 165.823 358.08Z" fill="#40F3EB"/>
<path d="M165.823 355.081C164.682 355.081 163.756 354.151 163.756 353.005C163.756 351.858 164.682 350.928 165.823 350.928C166.965 350.928 167.89 351.858 167.89 353.005C167.89 354.151 166.965 355.081 165.823 355.081Z" fill="#40F3EB"/>
<path opacity="0.4" d="M237.4 124.033C234.863 124.033 232.806 121.967 232.806 119.419C232.806 116.871 234.863 114.806 237.4 114.806C239.936 114.806 241.993 116.871 241.993 119.419C241.993 121.967 239.936 124.033 237.4 124.033Z" fill="#40F3EB"/>
<path d="M237.4 121.495C236.259 121.495 235.333 120.566 235.333 119.419C235.333 118.273 236.259 117.343 237.4 117.343C238.542 117.343 239.467 118.273 239.467 119.419C239.467 120.566 238.542 121.495 237.4 121.495Z" fill="#40F3EB"/>
<path opacity="0.4" d="M653.563 335.335C651.026 335.335 648.97 333.269 648.97 330.721C648.97 328.173 651.026 326.107 653.563 326.107C656.1 326.107 658.157 328.173 658.157 330.721C658.157 333.269 656.1 335.335 653.563 335.335Z" fill="#40F3EB"/>
<path d="M653.564 332.797C652.422 332.797 651.497 331.868 651.497 330.721C651.497 329.574 652.422 328.645 653.564 328.645C654.705 328.645 655.631 329.574 655.631 330.721C655.631 331.868 654.705 332.797 653.564 332.797Z" fill="#40F3EB"/>
</svg>
