<svg width="39" height="40" viewBox="0 0 39 40" fill="none" xmlns="http://www.w3.org/2000/svg">
<path d="M0.801887 40H8.82076C9.45878 40 10.0707 39.7471 10.5218 39.2971C10.973 38.847 11.2264 38.2365 11.2264 37.6V19.9712C13.9706 19.8821 16.6807 19.3373 19.2453 18.3592V34.8688L16.0377 31.6688V27.0528C16.5728 26.8641 17.0237 26.4927 17.3108 26.0044C17.598 25.5161 17.7028 24.9422 17.6069 24.3842C17.5109 23.8262 17.2203 23.32 16.7864 22.9551C16.3526 22.5902 15.8033 22.3901 15.2358 22.3901C14.6684 22.3901 14.1191 22.5902 13.6853 22.9551C13.2514 23.32 12.9608 23.8262 12.8648 24.3842C12.7689 24.9422 12.8737 25.5161 13.1609 26.0044C13.448 26.4927 13.8989 26.8641 14.434 27.0528V32C14.434 32.2122 14.5185 32.4156 14.6689 32.5656L19.2453 37.1312V39.2C19.2453 39.4122 19.3298 39.6157 19.4802 39.7657C19.6305 39.9157 19.8345 40 20.0472 40C20.2598 40 20.4638 39.9157 20.6142 39.7657C20.7646 39.6157 20.8491 39.4122 20.8491 39.2V29.9312L25.4254 25.3656C25.5758 25.2156 25.6603 25.0122 25.6604 24.8V22.2528C26.1954 22.0641 26.6463 21.6927 26.9335 21.2044C27.2206 20.7161 27.3255 20.1422 27.2295 19.5842C27.1335 19.0262 26.8429 18.52 26.4091 18.1551C25.9752 17.7902 25.426 17.5901 24.8585 17.5901C24.291 17.5901 23.7418 17.7902 23.3079 18.1551C22.874 18.52 22.5834 19.0262 22.4875 19.5842C22.3915 20.1422 22.4964 20.7161 22.7835 21.2044C23.0706 21.6927 23.5216 22.0641 24.0566 22.2528V24.4688L20.8491 27.6688V17.68C25.6345 15.4678 29.596 11.8023 32.1669 7.208C33.1573 8.906 33.6791 10.8354 33.6792 12.8V15.2C33.6779 15.3238 33.7053 15.4462 33.7594 15.5576L35.6487 19.3256C35.724 19.4759 35.75 19.646 35.7229 19.8119C35.6959 19.9778 35.6171 20.1309 35.4979 20.2496L33.9102 21.8344C33.7613 21.985 33.6782 22.1884 33.6792 22.4V28C33.6792 28.2122 33.5948 28.4157 33.4444 28.5657C33.294 28.7157 33.09 28.8 32.8774 28.8H30.4717C29.4087 28.8013 28.3896 29.2231 27.638 29.973C26.8864 30.7228 26.4635 31.7395 26.4623 32.8V37.6C26.4623 38.2365 26.7157 38.847 27.1669 39.2971C27.618 39.7471 28.2299 40 28.8679 40H37.6887C37.9014 40 38.1053 39.9157 38.2557 39.7657C38.4061 39.6157 38.4906 39.4122 38.4906 39.2C38.4906 38.9878 38.4061 38.7843 38.2557 38.6343C38.1053 38.4843 37.9014 38.4 37.6887 38.4H28.8679C28.6553 38.4 28.4513 38.3157 28.3009 38.1657C28.1505 38.0157 28.066 37.8122 28.066 37.6V32.8C28.066 32.1635 28.3195 31.553 28.7706 31.1029C29.2218 30.6529 29.8337 30.4 30.4717 30.4H32.8774C33.5154 30.4 34.1273 30.1471 34.5784 29.6971C35.0296 29.247 35.283 28.6365 35.283 28V22.7312L36.6358 21.3816C36.9931 21.0254 37.229 20.5661 37.3101 20.0687C37.3911 19.5713 37.3132 19.0611 37.0873 18.6104L35.283 15.0112V12.8C35.283 9.40523 33.9313 6.1495 31.5251 3.74903C29.119 1.34857 25.8556 0 22.4528 0C19.0501 0 15.7866 1.34857 13.3805 3.74903C10.9744 6.1495 9.62264 9.40523 9.62264 12.8V37.6C9.62264 37.8122 9.53816 38.0157 9.38777 38.1657C9.23739 38.3157 9.03343 38.4 8.82076 38.4H0.801887C0.589213 38.4 0.38525 38.4843 0.234867 38.6343C0.0844842 38.7843 0 38.9878 0 39.2C0 39.4122 0.0844842 39.6157 0.234867 39.7657C0.38525 39.9157 0.589213 40 0.801887 40ZM15.2358 24C15.3944 24 15.5495 24.0469 15.6814 24.1348C15.8132 24.2227 15.916 24.3477 15.9767 24.4939C16.0374 24.64 16.0533 24.8009 16.0223 24.9561C15.9914 25.1113 15.915 25.2538 15.8029 25.3657C15.6907 25.4776 15.5478 25.5538 15.3923 25.5846C15.2367 25.6155 15.0755 25.5997 14.929 25.5391C14.7825 25.4786 14.6572 25.376 14.5691 25.2445C14.481 25.1129 14.434 24.9582 14.434 24.8C14.434 24.5878 14.5184 24.3843 14.6688 24.2343C14.8192 24.0843 15.0232 24 15.2358 24ZM24.8585 19.2C25.0171 19.2 25.1721 19.2469 25.304 19.3348C25.4359 19.4227 25.5386 19.5477 25.5993 19.6939C25.66 19.84 25.6759 20.0009 25.645 20.1561C25.614 20.3113 25.5377 20.4538 25.4255 20.5657C25.3134 20.6776 25.1705 20.7538 25.0149 20.7846C24.8594 20.8155 24.6981 20.7997 24.5516 20.7391C24.4051 20.6786 24.2799 20.576 24.1917 20.4445C24.1036 20.3129 24.0566 20.1582 24.0566 20C24.0566 19.7878 24.1411 19.5843 24.2915 19.4343C24.4419 19.2843 24.6458 19.2 24.8585 19.2ZM22.4528 1.6C24.1169 1.59985 25.7601 1.96946 27.2631 2.68197C28.7661 3.39448 30.0912 4.43201 31.1421 5.7192C28.8812 10.1169 25.2763 13.6828 20.8491 15.9008V11.0864C21.605 10.8917 22.2637 10.4286 22.7019 9.78399C23.1401 9.13937 23.3275 8.35745 23.2292 7.5848C23.1308 6.81215 22.7533 6.10181 22.1675 5.58694C21.5818 5.07207 20.8279 4.78801 20.0472 4.78801C19.2665 4.78801 18.5126 5.07207 17.9268 5.58694C17.341 6.10181 16.9636 6.81215 16.8652 7.5848C16.7668 8.35745 16.9543 9.13937 17.3924 9.78399C17.8306 10.4286 18.4894 10.8917 19.2453 11.0864V16.632C16.6975 17.6837 13.9819 18.2727 11.2264 18.3712V12.8C11.2296 9.83055 12.4134 6.98363 14.5181 4.88391C16.6227 2.78419 19.4764 1.60318 22.4528 1.6ZM20.0472 9.6C19.73 9.6 19.4199 9.50616 19.1562 9.33035C18.8924 9.15454 18.6869 8.90466 18.5655 8.61229C18.4441 8.31993 18.4123 7.99823 18.4742 7.68786C18.5361 7.37749 18.6888 7.09239 18.9131 6.86863C19.1374 6.64487 19.4232 6.49248 19.7343 6.43074C20.0454 6.36901 20.3679 6.40069 20.6609 6.52179C20.954 6.64289 21.2044 6.84797 21.3807 7.11109C21.5569 7.37421 21.6509 7.68355 21.6509 8C21.6509 8.42435 21.482 8.83131 21.1812 9.13137C20.8804 9.43143 20.4725 9.6 20.0472 9.6Z" fill="#5CFFF7"/>
</svg>
