<svg width="40" height="40" viewBox="0 0 40 40" fill="none" xmlns="http://www.w3.org/2000/svg">
<path d="M37.6 0H2.4C1.76348 0 1.15303 0.252856 0.702944 0.702944C0.252856 1.15303 0 1.76348 0 2.4V37.6C0 38.2365 0.252856 38.847 0.702944 39.2971C1.15303 39.7471 1.76348 40 2.4 40H37.6C38.2365 40 38.847 39.7471 39.2971 39.2971C39.7471 38.847 40 38.2365 40 37.6V2.4C40 1.76348 39.7471 1.15303 39.2971 0.702944C38.847 0.252856 38.2365 0 37.6 0ZM2.4 1.6H37.6C37.8122 1.6 38.0157 1.68429 38.1657 1.83431C38.3157 1.98434 38.4 2.18783 38.4 2.4V8H1.6V2.4C1.6 2.18783 1.68429 1.98434 1.83431 1.83431C1.98434 1.68429 2.18783 1.6 2.4 1.6ZM37.6 38.4H2.4C2.18783 38.4 1.98434 38.3157 1.83431 38.1657C1.68429 38.0157 1.6 37.8122 1.6 37.6V9.6H38.4V37.6C38.4 37.8122 38.3157 38.0157 38.1657 38.1657C38.0157 38.3157 37.8122 38.4 37.6 38.4Z" fill="#5CFFF7"/>
</svg>
