<svg width="40" height="40" viewBox="0 0 40 40" fill="none" xmlns="http://www.w3.org/2000/svg">
<path d="M39.9923 18.2406C39.6508 14.4462 38.2346 10.8277 35.9098 7.80958C33.585 4.79141 30.4479 2.4986 26.8663 1.19997C23.2847 -0.0986511 19.4071 -0.349262 15.6882 0.477527C11.9692 1.30431 8.56307 3.17423 5.86907 5.86803C3.17508 8.56182 1.30491 11.9678 0.477847 15.6867C-0.349215 19.4056 -0.0988902 23.2832 1.19947 26.8649C2.49783 30.4466 4.79041 33.5839 7.80841 35.9089C10.8264 38.234 14.4447 39.6504 18.2391 39.9922C18.5708 40.019 18.9044 39.9767 19.2189 39.868C19.5334 39.7592 19.8218 39.5864 20.0661 39.3604C20.3103 39.1344 20.505 38.8601 20.6377 38.555C20.7705 38.2499 20.8385 37.9205 20.8374 37.5878V28.702C20.8415 28.1436 20.6489 27.6015 20.2934 27.1708C19.9379 26.7402 19.4422 26.4483 18.8931 26.3465C17.7417 26.1376 16.6694 25.6174 15.7925 24.8426C14.9156 24.0677 14.2674 23.0676 13.9183 21.9506C13.5692 20.8337 13.5325 19.6425 13.812 18.5062C14.0916 17.3698 14.6768 16.3317 15.5043 15.5042C16.3318 14.6767 17.3699 14.0915 18.5063 13.8119C19.6426 13.5323 20.8338 13.5691 21.9508 13.9182C23.0677 14.2673 24.0678 14.9154 24.8427 15.7923C25.6176 16.6693 26.1377 17.7415 26.3467 18.893C26.4485 19.4421 26.7403 19.9378 27.171 20.2933C27.6016 20.6488 28.1437 20.8414 28.7021 20.8373H37.5919C37.9242 20.8378 38.253 20.7694 38.5575 20.6365C38.862 20.5036 39.1357 20.309 39.3612 20.065C39.5868 19.821 39.7593 19.5329 39.8679 19.2189C39.9765 18.9049 40.0189 18.5718 39.9923 18.2406ZM18.6102 27.9238C18.7889 27.9598 18.9494 28.0575 19.0635 28.1997C19.1776 28.3419 19.2381 28.5197 19.2345 28.702V37.5918C19.2347 37.7016 19.2124 37.8102 19.1689 37.911C19.1254 38.0118 19.0617 38.1026 18.9817 38.1778C18.9016 38.2529 18.807 38.3108 18.7037 38.3479C18.6004 38.3849 18.4905 38.4004 18.381 38.3933C14.9583 38.0882 11.6894 36.8313 8.94395 34.7648C6.19855 32.6983 4.08627 29.9047 2.8461 26.7001C1.60593 23.4955 1.28738 20.0078 1.92649 16.6315C2.56559 13.2552 4.13684 10.1252 6.46247 7.5956L13.8303 14.9634C12.9469 16.0436 12.361 17.3358 12.1303 18.712C11.8996 20.0882 12.0323 21.5008 12.5152 22.8101C12.998 24.1193 13.8143 25.2797 14.8833 26.1766C15.9523 27.0735 17.237 27.6758 18.6102 27.9238ZM14.9635 13.8301L7.59573 6.46233C10.9882 3.33973 15.4298 1.60522 20.0406 1.6024C24.6514 1.59958 29.0951 3.32866 32.4914 6.44711L25.1084 13.8301C23.6769 12.66 21.8849 12.0207 20.036 12.0207C18.1871 12.0207 16.395 12.66 14.9635 13.8301ZM37.5919 19.2344H28.7021C28.5201 19.2382 28.3426 19.1779 28.2005 19.0641C28.0584 18.9502 27.9608 18.7901 27.9247 18.6116C27.6794 17.275 27.0949 16.0237 26.2272 14.9778L33.6135 7.59159C36.3472 10.5672 38.0278 14.3585 38.3966 18.3824C38.4035 18.4921 38.3878 18.6021 38.3504 18.7054C38.3131 18.8088 38.2548 18.9034 38.1794 18.9833C38.1039 19.0632 38.0128 19.1267 37.9118 19.1699C37.8107 19.2131 37.7018 19.235 37.5919 19.2344Z" fill="#5CFFF7"/>
</svg>
