<svg width="40" height="40" viewBox="0 0 40 40" fill="none" xmlns="http://www.w3.org/2000/svg">
<path d="M26.0559 14.4032L30.8546 9.97539C31.9544 10.8686 33.352 11.3123 34.766 11.2171C36.1801 11.122 37.5055 10.495 38.4755 9.46236C39.4456 8.42976 39.9882 7.06824 39.9942 5.65186C40.0002 4.23548 39.4691 2.86941 38.5079 1.82864C37.5466 0.787873 36.2265 0.149679 34.8134 0.0425269C33.4002 -0.0646248 31.9989 0.367222 30.8916 1.25114C29.7842 2.13505 29.053 3.40541 28.8451 4.80648C28.6372 6.20755 28.9681 7.63531 29.7712 8.80235L24.97 13.231C23.6511 12.0275 22.0084 11.2364 20.2448 10.9552L20.5724 6.37962C21.3438 6.24412 22.0391 5.83196 22.528 5.22047C23.0169 4.60898 23.2658 3.84021 23.2278 3.0584C23.1899 2.27659 22.8678 1.53548 22.322 0.974142C21.7762 0.412804 21.0442 0.0698199 20.2633 0.00954785C19.4825 -0.0507242 18.7064 0.175859 18.0808 0.64678C17.4553 1.1177 17.0231 1.80059 16.8655 2.56731C16.7079 3.33403 16.8357 4.13187 17.2249 4.81113C17.614 5.49039 18.2378 6.00438 18.9792 6.25665L18.6524 10.837C16.6693 10.8671 14.7498 11.5415 13.1841 12.7583L7.93078 7.06795C8.58789 6.18912 8.89264 5.09659 8.78522 4.00476C8.67781 2.91292 8.16599 1.90063 7.35021 1.16654C6.53443 0.432442 5.47359 0.0295542 4.37588 0.0369402C3.27817 0.0443261 2.22285 0.461452 1.41704 1.20646C0.611218 1.95146 0.113082 2.97055 0.0203889 4.06373C-0.0723047 5.15691 0.247137 6.24525 0.916022 7.11515C1.58491 7.98505 2.55494 8.57372 3.63575 8.76561C4.71656 8.9575 5.83011 8.73878 6.75786 8.15235L12.0136 13.8435C10.6561 15.3253 9.8252 17.213 9.64941 19.2143H6.29924C6.10478 18.4616 5.64229 17.8056 4.99848 17.3693C4.35467 16.9329 3.57374 16.7463 2.80207 16.8442C2.03039 16.9422 1.32095 17.3181 0.806731 17.9014C0.29251 18.4847 0.0088105 19.2354 0.0088105 20.0129C0.0088105 20.7903 0.29251 21.541 0.806731 22.1244C1.32095 22.7077 2.03039 23.0836 2.80207 23.1815C3.57374 23.2795 4.35467 23.0928 4.99848 22.6565C5.64229 22.2202 6.10478 21.5641 6.29924 20.8114H9.64941C9.82556 22.8235 10.6637 24.7206 12.0328 26.2062L8.76333 29.7709C7.59336 28.9724 6.16417 28.6464 4.76342 28.8587C3.36267 29.0709 2.09437 29.8056 1.21379 30.9148C0.333223 32.024 -0.0942394 33.4254 0.0174497 34.8369C0.129139 36.2485 0.771687 37.5653 1.81576 38.5224C2.85983 39.4795 4.22791 40.0058 5.64463 39.9954C7.06135 39.9849 8.42151 39.4385 9.45136 38.4661C10.4812 37.4938 11.1043 36.1676 11.1951 34.7546C11.286 33.3416 10.8379 31.9466 9.94104 30.8505L13.2105 27.2867C14.7713 28.4915 16.6805 29.1588 18.6524 29.1887L18.9792 33.7691C18.248 34.0204 17.6336 34.5294 17.2509 35.2009C16.8682 35.8724 16.7436 36.6602 16.9003 37.417C17.057 38.1737 17.4844 38.8473 18.1024 39.3118C18.7203 39.7762 19.4865 39.9996 20.2574 39.9401C21.0283 39.8806 21.7511 39.5423 22.2904 38.9885C22.8297 38.4347 23.1485 37.7035 23.1871 36.9317C23.2257 36.1599 22.9815 35.4005 22.5002 34.7957C22.0189 34.1909 21.3335 33.7822 20.5724 33.6461L20.2456 29.0706C22.0198 28.7873 23.6712 27.9883 24.994 26.7732L27.6746 29.2287C26.6611 30.6361 26.2239 32.3774 26.4525 34.0964C26.6811 35.8154 27.5583 37.3821 28.9045 38.4761C30.2507 39.5701 31.9643 40.1087 33.6947 39.9817C35.4251 39.8548 37.0417 39.0718 38.2136 37.7931C39.3855 36.5143 40.0243 34.8364 39.9993 33.1025C39.9743 31.3686 39.2873 29.7098 38.079 28.4653C36.8707 27.2209 35.2322 26.4848 33.4989 26.4078C31.7655 26.3307 30.0682 26.9185 28.7541 28.0508L26.075 25.5962C27.1442 24.2133 27.7931 22.5524 27.9447 20.8114H31.2613C31.4606 21.8885 32.0554 22.8524 32.9291 23.5138C33.8027 24.1752 34.8922 24.4864 35.9837 24.3864C37.0751 24.2864 38.0898 23.7824 38.8286 22.9733C39.5673 22.1641 39.9769 21.1083 39.9769 20.0129C39.9769 18.9175 39.5673 17.8616 38.8286 17.0525C38.0898 16.2433 37.0751 15.7393 35.9837 15.6393C34.8922 15.5393 33.8027 15.8506 32.9291 16.512C32.0554 17.1734 31.4606 18.1372 31.2613 19.2143H27.9447C27.7919 17.4623 27.136 15.7916 26.0559 14.4032ZM34.3773 1.64675C35.1675 1.64675 35.9399 1.88092 36.5968 2.31963C37.2538 2.75835 37.7658 3.38191 38.0682 4.11147C38.3706 4.84103 38.4497 5.64381 38.2955 6.41831C38.1414 7.19281 37.7609 7.90422 37.2022 8.4626C36.6435 9.02098 35.9317 9.40125 35.1567 9.5553C34.3818 9.70936 33.5785 9.63029 32.8485 9.3281C32.1186 9.02591 31.4946 8.51416 31.0557 7.85757C30.6167 7.20099 30.3824 6.42905 30.3824 5.63939C30.3837 4.58086 30.805 3.56606 31.5539 2.81757C32.3028 2.06908 33.3182 1.64802 34.3773 1.64675ZM18.3975 3.24381C18.3975 2.92794 18.4913 2.61916 18.6669 2.35653C18.8424 2.0939 19.092 1.8892 19.384 1.76832C19.676 1.64744 19.9973 1.61582 20.3073 1.67744C20.6173 1.73906 20.902 1.89117 21.1255 2.11452C21.349 2.33787 21.5011 2.62244 21.5628 2.93224C21.6245 3.24203 21.5928 3.56315 21.4719 3.85497C21.3509 4.14679 21.1461 4.39622 20.8833 4.57171C20.6205 4.74719 20.3116 4.84086 19.9955 4.84086C19.5717 4.84086 19.1653 4.6726 18.8656 4.37309C18.5659 4.07359 18.3975 3.66737 18.3975 3.24381ZM1.61876 4.4416C1.61876 3.88883 1.78277 3.34847 2.09005 2.88886C2.39733 2.42925 2.83408 2.07103 3.34507 1.8595C3.85605 1.64796 4.41833 1.59261 4.96079 1.70045C5.50325 1.80829 6.00153 2.07448 6.39262 2.46534C6.78372 2.85621 7.05006 3.3542 7.15796 3.89635C7.26586 4.4385 7.21048 5.00044 6.99882 5.51114C6.78717 6.02183 6.42874 6.45832 5.96886 6.76542C5.50898 7.07253 4.96831 7.23644 4.41523 7.23644C3.67356 7.23644 2.96227 6.94198 2.43783 6.41785C1.91339 5.89371 1.61876 5.18283 1.61876 4.4416ZM3.21674 21.6099C2.90069 21.6099 2.59174 21.5163 2.32895 21.3408C2.06617 21.1653 1.86135 20.9159 1.7404 20.624C1.61945 20.3322 1.58781 20.0111 1.64947 19.7013C1.71113 19.3915 1.86332 19.1069 2.0868 18.8836C2.31028 18.6602 2.59501 18.5081 2.90499 18.4465C3.21497 18.3849 3.53627 18.4165 3.82826 18.5374C4.12025 18.6583 4.36982 18.863 4.54541 19.1256C4.721 19.3882 4.81472 19.697 4.81472 20.0129C4.81472 20.4364 4.64636 20.8427 4.34668 21.1422C4.047 21.4417 3.64055 21.6099 3.21674 21.6099ZM5.61371 38.379C4.82358 38.379 4.0512 38.1448 3.39424 37.7061C2.73727 37.2674 2.22523 36.6438 1.92286 35.9143C1.62049 35.1847 1.54138 34.3819 1.69552 33.6074C1.84967 32.8329 2.23015 32.1215 2.78886 31.5631C3.34756 31.0048 4.05939 30.6245 4.83434 30.4704C5.60928 30.3164 6.41253 30.3955 7.14251 30.6976C7.87249 30.9998 8.49642 31.5116 8.93539 32.1682C9.37436 32.8248 9.60866 33.5967 9.60866 34.3864C9.60739 35.4449 9.18609 36.4597 8.43717 37.2082C7.68824 37.9567 6.67285 38.3777 5.61371 38.379ZM21.5935 36.7819C21.5935 37.0978 21.4998 37.4066 21.3242 37.6692C21.1486 37.9318 20.899 38.1365 20.607 38.2574C20.3151 38.3783 19.9938 38.4099 19.6838 38.3483C19.3738 38.2867 19.0891 38.1346 18.8656 37.9112C18.6421 37.6879 18.4899 37.4033 18.4283 37.0935C18.3666 36.7837 18.3982 36.4626 18.5192 36.1708C18.6401 35.8789 18.845 35.6295 19.1077 35.454C19.3705 35.2785 19.6795 35.1849 19.9955 35.1849C20.4193 35.1849 20.8258 35.3531 21.1255 35.6526C21.4251 35.9522 21.5935 36.3584 21.5935 36.7819ZM38.3723 33.1886C38.3723 34.2151 38.0677 35.2187 37.497 36.0722C36.9264 36.9258 36.1153 37.591 35.1663 37.9839C34.2173 38.3767 33.1731 38.4795 32.1657 38.2793C31.1582 38.079 30.2329 37.5846 29.5065 36.8588C28.7802 36.1329 28.2856 35.208 28.0852 34.2012C27.8848 33.1943 27.9877 32.1507 28.3808 31.2023C28.7738 30.2539 29.4395 29.4432 30.2935 28.8729C31.1476 28.3026 32.1517 27.9981 33.1789 27.9981C34.5557 27.9998 35.8757 28.5472 36.8493 29.5202C37.8229 30.4933 38.3706 31.8125 38.3723 33.1886ZM18.797 27.5989C17.2958 27.5989 15.8283 27.154 14.58 26.3204C13.3318 25.4868 12.3589 24.3021 11.7844 22.9159C11.2099 21.5297 11.0596 20.0045 11.3525 18.5329C11.6454 17.0614 12.3683 15.7097 13.4298 14.6488C14.4914 13.5878 15.8438 12.8653 17.3162 12.5726C18.7886 12.2799 20.3148 12.4301 21.7018 13.0043C23.0887 13.5785 24.2742 14.5508 25.1082 15.7983C25.9423 17.0458 26.3874 18.5125 26.3874 20.0129C26.3851 22.0241 25.5847 23.9523 24.1617 25.3744C22.7387 26.7966 20.8094 27.5966 18.797 27.5989ZM35.5758 17.218C36.1289 17.218 36.6696 17.3819 37.1295 17.689C37.5893 17.9961 37.9478 18.4326 38.1594 18.9433C38.3711 19.454 38.4265 20.016 38.3186 20.5581C38.2107 21.1003 37.9443 21.5983 37.5532 21.9891C37.1621 22.38 36.6639 22.6462 36.1214 22.754C35.5789 22.8619 35.0167 22.8065 34.5057 22.595C33.9947 22.3834 33.5579 22.0252 33.2507 21.5656C32.9434 21.106 32.7794 20.5656 32.7794 20.0129C32.7794 19.2716 33.074 18.5608 33.5984 18.0366C34.1229 17.5125 34.8342 17.218 35.5758 17.218Z" fill="#5CFFF7"/>
</svg>
